<svg width="460" height="205" viewBox="0 0 460 205" fill="none" xmlns="http://www.w3.org/2000/svg">
<mask id="mask0_94_2016" style="mask-type:alpha" maskUnits="userSpaceOnUse" x="0" y="0" width="460" height="205">
<path d="M10 205C4.47715 205 -1.95703e-07 200.523 -4.37114e-07 195L-8.52372e-06 10C-8.76513e-06 4.47717 4.47714 1.50631e-05 9.99999 1.48217e-05L450 -4.41134e-06C455.523 -4.65275e-06 460 4.47714 460 10L460 195C460 200.523 455.523 205 450 205L10 205Z" fill="#00D085"/>
</mask>
<g mask="url(#mask0_94_2016)">
<path d="M10 205C4.47715 205 -1.95703e-07 200.523 -4.37114e-07 195L-8.52372e-06 10C-8.76513e-06 4.47717 4.47714 1.50631e-05 9.99999 1.48217e-05L450 -4.41134e-06C455.523 -4.65275e-06 460 4.47714 460 10L460 195C460 200.523 455.523 205 450 205L10 205Z" fill="#F3E557"/>
<path d="M52.5 145C57.1944 145 61 141.194 61 136.5C61 131.806 57.1944 128 52.5 128C47.8056 128 44 131.806 44 136.5C44 141.194 47.8056 145 52.5 145Z" stroke="white" stroke-miterlimit="10"/>
<path d="M437.321 54.5084L426.508 49L420.999 59.813L431.812 65.3214L437.321 54.5084Z" fill="#9867FF" stroke="#292223" stroke-miterlimit="10"/>
<path d="M385.393 13.3039L368.303 19.6155L374.614 36.7055L391.704 30.3939L385.393 13.3039Z" fill="#00D085"/>
<path d="M367 19.0117L374.012 38L393 30.9782L385.988 12L367 19.0117ZM374.62 36.703L368.307 19.6196L385.401 13.3071L391.703 30.3905L374.62 36.703Z" fill="#231F20"/>
<path opacity="0.6" d="M114 136.718V136H-26V206H114V205.29V197.315V196.589V188.654V187.928V179.952V179.33V171.355V170.637V162.662V161.944V153.969V153.251V145.275V144.558V136.582V136.718ZM-17.2976 201.143V205.29H-25.2708V197.315H-17.2976V201.143ZM-17.2976 196.629H-25.2708V188.693H-17.2976V196.629ZM-17.2976 187.968H-25.2708V179.992H-17.2976V187.968ZM-17.2976 179.306H-25.2708V171.355H-17.2976V179.306ZM-17.2976 170.645H-25.2708V162.67H-17.2976V170.645ZM-17.2976 161.984H-25.2708V154.008H-17.2976V161.984ZM-17.2976 149.167V153.323H-25.2708V145.347H-17.2976V149.167ZM-17.2976 144.661H-25.2708V136.686H-17.2976V144.661ZM-8.60317 201.143V205.29H-16.5684V197.315H-8.60317V201.143ZM-8.60317 196.629H-16.5684V188.693H-8.60317V196.629ZM-8.60317 187.968H-16.5684V179.992H-8.60317V187.968ZM-8.60317 179.33H-16.5684V171.355H-8.60317V179.33ZM-8.60317 170.669H-16.5684V162.694H-8.60317V170.669ZM-8.60317 162.008H-16.5684V154.032H-8.60317V162.008ZM-8.60317 149.191V153.346H-16.5684V145.371H-8.60317V149.191ZM-8.60317 144.685H-16.5684V136.71H-8.60317V144.685ZM0.0992508 201.167V205.314H-7.91403V197.339H0.0992508V201.167ZM0.0992508 196.653H-7.91403V188.717H0.0992508V196.653ZM0.0992508 187.992H-7.91403V180.016H0.0992508V187.992ZM0.0992508 179.33H-7.91403V171.355H0.0992508V179.33ZM0.0992508 170.669H-7.91403V162.694H0.0992508V170.669ZM0.0992508 162.008H-7.91403V154.032H0.0992508V162.008ZM0.0992508 149.191V153.346H-7.91403V145.371H0.0992508V149.191ZM0.0992508 144.685H-7.91403V136.71H0.0992508V144.685ZM8.80167 201.167V205.314H0.788393V197.339H8.80167V201.167ZM8.80167 196.653H0.788393V188.717H8.80167V196.653ZM8.80167 187.992H0.788393V180.016H8.80167V187.992ZM8.80167 179.33H0.788393V171.355H8.80167V179.33ZM8.80167 170.669H0.788393V162.694H8.80167V170.669ZM8.80167 162.008H0.788393V154.032H8.80167V162.008ZM8.80167 149.191V153.346H0.788393V145.371H8.80167V149.191ZM8.80167 144.685H0.788393V136.71H8.80167V144.685ZM17.5041 201.167V205.314H9.49081V197.339H17.5041V201.167ZM17.5041 196.653H9.49081V188.717H17.5041V196.653ZM17.5041 187.992H9.49081V180.016H17.5041V187.992ZM17.5041 179.33H9.49081V171.355H17.5041V179.33ZM17.5041 170.669H9.49081V162.694H17.5041V170.669ZM17.5041 162.008H9.49081V154.032H17.5041V162.008ZM17.5041 149.191V153.346H9.49081V145.371H17.5041V149.191ZM17.5041 144.685H9.49081V136.71H17.5041V144.685ZM26.2145 201.167V205.314H18.2012V197.339H26.2145V201.167ZM26.2145 196.653H18.2012V188.717H26.2145V196.653ZM26.2145 187.992H18.2012V180.016H26.2145V187.992ZM26.2145 179.33H18.2012V171.355H26.2145V179.33ZM26.2145 170.669H18.2012V162.694H26.2145V170.669ZM26.2145 162.008H18.2012V154.032H26.2145V162.008ZM26.2145 149.191V153.346H18.2012V145.371H26.2145V149.191ZM26.2145 144.685H18.2012V136.71H26.2145V144.685ZM34.9169 201.167V205.314H26.9037V197.339H34.9169V201.167ZM34.9169 196.653H26.9037V188.717H34.9169V196.653ZM34.9169 187.992H26.9037V180.016H34.9169V187.992ZM34.9169 179.33H26.9037V171.355H34.9169V179.33ZM34.9169 170.669H26.9037V162.694H34.9169V170.669ZM34.9169 162.008H26.9037V154.032H34.9169V162.008ZM34.9169 149.191V153.346H26.9037V145.371H34.9169V149.191ZM34.9169 144.685H26.9037V136.71H34.9169V144.685ZM43.6194 201.167V205.314H35.6061V197.339H43.6194V201.167ZM43.6194 196.653H35.6061V188.717H43.6194V196.653ZM43.6194 187.992H35.6061V180.016H43.6194V187.992ZM43.6194 179.33H35.6061V171.355H43.6194V179.33ZM43.6194 170.669H35.6061V162.694H43.6194V170.669ZM43.6194 162.008H35.6061V154.032H43.6194V162.008ZM43.6194 149.191V153.346H35.6061V145.371H43.6194V149.191ZM43.6194 144.685H35.6061V136.71H43.6194V144.685ZM52.2978 201.143V205.29H44.2845V197.315H52.2978V201.143ZM52.2978 196.629H44.2845V188.693H52.2978V196.629ZM52.2978 187.968H44.2845V179.992H52.2978V187.968ZM52.2978 179.33H44.2845V171.355H52.2978V179.33ZM52.2978 170.669H44.2845V162.694H52.2978V170.669ZM52.2978 162.008H44.2845V154.032H52.2978V162.008ZM52.2978 149.191V153.346H44.2845V145.371H52.2978V149.191ZM52.2978 144.685H44.2845V136.71H52.2978V144.685ZM61.0002 201.167V205.314H52.9869V197.339H61.0002V201.167ZM61.0002 196.653H52.9869V188.717H61.0002V196.653ZM61.0002 187.992H52.9869V180.016H61.0002V187.992ZM61.0002 179.33H52.9869V171.355H61.0002V179.33ZM61.0002 170.669H52.9869V162.694H61.0002V170.669ZM61.0002 162.008H52.9869V154.032H61.0002V162.008ZM61.0002 149.191V153.346H52.9869V145.371H61.0002V149.191ZM61.0002 144.685H52.9869V136.71H61.0002V144.685ZM69.7026 201.167V205.314H61.6893V197.339H69.7026V201.167ZM69.7026 196.653H61.6893V188.717H69.7026V196.653ZM69.7026 187.992H61.6893V180.016H69.7026V187.992ZM69.7026 179.33H61.6893V171.355H69.7026V179.33ZM69.7026 170.669H61.6893V162.694H69.7026V170.669ZM69.7026 162.008H61.6893V154.032H69.7026V162.008ZM69.7026 149.191V153.346H61.6893V145.371H69.7026V149.191ZM69.7026 144.685H61.6893V136.71H69.7026V144.685ZM78.405 201.167V205.314H70.3917V197.339H78.405V201.167ZM78.405 196.653H70.3917V188.717H78.405V196.653ZM78.405 187.992H70.3917V180.016H78.405V187.992ZM78.405 179.33H70.3917V171.355H78.405V179.33ZM78.405 170.669H70.3917V162.694H78.405V170.669ZM78.405 162.008H70.3917V154.032H78.405V162.008ZM78.405 149.191V153.346H70.3917V145.371H78.405V149.191ZM78.405 144.685H70.3917V136.71H78.405V144.685ZM87.1074 201.167V205.314H79.0942V197.339H87.1074V201.167ZM87.1074 196.653H79.0942V188.717H87.1074V196.653ZM87.1074 187.992H79.0942V180.016H87.1074V187.992ZM87.1074 179.33H79.0942V171.355H87.1074V179.33ZM87.1074 170.669H79.0942V162.694H87.1074V170.669ZM87.1074 162.008H79.0942V154.032H87.1074V162.008ZM87.1074 149.191V153.346H79.0942V145.371H87.1074V149.191ZM87.1074 144.685H79.0942V136.71H87.1074V144.685ZM95.8099 201.167V205.314H87.7966V197.339H95.8099V201.167ZM95.8099 196.653H87.7966V188.717H95.8099V196.653ZM95.8099 187.992H87.7966V180.016H95.8099V187.992ZM95.8099 179.33H87.7966V171.355H95.8099V179.33ZM95.8099 170.669H87.7966V162.694H95.8099V170.669ZM95.8099 162.008H87.7966V154.032H95.8099V162.008ZM95.8099 149.191V153.346H87.7966V145.371H95.8099V149.191ZM95.8099 144.685H87.7966V136.71H95.8099V144.685ZM104.512 201.167V205.314H96.499V197.339H104.512V201.167ZM104.512 196.653H96.499V188.717H104.512V196.653ZM104.512 187.992H96.499V180.016H104.512V187.992ZM104.512 179.33H96.499V171.355H104.512V179.33ZM104.512 170.669H96.499V162.694H104.512V170.669ZM104.512 162.008H96.499V154.032H104.512V162.008ZM104.512 149.191V153.346H96.499V145.371H104.512V149.191ZM104.512 144.685H96.499V136.71H104.512V144.685ZM113.215 201.167V205.314H105.201V197.339H113.215V201.167ZM113.215 196.653H105.201V188.717H113.215V196.653ZM113.215 187.992H105.201V180.016H113.215V187.992ZM113.215 179.33H105.201V171.355H113.215V179.33ZM113.215 170.669H105.201V162.694H113.215V170.669ZM113.215 162.008H105.201V154.032H113.215V162.008ZM113.215 149.191V153.346H105.201V145.371H113.215V149.191ZM113.215 144.685H105.201V136.71H113.215V144.685Z" fill="white"/>
</g>
<g clip-path="url(#clip0_94_2016)">
<path d="M337.917 153.583H356.835C358.034 153.581 359.184 153.103 360.032 152.255C360.88 151.407 361.358 150.257 361.361 149.057V122.325H461.207C461.34 122.325 461.468 122.272 461.562 122.177C461.657 122.083 461.71 121.955 461.71 121.822C461.71 121.688 461.657 121.561 461.562 121.466C461.468 121.372 461.34 121.319 461.207 121.319H361.361V102.21H379.645C379.618 102.043 379.602 101.875 379.595 101.707C379.601 101.538 379.617 101.37 379.645 101.204H361.361V82.0948H461.207C461.34 82.0948 461.468 82.0418 461.562 81.9475C461.657 81.8532 461.71 81.7253 461.71 81.592C461.71 81.4586 461.657 81.3307 461.562 81.2364C461.468 81.1421 461.34 81.0891 461.207 81.0891H361.361V54.3966C361.358 53.197 360.88 52.0474 360.032 51.1992C359.184 50.351 358.034 49.8733 356.835 49.8707H329.197V14.1667C329.03 14.1934 328.862 14.2102 328.694 14.217C328.525 14.2112 328.357 14.1944 328.191 14.1667V49.8707H308.67V23.7213C308.67 23.5879 308.617 23.46 308.522 23.3657C308.428 23.2714 308.3 23.2184 308.167 23.2184C308.033 23.2184 307.905 23.2714 307.811 23.3657C307.717 23.46 307.664 23.5879 307.664 23.7213V49.8707H288.555V24.2241C288.387 24.2341 288.219 24.2341 288.052 24.2241C287.884 24.2346 287.716 24.2346 287.549 24.2241V49.8707H268.44V23.7213C268.44 23.5879 268.387 23.46 268.292 23.3657C268.198 23.2714 268.07 23.2184 267.937 23.2184C267.803 23.2184 267.675 23.2714 267.581 23.3657C267.487 23.46 267.434 23.5879 267.434 23.7213V49.8707H248.325V-9.94827C248.158 -9.92156 247.99 -9.90477 247.822 -9.89799C247.653 -9.90419 247.485 -9.92099 247.319 -9.94827V49.8707H228.21V13.6638C228.21 13.5304 228.157 13.4025 228.062 13.3082C227.968 13.2139 227.84 13.1609 227.707 13.1609C227.574 13.1609 227.446 13.2139 227.351 13.3082C227.257 13.4025 227.204 13.5304 227.204 13.6638V49.8707H208.095V-9.94827C207.928 -9.92156 207.76 -9.90477 207.592 -9.89799C207.423 -9.90419 207.255 -9.92099 207.089 -9.94827V49.8707H187.98V23.7213C187.98 23.5879 187.927 23.46 187.833 23.3657C187.738 23.2714 187.61 23.2184 187.477 23.2184C187.344 23.2184 187.216 23.2714 187.121 23.3657C187.027 23.46 186.974 23.5879 186.974 23.7213V49.8707H167.865V24.2241C167.697 24.2341 167.53 24.2341 167.362 24.2241C167.195 24.2346 167.027 24.2346 166.859 24.2241V49.8707H147.75V23.7213C147.75 23.5879 147.697 23.46 147.603 23.3657C147.508 23.2714 147.381 23.2184 147.247 23.2184C147.114 23.2184 146.986 23.2714 146.892 23.3657C146.797 23.46 146.744 23.5879 146.744 23.7213V49.8707H127.635V14.1667C127.469 14.1934 127.301 14.2102 127.132 14.217C126.964 14.2107 126.796 14.194 126.629 14.1667V49.8707H98.579C97.3787 49.8707 96.2275 50.3475 95.3788 51.1963C94.53 52.045 94.0532 53.1962 94.0532 54.3966V81.0891H0.502873C0.376189 81.0887 0.25402 81.1361 0.160789 81.2219C0.0675572 81.3076 0.0101341 81.4254 0 81.5517C0 81.6851 0.0529812 81.813 0.147288 81.9073C0.241595 82.0016 0.369503 82.0546 0.502873 82.0546H94.0532V101.164H75.1149C75.1426 101.33 75.1594 101.498 75.1652 101.667C75.1584 101.835 75.1417 102.003 75.1149 102.17H94.0532V121.279H0.502873C0.369503 121.279 0.241595 121.332 0.147288 121.426C0.0529812 121.52 0 121.648 0 121.782C0 121.915 0.0529812 122.043 0.147288 122.137C0.241595 122.232 0.369503 122.284 0.502873 122.284H94.0532V149.017C94.0532 150.218 94.53 151.369 95.3788 152.217C96.2275 153.066 97.3787 153.543 98.579 153.543H126.629V189.247C126.796 189.22 126.964 189.203 127.132 189.197C127.301 189.204 127.469 189.22 127.635 189.247V153.543H146.744V179.642C146.744 179.776 146.797 179.904 146.892 179.998C146.986 180.092 147.114 180.145 147.247 180.145C147.381 180.145 147.508 180.092 147.603 179.998C147.697 179.904 147.75 179.776 147.75 179.642V153.583H166.859V179.23C167.026 179.203 167.194 179.186 167.362 179.18C167.531 179.186 167.698 179.203 167.865 179.23V153.583H186.974V193.763C186.974 193.896 187.027 194.024 187.121 194.119C187.216 194.213 187.344 194.266 187.477 194.266C187.61 194.266 187.738 194.213 187.833 194.119C187.927 194.024 187.98 193.896 187.98 193.763V153.583H207.089V216.402C207.255 216.375 207.423 216.358 207.592 216.352C207.76 216.359 207.928 216.376 208.095 216.402V153.583H227.204V189.74C227.204 189.873 227.257 190.001 227.351 190.096C227.446 190.19 227.574 190.243 227.707 190.243C227.84 190.243 227.968 190.19 228.062 190.096C228.157 190.001 228.21 189.873 228.21 189.74V153.583H247.319V216.402C247.485 216.375 247.653 216.358 247.822 216.352C247.99 216.359 248.158 216.376 248.325 216.402V153.583H267.434V179.682C267.434 179.816 267.487 179.944 267.581 180.038C267.675 180.132 267.803 180.185 267.937 180.185C268.07 180.185 268.198 180.132 268.292 180.038C268.387 179.944 268.44 179.816 268.44 179.682V153.583H287.549V179.23C287.715 179.203 287.883 179.186 288.052 179.18C288.22 179.186 288.388 179.203 288.555 179.23V153.583H307.664V179.682C307.664 179.816 307.717 179.944 307.811 180.038C307.905 180.132 308.033 180.185 308.167 180.185C308.3 180.185 308.428 180.132 308.522 180.038C308.617 179.944 308.67 179.816 308.67 179.682V153.583H327.779V189.287C327.945 189.26 328.113 189.243 328.282 189.237C328.45 189.244 328.618 189.261 328.784 189.287V153.583H337.917Z" fill="#262626"/>
<circle cx="288" cy="20" r="4" fill="white"/>
<circle cx="288" cy="20" r="4" fill="#00D085"/>
<circle cx="328" cy="194" r="4" fill="white"/>
<path d="M75.1155 101.204C74.987 100.054 74.4232 98.9977 73.5398 98.2508C72.6565 97.504 71.5208 97.1237 70.3658 97.188C69.2109 97.2524 68.1244 97.7566 67.3296 98.5969C66.5347 99.4373 66.0918 100.55 66.0918 101.707C66.0918 102.864 66.5347 103.976 67.3296 104.817C68.1244 105.657 69.2109 106.161 70.3658 106.226C71.5208 106.29 72.6565 105.91 73.5398 105.163C74.4232 104.416 74.987 103.359 75.1155 102.21C75.1271 102.029 75.1271 101.848 75.1155 101.667C75.1247 101.513 75.1247 101.358 75.1155 101.204ZM70.6399 105.227C69.9434 105.237 69.2596 105.04 68.675 104.661C68.0905 104.282 67.6315 103.738 67.3563 103.098C67.081 102.458 67.0018 101.751 67.1286 101.066C67.2555 100.381 67.5827 99.7493 68.0689 99.2504C68.5551 98.7515 69.1784 98.4081 69.8599 98.2637C70.5414 98.1192 71.2504 98.1802 71.8972 98.4389C72.544 98.6976 73.0995 99.1424 73.4933 99.717C73.8872 100.292 74.1017 100.97 74.1097 101.667C74.1137 102.132 74.0257 102.593 73.8507 103.025C73.6757 103.456 73.4172 103.848 73.0901 104.179C72.7629 104.51 72.3736 104.773 71.9445 104.953C71.5154 105.132 71.0549 105.226 70.5896 105.227H70.6399Z" fill="#231F20"/>
<path d="M127.634 14.1666C128.784 14.0381 129.841 13.4743 130.587 12.591C131.334 11.7077 131.715 10.5719 131.65 9.41698C131.586 8.26203 131.082 7.17557 130.241 6.38071C129.401 5.58585 128.288 5.14294 127.131 5.14294C125.975 5.14294 124.862 5.58585 124.021 6.38071C123.181 7.17557 122.677 8.26203 122.612 9.41698C122.548 10.5719 122.928 11.7077 123.675 12.591C124.422 13.4743 125.479 14.0381 126.628 14.1666C126.795 14.1939 126.963 14.2107 127.131 14.2169C127.3 14.2101 127.468 14.1934 127.634 14.1666ZM123.611 9.69107C123.611 8.99486 123.818 8.31428 124.204 7.7354C124.591 7.15652 125.141 6.70534 125.784 6.43891C126.427 6.17248 127.135 6.10277 127.818 6.23859C128.501 6.37442 129.128 6.70968 129.62 7.20197C130.113 7.69427 130.448 8.32149 130.584 9.00433C130.72 9.68716 130.65 10.3949 130.383 11.0382C130.117 11.6814 129.666 12.2311 129.087 12.6179C128.508 13.0047 127.828 13.2112 127.131 13.2112C126.665 13.2112 126.203 13.1185 125.773 12.9385C125.342 12.7585 124.952 12.4947 124.624 12.1625C124.297 11.8302 124.039 11.4362 123.865 11.0033C123.691 10.5704 123.605 10.1073 123.611 9.64078V9.69107Z" fill="#231F20"/>
<path d="M329.197 14.1666C330.346 14.0381 331.403 13.4743 332.15 12.591C332.897 11.7077 333.277 10.5719 333.213 9.41698C333.148 8.26203 332.644 7.17557 331.804 6.38071C330.963 5.58585 329.851 5.14294 328.694 5.14294C327.537 5.14294 326.424 5.58585 325.584 6.38071C324.743 7.17557 324.239 8.26203 324.175 9.41698C324.111 10.5719 324.491 11.7077 325.238 12.591C325.985 13.4743 327.041 14.0381 328.191 14.1666C328.357 14.1943 328.525 14.2111 328.694 14.2169C328.862 14.2101 329.03 14.1934 329.197 14.1666ZM325.174 9.69107C325.174 8.99486 325.38 8.31428 325.767 7.7354C326.154 7.15652 326.704 6.70534 327.347 6.43891C327.99 6.17248 328.698 6.10277 329.381 6.23859C330.063 6.37442 330.691 6.70968 331.183 7.20197C331.675 7.69427 332.01 8.32149 332.146 9.00433C332.282 9.68716 332.212 10.3949 331.946 11.0382C331.68 11.6814 331.228 12.2311 330.65 12.6179C330.071 13.0047 329.39 13.2112 328.694 13.2112C328.227 13.2112 327.765 13.1185 327.335 12.9385C326.905 12.7585 326.514 12.4947 326.187 12.1625C325.859 11.8302 325.601 11.4362 325.427 11.0033C325.253 10.5704 325.167 10.1073 325.174 9.64078V9.69107Z" fill="#231F20"/>
<path d="M288.554 24.2241C289.704 24.0956 290.76 23.5318 291.507 22.6485C292.254 21.7652 292.634 20.6294 292.57 19.4745C292.506 18.3195 292.002 17.2331 291.161 16.4382C290.321 15.6433 289.208 15.2004 288.051 15.2004C286.895 15.2004 285.782 15.6433 284.941 16.4382C284.101 17.2331 283.597 18.3195 283.532 19.4745C283.468 20.6294 283.848 21.7652 284.595 22.6485C285.342 23.5318 286.399 24.0956 287.548 24.2241C287.716 24.2346 287.884 24.2346 288.051 24.2241C288.219 24.2341 288.387 24.2341 288.554 24.2241ZM284.531 19.7486C284.531 19.0524 284.738 18.3718 285.124 17.7929C285.511 17.214 286.061 16.7628 286.704 16.4964C287.347 16.23 288.055 16.1603 288.738 16.2961C289.421 16.4319 290.048 16.7672 290.54 17.2595C291.033 17.7518 291.368 18.379 291.504 19.0618C291.64 19.7447 291.57 20.4524 291.303 21.0957C291.037 21.7389 290.586 22.2886 290.007 22.6754C289.428 23.0622 288.747 23.2687 288.051 23.2687C287.585 23.2687 287.123 23.176 286.692 22.996C286.262 22.816 285.872 22.5522 285.544 22.2199C285.217 21.8877 284.958 21.4937 284.785 21.0608C284.611 20.6279 284.524 20.1648 284.531 19.6983V19.7486Z" fill="#231F20"/>
<path d="M167.865 24.2241C169.014 24.0956 170.071 23.5318 170.818 22.6485C171.565 21.7652 171.945 20.6294 171.881 19.4745C171.816 18.3195 171.312 17.2331 170.472 16.4382C169.631 15.6433 168.519 15.2004 167.362 15.2004C166.205 15.2004 165.092 15.6433 164.252 16.4382C163.411 17.2331 162.907 18.3195 162.843 19.4745C162.779 20.6294 163.159 21.7652 163.906 22.6485C164.653 23.5318 165.709 24.0956 166.859 24.2241C167.026 24.2346 167.194 24.2346 167.362 24.2241C167.529 24.2341 167.697 24.2341 167.865 24.2241ZM163.842 19.7486C163.842 19.0524 164.048 18.3718 164.435 17.7929C164.822 17.214 165.371 16.7628 166.015 16.4964C166.658 16.23 167.366 16.1603 168.049 16.2961C168.731 16.4319 169.359 16.7672 169.851 17.2595C170.343 17.7518 170.678 18.379 170.814 19.0618C170.95 19.7447 170.88 20.4524 170.614 21.0957C170.348 21.7389 169.896 22.2886 169.317 22.6754C168.739 23.0622 168.058 23.2687 167.362 23.2687C166.895 23.2687 166.433 23.176 166.003 22.996C165.573 22.816 165.182 22.5522 164.855 22.2199C164.527 21.8877 164.269 21.4937 164.095 21.0608C163.921 20.6279 163.835 20.1648 163.842 19.6983V19.7486Z" fill="#231F20"/>
<path d="M327.779 189.287C326.629 189.416 325.572 189.98 324.825 190.863C324.079 191.746 323.698 192.882 323.763 194.037C323.827 195.192 324.331 196.278 325.172 197.073C326.012 197.868 327.125 198.311 328.281 198.311C329.438 198.311 330.551 197.868 331.391 197.073C332.232 196.278 332.736 195.192 332.8 194.037C332.865 192.882 332.484 191.746 331.738 190.863C330.991 189.98 329.934 189.416 328.784 189.287C328.618 189.261 328.45 189.244 328.281 189.237C328.113 189.243 327.945 189.26 327.779 189.287ZM331.802 193.763C331.802 194.459 331.595 195.14 331.208 195.719C330.822 196.297 330.272 196.749 329.629 197.015C328.985 197.282 328.278 197.351 327.595 197.215C326.912 197.08 326.285 196.744 325.792 196.252C325.3 195.76 324.965 195.132 324.829 194.45C324.693 193.767 324.763 193.059 325.029 192.416C325.296 191.773 325.747 191.223 326.326 190.836C326.905 190.449 327.585 190.243 328.281 190.243C329.215 190.243 330.11 190.614 330.771 191.274C331.431 191.934 331.802 192.829 331.802 193.763Z" fill="#231F20"/>
<circle cx="288" cy="184" r="4" fill="#9867FF"/>
<circle cx="127" cy="194" r="4" fill="#267DFF"/>
<path d="M287.548 179.23C286.399 179.358 285.342 179.922 284.595 180.805C283.848 181.689 283.468 182.825 283.532 183.98C283.597 185.134 284.101 186.221 284.941 187.016C285.782 187.811 286.895 188.254 288.051 188.254C289.208 188.254 290.321 187.811 291.161 187.016C292.002 186.221 292.506 185.134 292.57 183.98C292.634 182.825 292.254 181.689 291.507 180.805C290.76 179.922 289.704 179.358 288.554 179.23C288.388 179.203 288.22 179.186 288.051 179.18C287.883 179.186 287.715 179.203 287.548 179.23ZM291.571 183.705C291.571 184.402 291.365 185.082 290.978 185.661C290.591 186.24 290.042 186.691 289.398 186.958C288.755 187.224 288.047 187.294 287.365 187.158C286.682 187.022 286.054 186.687 285.562 186.195C285.07 185.702 284.735 185.075 284.599 184.392C284.463 183.709 284.533 183.002 284.799 182.358C285.066 181.715 285.517 181.165 286.096 180.779C286.674 180.392 287.355 180.185 288.051 180.185C288.985 180.185 289.88 180.556 290.54 181.216C291.2 181.876 291.571 182.772 291.571 183.705Z" fill="#231F20"/>
<path d="M126.628 189.287C125.479 189.416 124.422 189.98 123.675 190.863C122.928 191.746 122.548 192.882 122.612 194.037C122.677 195.192 123.181 196.278 124.021 197.073C124.862 197.868 125.975 198.311 127.131 198.311C128.288 198.311 129.401 197.868 130.241 197.073C131.082 196.278 131.586 195.192 131.65 194.037C131.715 192.882 131.334 191.746 130.587 190.863C129.841 189.98 128.784 189.416 127.634 189.287C127.468 189.261 127.3 189.244 127.131 189.237C126.963 189.243 126.795 189.26 126.628 189.287ZM130.651 193.763C130.651 194.459 130.445 195.14 130.058 195.719C129.671 196.297 129.122 196.749 128.478 197.015C127.835 197.282 127.127 197.351 126.445 197.215C125.762 197.08 125.135 196.744 124.642 196.252C124.15 195.76 123.815 195.132 123.679 194.45C123.543 193.767 123.613 193.059 123.879 192.416C124.146 191.773 124.597 191.223 125.176 190.836C125.755 190.449 126.435 190.243 127.131 190.243C128.065 190.243 128.96 190.614 129.62 191.274C130.281 191.934 130.651 192.829 130.651 193.763Z" fill="#231F20"/>
<path d="M356.834 50.8262H340.742C341.274 51.2466 341.703 51.7815 341.999 52.3909C342.295 53.0004 342.45 53.6687 342.452 54.3463V149.057C342.45 149.735 342.295 150.403 341.999 151.013C341.703 151.622 341.274 152.157 340.742 152.578H356.834C357.768 152.578 358.663 152.207 359.323 151.547C359.983 150.886 360.354 149.991 360.354 149.057V122.325H352.489C352.356 122.325 352.228 122.272 352.134 122.177C352.039 122.083 351.986 121.955 351.986 121.822C351.986 121.688 352.039 121.561 352.134 121.466C352.228 121.372 352.356 121.319 352.489 121.319H360.354V102.21H352.489C352.356 102.21 352.228 102.157 352.134 102.063C352.039 101.968 351.986 101.84 351.986 101.707C351.986 101.574 352.039 101.446 352.134 101.351C352.228 101.257 352.356 101.204 352.489 101.204H360.354V82.0949H352.489C352.356 82.0949 352.228 82.0419 352.134 81.9476C352.039 81.8533 351.986 81.7253 351.986 81.592C351.986 81.4586 352.039 81.3307 352.134 81.2364C352.228 81.1421 352.356 81.0891 352.489 81.0891H360.354V54.3966C360.361 53.9301 360.275 53.4669 360.101 53.034C359.927 52.6011 359.669 52.2071 359.341 51.8749C359.014 51.5427 358.623 51.2789 358.193 51.0989C357.763 50.9188 357.301 50.8261 356.834 50.8262Z" fill="#2E80F6"/>
<path d="M98.5787 152.578H337.947C338.88 152.578 339.775 152.207 340.436 151.547C341.096 150.886 341.467 149.991 341.467 149.057V54.3965C341.467 53.4629 341.096 52.5676 340.436 51.9074C339.775 51.2473 338.88 50.8764 337.947 50.8764H98.5787C97.6451 50.8764 96.7498 51.2473 96.0896 51.9074C95.4295 52.5676 95.0586 53.4629 95.0586 54.3965V149.108C95.0718 150.033 95.4485 150.915 96.1072 151.564C96.7659 152.214 97.6538 152.578 98.5787 152.578ZM107.299 68.2758C107.301 67.0763 107.779 65.9267 108.627 65.0785C109.475 64.2303 110.625 63.7526 111.824 63.75H324.671C325.87 63.7526 327.02 64.2303 327.868 65.0785C328.716 65.9267 329.194 67.0763 329.197 68.2758V135.128C329.194 136.327 328.716 137.477 327.868 138.325C327.02 139.173 325.87 139.651 324.671 139.654H111.824C110.625 139.651 109.475 139.173 108.627 138.325C107.779 137.477 107.301 136.327 107.299 135.128V68.2758Z" fill="white"/>
<path d="M111.825 139.654H324.671C325.87 139.651 327.02 139.173 327.868 138.325C328.716 137.477 329.194 136.327 329.197 135.128V68.2759C329.194 67.0763 328.716 65.9267 327.868 65.0785C327.02 64.2303 325.87 63.7527 324.671 63.75H111.825C110.625 63.7527 109.476 64.2303 108.627 65.0785C107.779 65.9267 107.301 67.0763 107.299 68.2759V135.128C107.301 136.327 107.779 137.477 108.627 138.325C109.476 139.173 110.625 139.651 111.825 139.654ZM324.671 64.7557C325.604 64.7584 326.498 65.1301 327.157 65.7897C327.817 66.4493 328.188 67.3431 328.191 68.2759V135.128C328.191 136.061 327.82 136.957 327.16 137.617C326.5 138.277 325.605 138.648 324.671 138.648H121.379C120.446 138.648 119.55 138.277 118.89 137.617C118.23 136.957 117.859 136.061 117.859 135.128V68.2759C117.862 67.3431 118.234 66.4493 118.893 65.7897C119.553 65.1301 120.447 64.7584 121.379 64.7557H324.671Z" fill="#262626"/>
<path d="M117.879 68.2759V135.128C117.879 136.061 118.25 136.957 118.91 137.617C119.57 138.277 120.465 138.648 121.399 138.648H324.671C325.604 138.648 326.5 138.277 327.16 137.617C327.82 136.957 328.191 136.061 328.191 135.128V68.2759C328.188 67.3431 327.816 66.4493 327.157 65.7897C326.497 65.1301 325.603 64.7584 324.671 64.7557H121.379C120.45 64.7637 119.561 65.1377 118.906 65.7967C118.25 66.4557 117.882 67.3465 117.879 68.2759Z" fill="#3D353E"/>
<path d="M233.561 111.724C233.048 111.805 232.555 111.875 231.952 111.925C231.321 111.96 230.701 112.107 230.121 112.358C229.927 112.454 229.765 112.606 229.656 112.793C229.546 112.981 229.495 113.197 229.508 113.414C229.505 113.611 229.55 113.805 229.639 113.98C229.729 114.156 229.86 114.306 230.021 114.42C230.496 114.693 231.043 114.816 231.59 114.772C232.097 114.78 232.602 114.695 233.078 114.52C233.497 114.372 233.866 114.111 234.144 113.766C234.413 113.411 234.552 112.974 234.536 112.529V111.443C234.219 111.561 233.893 111.655 233.561 111.724Z" fill="#3D353E"/>
<path d="M267.123 110.92C267.107 110.526 267.011 110.139 266.841 109.783C266.633 109.368 266.312 109.019 265.916 108.777C265.456 108.521 264.934 108.396 264.407 108.415C263.85 108.401 263.299 108.532 262.808 108.797C262.353 109.049 261.98 109.426 261.732 109.884C261.566 110.197 261.457 110.538 261.41 110.889L267.123 110.92Z" fill="#3D353E"/>
<path d="M171.185 108.777C170.779 108.99 170.433 109.302 170.179 109.682C169.934 110.056 169.805 110.493 169.807 110.94V112.217C169.806 112.666 169.935 113.106 170.179 113.484C170.43 113.868 170.777 114.18 171.185 114.389C171.687 114.673 172.269 114.784 172.841 114.706C173.413 114.628 173.944 114.365 174.353 113.957C174.841 113.264 175.103 112.436 175.103 111.588C175.103 110.74 174.841 109.913 174.353 109.22C174.108 108.967 173.814 108.768 173.488 108.634C173.163 108.501 172.813 108.437 172.462 108.445C172.015 108.445 171.575 108.559 171.185 108.777Z" fill="#3D353E"/>
<path d="M274.001 114.741C274.459 114.746 274.911 114.628 275.308 114.399C275.696 114.171 276.021 113.849 276.254 113.464C276.489 113.069 276.611 112.617 276.606 112.157V110.95C276.617 110.513 276.498 110.082 276.264 109.713C276.023 109.338 275.695 109.027 275.308 108.807C274.918 108.589 274.478 108.475 274.031 108.476C273.679 108.465 273.329 108.529 273.003 108.662C272.678 108.795 272.384 108.996 272.14 109.25C271.587 109.908 271.316 110.757 271.386 111.614C271.317 112.473 271.588 113.325 272.14 113.987C272.383 114.233 272.673 114.427 272.993 114.556C273.313 114.686 273.656 114.749 274.001 114.741Z" fill="#3D353E"/>
<path d="M248.827 108.445C248.379 108.442 247.939 108.556 247.55 108.777C247.143 108.989 246.797 109.3 246.544 109.682C246.302 110.057 246.176 110.494 246.182 110.94V112.147V112.217C246.178 112.665 246.303 113.106 246.544 113.484C246.794 113.869 247.141 114.181 247.55 114.389C247.936 114.618 248.378 114.736 248.827 114.731C249.177 114.74 249.525 114.676 249.849 114.543C250.173 114.409 250.465 114.21 250.708 113.957C251.196 113.264 251.458 112.436 251.458 111.588C251.458 110.74 251.196 109.913 250.708 109.22C250.465 108.968 250.172 108.769 249.848 108.636C249.525 108.502 249.177 108.438 248.827 108.445Z" fill="#3D353E"/>
<path d="M177.229 94.0431V94.1135C177.224 94.5636 177.353 95.005 177.601 95.3808C177.839 95.7579 178.167 96.0692 178.557 96.2859C179.06 96.5695 179.641 96.6807 180.213 96.6026C180.785 96.5245 181.316 96.2614 181.725 95.8535C182.213 95.1602 182.475 94.3329 182.475 93.4849C182.475 92.6369 182.213 91.8097 181.725 91.1164C181.479 90.8629 181.183 90.6632 180.855 90.5299C180.528 90.3966 180.177 90.3326 179.824 90.342C179.377 90.3411 178.937 90.4554 178.547 90.6739C178.159 90.8937 177.831 91.2043 177.591 91.579C177.342 91.9506 177.213 92.3891 177.219 92.8362V94.0431H177.229Z" fill="#3D353E"/>
<path d="M287.499 93.6207C286.986 93.7011 286.493 93.7715 285.889 93.8218C285.259 93.857 284.639 94.0034 284.059 94.2543C283.864 94.3507 283.702 94.5022 283.593 94.69C283.484 94.8778 283.433 95.0935 283.445 95.3103C283.443 95.5071 283.488 95.7016 283.577 95.8769C283.667 96.0522 283.797 96.203 283.958 96.3161C284.434 96.5897 284.981 96.7125 285.527 96.6681C286.035 96.6766 286.539 96.5914 287.016 96.4167C287.434 96.2689 287.803 96.0077 288.082 95.6624C288.351 95.3072 288.489 94.8704 288.474 94.4253V93.3391C288.157 93.4576 287.831 93.5518 287.499 93.6207Z" fill="#3D353E"/>
<path d="M188 96.2658C188.479 96.5229 189.015 96.6574 189.559 96.6574C190.103 96.6574 190.638 96.5229 191.118 96.2658C191.549 95.9976 191.897 95.6145 192.124 95.1595C192.391 94.641 192.522 94.0631 192.506 93.4799C192.523 92.9031 192.391 92.3317 192.124 91.8204C191.9 91.369 191.551 90.9918 191.118 90.7342C190.637 90.483 190.102 90.3519 189.559 90.3519C189.016 90.3519 188.481 90.483 188 90.7342C187.548 90.9841 187.181 91.3621 186.944 91.8204C186.677 92.3317 186.545 92.9031 186.562 93.4799C186.545 94.0631 186.677 94.641 186.944 95.1595C187.184 95.6212 187.55 96.0049 188 96.2658Z" fill="#3D353E"/>
<path d="M223.795 94.0833C223.795 94.5328 223.924 94.9728 224.167 95.3506C224.419 95.7341 224.765 96.046 225.173 96.2558C225.676 96.5393 226.258 96.6505 226.83 96.5724C227.402 96.4943 227.933 96.2312 228.341 95.8233C228.829 95.13 229.092 94.3027 229.092 93.4548C229.092 92.6068 228.829 91.7795 228.341 91.0862C228.097 90.8335 227.802 90.6342 227.477 90.5009C227.152 90.3676 226.802 90.3032 226.45 90.3118C226 90.3097 225.556 90.424 225.163 90.6437C224.758 90.8568 224.412 91.168 224.157 91.5489C223.912 91.9223 223.783 92.3595 223.785 92.8061V94.0532L223.795 94.0833Z" fill="#3D353E"/>
<path d="M245.81 96.2658C246.29 96.5229 246.825 96.6574 247.369 96.6574C247.913 96.6574 248.449 96.5229 248.928 96.2658C249.378 96.0049 249.745 95.6212 249.984 95.1595C250.247 94.6392 250.378 94.0626 250.366 93.4799C250.378 92.9036 250.247 92.3334 249.984 91.8204C249.747 91.3621 249.38 90.9841 248.928 90.7342C248.447 90.483 247.912 90.3519 247.369 90.3519C246.826 90.3519 246.292 90.483 245.81 90.7342C245.356 90.984 244.986 91.3617 244.744 91.8204C244.481 92.3334 244.35 92.9036 244.362 93.4799C244.35 94.0626 244.482 94.6392 244.744 95.1595C244.988 95.6219 245.357 96.0056 245.81 96.2658Z" fill="#3D353E"/>
<path d="M214.794 96.2658C215.269 96.5328 215.807 96.6682 216.353 96.658C216.898 96.6707 217.437 96.5351 217.911 96.2658C218.362 96.0025 218.731 95.6196 218.978 95.1595C219.24 94.6392 219.371 94.0625 219.36 93.4799C219.372 92.9036 219.24 92.3334 218.978 91.8204C218.733 91.3638 218.363 90.9868 217.911 90.7342C217.434 90.4729 216.897 90.3412 216.353 90.352C215.809 90.3435 215.272 90.4751 214.794 90.7342C214.361 90.9918 214.012 91.369 213.788 91.8204C213.521 92.3317 213.389 92.9031 213.406 93.4799C213.389 94.063 213.521 94.6409 213.788 95.1595C214.014 95.6145 214.362 95.9976 214.794 96.2658Z" fill="#3D353E"/>
<path d="M160.854 114.369C161.33 114.636 161.868 114.772 162.413 114.761C162.959 114.774 163.497 114.639 163.972 114.369C164.423 114.106 164.792 113.723 165.038 113.263C165.301 112.743 165.432 112.166 165.42 111.583C165.432 111.007 165.301 110.437 165.038 109.924C164.794 109.467 164.424 109.09 163.972 108.838C163.495 108.576 162.957 108.445 162.413 108.455C161.869 108.447 161.332 108.579 160.854 108.838C160.421 109.095 160.072 109.472 159.848 109.924C159.581 110.435 159.449 111.007 159.466 111.583C159.45 112.167 159.581 112.744 159.848 113.263C160.074 113.718 160.423 114.101 160.854 114.369Z" fill="#3D353E"/>
<path d="M194.991 108.838C194.509 108.586 193.975 108.455 193.432 108.455C192.889 108.455 192.354 108.586 191.873 108.838C191.419 109.087 191.048 109.465 190.807 109.924C190.544 110.437 190.413 111.007 190.425 111.583C190.413 112.166 190.544 112.743 190.807 113.263C191.05 113.725 191.42 114.109 191.873 114.369C192.352 114.626 192.888 114.761 193.432 114.761C193.976 114.761 194.511 114.626 194.991 114.369C195.441 114.108 195.807 113.725 196.047 113.263C196.309 112.743 196.44 112.166 196.429 111.583C196.441 111.007 196.31 110.437 196.047 109.924C195.81 109.466 195.442 109.088 194.991 108.838Z" fill="#3D353E"/>
<path d="M159.799 89.2155H158.451V97.7644H159.799V89.2155Z" fill="#8F70F6"/>
<path d="M159.135 87.2543C159.37 87.2587 159.6 87.1844 159.789 87.0431C159.877 86.9745 159.948 86.8857 159.995 86.7843C160.042 86.6828 160.065 86.5716 160.06 86.4598C160.065 86.3494 160.042 86.2396 159.995 86.1398C159.948 86.0399 159.877 85.953 159.789 85.8865C159.601 85.7423 159.371 85.6645 159.135 85.6652C158.898 85.6596 158.666 85.7379 158.481 85.8865C158.391 85.9513 158.317 86.0376 158.268 86.1377C158.219 86.2377 158.195 86.3484 158.2 86.4598C158.195 86.5727 158.218 86.6851 158.267 86.7869C158.316 86.8887 158.39 86.9767 158.481 87.0431C158.668 87.1881 158.899 87.2628 159.135 87.2543Z" fill="#8F70F6"/>
<path d="M163.319 93.0173C163.322 92.709 163.359 92.402 163.43 92.102C163.504 91.801 163.63 91.5151 163.802 91.2572C163.972 90.9977 164.204 90.7836 164.476 90.6336C164.784 90.4669 165.131 90.3837 165.481 90.3923C165.81 90.375 166.137 90.448 166.427 90.6035C166.64 90.7313 166.814 90.9158 166.93 91.1365C167.031 91.3563 167.099 91.5903 167.131 91.8305C167.144 92.0549 167.144 92.2799 167.131 92.5043V97.7644H168.489V92.8966C168.488 92.612 168.522 92.3284 168.589 92.0517C168.66 91.7624 168.779 91.4871 168.941 91.2371C169.12 90.9674 169.366 90.749 169.655 90.6035C169.966 90.4436 170.312 90.364 170.661 90.3721C171.008 90.3512 171.354 90.4205 171.667 90.5733C171.882 90.6939 172.058 90.876 172.17 91.0963C172.282 91.3085 172.35 91.541 172.371 91.7802C172.385 92.0046 172.385 92.2296 172.371 92.454V97.7443H173.739V92.0015C173.753 91.4682 173.647 90.9386 173.427 90.4526C173.223 90.0278 172.893 89.6765 172.481 89.4469C172.007 89.1898 171.472 89.0648 170.933 89.0848C170.324 89.0726 169.727 89.2482 169.223 89.5877C168.809 89.8725 168.465 90.2473 168.217 90.6839V90.5733C168.038 90.1246 167.721 89.7442 167.312 89.4871C166.837 89.1986 166.287 89.0585 165.733 89.0848C165.125 89.0726 164.528 89.2482 164.023 89.5877C163.73 89.8006 163.472 90.0585 163.259 90.352V89.2155H161.891V97.7644H163.259L163.319 93.0173Z" fill="#8F70F6"/>
<path d="M177.219 96.6379C177.505 96.9597 177.846 97.2287 178.225 97.4325C178.787 97.7599 179.426 97.9301 180.076 97.9253C180.754 97.932 181.421 97.7548 182.007 97.4124C182.606 97.0517 183.091 96.5286 183.405 95.9037C183.777 95.1514 183.956 94.3187 183.928 93.4799C183.951 92.6534 183.768 91.8341 183.395 91.0963C183.074 90.4757 182.586 89.9568 181.987 89.5977C181.408 89.2565 180.747 89.0792 180.076 89.0848C179.429 89.0827 178.792 89.2454 178.225 89.5575C177.846 89.7578 177.506 90.0233 177.219 90.342V89.2155H175.852V101.285H177.219V96.6379ZM177.219 92.8362C177.213 92.3891 177.343 91.9506 177.592 91.579C177.832 91.2043 178.16 90.8937 178.547 90.6739C178.937 90.4554 179.377 90.3411 179.824 90.342C180.177 90.3326 180.529 90.3966 180.856 90.5299C181.183 90.6632 181.479 90.8629 181.725 91.1164C182.213 91.8097 182.475 92.637 182.475 93.4849C182.475 94.3329 182.213 95.1602 181.725 95.8535C181.317 96.2614 180.786 96.5245 180.214 96.6026C179.642 96.6807 179.06 96.5695 178.557 96.2859C178.168 96.0692 177.839 95.7579 177.602 95.3808C177.354 95.005 177.224 94.5636 177.229 94.1135V94.0431V92.8362H177.219Z" fill="#8F70F6"/>
<path d="M187.287 97.342C187.985 97.7178 188.766 97.9146 189.56 97.9146C190.353 97.9146 191.134 97.7178 191.833 97.342C192.482 96.9645 193.017 96.419 193.382 95.7629C193.761 95.0627 193.951 94.276 193.935 93.4799C193.952 92.6901 193.762 91.9096 193.382 91.217C193.016 90.5665 192.481 90.0276 191.833 89.658C191.132 89.2881 190.352 89.0948 189.56 89.0948C188.767 89.0948 187.987 89.2881 187.287 89.658C186.639 90.0276 186.103 90.5665 185.738 91.217C185.358 91.9096 185.167 92.6901 185.185 93.4799C185.168 94.276 185.359 95.0627 185.738 95.7629C186.103 96.419 186.638 96.9645 187.287 97.342ZM186.945 91.8204C187.182 91.3621 187.549 90.9841 188.001 90.7342C188.482 90.483 189.017 90.3519 189.56 90.3519C190.103 90.3519 190.637 90.483 191.119 90.7342C191.551 90.9918 191.901 91.369 192.124 91.8204C192.392 92.3317 192.523 92.9031 192.507 93.4799C192.523 94.0631 192.392 94.6409 192.124 95.1595C191.898 95.6145 191.55 95.9976 191.119 96.2658C190.639 96.5229 190.104 96.6574 189.56 96.6574C189.016 96.6574 188.48 96.5229 188.001 96.2658C187.551 96.0049 187.184 95.6212 186.945 95.1595C186.677 94.6409 186.546 94.0631 186.563 93.4799C186.546 92.9031 186.677 92.3317 186.945 91.8204Z" fill="#8F70F6"/>
<path d="M197.001 93.0876C197 92.7764 197.034 92.4661 197.101 92.1623C197.169 91.8547 197.292 91.5617 197.463 91.2974C197.631 91.027 197.867 90.8051 198.147 90.6537C198.49 90.4816 198.87 90.3986 199.253 90.4123C199.492 90.4037 199.729 90.4343 199.958 90.5029C200.071 90.5392 200.179 90.5899 200.279 90.6537L200.631 89.306C200.503 89.2468 200.368 89.2029 200.229 89.1753C199.953 89.1086 199.669 89.0781 199.384 89.0847C198.971 89.0786 198.561 89.1538 198.177 89.306C197.853 89.4452 197.562 89.6508 197.322 89.9095C197.201 90.0425 197.093 90.1873 197.001 90.3419V89.2155H195.633V97.7643H197.001V93.0876Z" fill="#8F70F6"/>
<path d="M203.448 95.0086V95.7428C203.436 96.1133 203.497 96.4826 203.629 96.829C203.723 97.0868 203.886 97.3132 204.102 97.4827C204.306 97.6357 204.538 97.7452 204.786 97.8046C205.039 97.8656 205.299 97.8959 205.56 97.8951C205.741 97.9119 205.923 97.9119 206.103 97.8951C206.233 97.8742 206.361 97.8439 206.486 97.8046V96.6178L206.174 96.6983C206.027 96.7091 205.879 96.7091 205.731 96.6983C205.582 96.7185 205.43 96.6916 205.296 96.6213C205.163 96.551 205.055 96.4408 204.987 96.306C204.864 95.9647 204.809 95.6024 204.826 95.2399V90.4325H207.491V89.2256H204.856V86.3994H203.448V88.3304C203.448 88.5517 203.448 88.7126 203.448 88.8333C203.449 88.9298 203.421 89.0244 203.368 89.1049C203.308 89.1636 203.23 89.1993 203.147 89.2054C203.006 89.2176 202.865 89.2176 202.724 89.2054H201.386V90.4123H203.468L203.448 95.0086Z" fill="#8F70F6"/>
<path d="M214.079 97.342C214.772 97.7321 215.557 97.93 216.352 97.9152C217.148 97.9324 217.933 97.7344 218.625 97.342C219.277 96.9677 219.813 96.4214 220.174 95.7629C220.553 95.0627 220.744 94.276 220.727 93.4799C220.745 92.6901 220.554 91.9096 220.174 91.217C219.813 90.5637 219.276 90.0239 218.625 89.658C217.931 89.2733 217.146 89.079 216.352 89.0948C215.559 89.0818 214.775 89.2759 214.079 89.658C213.434 90.0282 212.902 90.5672 212.541 91.217C212.157 91.9086 211.963 92.6892 211.977 93.4799C211.964 94.2769 212.158 95.0636 212.541 95.7629C212.901 96.4186 213.433 96.9642 214.079 97.342ZM213.737 91.8204C213.961 91.369 214.31 90.9918 214.743 90.7342C215.221 90.4751 215.758 90.3435 216.302 90.352C216.846 90.3412 217.384 90.4729 217.861 90.7342C218.313 90.9868 218.683 91.3638 218.927 91.8204C219.19 92.3334 219.321 92.9036 219.309 93.4799C219.321 94.0626 219.19 94.6392 218.927 95.1595C218.681 95.6196 218.312 96.0026 217.861 96.2658C217.386 96.5351 216.848 96.6707 216.302 96.658C215.757 96.6682 215.219 96.5328 214.743 96.2658C214.312 95.9976 213.963 95.6145 213.737 95.1595C213.47 94.6409 213.339 94.0631 213.355 93.4799C213.338 92.9031 213.47 92.3317 213.737 91.8204Z" fill="white"/>
<path d="M223.794 96.638C224.067 96.95 224.39 97.215 224.749 97.4224C225.311 97.7498 225.95 97.92 226.6 97.9152C227.278 97.922 227.945 97.7447 228.531 97.4023C229.13 97.0416 229.615 96.5186 229.929 95.8937C230.301 95.1414 230.48 94.3086 230.452 93.4698C230.475 92.6433 230.292 91.824 229.919 91.0862C229.598 90.4656 229.11 89.9467 228.511 89.5877C227.932 89.2464 227.271 89.0691 226.6 89.0747C225.953 89.0727 225.316 89.2354 224.749 89.5474C224.39 89.7514 224.067 90.013 223.794 90.3219V85.1825H222.426V97.7644H223.794V96.638ZM224.166 91.6092C224.42 91.2283 224.766 90.9171 225.171 90.704C225.565 90.4844 226.008 90.37 226.459 90.3721C226.81 90.3636 227.16 90.4279 227.485 90.5612C227.811 90.6945 228.105 90.8938 228.35 91.1466C228.838 91.8399 229.1 92.6671 229.1 93.5151C229.1 94.3631 228.838 95.1903 228.35 95.8836C227.941 96.2916 227.41 96.5547 226.838 96.6328C226.266 96.7109 225.684 96.5996 225.182 96.3161C224.774 96.1063 224.427 95.7945 224.176 95.4109C223.932 95.0332 223.803 94.5931 223.804 94.1437V92.8664C223.799 92.4209 223.924 91.9837 224.166 91.6092Z" fill="white"/>
<path d="M235.793 97.7644L238.659 89.2155H237.241L234.898 96.6983L232.484 89.2155H231.076L234.003 97.7644H235.793Z" fill="white"/>
<path d="M240.651 87.2543C240.883 87.2605 241.111 87.1858 241.295 87.0431C241.384 86.975 241.456 86.8866 241.505 86.7852C241.554 86.6838 241.579 86.5723 241.576 86.4598C241.579 86.3486 241.554 86.2386 241.505 86.1388C241.456 86.0391 241.384 85.9525 241.295 85.8865C241.112 85.7402 240.885 85.6619 240.651 85.6652C240.411 85.663 240.178 85.7409 239.987 85.8865C239.899 85.953 239.828 86.0399 239.781 86.1398C239.734 86.2396 239.711 86.3494 239.716 86.4598C239.711 86.5716 239.734 86.6828 239.781 86.7843C239.828 86.8857 239.899 86.9745 239.987 87.0431C240.179 87.1858 240.412 87.2602 240.651 87.2543Z" fill="white"/>
<path d="M241.304 89.2155H239.957V97.7644H241.304V89.2155Z" fill="white"/>
<path d="M245.085 97.3419C245.782 97.7178 246.562 97.9146 247.353 97.9146C248.145 97.9146 248.925 97.7178 249.621 97.3419C250.273 96.9677 250.809 96.4214 251.17 95.7629C251.553 95.0636 251.747 94.2768 251.733 93.4799C251.748 92.6891 251.554 91.9086 251.17 91.2169C250.809 90.5636 250.272 90.0239 249.621 89.658C248.923 89.2881 248.144 89.0948 247.353 89.0948C246.563 89.0948 245.784 89.2881 245.085 89.658C244.435 90.0239 243.898 90.5636 243.537 91.2169C243.153 91.9086 242.959 92.6891 242.973 93.4799C242.96 94.2768 243.154 95.0636 243.537 95.7629C243.898 96.4214 244.434 96.9677 245.085 97.3419ZM244.733 91.8204C244.975 91.3617 245.345 90.984 245.8 90.7342C246.281 90.483 246.816 90.3518 247.358 90.3518C247.901 90.3518 248.436 90.483 248.917 90.7342C249.369 90.9841 249.736 91.362 249.973 91.8204C250.236 92.3334 250.368 92.9036 250.356 93.4799C250.367 94.0625 250.236 94.6392 249.973 95.1595C249.734 95.6211 249.367 96.0049 248.917 96.2658C248.438 96.5228 247.902 96.6574 247.358 96.6574C246.815 96.6574 246.279 96.5228 245.8 96.2658C245.347 96.0055 244.977 95.6218 244.733 95.1595C244.471 94.6392 244.34 94.0625 244.351 93.4799C244.342 92.9027 244.477 92.3325 244.744 91.8204H244.733Z" fill="white"/>
<path d="M254.028 96.7687C254.289 97.1236 254.634 97.4072 255.034 97.5934C255.508 97.827 256.034 97.9377 256.562 97.9152C257.071 97.9222 257.574 97.8085 258.031 97.5833C258.459 97.367 258.839 97.0659 259.147 96.6983C259.206 96.6253 259.26 96.548 259.308 96.467V97.7644H260.676V89.2155H259.308V93.7514C259.3 94.2211 259.191 94.6836 258.988 95.1072C258.785 95.5308 258.493 95.9054 258.131 96.2055C257.768 96.4748 257.332 96.6284 256.88 96.6463C256.428 96.6643 255.981 96.5457 255.597 96.306C255.295 96.0833 255.073 95.7695 254.963 95.4109C254.84 95.0206 254.779 94.6133 254.782 94.204V89.1753H253.404V94.4957C253.407 94.8793 253.458 95.2612 253.555 95.6322C253.642 96.0367 253.802 96.4219 254.028 96.7687Z" fill="white"/>
<path d="M263.382 97.2715C263.734 97.4957 264.122 97.6589 264.528 97.7543C264.995 97.871 265.475 97.9285 265.956 97.9253C266.424 97.9299 266.89 97.8758 267.344 97.7644C267.757 97.6729 268.151 97.5131 268.511 97.2917C268.831 97.1005 269.1 96.8348 269.296 96.5172C269.492 96.1863 269.59 95.8058 269.577 95.421C269.585 95.0679 269.495 94.7197 269.316 94.4152C269.142 94.1204 268.896 93.8746 268.602 93.7012C268.287 93.5046 267.949 93.3491 267.596 93.2385C267.179 93.1144 266.756 93.0137 266.329 92.9368C265.891 92.8604 265.458 92.7596 265.031 92.6351C264.718 92.5557 264.426 92.408 264.176 92.2026C264.077 92.1173 263.998 92.0106 263.945 91.8904C263.893 91.7701 263.869 91.6396 263.875 91.5086C263.871 91.3773 263.898 91.247 263.954 91.1282C264.01 91.0093 264.093 90.9054 264.196 90.8247C264.439 90.6502 264.717 90.5301 265.011 90.4727C265.341 90.3954 265.678 90.3582 266.017 90.3621C266.358 90.3602 266.697 90.4111 267.023 90.5129C267.314 90.5923 267.581 90.7446 267.797 90.9555C267.993 91.165 268.097 91.4434 268.089 91.7299V91.8506H269.456V91.6092C269.475 91.1011 269.307 90.6039 268.984 90.2112C268.643 89.8185 268.206 89.5206 267.716 89.3463C267.167 89.1411 266.584 89.0388 265.997 89.0445C265.397 89.0382 264.802 89.1369 264.237 89.3362C263.755 89.4955 263.325 89.7802 262.989 90.1609C262.681 90.5334 262.516 91.0047 262.527 91.4885C262.519 91.8415 262.61 92.1896 262.788 92.4943C262.968 92.7844 263.212 93.0288 263.502 93.2083C263.816 93.4083 264.154 93.5672 264.508 93.681C264.913 93.8076 265.326 93.905 265.745 93.9727C266.383 94.0601 267.008 94.2256 267.606 94.4655C267.803 94.5457 267.969 94.6863 268.081 94.867C268.193 95.0477 268.245 95.2592 268.229 95.4713C268.232 95.5979 268.207 95.7236 268.157 95.8399C268.106 95.9561 268.032 96.0602 267.938 96.1451C267.702 96.3346 267.427 96.4687 267.133 96.5374C266.757 96.6257 266.373 96.6696 265.987 96.6681C265.417 96.6939 264.85 96.5763 264.337 96.3262C264.152 96.2329 263.996 96.0888 263.89 95.9108C263.783 95.7327 263.729 95.528 263.734 95.3204V95.1394H262.356V95.3908C262.349 95.7641 262.442 96.1325 262.627 96.4569C262.81 96.7852 263.068 97.0646 263.382 97.2715Z" fill="white"/>
<path d="M272.725 85.1825H271.377V97.7543H272.725V85.1825Z" fill="white"/>
<path d="M274.966 101.365C275.542 101.395 276.114 101.258 276.615 100.973C277.026 100.722 277.371 100.378 277.621 99.9669C277.88 99.5119 278.095 99.0338 278.265 98.5388L281.393 89.2557H279.985L277.762 96.296L275.499 89.2557H274.051L276.998 97.8549L276.736 98.6092C276.642 98.9002 276.51 99.1775 276.344 99.4339C276.191 99.6663 275.988 99.8621 275.75 100.007C275.486 100.164 275.182 100.241 274.875 100.228C274.718 100.243 274.56 100.243 274.403 100.228C274.282 100.223 274.162 100.196 274.051 100.148V101.345C274.159 101.379 274.27 101.402 274.383 101.415C274.578 101.409 274.773 101.393 274.966 101.365Z" fill="white"/>
<path d="M288.474 91.8405C288.474 92.0685 288.253 92.2395 287.81 92.3534C287.069 92.4994 286.32 92.6035 285.567 92.6652C284.937 92.7184 284.317 92.8606 283.727 93.0876C283.249 93.2636 282.829 93.566 282.51 93.9626C282.206 94.364 282.05 94.8577 282.067 95.3606C282.057 95.8503 282.198 96.3312 282.47 96.7385C282.756 97.1343 283.151 97.4384 283.606 97.6135C284.145 97.834 284.724 97.9402 285.306 97.9253C285.822 97.9332 286.337 97.8689 286.835 97.7342C287.247 97.6309 287.638 97.4574 287.991 97.2213C288.189 97.0834 288.365 96.9174 288.514 96.7284C288.519 96.7584 288.519 96.789 288.514 96.819C288.528 96.9562 288.559 97.0913 288.605 97.2213C288.648 97.3416 288.698 97.4592 288.756 97.5733C288.786 97.6425 288.827 97.7068 288.876 97.7644H290.254C290.196 97.6998 290.146 97.629 290.103 97.5532C290.033 97.4335 289.979 97.305 289.942 97.171C289.907 97.0149 289.881 96.8571 289.862 96.6983C289.862 96.5273 289.862 96.3463 289.862 96.1552V91.8908C289.883 91.336 289.708 90.7915 289.369 90.352C289.019 89.9196 288.556 89.5924 288.032 89.4066C287.426 89.1857 286.785 89.0766 286.141 89.0848C285.453 89.0722 284.769 89.1953 284.129 89.4468C283.586 89.6442 283.112 89.9933 282.761 90.4526C282.429 90.9294 282.26 91.5009 282.279 92.0819H283.626C283.605 91.8183 283.656 91.5539 283.773 91.3167C283.89 91.0795 284.068 90.8782 284.29 90.7342C284.857 90.4291 285.498 90.2864 286.141 90.3218C286.744 90.2852 287.345 90.4139 287.881 90.694C288.073 90.8049 288.232 90.9669 288.338 91.1621C288.445 91.3573 288.495 91.5782 288.484 91.8003L288.474 91.8405ZM288.082 95.6825C287.803 96.0279 287.434 96.289 287.016 96.4368C286.539 96.6115 286.035 96.6967 285.527 96.6882C284.981 96.7326 284.433 96.6098 283.958 96.3362C283.797 96.2231 283.666 96.0723 283.577 95.897C283.488 95.7217 283.442 95.5272 283.445 95.3304C283.433 95.1136 283.484 94.8979 283.593 94.7101C283.702 94.5223 283.864 94.3708 284.059 94.2744C284.639 94.0235 285.258 93.8771 285.889 93.8419C286.453 93.8419 286.986 93.7213 287.498 93.6408C287.839 93.5898 288.175 93.5125 288.504 93.4095V94.4957C288.499 94.9272 288.351 95.3448 288.082 95.6825Z" fill="white"/>
<path d="M292.547 87.2543C292.783 87.2628 293.014 87.188 293.201 87.0431C293.289 86.9744 293.36 86.8857 293.407 86.7843C293.454 86.6828 293.476 86.5716 293.472 86.4598C293.477 86.3494 293.454 86.2396 293.407 86.1397C293.36 86.0399 293.289 85.953 293.201 85.8865C293.013 85.7429 292.783 85.6652 292.547 85.6652C292.311 85.6652 292.081 85.7429 291.893 85.8865C291.804 85.9525 291.731 86.039 291.682 86.1388C291.633 86.2386 291.609 86.3486 291.611 86.4598C291.609 86.5723 291.633 86.6838 291.682 86.7852C291.731 86.8866 291.804 86.9749 291.893 87.0431C292.079 87.188 292.311 87.2628 292.547 87.2543Z" fill="white"/>
<path d="M293.211 89.2155H291.864V97.7644H293.211V89.2155Z" fill="white"/>
<path d="M160.14 115.445C160.833 115.836 161.618 116.033 162.413 116.019C163.208 116.036 163.994 115.838 164.686 115.445C165.337 115.071 165.873 114.525 166.235 113.866C166.614 113.166 166.804 112.379 166.788 111.583C166.806 110.794 166.615 110.013 166.235 109.32C165.873 108.667 165.337 108.127 164.686 107.762C163.991 107.377 163.207 107.182 162.413 107.198C161.619 107.185 160.836 107.379 160.14 107.762C159.495 108.132 158.963 108.671 158.601 109.32C158.218 110.012 158.023 110.793 158.038 111.583C158.024 112.38 158.219 113.167 158.601 113.866C158.962 114.522 159.494 115.068 160.14 115.445ZM159.798 109.924C160.022 109.472 160.371 109.095 160.804 108.838C161.282 108.579 161.819 108.447 162.363 108.455C162.907 108.445 163.444 108.576 163.921 108.838C164.373 109.09 164.743 109.467 164.988 109.924C165.25 110.437 165.382 111.007 165.37 111.583C165.381 112.166 165.25 112.743 164.988 113.263C164.741 113.723 164.372 114.106 163.921 114.369C163.447 114.639 162.908 114.774 162.363 114.762C161.817 114.772 161.279 114.636 160.804 114.369C160.372 114.101 160.024 113.718 159.798 113.263C159.531 112.744 159.399 112.167 159.416 111.583C159.399 111.007 159.531 110.435 159.798 109.924Z" fill="white"/>
<path d="M170.811 107.701C170.434 107.9 170.094 108.162 169.805 108.476V103.326H168.438V115.908H169.805V114.741C170.094 115.058 170.434 115.323 170.811 115.526C171.373 115.853 172.012 116.024 172.662 116.019C173.34 116.025 174.007 115.848 174.593 115.506C175.192 115.145 175.677 114.622 175.991 113.997C176.363 113.245 176.542 112.412 176.514 111.573C176.542 110.746 176.358 109.926 175.981 109.19C175.66 108.569 175.172 108.05 174.573 107.691C173.994 107.35 173.333 107.173 172.662 107.178C172.01 107.191 171.373 107.372 170.811 107.701ZM175.106 111.624C175.174 112.483 174.903 113.335 174.351 113.997C173.943 114.405 173.412 114.668 172.84 114.746C172.268 114.824 171.686 114.713 171.183 114.43C170.775 114.22 170.429 113.908 170.177 113.524C169.934 113.147 169.805 112.707 169.805 112.257V110.98C169.803 110.533 169.933 110.096 170.177 109.723C170.432 109.342 170.778 109.031 171.183 108.818C171.577 108.598 172.02 108.484 172.471 108.486C172.822 108.477 173.172 108.541 173.497 108.675C173.823 108.808 174.117 109.007 174.361 109.26C174.897 109.911 175.164 110.742 175.106 111.583V111.624Z" fill="white"/>
<path d="M180.961 114.802L178.547 107.319H177.139L180.065 115.868H181.856L184.722 107.319H183.304L180.961 114.802Z" fill="white"/>
<path d="M186.752 103.769C186.513 103.766 186.279 103.844 186.088 103.99C186 104.056 185.93 104.143 185.882 104.243C185.835 104.343 185.813 104.453 185.817 104.563C185.813 104.675 185.835 104.786 185.882 104.888C185.929 104.989 186 105.078 186.088 105.147C186.28 105.289 186.514 105.364 186.752 105.358C186.985 105.364 187.212 105.289 187.396 105.147C187.486 105.078 187.558 104.99 187.607 104.889C187.656 104.787 187.68 104.676 187.678 104.563C187.68 104.452 187.656 104.342 187.607 104.242C187.558 104.142 187.485 104.056 187.396 103.99C187.214 103.844 186.986 103.765 186.752 103.769Z" fill="white"/>
<path d="M187.367 107.319H186.02V115.868H187.367V107.319Z" fill="white"/>
<path d="M195.704 107.762C195.008 107.379 194.224 107.185 193.431 107.198C192.637 107.182 191.853 107.377 191.158 107.762C190.507 108.127 189.971 108.667 189.609 109.32C189.225 110.012 189.031 110.793 189.046 111.583C189.032 112.38 189.226 113.167 189.609 113.866C189.971 114.525 190.506 115.071 191.158 115.445C191.85 115.838 192.635 116.036 193.431 116.019C194.226 116.033 195.011 115.836 195.704 115.445C196.35 115.068 196.882 114.522 197.243 113.866C197.625 113.167 197.819 112.38 197.806 111.583C197.82 110.793 197.626 110.012 197.243 109.32C196.881 108.671 196.349 108.132 195.704 107.762ZM196.046 113.263C195.806 113.725 195.44 114.108 194.99 114.369C194.51 114.626 193.975 114.761 193.431 114.761C192.887 114.761 192.351 114.626 191.872 114.369C191.419 114.109 191.049 113.725 190.806 113.263C190.543 112.743 190.412 112.166 190.424 111.583C190.412 111.007 190.543 110.437 190.806 109.924C191.047 109.465 191.418 109.087 191.872 108.838C192.353 108.586 192.888 108.455 193.431 108.455C193.974 108.455 194.508 108.586 194.99 108.838C195.441 109.088 195.809 109.466 196.046 109.924C196.309 110.437 196.44 111.007 196.428 111.583C196.439 112.166 196.308 112.743 196.046 113.263Z" fill="white"/>
<path d="M200.833 111.171V107.319H199.455V112.639C199.458 113.023 199.508 113.405 199.606 113.776C199.707 114.168 199.877 114.54 200.109 114.872C200.37 115.227 200.715 115.511 201.115 115.697C201.589 115.93 202.115 116.041 202.643 116.019C203.152 116.026 203.655 115.912 204.112 115.687C204.54 115.47 204.92 115.169 205.228 114.802C205.287 114.729 205.341 114.651 205.389 114.57V115.868H206.757V107.319H205.389V111.855C205.381 112.325 205.272 112.787 205.069 113.211C204.866 113.634 204.574 114.009 204.212 114.309C203.849 114.578 203.413 114.732 202.961 114.75C202.508 114.768 202.061 114.649 201.678 114.409C201.376 114.187 201.154 113.873 201.044 113.514C200.921 113.124 200.86 112.717 200.863 112.307V111.171H200.833Z" fill="white"/>
<path d="M209.442 115.375C209.795 115.599 210.182 115.762 210.589 115.858C211.056 115.974 211.536 116.032 212.017 116.029C212.485 116.033 212.951 115.979 213.405 115.868C213.817 115.776 214.212 115.617 214.572 115.395C214.892 115.204 215.161 114.938 215.356 114.621C215.553 114.29 215.651 113.909 215.638 113.524C215.646 113.171 215.555 112.823 215.376 112.519C215.203 112.224 214.957 111.978 214.662 111.805C214.348 111.608 214.01 111.453 213.656 111.342C213.24 111.217 212.817 111.116 212.389 111.04C211.951 110.964 211.518 110.863 211.092 110.739C210.778 110.659 210.486 110.511 210.237 110.306C210.137 110.221 210.058 110.114 210.006 109.994C209.954 109.874 209.93 109.743 209.935 109.612C209.931 109.481 209.958 109.35 210.014 109.232C210.07 109.113 210.153 109.009 210.257 108.928C210.5 108.754 210.778 108.634 211.072 108.576C211.401 108.499 211.739 108.462 212.077 108.466C212.418 108.464 212.758 108.515 213.083 108.616C213.375 108.696 213.641 108.848 213.857 109.059C214.053 109.268 214.158 109.547 214.149 109.833V109.954H215.517V109.713C215.535 109.205 215.367 108.707 215.044 108.315C214.703 107.922 214.267 107.624 213.777 107.45C213.227 107.245 212.644 107.142 212.057 107.148C211.458 107.142 210.863 107.241 210.297 107.44C209.817 107.602 209.387 107.886 209.05 108.264C208.741 108.637 208.577 109.108 208.587 109.592C208.58 109.945 208.67 110.293 208.849 110.598C209.028 110.888 209.273 111.132 209.563 111.312C209.877 111.512 210.215 111.671 210.569 111.784C210.974 111.911 211.387 112.009 211.806 112.076C212.444 112.164 213.069 112.329 213.666 112.569C213.863 112.649 214.03 112.79 214.142 112.97C214.254 113.151 214.306 113.363 214.29 113.575C214.292 113.701 214.268 113.827 214.217 113.943C214.167 114.06 214.092 114.164 213.998 114.249C213.763 114.438 213.488 114.572 213.194 114.641C212.818 114.729 212.433 114.773 212.047 114.772C211.477 114.797 210.91 114.68 210.398 114.43C210.212 114.336 210.057 114.192 209.95 114.014C209.843 113.836 209.789 113.631 209.794 113.424V113.243H208.416V113.494C208.409 113.868 208.503 114.236 208.688 114.56C208.87 114.889 209.129 115.168 209.442 115.375Z" fill="white"/>
<path d="M218.785 103.286H217.438V115.858H218.785V103.286Z" fill="white"/>
<path d="M223.06 115.918L222.799 116.672C222.705 116.963 222.573 117.241 222.407 117.497C222.253 117.73 222.051 117.925 221.813 118.07C221.549 118.227 221.245 118.304 220.938 118.292C220.781 118.306 220.623 118.306 220.466 118.292C220.344 118.286 220.225 118.259 220.114 118.211V119.408C220.222 119.442 220.333 119.466 220.445 119.478C220.64 119.489 220.834 119.489 221.029 119.478C221.605 119.508 222.177 119.372 222.678 119.086C223.089 118.836 223.434 118.491 223.684 118.08C223.942 117.625 224.158 117.147 224.328 116.652L227.455 107.369H226.047L223.825 114.409L221.562 107.369H220.124L223.06 115.918Z" fill="white"/>
<path d="M236.034 115.274C235.999 115.118 235.972 114.961 235.954 114.802C235.954 114.631 235.954 114.45 235.954 114.259V109.994C235.974 109.439 235.8 108.895 235.461 108.455C235.111 108.023 234.648 107.696 234.123 107.51C233.518 107.289 232.877 107.18 232.232 107.188C231.545 107.176 230.861 107.299 230.221 107.55C229.678 107.748 229.203 108.097 228.853 108.556C228.521 109.033 228.351 109.604 228.37 110.185H229.718C229.697 109.922 229.748 109.657 229.865 109.42C229.981 109.183 230.16 108.982 230.382 108.838C230.949 108.533 231.589 108.39 232.232 108.425C232.836 108.389 233.437 108.517 233.972 108.797C234.165 108.908 234.324 109.07 234.43 109.266C234.537 109.461 234.587 109.682 234.576 109.904C234.576 110.132 234.355 110.303 233.912 110.417C233.171 110.563 232.422 110.667 231.669 110.728C231.039 110.782 230.419 110.924 229.829 111.151C229.351 111.327 228.931 111.629 228.612 112.026C228.308 112.427 228.152 112.921 228.169 113.424C228.159 113.914 228.3 114.394 228.572 114.802C228.859 115.196 229.254 115.499 229.708 115.677C230.247 115.897 230.826 116.003 231.408 115.989C231.924 115.996 232.438 115.932 232.937 115.797C233.349 115.694 233.74 115.521 234.093 115.285C234.291 115.147 234.467 114.981 234.616 114.792C234.621 114.822 234.621 114.852 234.616 114.882C234.63 115.019 234.66 115.155 234.707 115.285C234.75 115.405 234.8 115.522 234.857 115.637C234.888 115.706 234.929 115.77 234.978 115.828H236.356C236.298 115.763 236.247 115.692 236.205 115.616C236.134 115.51 236.077 115.395 236.034 115.274ZM234.164 113.786C233.885 114.131 233.516 114.393 233.097 114.54C232.621 114.715 232.116 114.8 231.609 114.792C231.062 114.836 230.515 114.713 230.04 114.44C229.879 114.327 229.748 114.176 229.659 114C229.569 113.825 229.524 113.631 229.527 113.434C229.514 113.217 229.566 113.001 229.675 112.814C229.784 112.626 229.946 112.474 230.141 112.378C230.72 112.127 231.34 111.981 231.971 111.945C232.534 111.945 233.067 111.825 233.58 111.744C233.921 111.693 234.257 111.616 234.586 111.513V112.599C234.575 113.033 234.419 113.451 234.143 113.786H234.164Z" fill="white"/>
<path d="M237.955 103.99C237.866 104.056 237.794 104.142 237.745 104.242C237.696 104.342 237.671 104.452 237.674 104.563C237.671 104.676 237.696 104.787 237.745 104.889C237.794 104.99 237.866 105.078 237.955 105.147C238.146 105.284 238.374 105.358 238.609 105.358C238.844 105.358 239.073 105.284 239.263 105.147C239.351 105.078 239.422 104.989 239.469 104.888C239.516 104.786 239.539 104.675 239.534 104.563C239.539 104.453 239.516 104.343 239.469 104.243C239.422 104.143 239.351 104.056 239.263 103.99C239.075 103.846 238.845 103.769 238.609 103.769C238.373 103.769 238.143 103.846 237.955 103.99Z" fill="white"/>
<path d="M239.273 107.319H237.926V115.868H239.273V107.319Z" fill="white"/>
<path d="M241.165 115.144C241.17 115.355 241.248 115.557 241.386 115.718C241.523 115.878 241.712 115.985 241.92 116.022C242.128 116.059 242.342 116.022 242.527 115.919C242.711 115.816 242.854 115.653 242.931 115.456C243.008 115.26 243.016 115.043 242.951 114.841C242.887 114.64 242.755 114.468 242.578 114.353C242.4 114.238 242.189 114.188 241.979 114.211C241.769 114.234 241.574 114.329 241.426 114.48C241.339 114.567 241.271 114.67 241.226 114.785C241.181 114.899 241.16 115.021 241.165 115.144Z" fill="white"/>
<path d="M250.93 107.701C250.352 107.36 249.691 107.183 249.02 107.188C248.373 107.186 247.736 107.349 247.169 107.661C246.808 107.865 246.484 108.131 246.214 108.445V107.319H244.846V119.388H246.214V114.741C246.56 115.147 246.99 115.472 247.475 115.694C247.959 115.917 248.486 116.031 249.02 116.029C249.698 116.035 250.365 115.858 250.951 115.516C251.55 115.155 252.034 114.632 252.349 114.007C252.72 113.255 252.9 112.422 252.872 111.583C252.9 110.756 252.716 109.936 252.339 109.2C252.021 108.577 251.532 108.057 250.93 107.701ZM250.709 113.957C250.467 114.21 250.175 114.409 249.851 114.543C249.527 114.676 249.179 114.74 248.828 114.731C248.379 114.736 247.938 114.618 247.551 114.389C247.142 114.182 246.795 113.869 246.545 113.484C246.305 113.106 246.179 112.665 246.183 112.217V112.147V110.94C246.178 110.494 246.304 110.057 246.545 109.682C246.798 109.3 247.144 108.989 247.551 108.777C248.056 108.498 248.638 108.391 249.209 108.47C249.78 108.55 250.31 108.813 250.719 109.22C251.208 109.913 251.47 110.74 251.47 111.588C251.47 112.436 251.208 113.264 250.719 113.957H250.709Z" fill="#75B1E8"/>
<path d="M258.353 107.188C257.94 107.182 257.53 107.257 257.146 107.409C256.822 107.549 256.531 107.754 256.291 108.013C256.17 108.146 256.062 108.291 255.969 108.445V107.319H254.602V115.868H255.969V111.191C255.969 110.88 256.002 110.57 256.07 110.266C256.138 109.958 256.261 109.665 256.432 109.401C256.601 109.128 256.841 108.906 257.126 108.757C257.465 108.585 257.842 108.502 258.222 108.516C258.46 108.507 258.698 108.538 258.926 108.606C259.04 108.643 259.148 108.693 259.248 108.757L259.6 107.409C259.472 107.35 259.337 107.306 259.198 107.279C258.921 107.212 258.637 107.182 258.353 107.188Z" fill="#75B1E8"/>
<path d="M260.012 111.614C259.997 112.414 260.191 113.204 260.575 113.907C260.932 114.562 261.465 115.106 262.114 115.476C262.808 115.86 263.592 116.055 264.387 116.039C264.969 116.045 265.55 115.96 266.106 115.787C266.56 115.638 266.985 115.414 267.364 115.124C267.687 114.868 267.96 114.554 268.168 114.198C268.343 113.889 268.453 113.546 268.49 113.193H267.122C267.09 113.391 267.022 113.582 266.921 113.756C266.788 113.958 266.618 114.132 266.418 114.269C266.168 114.443 265.889 114.573 265.593 114.651C265.212 114.749 264.82 114.796 264.427 114.792C263.852 114.806 263.284 114.671 262.777 114.399C262.323 114.146 261.952 113.765 261.711 113.303C261.54 112.939 261.435 112.547 261.399 112.147H268.581C268.586 112.053 268.586 111.959 268.581 111.865V111.533C268.596 110.761 268.419 109.998 268.068 109.31C267.736 108.668 267.231 108.131 266.609 107.761C265.923 107.374 265.144 107.18 264.356 107.198C263.569 107.185 262.792 107.379 262.104 107.761C261.449 108.126 260.909 108.666 260.545 109.32C260.173 110.026 259.989 110.816 260.012 111.614ZM262.808 108.818C263.298 108.553 263.849 108.421 264.407 108.435C264.933 108.416 265.455 108.541 265.915 108.797C266.312 109.04 266.632 109.388 266.841 109.803C267.01 110.159 267.106 110.546 267.122 110.94H261.41C261.457 110.588 261.566 110.248 261.731 109.934C261.974 109.465 262.348 109.078 262.808 108.818Z" fill="#75B1E8"/>
<path d="M271.868 115.516C272.454 115.857 273.121 116.034 273.799 116.029C274.472 116.038 275.133 115.861 275.71 115.516C276.046 115.312 276.348 115.058 276.605 114.761V115.868H277.983V103.286H276.605V108.425C276.255 108.029 275.822 107.713 275.338 107.5C274.853 107.286 274.329 107.18 273.799 107.188C273.114 107.182 272.44 107.367 271.854 107.723C271.268 108.078 270.792 108.589 270.48 109.2C270.107 109.937 269.924 110.757 269.947 111.583C269.924 112.422 270.103 113.253 270.47 114.007C270.784 114.632 271.269 115.155 271.868 115.516ZM272.11 109.22C272.353 108.966 272.647 108.765 272.973 108.632C273.299 108.498 273.649 108.435 274.001 108.445C274.448 108.445 274.888 108.559 275.278 108.777C275.665 108.997 275.993 109.308 276.233 109.682C276.482 110.054 276.612 110.493 276.605 110.94V112.147C276.611 112.606 276.489 113.059 276.253 113.454C276.021 113.839 275.696 114.161 275.308 114.389C274.911 114.618 274.459 114.736 274.001 114.731C273.649 114.74 273.299 114.676 272.974 114.543C272.648 114.41 272.354 114.21 272.11 113.957C271.558 113.295 271.287 112.443 271.355 111.583C271.285 110.727 271.556 109.877 272.11 109.22Z" fill="#75B1E8"/>
<path d="M281.434 107.319H280.086V115.868H281.434V107.319Z" fill="#75B1E8"/>
<path d="M280.116 103.99C280.026 104.056 279.954 104.142 279.905 104.242C279.856 104.342 279.832 104.452 279.834 104.563C279.832 104.676 279.856 104.787 279.905 104.889C279.954 104.99 280.026 105.078 280.116 105.147C280.306 105.284 280.535 105.358 280.769 105.358C281.004 105.358 281.233 105.284 281.423 105.147C281.512 105.078 281.582 104.989 281.63 104.888C281.677 104.786 281.699 104.675 281.695 104.563C281.699 104.453 281.677 104.343 281.629 104.243C281.582 104.143 281.511 104.056 281.423 103.99C281.236 103.846 281.006 103.769 280.769 103.769C280.533 103.769 280.303 103.846 280.116 103.99Z" fill="#75B1E8"/>
<path d="M287.529 107.188C286.76 107.181 286.001 107.361 285.317 107.711C284.658 108.057 284.107 108.58 283.728 109.22C283.351 109.952 283.154 110.764 283.154 111.588C283.154 112.412 283.351 113.224 283.728 113.957C284.106 114.606 284.656 115.138 285.317 115.496C285.999 115.854 286.759 116.037 287.529 116.029C288.111 116.037 288.69 115.942 289.239 115.747C289.692 115.575 290.108 115.32 290.466 114.993C290.786 114.713 291.046 114.37 291.23 113.987C291.396 113.624 291.482 113.23 291.482 112.83H290.124C290.108 113.188 289.997 113.536 289.802 113.836C289.596 114.156 289.303 114.411 288.957 114.57C288.508 114.766 288.02 114.859 287.529 114.842C287.011 114.847 286.499 114.723 286.041 114.48C285.582 114.239 285.204 113.868 284.955 113.414C284.66 112.875 284.517 112.267 284.542 111.654C284.522 111.041 284.664 110.434 284.955 109.894C285.219 109.463 285.599 109.114 286.051 108.888C286.475 108.683 286.937 108.568 287.407 108.549C287.878 108.53 288.347 108.607 288.786 108.777C289.134 108.919 289.444 109.139 289.692 109.421C289.919 109.689 290.062 110.018 290.104 110.366C290.104 110.366 290.104 110.437 290.104 110.477C290.109 110.507 290.109 110.538 290.104 110.568H291.462V110.507C291.457 110.116 291.364 109.731 291.19 109.381C291 108.998 290.737 108.657 290.416 108.375C290.056 108.046 289.636 107.79 289.179 107.621C288.661 107.374 288.101 107.227 287.529 107.188Z" fill="#75B1E8"/>
<path d="M292.266 108.526H294.368V113.846C294.355 114.217 294.417 114.586 294.549 114.932C294.642 115.19 294.806 115.417 295.022 115.586C295.225 115.739 295.458 115.849 295.706 115.908C295.959 115.969 296.219 115.999 296.48 115.999C296.662 115.999 296.844 115.982 297.023 115.948C297.152 115.927 297.28 115.897 297.405 115.858V114.671L297.093 114.751C296.946 114.762 296.798 114.762 296.651 114.751C296.501 114.772 296.349 114.745 296.216 114.674C296.083 114.604 295.974 114.494 295.907 114.359C295.784 114.018 295.729 113.656 295.746 113.293V108.486H298.391V107.279H295.726V104.453H294.368V106.384C294.368 106.605 294.368 106.766 294.368 106.886C294.369 106.983 294.341 107.078 294.287 107.158C294.228 107.217 294.15 107.252 294.066 107.259C293.926 107.271 293.784 107.271 293.644 107.259H292.306L292.266 108.526Z" fill="#75B1E8"/>
<path d="M300.634 116.33C300.877 116.904 301.173 117.453 301.519 117.97C301.777 118.352 302.067 118.712 302.384 119.046C302.579 119.251 302.787 119.442 303.008 119.619L303.742 118.855C303.478 118.609 303.229 118.347 302.998 118.07C302.611 117.615 302.273 117.119 301.992 116.592C301.633 115.872 301.36 115.112 301.177 114.329C300.941 113.304 300.83 112.253 300.845 111.201C300.83 110.146 300.941 109.092 301.177 108.063C301.358 107.276 301.632 106.513 301.992 105.79C302.268 105.26 302.606 104.764 302.998 104.312C303.22 104.033 303.469 103.777 303.742 103.547L303.008 102.773C302.784 102.938 302.575 103.124 302.384 103.326C302.062 103.656 301.772 104.016 301.519 104.402C301.173 104.92 300.877 105.468 300.634 106.042C300.329 106.768 300.096 107.522 299.94 108.294C299.75 109.251 299.659 110.225 299.669 111.201C299.659 112.17 299.75 113.137 299.94 114.088C300.095 114.857 300.327 115.608 300.634 116.33Z" fill="white"/>
<path d="M306.436 116.592C306.17 117.117 305.85 117.612 305.481 118.07C305.249 118.347 305 118.609 304.736 118.855L305.471 119.619C305.685 119.439 305.89 119.248 306.084 119.046C306.405 118.714 306.694 118.354 306.949 117.97C307.295 117.453 307.591 116.904 307.834 116.33C308.141 115.608 308.373 114.857 308.528 114.088C308.718 113.137 308.809 112.17 308.8 111.201C308.809 110.225 308.718 109.251 308.528 108.294C308.372 107.522 308.139 106.768 307.834 106.042C307.591 105.468 307.295 104.92 306.949 104.402C306.699 104.014 306.409 103.653 306.084 103.326C305.894 103.127 305.688 102.942 305.471 102.773L304.736 103.547C305.009 103.777 305.258 104.033 305.481 104.312C305.855 104.766 306.175 105.262 306.436 105.79C306.796 106.514 307.072 107.277 307.261 108.063C307.497 109.092 307.608 110.146 307.593 111.201C307.608 112.253 307.497 113.304 307.261 114.329C307.071 115.112 306.794 115.871 306.436 116.592Z" fill="white"/>
<path d="M142.217 87.5862C142.364 87.5333 142.5 87.455 142.62 87.3549V97.7744H143.988V85.8563H142.65C142.52 85.9983 142.367 86.1173 142.197 86.2083C141.938 86.3487 141.665 86.4632 141.383 86.5503C141.055 86.6607 140.718 86.7448 140.377 86.8017V88.0388C140.716 88.0053 141.053 87.9448 141.383 87.8578C141.668 87.7894 141.947 87.6986 142.217 87.5862Z" fill="white"/>
<path d="M141.897 106.333C142.02 105.96 142.26 105.635 142.581 105.408C142.959 105.171 143.401 105.055 143.848 105.076C144.118 105.054 144.39 105.093 144.644 105.188C144.898 105.284 145.127 105.435 145.316 105.629C145.675 106.086 145.851 106.659 145.809 107.239C145.808 107.715 145.683 108.183 145.447 108.596C145.195 109.037 144.891 109.445 144.542 109.813C144.18 110.195 143.818 110.568 143.435 110.92C143.053 111.272 142.812 111.513 142.43 111.845C142.047 112.177 141.766 112.519 141.424 112.851C141.147 113.171 140.889 113.507 140.649 113.856C140.474 114.108 140.347 114.392 140.277 114.691V115.878H147.197V114.631H141.907C142.005 114.323 142.166 114.038 142.379 113.796C142.693 113.439 143.029 113.104 143.385 112.79C143.767 112.408 144.19 112.016 144.622 111.613C145.055 111.211 145.185 111.08 145.487 110.759C145.796 110.444 146.081 110.108 146.342 109.753C146.6 109.391 146.812 108.999 146.976 108.586C147.144 108.181 147.229 107.747 147.227 107.309C147.237 106.698 147.109 106.094 146.855 105.539C146.611 105.037 146.222 104.62 145.739 104.342C145.173 104.039 144.539 103.89 143.898 103.909C143.195 103.881 142.497 104.052 141.887 104.402C141.372 104.705 140.959 105.153 140.7 105.69C140.436 106.327 140.306 107.012 140.318 107.701H141.695C141.69 107.237 141.758 106.776 141.897 106.333Z" fill="white"/>
<path d="M379.646 102.21C379.775 103.359 380.338 104.416 381.222 105.163C382.105 105.91 383.241 106.29 384.396 106.226C385.551 106.161 386.637 105.657 387.432 104.817C388.227 103.976 388.67 102.864 388.67 101.707C388.67 100.55 388.227 99.4373 387.432 98.5969C386.637 97.7566 385.551 97.2524 384.396 97.188C383.241 97.1237 382.105 97.504 381.222 98.2508C380.338 98.9977 379.775 100.054 379.646 101.204C379.618 101.37 379.601 101.538 379.596 101.707C379.602 101.875 379.619 102.043 379.646 102.21ZM384.122 98.1868C384.818 98.1868 385.498 98.3932 386.077 98.78C386.656 99.1668 387.107 99.7166 387.374 100.36C387.64 101.003 387.71 101.711 387.574 102.394C387.438 103.076 387.103 103.704 386.611 104.196C386.118 104.688 385.491 105.024 384.808 105.159C384.125 105.295 383.418 105.225 382.774 104.959C382.131 104.693 381.582 104.241 381.195 103.663C380.808 103.084 380.601 102.403 380.601 101.707C380.601 100.773 380.972 99.8779 381.632 99.2178C382.293 98.5576 383.188 98.1868 384.122 98.1868Z" fill="#231F20"/>
<path d="M445 144.039C445.005 143.164 444.755 142.307 444.283 141.571C443.81 140.835 443.135 140.252 442.338 139.892C441.54 139.532 440.656 139.411 439.791 139.543C438.927 139.675 438.119 140.054 437.466 140.636C436.812 141.217 436.341 141.976 436.11 142.819C435.879 143.662 435.897 144.555 436.162 145.388C436.427 146.222 436.928 146.961 437.604 147.515C438.28 148.07 439.102 148.417 439.972 148.514V168.881L424.574 184.279H404.207C404.079 183.129 403.515 182.072 402.632 181.326C401.748 180.579 400.613 180.198 399.458 180.263C398.303 180.327 397.216 180.831 396.421 181.672C395.626 182.512 395.184 183.625 395.184 184.782C395.184 185.938 395.626 187.051 396.421 187.892C397.216 188.732 398.303 189.236 399.458 189.3C400.613 189.365 401.748 188.985 402.632 188.238C403.515 187.491 404.079 186.434 404.207 185.284H424.775C424.842 185.285 424.909 185.273 424.972 185.247C425.034 185.221 425.09 185.182 425.137 185.134L440.827 169.444C440.874 169.398 440.912 169.344 440.938 169.283C440.963 169.223 440.977 169.158 440.977 169.092V148.514C442.08 148.391 443.099 147.867 443.841 147.042C444.582 146.217 444.995 145.148 445 144.039ZM399.742 188.292C399.046 188.292 398.365 188.085 397.786 187.698C397.207 187.312 396.756 186.762 396.49 186.119C396.223 185.475 396.153 184.768 396.289 184.085C396.425 183.402 396.76 182.775 397.253 182.282C397.745 181.79 398.372 181.455 399.055 181.319C399.738 181.183 400.446 181.253 401.089 181.519C401.732 181.786 402.282 182.237 402.669 182.816C403.055 183.395 403.262 184.075 403.262 184.772C403.263 185.235 403.173 185.693 402.997 186.122C402.821 186.55 402.561 186.939 402.234 187.267C401.907 187.595 401.519 187.855 401.091 188.033C400.663 188.21 400.205 188.302 399.742 188.302V188.292ZM440.485 147.549C439.788 147.549 439.108 147.342 438.529 146.956C437.95 146.569 437.499 146.019 437.232 145.376C436.966 144.733 436.896 144.025 437.032 143.342C437.168 142.659 437.503 142.032 437.995 141.54C438.488 141.047 439.115 140.712 439.798 140.576C440.481 140.44 441.188 140.51 441.832 140.777C442.475 141.043 443.025 141.494 443.411 142.073C443.798 142.652 444.005 143.333 444.005 144.029C444.006 144.493 443.916 144.952 443.739 145.381C443.562 145.81 443.302 146.2 442.974 146.528C442.646 146.856 442.256 147.116 441.827 147.293C441.398 147.47 440.938 147.56 440.475 147.559L440.485 147.549Z" fill="#231F20"/>
<path d="M413.963 165.884H404.207C404.079 164.734 403.515 163.677 402.632 162.93C401.748 162.184 400.613 161.803 399.458 161.868C398.303 161.932 397.216 162.436 396.421 163.277C395.626 164.117 395.184 165.23 395.184 166.386C395.184 167.543 395.626 168.656 396.421 169.496C397.216 170.337 398.303 170.841 399.458 170.905C400.613 170.97 401.748 170.589 402.632 169.843C403.515 169.096 404.079 168.039 404.207 166.889H414.164C414.3 166.887 414.429 166.833 414.526 166.738L422.431 158.833C422.526 158.736 422.58 158.607 422.582 158.471V148.514C423.732 148.386 424.789 147.822 425.535 146.939C426.282 146.055 426.663 144.92 426.598 143.765C426.534 142.61 426.03 141.523 425.189 140.728C424.349 139.934 423.236 139.491 422.079 139.491C420.923 139.491 419.81 139.934 418.969 140.728C418.129 141.523 417.625 142.61 417.561 143.765C417.496 144.92 417.877 146.055 418.623 146.939C419.37 147.822 420.427 148.386 421.577 148.514V158.27L413.963 165.884ZM399.732 169.907C399.035 169.907 398.355 169.7 397.776 169.313C397.197 168.927 396.746 168.377 396.48 167.734C396.213 167.09 396.143 166.383 396.279 165.7C396.415 165.017 396.75 164.39 397.243 163.897C397.735 163.405 398.362 163.07 399.045 162.934C399.728 162.798 400.436 162.868 401.079 163.134C401.722 163.401 402.272 163.852 402.659 164.431C403.045 165.01 403.252 165.69 403.252 166.386C403.252 167.318 402.882 168.212 402.224 168.872C401.566 169.532 400.674 169.904 399.742 169.907H399.732ZM418.559 144.039C418.559 143.343 418.766 142.662 419.153 142.083C419.539 141.504 420.089 141.053 420.732 140.787C421.376 140.52 422.083 140.45 422.766 140.586C423.449 140.722 424.076 141.057 424.569 141.55C425.061 142.042 425.396 142.669 425.532 143.352C425.668 144.035 425.598 144.743 425.332 145.386C425.065 146.029 424.614 146.579 424.035 146.966C423.456 147.352 422.776 147.559 422.079 147.559C421.146 147.559 420.25 147.188 419.59 146.528C418.93 145.868 418.559 144.972 418.559 144.039Z" fill="#231F20"/>
<circle cx="52" cy="26" r="4" fill="white"/>
<path d="M26.3064 56.7399C27.4574 56.7354 28.5631 56.2915 29.3978 55.499C30.2325 54.7065 30.733 53.6252 30.7972 52.476C30.8614 51.3269 30.4844 50.1966 29.7432 49.316C29.002 48.4355 27.9526 47.8712 26.8093 47.7385V34.0302C26.8093 32.0296 27.604 30.111 29.0186 28.6964C30.4332 27.2818 32.3519 26.4871 34.3524 26.4871H48.0607C48.1893 27.6366 48.7531 28.6934 49.6364 29.4402C50.5197 30.1871 51.6555 30.5674 52.8104 30.503C53.9654 30.4387 55.0518 29.9345 55.8467 29.0941C56.6415 28.2538 57.0844 27.1409 57.0844 25.9842C57.0844 24.8274 56.6415 23.7146 55.8467 22.8742C55.0518 22.0338 53.9654 21.5297 52.8104 21.4653C51.6555 21.401 50.5197 21.7813 49.6364 22.5281C48.7531 23.275 48.1893 24.3317 48.0607 25.4813H34.3524C32.0859 25.484 29.913 26.3855 28.3104 27.9881C26.7078 29.5908 25.8062 31.7637 25.8036 34.0302V47.7385C24.6603 47.8712 23.6108 48.4355 22.8696 49.316C22.1284 50.1966 21.7514 51.3269 21.8156 52.476C21.8798 53.6252 22.3804 54.7065 23.2151 55.499C24.0497 56.2915 25.1555 56.7354 26.3064 56.7399ZM52.5363 22.4641C53.2325 22.4641 53.9131 22.6705 54.492 23.0573C55.0709 23.4441 55.5221 23.9939 55.7885 24.6371C56.0549 25.2803 56.1246 25.9881 55.9888 26.6709C55.853 27.3538 55.5177 27.981 55.0254 28.4733C54.5331 28.9656 53.9059 29.3008 53.2231 29.4367C52.5402 29.5725 51.8324 29.5028 51.1892 29.2363C50.546 28.9699 49.9962 28.5187 49.6095 27.9399C49.2227 27.361 49.0162 26.6804 49.0162 25.9842C49.0189 25.0514 49.3906 24.1576 50.0502 23.498C50.7097 22.8384 51.6035 22.4667 52.5363 22.4641ZM26.3064 48.694C27.0027 48.694 27.6832 48.9004 28.2621 49.2872C28.841 49.674 29.2922 50.2238 29.5586 50.867C29.825 51.5102 29.8947 52.218 29.7589 52.9008C29.6231 53.5836 29.2878 54.2109 28.7955 54.7032C28.3032 55.1955 27.676 55.5307 26.9932 55.6665C26.3103 55.8024 25.6026 55.7327 24.9593 55.4662C24.3161 55.1998 23.7664 54.7486 23.3796 54.1697C22.9928 53.5909 22.7863 52.9103 22.7863 52.2141C22.7863 51.2805 23.1572 50.3851 23.8173 49.725C24.4775 49.0648 25.3728 48.694 26.3064 48.694Z" fill="#231F20"/>
</g>
<path d="M0 162L1.29947e-08 163.09C11.1127 163.104 21.7659 167.525 29.6228 175.382C37.4796 183.238 41.8985 193.89 41.91 205L43 205C42.9913 193.6 38.4586 182.67 30.3967 174.608C22.3348 166.546 11.4027 162.012 0 162Z" fill="#231F20"/>
<defs>
<clipPath id="clip0_94_2016">
<rect width="460" height="205" fill="white"/>
</clipPath>
</defs>
</svg>
