<svg width="460" height="205" viewBox="0 0 460 205" fill="none" xmlns="http://www.w3.org/2000/svg">
<mask id="mask0_94_1983" style="mask-type:alpha" maskUnits="userSpaceOnUse" x="0" y="0" width="460" height="205">
<path d="M10 205C4.47715 205 -1.95703e-07 200.523 -4.37114e-07 195L-8.52372e-06 10C-8.76513e-06 4.47717 4.47714 1.50631e-05 9.99999 1.48217e-05L450 -4.41134e-06C455.523 -4.65275e-06 460 4.47714 460 10L460 195C460 200.523 455.523 205 450 205L10 205Z" fill="#00D085"/>
</mask>
<g mask="url(#mask0_94_1983)">
<path d="M10 205C4.47715 205 -1.95703e-07 200.523 -4.37114e-07 195L-8.52372e-06 10C-8.76513e-06 4.47717 4.47714 1.50631e-05 9.99999 1.48217e-05L450 -4.41134e-06C455.523 -4.65275e-06 460 4.47714 460 10L460 195C460 200.523 455.523 205 450 205L10 205Z" fill="#00D085"/>
<path d="M428 6L429.448 11.1048C430.743 15.6762 434.324 19.2571 438.895 20.5524L444 22L438.895 23.4476C434.324 24.7429 430.743 28.3238 429.448 32.8952L428 38L426.552 32.8952C425.257 28.3238 421.676 24.7429 417.105 23.4476L412 22L417.105 20.5524C421.676 19.2571 425.257 15.6762 426.552 11.1048L428 6Z" stroke="white" stroke-miterlimit="10" stroke-linecap="round" stroke-linejoin="round"/>
<circle cx="146" cy="16" r="3.5" fill="white" stroke="#3E343F"/>
<path d="M231 169V175.213C231 185.648 222.627 194.118 212.31 194.118H174.69C164.373 194.118 156 202.588 156 213.024V240.544C156 250.98 164.373 259.45 174.69 259.45C185.007 259.45 193.38 267.92 193.38 278.355V286" stroke="#262626" stroke-linecap="round" stroke-linejoin="round" stroke-dasharray="2 2"/>
<path d="M32.8828 3.8147e-06L32.0495 3.74184e-06C32.0385 8.49604 28.658 16.6408 22.6496 22.6476C16.6412 28.6545 8.49552 32.0328 -0.000514911 32.0417L-0.000514984 32.875C8.71721 32.8684 17.0761 29.4029 23.2413 23.2393C29.4064 17.0757 32.874 8.71773 32.8828 3.8147e-06Z" fill="#231F20"/>
<path d="M323.84 39.6807C329.275 39.6807 333.681 35.275 333.681 29.8403C333.681 24.4057 329.275 20 323.84 20C318.406 20 314 24.4057 314 29.8403C314 35.275 318.406 39.6807 323.84 39.6807Z" stroke="white" stroke-miterlimit="10"/>
<path d="M-0.159674 111.681C5.27499 111.681 9.68065 107.275 9.68065 101.84C9.68065 96.4057 5.27499 92 -0.159674 92C-5.59434 92 -10 96.4057 -10 101.84C-10 107.275 -5.59434 111.681 -0.159674 111.681Z" stroke="white" stroke-miterlimit="10"/>
<path opacity="0.3" d="M460 135.718V135H320V205H460V204.29V196.315V195.589V187.654V186.928V178.952V178.33V170.355V169.637V161.662V160.944V152.969V152.251V144.275V143.558V135.582V135.718ZM328.702 200.143V204.29H320.729V196.315H328.702V200.143ZM328.702 195.629H320.729V187.693H328.702V195.629ZM328.702 186.968H320.729V178.992H328.702V186.968ZM328.702 178.306H320.729V170.355H328.702V178.306ZM328.702 169.645H320.729V161.67H328.702V169.645ZM328.702 160.984H320.729V153.008H328.702V160.984ZM328.702 148.167V152.323H320.729V144.347H328.702V148.167ZM328.702 143.661H320.729V135.686H328.702V143.661ZM337.397 200.143V204.29H329.432V196.315H337.397V200.143ZM337.397 195.629H329.432V187.693H337.397V195.629ZM337.397 186.968H329.432V178.992H337.397V186.968ZM337.397 178.33H329.432V170.355H337.397V178.33ZM337.397 169.669H329.432V161.694H337.397V169.669ZM337.397 161.008H329.432V153.032H337.397V161.008ZM337.397 148.191V152.346H329.432V144.371H337.397V148.191ZM337.397 143.685H329.432V135.71H337.397V143.685ZM346.099 200.167V204.314H338.086V196.339H346.099V200.167ZM346.099 195.653H338.086V187.717H346.099V195.653ZM346.099 186.992H338.086V179.016H346.099V186.992ZM346.099 178.33H338.086V170.355H346.099V178.33ZM346.099 169.669H338.086V161.694H346.099V169.669ZM346.099 161.008H338.086V153.032H346.099V161.008ZM346.099 148.191V152.346H338.086V144.371H346.099V148.191ZM346.099 143.685H338.086V135.71H346.099V143.685ZM354.802 200.167V204.314H346.788V196.339H354.802V200.167ZM354.802 195.653H346.788V187.717H354.802V195.653ZM354.802 186.992H346.788V179.016H354.802V186.992ZM354.802 178.33H346.788V170.355H354.802V178.33ZM354.802 169.669H346.788V161.694H354.802V169.669ZM354.802 161.008H346.788V153.032H354.802V161.008ZM354.802 148.191V152.346H346.788V144.371H354.802V148.191ZM354.802 143.685H346.788V135.71H354.802V143.685ZM363.504 200.167V204.314H355.491V196.339H363.504V200.167ZM363.504 195.653H355.491V187.717H363.504V195.653ZM363.504 186.992H355.491V179.016H363.504V186.992ZM363.504 178.33H355.491V170.355H363.504V178.33ZM363.504 169.669H355.491V161.694H363.504V169.669ZM363.504 161.008H355.491V153.032H363.504V161.008ZM363.504 148.191V152.346H355.491V144.371H363.504V148.191ZM363.504 143.685H355.491V135.71H363.504V143.685ZM372.215 200.167V204.314H364.201V196.339H372.215V200.167ZM372.215 195.653H364.201V187.717H372.215V195.653ZM372.215 186.992H364.201V179.016H372.215V186.992ZM372.215 178.33H364.201V170.355H372.215V178.33ZM372.215 169.669H364.201V161.694H372.215V169.669ZM372.215 161.008H364.201V153.032H372.215V161.008ZM372.215 148.191V152.346H364.201V144.371H372.215V148.191ZM372.215 143.685H364.201V135.71H372.215V143.685ZM380.917 200.167V204.314H372.904V196.339H380.917V200.167ZM380.917 195.653H372.904V187.717H380.917V195.653ZM380.917 186.992H372.904V179.016H380.917V186.992ZM380.917 178.33H372.904V170.355H380.917V178.33ZM380.917 169.669H372.904V161.694H380.917V169.669ZM380.917 161.008H372.904V153.032H380.917V161.008ZM380.917 148.191V152.346H372.904V144.371H380.917V148.191ZM380.917 143.685H372.904V135.71H380.917V143.685ZM389.619 200.167V204.314H381.606V196.339H389.619V200.167ZM389.619 195.653H381.606V187.717H389.619V195.653ZM389.619 186.992H381.606V179.016H389.619V186.992ZM389.619 178.33H381.606V170.355H389.619V178.33ZM389.619 169.669H381.606V161.694H389.619V169.669ZM389.619 161.008H381.606V153.032H389.619V161.008ZM389.619 148.191V152.346H381.606V144.371H389.619V148.191ZM389.619 143.685H381.606V135.71H389.619V143.685ZM398.298 200.143V204.29H390.284V196.315H398.298V200.143ZM398.298 195.629H390.284V187.693H398.298V195.629ZM398.298 186.968H390.284V178.992H398.298V186.968ZM398.298 178.33H390.284V170.355H398.298V178.33ZM398.298 169.669H390.284V161.694H398.298V169.669ZM398.298 161.008H390.284V153.032H398.298V161.008ZM398.298 148.191V152.346H390.284V144.371H398.298V148.191ZM398.298 143.685H390.284V135.71H398.298V143.685ZM407 200.167V204.314H398.987V196.339H407V200.167ZM407 195.653H398.987V187.717H407V195.653ZM407 186.992H398.987V179.016H407V186.992ZM407 178.33H398.987V170.355H407V178.33ZM407 169.669H398.987V161.694H407V169.669ZM407 161.008H398.987V153.032H407V161.008ZM407 148.191V152.346H398.987V144.371H407V148.191ZM407 143.685H398.987V135.71H407V143.685ZM415.703 200.167V204.314H407.689V196.339H415.703V200.167ZM415.703 195.653H407.689V187.717H415.703V195.653ZM415.703 186.992H407.689V179.016H415.703V186.992ZM415.703 178.33H407.689V170.355H415.703V178.33ZM415.703 169.669H407.689V161.694H415.703V169.669ZM415.703 161.008H407.689V153.032H415.703V161.008ZM415.703 148.191V152.346H407.689V144.371H415.703V148.191ZM415.703 143.685H407.689V135.71H415.703V143.685ZM424.405 200.167V204.314H416.392V196.339H424.405V200.167ZM424.405 195.653H416.392V187.717H424.405V195.653ZM424.405 186.992H416.392V179.016H424.405V186.992ZM424.405 178.33H416.392V170.355H424.405V178.33ZM424.405 169.669H416.392V161.694H424.405V169.669ZM424.405 161.008H416.392V153.032H424.405V161.008ZM424.405 148.191V152.346H416.392V144.371H424.405V148.191ZM424.405 143.685H416.392V135.71H424.405V143.685ZM433.107 200.167V204.314H425.094V196.339H433.107V200.167ZM433.107 195.653H425.094V187.717H433.107V195.653ZM433.107 186.992H425.094V179.016H433.107V186.992ZM433.107 178.33H425.094V170.355H433.107V178.33ZM433.107 169.669H425.094V161.694H433.107V169.669ZM433.107 161.008H425.094V153.032H433.107V161.008ZM433.107 148.191V152.346H425.094V144.371H433.107V148.191ZM433.107 143.685H425.094V135.71H433.107V143.685ZM441.81 200.167V204.314H433.797V196.339H441.81V200.167ZM441.81 195.653H433.797V187.717H441.81V195.653ZM441.81 186.992H433.797V179.016H441.81V186.992ZM441.81 178.33H433.797V170.355H441.81V178.33ZM441.81 169.669H433.797V161.694H441.81V169.669ZM441.81 161.008H433.797V153.032H441.81V161.008ZM441.81 148.191V152.346H433.797V144.371H441.81V148.191ZM441.81 143.685H433.797V135.71H441.81V143.685ZM450.512 200.167V204.314H442.499V196.339H450.512V200.167ZM450.512 195.653H442.499V187.717H450.512V195.653ZM450.512 186.992H442.499V179.016H450.512V186.992ZM450.512 178.33H442.499V170.355H450.512V178.33ZM450.512 169.669H442.499V161.694H450.512V169.669ZM450.512 161.008H442.499V153.032H450.512V161.008ZM450.512 148.191V152.346H442.499V144.371H450.512V148.191ZM450.512 143.685H442.499V135.71H450.512V143.685ZM459.215 200.167V204.314H451.201V196.339H459.215V200.167ZM459.215 195.653H451.201V187.717H459.215V195.653ZM459.215 186.992H451.201V179.016H459.215V186.992ZM459.215 178.33H451.201V170.355H459.215V178.33ZM459.215 169.669H451.201V161.694H459.215V169.669ZM459.215 161.008H451.201V153.032H459.215V161.008ZM459.215 148.191V152.346H451.201V144.371H459.215V148.191ZM459.215 143.685H451.201V135.71H459.215V143.685Z" fill="white"/>
<path d="M40.5 40C40.5 34.7533 44.7533 30.5 50 30.5H410C415.247 30.5 419.5 34.7533 419.5 40V170C419.5 175.247 415.247 179.5 410 179.5H50C44.7533 179.5 40.5 175.247 40.5 170V40Z" fill="white" stroke="#3E343F"/>
<path d="M103.846 86V77.15H104.872V85.682L104.41 85.1H108.364V86H103.846ZM112.027 86.12C111.543 86.12 111.119 86.044 110.755 85.892C110.395 85.74 110.115 85.522 109.915 85.238C109.715 84.95 109.615 84.606 109.615 84.206C109.615 83.79 109.723 83.444 109.939 83.168C110.155 82.888 110.459 82.67 110.851 82.514C111.243 82.358 111.699 82.254 112.219 82.202C113.003 82.122 113.561 82.044 113.893 81.968C114.225 81.888 114.391 81.76 114.391 81.584C114.391 81.58 114.391 81.578 114.391 81.578C114.391 81.574 114.391 81.57 114.391 81.566C114.391 81.198 114.241 80.924 113.941 80.744C113.641 80.56 113.207 80.468 112.639 80.468C112.047 80.468 111.587 80.572 111.259 80.78C110.931 80.984 110.767 81.316 110.767 81.776H109.759C109.759 81.3 109.881 80.896 110.125 80.564C110.369 80.228 110.707 79.972 111.139 79.796C111.575 79.62 112.077 79.532 112.645 79.532C113.165 79.532 113.633 79.612 114.049 79.772C114.469 79.928 114.801 80.162 115.045 80.474C115.293 80.782 115.417 81.164 115.417 81.62C115.417 81.704 115.417 81.788 115.417 81.872C115.417 81.952 115.417 82.034 115.417 82.118V84.8C115.417 84.94 115.423 85.076 115.435 85.208C115.447 85.34 115.467 85.456 115.495 85.556C115.531 85.676 115.571 85.774 115.615 85.85C115.659 85.922 115.695 85.972 115.723 86H114.697C114.677 85.98 114.647 85.934 114.607 85.862C114.567 85.786 114.529 85.698 114.493 85.598C114.465 85.518 114.443 85.418 114.427 85.298C114.411 85.174 114.403 85.046 114.403 84.914L114.571 85.028C114.447 85.244 114.265 85.434 114.025 85.598C113.789 85.762 113.503 85.89 113.167 85.982C112.831 86.074 112.451 86.12 112.027 86.12ZM112.189 85.202C112.601 85.202 112.973 85.14 113.305 85.016C113.637 84.888 113.901 84.7 114.097 84.452C114.293 84.204 114.391 83.896 114.391 83.528V82.262L114.619 82.646C114.363 82.746 114.043 82.828 113.659 82.892C113.279 82.952 112.881 83.002 112.465 83.042C111.861 83.098 111.405 83.204 111.097 83.36C110.793 83.516 110.641 83.778 110.641 84.146C110.641 84.494 110.767 84.758 111.019 84.938C111.271 85.114 111.661 85.202 112.189 85.202ZM119.465 86.114C119.009 86.114 118.629 86.036 118.325 85.88C118.021 85.72 117.779 85.514 117.599 85.262C117.423 85.01 117.297 84.738 117.221 84.446C117.149 84.15 117.113 83.866 117.113 83.594C117.113 83.442 117.113 83.286 117.113 83.126C117.113 82.962 117.113 82.798 117.113 82.634V79.628H118.139V82.502C118.139 82.65 118.139 82.796 118.139 82.94C118.139 83.084 118.139 83.22 118.139 83.348C118.139 83.672 118.183 83.972 118.271 84.248C118.363 84.524 118.521 84.748 118.745 84.92C118.969 85.088 119.277 85.172 119.669 85.172C120.037 85.172 120.359 85.062 120.635 84.842C120.911 84.618 121.127 84.34 121.283 84.008C121.439 83.672 121.517 83.338 121.517 83.006L122.111 83.252C122.111 83.604 122.049 83.95 121.925 84.29C121.801 84.626 121.623 84.932 121.391 85.208C121.163 85.484 120.885 85.704 120.557 85.868C120.233 86.032 119.869 86.114 119.465 86.114ZM121.517 86V79.628H122.537V86H121.517ZM128.869 86V82.946C128.869 82.762 128.869 82.612 128.869 82.496C128.869 82.376 128.869 82.262 128.869 82.154C128.869 81.822 128.813 81.532 128.701 81.284C128.589 81.036 128.413 80.844 128.173 80.708C127.933 80.572 127.619 80.504 127.231 80.504C126.891 80.504 126.575 80.592 126.283 80.768C125.995 80.94 125.763 81.174 125.587 81.47C125.415 81.762 125.329 82.09 125.329 82.454L124.747 82.232C124.747 81.732 124.869 81.278 125.113 80.87C125.361 80.462 125.689 80.138 126.097 79.898C126.509 79.654 126.957 79.532 127.441 79.532C127.933 79.532 128.363 79.626 128.731 79.814C129.099 80.002 129.383 80.272 129.583 80.624C129.787 80.972 129.889 81.392 129.889 81.884C129.889 82.06 129.889 82.252 129.889 82.46C129.889 82.668 129.889 82.862 129.889 83.042V86H128.869ZM124.309 86V79.628H125.329V86H124.309ZM134.692 86.12C134.084 86.12 133.532 85.988 133.036 85.724C132.54 85.456 132.146 85.074 131.854 84.578C131.566 84.082 131.422 83.492 131.422 82.808C131.422 82.124 131.566 81.538 131.854 81.05C132.146 80.558 132.54 80.182 133.036 79.922C133.532 79.662 134.084 79.532 134.692 79.532C135.156 79.532 135.57 79.604 135.934 79.748C136.298 79.888 136.606 80.076 136.858 80.312C137.11 80.548 137.302 80.808 137.434 81.092C137.57 81.372 137.638 81.652 137.638 81.932C137.638 81.936 137.638 81.942 137.638 81.95C137.638 81.958 137.638 81.966 137.638 81.974H136.624C136.624 81.954 136.622 81.932 136.618 81.908C136.614 81.88 136.61 81.852 136.606 81.824C136.574 81.556 136.472 81.322 136.3 81.122C136.128 80.918 135.904 80.758 135.628 80.642C135.352 80.526 135.038 80.468 134.686 80.468C134.29 80.468 133.922 80.554 133.582 80.726C133.246 80.894 132.974 81.152 132.766 81.5C132.562 81.844 132.46 82.28 132.46 82.808C132.46 83.332 132.562 83.77 132.766 84.122C132.97 84.474 133.24 84.74 133.576 84.92C133.916 85.096 134.286 85.184 134.686 85.184C135.118 85.184 135.474 85.116 135.754 84.98C136.034 84.844 136.244 84.664 136.384 84.44C136.528 84.212 136.608 83.968 136.624 83.708H137.638C137.638 83.996 137.574 84.284 137.446 84.572C137.318 84.856 137.13 85.116 136.882 85.352C136.634 85.584 136.326 85.77 135.958 85.91C135.594 86.05 135.172 86.12 134.692 86.12ZM143.793 86V83.63C143.793 83.518 143.793 83.386 143.793 83.234C143.793 83.078 143.793 82.922 143.793 82.766C143.793 82.606 143.793 82.47 143.793 82.358C143.793 81.746 143.661 81.284 143.397 80.972C143.137 80.66 142.723 80.504 142.155 80.504C141.775 80.504 141.441 80.578 141.153 80.726C140.869 80.874 140.647 81.076 140.487 81.332C140.327 81.588 140.247 81.878 140.247 82.202L139.599 82.004C139.599 81.548 139.717 81.134 139.953 80.762C140.193 80.386 140.519 80.088 140.931 79.868C141.347 79.644 141.817 79.532 142.341 79.532C143.105 79.532 143.707 79.762 144.147 80.222C144.591 80.682 144.813 81.318 144.813 82.13C144.813 82.342 144.813 82.586 144.813 82.862C144.813 83.138 144.813 83.428 144.813 83.732V86H143.793ZM139.227 86V76.622H140.247V86H139.227ZM149.778 88.688C149.618 88.688 149.472 88.678 149.34 88.658C149.208 88.642 149.126 88.626 149.094 88.61V87.722C149.146 87.746 149.232 87.766 149.352 87.782C149.472 87.798 149.592 87.806 149.712 87.806C149.968 87.806 150.184 87.752 150.36 87.644C150.536 87.54 150.684 87.396 150.804 87.212C150.924 87.032 151.022 86.828 151.098 86.6L151.29 86.036L149.094 79.628H150.162L151.926 85.118H151.782L153.51 79.628H154.56L152.226 86.546C152.094 86.934 151.934 87.29 151.746 87.614C151.562 87.938 151.314 88.198 151.002 88.394C150.694 88.59 150.286 88.688 149.778 88.688ZM158.487 86.114C157.847 86.114 157.281 85.972 156.789 85.688C156.301 85.4 155.917 85.008 155.637 84.512C155.361 84.012 155.223 83.444 155.223 82.808C155.223 82.172 155.361 81.608 155.637 81.116C155.917 80.624 156.301 80.238 156.789 79.958C157.281 79.678 157.847 79.538 158.487 79.538C159.127 79.538 159.691 79.678 160.179 79.958C160.671 80.238 161.055 80.624 161.331 81.116C161.611 81.608 161.751 82.172 161.751 82.808C161.751 83.444 161.611 84.012 161.331 84.512C161.055 85.008 160.671 85.4 160.179 85.688C159.691 85.972 159.127 86.114 158.487 86.114ZM158.487 85.178C158.927 85.178 159.315 85.08 159.651 84.884C159.987 84.688 160.249 84.412 160.437 84.056C160.629 83.7 160.725 83.284 160.725 82.808C160.725 82.332 160.629 81.92 160.437 81.572C160.249 81.22 159.987 80.95 159.651 80.762C159.315 80.57 158.927 80.474 158.487 80.474C158.051 80.474 157.663 80.57 157.323 80.762C156.987 80.95 156.723 81.22 156.531 81.572C156.343 81.92 156.249 82.332 156.249 82.808C156.249 83.284 156.343 83.7 156.531 84.056C156.723 84.412 156.987 84.688 157.323 84.884C157.663 85.08 158.051 85.178 158.487 85.178ZM165.696 86.114C165.24 86.114 164.86 86.036 164.556 85.88C164.252 85.72 164.01 85.514 163.83 85.262C163.654 85.01 163.528 84.738 163.452 84.446C163.38 84.15 163.344 83.866 163.344 83.594C163.344 83.442 163.344 83.286 163.344 83.126C163.344 82.962 163.344 82.798 163.344 82.634V79.628H164.37V82.502C164.37 82.65 164.37 82.796 164.37 82.94C164.37 83.084 164.37 83.22 164.37 83.348C164.37 83.672 164.414 83.972 164.502 84.248C164.594 84.524 164.752 84.748 164.976 84.92C165.2 85.088 165.508 85.172 165.9 85.172C166.268 85.172 166.59 85.062 166.866 84.842C167.142 84.618 167.358 84.34 167.514 84.008C167.67 83.672 167.748 83.338 167.748 83.006L168.342 83.252C168.342 83.604 168.28 83.95 168.156 84.29C168.032 84.626 167.854 84.932 167.622 85.208C167.394 85.484 167.116 85.704 166.788 85.868C166.464 86.032 166.1 86.114 165.696 86.114ZM167.748 86V79.628H168.768V86H167.748ZM170.539 86V79.628H171.559V81.584L171.223 81.464C171.247 81.228 171.307 80.996 171.403 80.768C171.499 80.536 171.631 80.328 171.799 80.144C171.971 79.956 172.185 79.808 172.441 79.7C172.697 79.588 172.997 79.532 173.341 79.532C173.597 79.532 173.805 79.554 173.965 79.598C174.129 79.638 174.231 79.67 174.271 79.694L174.007 80.696C173.967 80.668 173.885 80.632 173.761 80.588C173.641 80.544 173.469 80.522 173.245 80.522C172.913 80.522 172.637 80.582 172.417 80.702C172.201 80.822 172.029 80.982 171.901 81.182C171.777 81.378 171.689 81.592 171.637 81.824C171.585 82.056 171.559 82.286 171.559 82.514V86H170.539ZM177.917 86L180.353 77.126H181.949L184.367 86H183.311L181.145 77.792H181.157L178.973 86H177.917ZM179.177 83.654V82.754H183.125V83.654H179.177ZM185.626 86V77.15H186.634V86H185.626ZM195.363 86V83.186C195.363 82.938 195.363 82.724 195.363 82.544C195.363 82.36 195.363 82.206 195.363 82.082C195.363 81.926 195.351 81.758 195.327 81.578C195.307 81.394 195.257 81.222 195.177 81.062C195.097 80.898 194.971 80.764 194.799 80.66C194.631 80.556 194.397 80.504 194.097 80.504C193.793 80.504 193.537 80.564 193.329 80.684C193.121 80.8 192.953 80.954 192.825 81.146C192.697 81.338 192.605 81.55 192.549 81.782C192.493 82.01 192.465 82.236 192.465 82.46L191.889 82.226C191.889 81.746 191.989 81.302 192.189 80.894C192.389 80.486 192.669 80.158 193.029 79.91C193.393 79.658 193.819 79.532 194.307 79.532C194.791 79.532 195.185 79.63 195.489 79.826C195.793 80.022 196.017 80.292 196.161 80.636C196.305 80.98 196.377 81.376 196.377 81.824C196.377 81.984 196.377 82.19 196.377 82.442C196.377 82.69 196.377 82.974 196.377 83.294V86H195.363ZM191.445 86V79.628H192.465V86H191.445ZM199.269 86V83.186C199.269 82.914 199.269 82.69 199.269 82.514C199.269 82.334 199.269 82.182 199.269 82.058C199.269 81.902 199.259 81.734 199.239 81.554C199.219 81.374 199.169 81.206 199.089 81.05C199.009 80.89 198.881 80.76 198.705 80.66C198.533 80.556 198.291 80.504 197.979 80.504C197.671 80.504 197.413 80.562 197.205 80.678C197.001 80.794 196.837 80.946 196.713 81.134C196.593 81.322 196.507 81.526 196.455 81.746C196.403 81.962 196.377 82.17 196.377 82.37L195.801 82.148C195.801 81.692 195.897 81.266 196.089 80.87C196.285 80.47 196.561 80.148 196.917 79.904C197.277 79.656 197.703 79.532 198.195 79.532C198.655 79.532 199.039 79.622 199.347 79.802C199.659 79.982 199.893 80.236 200.049 80.564C200.209 80.888 200.289 81.274 200.289 81.722C200.289 81.89 200.289 82.098 200.289 82.346C200.289 82.594 200.289 82.874 200.289 83.186V86H199.269ZM205.081 86.114C204.441 86.114 203.875 85.972 203.383 85.688C202.895 85.4 202.511 85.008 202.231 84.512C201.955 84.012 201.817 83.444 201.817 82.808C201.817 82.172 201.955 81.608 202.231 81.116C202.511 80.624 202.895 80.238 203.383 79.958C203.875 79.678 204.441 79.538 205.081 79.538C205.721 79.538 206.285 79.678 206.773 79.958C207.265 80.238 207.649 80.624 207.925 81.116C208.205 81.608 208.345 82.172 208.345 82.808C208.345 83.444 208.205 84.012 207.925 84.512C207.649 85.008 207.265 85.4 206.773 85.688C206.285 85.972 205.721 86.114 205.081 86.114ZM205.081 85.178C205.521 85.178 205.909 85.08 206.245 84.884C206.581 84.688 206.843 84.412 207.031 84.056C207.223 83.7 207.319 83.284 207.319 82.808C207.319 82.332 207.223 81.92 207.031 81.572C206.843 81.22 206.581 80.95 206.245 80.762C205.909 80.57 205.521 80.474 205.081 80.474C204.645 80.474 204.257 80.57 203.917 80.762C203.581 80.95 203.317 81.22 203.125 81.572C202.937 81.92 202.843 82.332 202.843 82.808C202.843 83.284 202.937 83.7 203.125 84.056C203.317 84.412 203.581 84.688 203.917 84.884C204.257 85.08 204.645 85.178 205.081 85.178ZM212.566 86.12C212.042 86.12 211.562 85.994 211.126 85.742C210.69 85.486 210.342 85.112 210.082 84.62C209.822 84.124 209.692 83.52 209.692 82.808C209.692 82.108 209.824 81.514 210.088 81.026C210.352 80.538 210.702 80.168 211.138 79.916C211.574 79.66 212.05 79.532 212.566 79.532C213.058 79.532 213.518 79.65 213.946 79.886C214.378 80.118 214.726 80.442 214.99 80.858C215.254 81.274 215.386 81.756 215.386 82.304C215.386 82.316 215.386 82.328 215.386 82.34C215.386 82.352 215.386 82.364 215.386 82.376L214.654 82.406C214.654 82.394 214.654 82.382 214.654 82.37C214.654 82.354 214.654 82.34 214.654 82.328C214.654 81.98 214.562 81.666 214.378 81.386C214.198 81.106 213.96 80.884 213.664 80.72C213.368 80.552 213.05 80.468 212.71 80.468C212.142 80.468 211.672 80.66 211.3 81.044C210.928 81.424 210.742 82.012 210.742 82.808C210.742 83.6 210.928 84.19 211.3 84.578C211.676 84.962 212.146 85.154 212.71 85.154C213.066 85.154 213.39 85.068 213.682 84.896C213.978 84.724 214.214 84.494 214.39 84.206C214.566 83.914 214.654 83.588 214.654 83.228L215.386 83.246C215.386 83.79 215.26 84.28 215.008 84.716C214.756 85.148 214.416 85.49 213.988 85.742C213.564 85.994 213.09 86.12 212.566 86.12ZM214.654 86V76.622H215.68V86H214.654ZM217.803 83.222V82.31H222.729L222.549 82.61C222.549 82.586 222.549 82.564 222.549 82.544C222.549 82.52 222.549 82.498 222.549 82.478C222.549 82.11 222.471 81.774 222.315 81.47C222.163 81.162 221.935 80.916 221.631 80.732C221.327 80.548 220.951 80.456 220.503 80.456C220.051 80.456 219.653 80.552 219.309 80.744C218.965 80.936 218.697 81.208 218.505 81.56C218.313 81.908 218.217 82.324 218.217 82.808C218.217 83.3 218.309 83.724 218.493 84.08C218.681 84.436 218.947 84.71 219.291 84.902C219.635 85.094 220.043 85.19 220.515 85.19C220.851 85.19 221.143 85.156 221.391 85.088C221.639 85.016 221.843 84.922 222.003 84.806C222.167 84.686 222.291 84.556 222.375 84.416C222.459 84.276 222.509 84.136 222.525 83.996H223.545C223.525 84.252 223.445 84.506 223.305 84.758C223.165 85.01 222.967 85.24 222.711 85.448C222.455 85.652 222.141 85.816 221.769 85.94C221.397 86.064 220.969 86.126 220.485 86.126C219.845 86.126 219.281 85.986 218.793 85.706C218.305 85.426 217.921 85.038 217.641 84.542C217.365 84.046 217.227 83.476 217.227 82.832C217.227 82.18 217.367 81.608 217.647 81.116C217.927 80.62 218.313 80.232 218.805 79.952C219.297 79.672 219.859 79.532 220.491 79.532C221.135 79.532 221.693 79.672 222.165 79.952C222.637 80.232 223.001 80.616 223.257 81.104C223.513 81.588 223.641 82.14 223.641 82.76C223.641 82.824 223.639 82.908 223.635 83.012C223.631 83.116 223.625 83.186 223.617 83.222H217.803ZM226.329 76.622V86H225.321V76.622H226.329ZM233.715 86.096C233.519 86.096 233.327 86.074 233.139 86.03C232.951 85.986 232.781 85.908 232.629 85.796C232.481 85.68 232.363 85.518 232.275 85.31C232.187 85.098 232.143 84.826 232.143 84.494C232.143 84.41 232.143 84.324 232.143 84.236C232.143 84.144 232.143 84.048 232.143 83.948V80.528H230.589V79.628H231.585C231.721 79.628 231.827 79.624 231.903 79.616C231.979 79.604 232.033 79.578 232.065 79.538C232.101 79.494 232.123 79.428 232.131 79.34C232.139 79.248 232.143 79.122 232.143 78.962V77.516H233.169V79.628H235.161V80.528H233.169V83.618C233.169 83.706 233.169 83.792 233.169 83.876C233.169 83.96 233.169 84.038 233.169 84.11C233.169 84.45 233.209 84.716 233.289 84.908C233.373 85.1 233.559 85.196 233.847 85.196C233.963 85.196 234.073 85.186 234.177 85.166C234.281 85.146 234.359 85.126 234.411 85.106V85.994C234.343 86.018 234.247 86.04 234.123 86.06C234.003 86.084 233.867 86.096 233.715 86.096ZM239.276 86.114C238.636 86.114 238.07 85.972 237.578 85.688C237.09 85.4 236.706 85.008 236.426 84.512C236.15 84.012 236.012 83.444 236.012 82.808C236.012 82.172 236.15 81.608 236.426 81.116C236.706 80.624 237.09 80.238 237.578 79.958C238.07 79.678 238.636 79.538 239.276 79.538C239.916 79.538 240.48 79.678 240.968 79.958C241.46 80.238 241.844 80.624 242.12 81.116C242.4 81.608 242.54 82.172 242.54 82.808C242.54 83.444 242.4 84.012 242.12 84.512C241.844 85.008 241.46 85.4 240.968 85.688C240.48 85.972 239.916 86.114 239.276 86.114ZM239.276 85.178C239.716 85.178 240.104 85.08 240.44 84.884C240.776 84.688 241.038 84.412 241.226 84.056C241.418 83.7 241.514 83.284 241.514 82.808C241.514 82.332 241.418 81.92 241.226 81.572C241.038 81.22 240.776 80.95 240.44 80.762C240.104 80.57 239.716 80.474 239.276 80.474C238.84 80.474 238.452 80.57 238.112 80.762C237.776 80.95 237.512 81.22 237.32 81.572C237.132 81.92 237.038 82.332 237.038 82.808C237.038 83.284 237.132 83.7 237.32 84.056C237.512 84.412 237.776 84.688 238.112 84.884C238.452 85.08 238.84 85.178 239.276 85.178ZM249.569 86.12C249.185 86.12 248.829 86.08 248.501 86C248.177 85.916 247.893 85.796 247.649 85.64C247.409 85.48 247.221 85.284 247.085 85.052C246.953 84.82 246.887 84.554 246.887 84.254C246.887 84.222 246.887 84.19 246.887 84.158C246.887 84.122 246.887 84.092 246.887 84.068H247.913C247.913 84.092 247.913 84.112 247.913 84.128C247.913 84.144 247.913 84.168 247.913 84.2C247.913 84.524 248.063 84.772 248.363 84.944C248.663 85.112 249.073 85.196 249.593 85.196C249.913 85.196 250.199 85.164 250.451 85.1C250.703 85.036 250.901 84.938 251.045 84.806C251.193 84.674 251.267 84.508 251.267 84.308C251.267 83.976 251.111 83.74 250.799 83.6C250.491 83.456 250.029 83.332 249.413 83.228C249.089 83.172 248.781 83.1 248.489 83.012C248.197 82.92 247.937 82.802 247.709 82.658C247.485 82.514 247.307 82.336 247.175 82.124C247.047 81.908 246.983 81.65 246.983 81.35C246.983 80.962 247.097 80.634 247.325 80.366C247.557 80.094 247.869 79.888 248.261 79.748C248.653 79.604 249.089 79.532 249.569 79.532C250.033 79.532 250.461 79.606 250.853 79.754C251.245 79.902 251.559 80.118 251.795 80.402C252.035 80.682 252.155 81.028 252.155 81.44C252.155 81.456 252.155 81.476 252.155 81.5C252.155 81.52 252.155 81.54 252.155 81.56H251.135C251.135 81.54 251.135 81.524 251.135 81.512C251.135 81.5 251.135 81.486 251.135 81.47C251.135 81.238 251.061 81.048 250.913 80.9C250.765 80.748 250.573 80.636 250.337 80.564C250.101 80.488 249.849 80.45 249.581 80.45C249.329 80.45 249.081 80.478 248.837 80.534C248.593 80.586 248.391 80.674 248.231 80.798C248.071 80.922 247.991 81.092 247.991 81.308C247.991 81.524 248.065 81.698 248.213 81.83C248.365 81.958 248.577 82.064 248.849 82.148C249.125 82.228 249.449 82.302 249.821 82.37C250.153 82.43 250.467 82.506 250.763 82.598C251.059 82.686 251.319 82.8 251.543 82.94C251.771 83.08 251.949 83.258 252.077 83.474C252.209 83.686 252.275 83.946 252.275 84.254C252.275 84.566 252.203 84.838 252.059 85.07C251.919 85.302 251.723 85.496 251.471 85.652C251.223 85.808 250.935 85.924 250.607 86C250.283 86.08 249.937 86.12 249.569 86.12ZM256.251 86.096C256.055 86.096 255.863 86.074 255.675 86.03C255.487 85.986 255.317 85.908 255.165 85.796C255.017 85.68 254.899 85.518 254.811 85.31C254.723 85.098 254.679 84.826 254.679 84.494C254.679 84.41 254.679 84.324 254.679 84.236C254.679 84.144 254.679 84.048 254.679 83.948V80.528H253.125V79.628H254.121C254.257 79.628 254.363 79.624 254.439 79.616C254.515 79.604 254.569 79.578 254.601 79.538C254.637 79.494 254.659 79.428 254.667 79.34C254.675 79.248 254.679 79.122 254.679 78.962V77.516H255.705V79.628H257.697V80.528H255.705V83.618C255.705 83.706 255.705 83.792 255.705 83.876C255.705 83.96 255.705 84.038 255.705 84.11C255.705 84.45 255.745 84.716 255.825 84.908C255.909 85.1 256.095 85.196 256.383 85.196C256.499 85.196 256.609 85.186 256.713 85.166C256.817 85.146 256.895 85.126 256.947 85.106V85.994C256.879 86.018 256.783 86.04 256.659 86.06C256.539 86.084 256.403 86.096 256.251 86.096ZM261.019 86.12C260.535 86.12 260.111 86.044 259.747 85.892C259.387 85.74 259.107 85.522 258.907 85.238C258.707 84.95 258.607 84.606 258.607 84.206C258.607 83.79 258.715 83.444 258.931 83.168C259.147 82.888 259.451 82.67 259.843 82.514C260.235 82.358 260.691 82.254 261.211 82.202C261.995 82.122 262.553 82.044 262.885 81.968C263.217 81.888 263.383 81.76 263.383 81.584C263.383 81.58 263.383 81.578 263.383 81.578C263.383 81.574 263.383 81.57 263.383 81.566C263.383 81.198 263.233 80.924 262.933 80.744C262.633 80.56 262.199 80.468 261.631 80.468C261.039 80.468 260.579 80.572 260.251 80.78C259.923 80.984 259.759 81.316 259.759 81.776H258.751C258.751 81.3 258.873 80.896 259.117 80.564C259.361 80.228 259.699 79.972 260.131 79.796C260.567 79.62 261.069 79.532 261.637 79.532C262.157 79.532 262.625 79.612 263.041 79.772C263.461 79.928 263.793 80.162 264.037 80.474C264.285 80.782 264.409 81.164 264.409 81.62C264.409 81.704 264.409 81.788 264.409 81.872C264.409 81.952 264.409 82.034 264.409 82.118V84.8C264.409 84.94 264.415 85.076 264.427 85.208C264.439 85.34 264.459 85.456 264.487 85.556C264.523 85.676 264.563 85.774 264.607 85.85C264.651 85.922 264.687 85.972 264.715 86H263.689C263.669 85.98 263.639 85.934 263.599 85.862C263.559 85.786 263.521 85.698 263.485 85.598C263.457 85.518 263.435 85.418 263.419 85.298C263.403 85.174 263.395 85.046 263.395 84.914L263.563 85.028C263.439 85.244 263.257 85.434 263.017 85.598C262.781 85.762 262.495 85.89 262.159 85.982C261.823 86.074 261.443 86.12 261.019 86.12ZM261.181 85.202C261.593 85.202 261.965 85.14 262.297 85.016C262.629 84.888 262.893 84.7 263.089 84.452C263.285 84.204 263.383 83.896 263.383 83.528V82.262L263.611 82.646C263.355 82.746 263.035 82.828 262.651 82.892C262.271 82.952 261.873 83.002 261.457 83.042C260.853 83.098 260.397 83.204 260.089 83.36C259.785 83.516 259.633 83.778 259.633 84.146C259.633 84.494 259.759 84.758 260.011 84.938C260.263 85.114 260.653 85.202 261.181 85.202ZM266.106 86V79.628H267.126V81.584L266.79 81.464C266.814 81.228 266.874 80.996 266.97 80.768C267.066 80.536 267.198 80.328 267.366 80.144C267.538 79.956 267.752 79.808 268.008 79.7C268.264 79.588 268.564 79.532 268.908 79.532C269.164 79.532 269.372 79.554 269.532 79.598C269.696 79.638 269.798 79.67 269.838 79.694L269.574 80.696C269.534 80.668 269.452 80.632 269.328 80.588C269.208 80.544 269.036 80.522 268.812 80.522C268.48 80.522 268.204 80.582 267.984 80.702C267.768 80.822 267.596 80.982 267.468 81.182C267.344 81.378 267.256 81.592 267.204 81.824C267.152 82.056 267.126 82.286 267.126 82.514V86H266.106ZM273.454 86.096C273.258 86.096 273.066 86.074 272.878 86.03C272.69 85.986 272.52 85.908 272.368 85.796C272.22 85.68 272.102 85.518 272.014 85.31C271.926 85.098 271.882 84.826 271.882 84.494C271.882 84.41 271.882 84.324 271.882 84.236C271.882 84.144 271.882 84.048 271.882 83.948V80.528H270.328V79.628H271.324C271.46 79.628 271.566 79.624 271.642 79.616C271.718 79.604 271.772 79.578 271.804 79.538C271.84 79.494 271.862 79.428 271.87 79.34C271.878 79.248 271.882 79.122 271.882 78.962V77.516H272.908V79.628H274.9V80.528H272.908V83.618C272.908 83.706 272.908 83.792 272.908 83.876C272.908 83.96 272.908 84.038 272.908 84.11C272.908 84.45 272.948 84.716 273.028 84.908C273.112 85.1 273.298 85.196 273.586 85.196C273.702 85.196 273.812 85.186 273.916 85.166C274.02 85.146 274.098 85.126 274.15 85.106V85.994C274.082 86.018 273.986 86.04 273.862 86.06C273.742 86.084 273.606 86.096 273.454 86.096ZM283.125 86V83.186C283.125 82.938 283.125 82.724 283.125 82.544C283.125 82.36 283.125 82.206 283.125 82.082C283.125 81.926 283.113 81.758 283.089 81.578C283.069 81.394 283.019 81.222 282.939 81.062C282.859 80.898 282.733 80.764 282.561 80.66C282.393 80.556 282.159 80.504 281.859 80.504C281.555 80.504 281.299 80.564 281.091 80.684C280.883 80.8 280.715 80.954 280.587 81.146C280.459 81.338 280.367 81.55 280.311 81.782C280.255 82.01 280.227 82.236 280.227 82.46L279.651 82.226C279.651 81.746 279.751 81.302 279.951 80.894C280.151 80.486 280.431 80.158 280.791 79.91C281.155 79.658 281.581 79.532 282.069 79.532C282.553 79.532 282.947 79.63 283.251 79.826C283.555 80.022 283.779 80.292 283.923 80.636C284.067 80.98 284.139 81.376 284.139 81.824C284.139 81.984 284.139 82.19 284.139 82.442C284.139 82.69 284.139 82.974 284.139 83.294V86H283.125ZM279.207 86V79.628H280.227V86H279.207ZM287.031 86V83.186C287.031 82.914 287.031 82.69 287.031 82.514C287.031 82.334 287.031 82.182 287.031 82.058C287.031 81.902 287.021 81.734 287.001 81.554C286.981 81.374 286.931 81.206 286.851 81.05C286.771 80.89 286.643 80.76 286.467 80.66C286.295 80.556 286.053 80.504 285.741 80.504C285.433 80.504 285.175 80.562 284.967 80.678C284.763 80.794 284.599 80.946 284.475 81.134C284.355 81.322 284.269 81.526 284.217 81.746C284.165 81.962 284.139 82.17 284.139 82.37L283.563 82.148C283.563 81.692 283.659 81.266 283.851 80.87C284.047 80.47 284.323 80.148 284.679 79.904C285.039 79.656 285.465 79.532 285.957 79.532C286.417 79.532 286.801 79.622 287.109 79.802C287.421 79.982 287.655 80.236 287.811 80.564C287.971 80.888 288.051 81.274 288.051 81.722C288.051 81.89 288.051 82.098 288.051 82.346C288.051 82.594 288.051 82.874 288.051 83.186V86H287.031ZM292.05 86.12C291.566 86.12 291.142 86.044 290.778 85.892C290.418 85.74 290.138 85.522 289.938 85.238C289.738 84.95 289.638 84.606 289.638 84.206C289.638 83.79 289.746 83.444 289.962 83.168C290.178 82.888 290.482 82.67 290.874 82.514C291.266 82.358 291.722 82.254 292.242 82.202C293.026 82.122 293.584 82.044 293.916 81.968C294.248 81.888 294.414 81.76 294.414 81.584C294.414 81.58 294.414 81.578 294.414 81.578C294.414 81.574 294.414 81.57 294.414 81.566C294.414 81.198 294.264 80.924 293.964 80.744C293.664 80.56 293.23 80.468 292.662 80.468C292.07 80.468 291.61 80.572 291.282 80.78C290.954 80.984 290.79 81.316 290.79 81.776H289.782C289.782 81.3 289.904 80.896 290.148 80.564C290.392 80.228 290.73 79.972 291.162 79.796C291.598 79.62 292.1 79.532 292.668 79.532C293.188 79.532 293.656 79.612 294.072 79.772C294.492 79.928 294.824 80.162 295.068 80.474C295.316 80.782 295.44 81.164 295.44 81.62C295.44 81.704 295.44 81.788 295.44 81.872C295.44 81.952 295.44 82.034 295.44 82.118V84.8C295.44 84.94 295.446 85.076 295.458 85.208C295.47 85.34 295.49 85.456 295.518 85.556C295.554 85.676 295.594 85.774 295.638 85.85C295.682 85.922 295.718 85.972 295.746 86H294.72C294.7 85.98 294.67 85.934 294.63 85.862C294.59 85.786 294.552 85.698 294.516 85.598C294.488 85.518 294.466 85.418 294.45 85.298C294.434 85.174 294.426 85.046 294.426 84.914L294.594 85.028C294.47 85.244 294.288 85.434 294.048 85.598C293.812 85.762 293.526 85.89 293.19 85.982C292.854 86.074 292.474 86.12 292.05 86.12ZM292.212 85.202C292.624 85.202 292.996 85.14 293.328 85.016C293.66 84.888 293.924 84.7 294.12 84.452C294.316 84.204 294.414 83.896 294.414 83.528V82.262L294.642 82.646C294.386 82.746 294.066 82.828 293.682 82.892C293.302 82.952 292.904 83.002 292.488 83.042C291.884 83.098 291.428 83.204 291.12 83.36C290.816 83.516 290.664 83.778 290.664 84.146C290.664 84.494 290.79 84.758 291.042 84.938C291.294 85.114 291.684 85.202 292.212 85.202ZM297.137 86V76.622H298.109V82.37L297.815 82.238L300.863 79.628H302.183L299.129 82.316L299.399 81.794L302.207 86H301.109L298.739 82.358L298.949 82.478L297.959 83.336L298.109 82.85V86H297.137ZM303.361 86V79.628H304.369V86H303.361ZM303.871 78.164C303.683 78.164 303.519 78.112 303.379 78.008C303.243 77.9 303.175 77.754 303.175 77.57C303.175 77.39 303.243 77.248 303.379 77.144C303.519 77.036 303.683 76.982 303.871 76.982C304.059 76.982 304.221 77.036 304.357 77.144C304.493 77.248 304.561 77.39 304.561 77.57C304.561 77.754 304.493 77.9 304.357 78.008C304.221 78.112 304.059 78.164 303.871 78.164ZM310.826 86V82.946C310.826 82.762 310.826 82.612 310.826 82.496C310.826 82.376 310.826 82.262 310.826 82.154C310.826 81.822 310.77 81.532 310.658 81.284C310.546 81.036 310.37 80.844 310.13 80.708C309.89 80.572 309.576 80.504 309.188 80.504C308.848 80.504 308.532 80.592 308.24 80.768C307.952 80.94 307.72 81.174 307.544 81.47C307.372 81.762 307.286 82.09 307.286 82.454L306.704 82.232C306.704 81.732 306.826 81.278 307.07 80.87C307.318 80.462 307.646 80.138 308.054 79.898C308.466 79.654 308.914 79.532 309.398 79.532C309.89 79.532 310.32 79.626 310.688 79.814C311.056 80.002 311.34 80.272 311.54 80.624C311.744 80.972 311.846 81.392 311.846 81.884C311.846 82.06 311.846 82.252 311.846 82.46C311.846 82.668 311.846 82.862 311.846 83.042V86H310.826ZM306.266 86V79.628H307.286V86H306.266ZM317.693 85.61C318.037 85.638 318.339 85.702 318.599 85.802C318.863 85.898 319.069 86.04 319.217 86.228C319.365 86.42 319.439 86.67 319.439 86.978C319.439 87.318 319.323 87.618 319.091 87.878C318.859 88.142 318.507 88.348 318.035 88.496C317.563 88.644 316.969 88.718 316.253 88.718C315.241 88.718 314.477 88.57 313.961 88.274C313.445 87.982 313.187 87.582 313.187 87.074C313.187 86.914 313.205 86.772 313.241 86.648C313.281 86.528 313.325 86.43 313.373 86.354L314.345 86.498C314.313 86.542 314.281 86.608 314.249 86.696C314.221 86.788 314.207 86.894 314.207 87.014C314.207 87.334 314.389 87.558 314.753 87.686C315.117 87.818 315.633 87.884 316.301 87.884C316.801 87.884 317.211 87.85 317.531 87.782C317.851 87.714 318.089 87.616 318.245 87.488C318.401 87.36 318.479 87.21 318.479 87.038C318.479 86.778 318.369 86.616 318.149 86.552C317.933 86.492 317.665 86.45 317.345 86.426L314.921 86.246C314.517 86.214 314.187 86.09 313.931 85.874C313.679 85.654 313.553 85.388 313.553 85.076C313.553 84.884 313.599 84.702 313.691 84.53C313.787 84.358 313.897 84.214 314.021 84.098C314.149 83.978 314.263 83.906 314.363 83.882L315.167 84.248C315.067 84.264 314.943 84.334 314.795 84.458C314.651 84.578 314.579 84.72 314.579 84.884C314.579 85.032 314.637 85.154 314.753 85.25C314.869 85.342 315.099 85.402 315.443 85.43L317.693 85.61ZM318.575 79.628H319.535L319.139 82.136C319.067 82.604 318.917 83.028 318.689 83.408C318.461 83.784 318.149 84.084 317.753 84.308C317.361 84.528 316.875 84.638 316.295 84.638C315.691 84.638 315.175 84.528 314.747 84.308C314.319 84.088 313.991 83.788 313.763 83.408C313.535 83.024 313.421 82.592 313.421 82.112C313.421 81.624 313.539 81.186 313.775 80.798C314.015 80.406 314.347 80.098 314.771 79.874C315.195 79.646 315.681 79.532 316.229 79.532C316.721 79.532 317.151 79.618 317.519 79.79C317.887 79.958 318.177 80.17 318.389 80.426C318.605 80.682 318.725 80.94 318.749 81.2L318.365 81.224L318.575 79.628ZM316.289 83.726C316.677 83.726 317.009 83.662 317.285 83.534C317.565 83.406 317.779 83.22 317.927 82.976C318.079 82.732 318.155 82.436 318.155 82.088C318.155 81.752 318.079 81.462 317.927 81.218C317.779 80.97 317.565 80.78 317.285 80.648C317.009 80.512 316.679 80.444 316.295 80.444C315.927 80.444 315.601 80.514 315.317 80.654C315.037 80.79 314.817 80.982 314.657 81.23C314.501 81.478 314.423 81.77 314.423 82.106C314.423 82.446 314.497 82.738 314.645 82.982C314.797 83.222 315.011 83.406 315.287 83.534C315.567 83.662 315.901 83.726 316.289 83.726ZM323.938 88.622V79.628H324.958V88.622H323.938ZM327.052 86.12C326.56 86.12 326.1 86 325.672 85.76C325.244 85.516 324.896 85.182 324.628 84.758C324.364 84.334 324.232 83.85 324.232 83.306C324.232 83.294 324.232 83.284 324.232 83.276C324.232 83.268 324.232 83.258 324.232 83.246L324.964 83.228C324.964 83.236 324.964 83.246 324.964 83.258C324.964 83.266 324.964 83.274 324.964 83.282C324.964 83.626 325.054 83.94 325.234 84.224C325.418 84.508 325.658 84.734 325.954 84.902C326.25 85.07 326.568 85.154 326.908 85.154C327.472 85.154 327.94 84.962 328.312 84.578C328.688 84.19 328.876 83.6 328.876 82.808C328.876 82.012 328.69 81.424 328.318 81.044C327.946 80.66 327.476 80.468 326.908 80.468C326.568 80.468 326.25 80.552 325.954 80.72C325.658 80.884 325.418 81.106 325.234 81.386C325.054 81.666 324.964 81.98 324.964 82.328L324.232 82.304C324.232 81.756 324.364 81.274 324.628 80.858C324.896 80.442 325.244 80.118 325.672 79.886C326.1 79.65 326.56 79.532 327.052 79.532C327.568 79.532 328.044 79.66 328.48 79.916C328.916 80.168 329.266 80.538 329.53 81.026C329.794 81.514 329.926 82.108 329.926 82.808C329.926 83.52 329.796 84.124 329.536 84.62C329.276 85.112 328.928 85.486 328.492 85.742C328.056 85.994 327.576 86.12 327.052 86.12ZM331.52 86V79.628H332.54V81.584L332.204 81.464C332.228 81.228 332.288 80.996 332.384 80.768C332.48 80.536 332.612 80.328 332.78 80.144C332.952 79.956 333.166 79.808 333.422 79.7C333.678 79.588 333.978 79.532 334.322 79.532C334.578 79.532 334.786 79.554 334.946 79.598C335.11 79.638 335.212 79.67 335.252 79.694L334.988 80.696C334.948 80.668 334.866 80.632 334.742 80.588C334.622 80.544 334.45 80.522 334.226 80.522C333.894 80.522 333.618 80.582 333.398 80.702C333.182 80.822 333.01 80.982 332.882 81.182C332.758 81.378 332.67 81.592 332.618 81.824C332.566 82.056 332.54 82.286 332.54 82.514V86H331.52ZM336.561 83.222V82.31H341.487L341.307 82.61C341.307 82.586 341.307 82.564 341.307 82.544C341.307 82.52 341.307 82.498 341.307 82.478C341.307 82.11 341.229 81.774 341.073 81.47C340.921 81.162 340.693 80.916 340.389 80.732C340.085 80.548 339.709 80.456 339.261 80.456C338.809 80.456 338.411 80.552 338.067 80.744C337.723 80.936 337.455 81.208 337.263 81.56C337.071 81.908 336.975 82.324 336.975 82.808C336.975 83.3 337.067 83.724 337.251 84.08C337.439 84.436 337.705 84.71 338.049 84.902C338.393 85.094 338.801 85.19 339.273 85.19C339.609 85.19 339.901 85.156 340.149 85.088C340.397 85.016 340.601 84.922 340.761 84.806C340.925 84.686 341.049 84.556 341.133 84.416C341.217 84.276 341.267 84.136 341.283 83.996H342.303C342.283 84.252 342.203 84.506 342.062 84.758C341.923 85.01 341.725 85.24 341.469 85.448C341.213 85.652 340.899 85.816 340.527 85.94C340.155 86.064 339.727 86.126 339.243 86.126C338.603 86.126 338.039 85.986 337.551 85.706C337.063 85.426 336.679 85.038 336.399 84.542C336.123 84.046 335.985 83.476 335.985 82.832C335.985 82.18 336.125 81.608 336.405 81.116C336.685 80.62 337.071 80.232 337.563 79.952C338.055 79.672 338.617 79.532 339.249 79.532C339.893 79.532 340.451 79.672 340.923 79.952C341.395 80.232 341.759 80.616 342.015 81.104C342.271 81.588 342.399 82.14 342.399 82.76C342.399 82.824 342.397 82.908 342.393 83.012C342.389 83.116 342.383 83.186 342.375 83.222H336.561ZM346.616 86.12C346.092 86.12 345.612 85.994 345.176 85.742C344.74 85.486 344.392 85.112 344.132 84.62C343.872 84.124 343.742 83.52 343.742 82.808C343.742 82.108 343.874 81.514 344.138 81.026C344.402 80.538 344.752 80.168 345.188 79.916C345.624 79.66 346.1 79.532 346.616 79.532C347.108 79.532 347.568 79.65 347.996 79.886C348.428 80.118 348.776 80.442 349.04 80.858C349.304 81.274 349.436 81.756 349.436 82.304C349.436 82.316 349.436 82.328 349.436 82.34C349.436 82.352 349.436 82.364 349.436 82.376L348.704 82.406C348.704 82.394 348.704 82.382 348.704 82.37C348.704 82.354 348.704 82.34 348.704 82.328C348.704 81.98 348.612 81.666 348.428 81.386C348.248 81.106 348.01 80.884 347.714 80.72C347.418 80.552 347.1 80.468 346.76 80.468C346.192 80.468 345.722 80.66 345.35 81.044C344.978 81.424 344.792 82.012 344.792 82.808C344.792 83.6 344.978 84.19 345.35 84.578C345.726 84.962 346.196 85.154 346.76 85.154C347.116 85.154 347.44 85.068 347.732 84.896C348.028 84.724 348.264 84.494 348.44 84.206C348.616 83.914 348.704 83.588 348.704 83.228L349.436 83.246C349.436 83.79 349.31 84.28 349.058 84.716C348.806 85.148 348.466 85.49 348.038 85.742C347.614 85.994 347.14 86.12 346.616 86.12ZM348.704 86V76.622H349.73V86H348.704ZM351.583 86V79.628H352.591V86H351.583ZM352.093 78.164C351.905 78.164 351.741 78.112 351.601 78.008C351.465 77.9 351.397 77.754 351.397 77.57C351.397 77.39 351.465 77.248 351.601 77.144C351.741 77.036 351.905 76.982 352.093 76.982C352.281 76.982 352.443 77.036 352.579 77.144C352.715 77.248 352.783 77.39 352.783 77.57C352.783 77.754 352.715 77.9 352.579 78.008C352.443 78.112 352.281 78.164 352.093 78.164ZM357.512 86.12C356.904 86.12 356.352 85.988 355.856 85.724C355.36 85.456 354.966 85.074 354.674 84.578C354.386 84.082 354.242 83.492 354.242 82.808C354.242 82.124 354.386 81.538 354.674 81.05C354.966 80.558 355.36 80.182 355.856 79.922C356.352 79.662 356.904 79.532 357.512 79.532C357.976 79.532 358.39 79.604 358.754 79.748C359.118 79.888 359.426 80.076 359.678 80.312C359.93 80.548 360.122 80.808 360.254 81.092C360.39 81.372 360.458 81.652 360.458 81.932C360.458 81.936 360.458 81.942 360.458 81.95C360.458 81.958 360.458 81.966 360.458 81.974H359.444C359.444 81.954 359.442 81.932 359.438 81.908C359.434 81.88 359.43 81.852 359.426 81.824C359.394 81.556 359.292 81.322 359.12 81.122C358.948 80.918 358.724 80.758 358.448 80.642C358.172 80.526 357.858 80.468 357.506 80.468C357.11 80.468 356.742 80.554 356.402 80.726C356.066 80.894 355.794 81.152 355.586 81.5C355.382 81.844 355.28 82.28 355.28 82.808C355.28 83.332 355.382 83.77 355.586 84.122C355.79 84.474 356.06 84.74 356.396 84.92C356.736 85.096 357.106 85.184 357.506 85.184C357.938 85.184 358.294 85.116 358.574 84.98C358.854 84.844 359.064 84.664 359.204 84.44C359.348 84.212 359.428 83.968 359.444 83.708H360.458C360.458 83.996 360.394 84.284 360.266 84.572C360.138 84.856 359.95 85.116 359.702 85.352C359.454 85.584 359.146 85.77 358.778 85.91C358.414 86.05 357.992 86.12 357.512 86.12ZM364.438 86.096C364.242 86.096 364.05 86.074 363.862 86.03C363.674 85.986 363.504 85.908 363.352 85.796C363.204 85.68 363.086 85.518 362.998 85.31C362.91 85.098 362.866 84.826 362.866 84.494C362.866 84.41 362.866 84.324 362.866 84.236C362.866 84.144 362.866 84.048 362.866 83.948V80.528H361.312V79.628H362.308C362.444 79.628 362.55 79.624 362.626 79.616C362.702 79.604 362.756 79.578 362.788 79.538C362.824 79.494 362.846 79.428 362.854 79.34C362.862 79.248 362.866 79.122 362.866 78.962V77.516H363.892V79.628H365.884V80.528H363.892V83.618C363.892 83.706 363.892 83.792 363.892 83.876C363.892 83.96 363.892 84.038 363.892 84.11C363.892 84.45 363.932 84.716 364.012 84.908C364.096 85.1 364.282 85.196 364.57 85.196C364.686 85.196 364.796 85.186 364.9 85.166C365.004 85.146 365.082 85.126 365.134 85.106V85.994C365.066 86.018 364.97 86.04 364.846 86.06C364.726 86.084 364.59 86.096 364.438 86.096ZM367.251 86V79.628H368.259V86H367.251ZM367.761 78.164C367.573 78.164 367.409 78.112 367.269 78.008C367.133 77.9 367.065 77.754 367.065 77.57C367.065 77.39 367.133 77.248 367.269 77.144C367.409 77.036 367.573 76.982 367.761 76.982C367.949 76.982 368.111 77.036 368.247 77.144C368.383 77.248 368.451 77.39 368.451 77.57C368.451 77.754 368.383 77.9 368.247 78.008C368.111 78.112 367.949 78.164 367.761 78.164ZM373.174 86.114C372.534 86.114 371.968 85.972 371.476 85.688C370.988 85.4 370.604 85.008 370.324 84.512C370.048 84.012 369.91 83.444 369.91 82.808C369.91 82.172 370.048 81.608 370.324 81.116C370.604 80.624 370.988 80.238 371.476 79.958C371.968 79.678 372.534 79.538 373.174 79.538C373.814 79.538 374.378 79.678 374.866 79.958C375.358 80.238 375.742 80.624 376.018 81.116C376.298 81.608 376.438 82.172 376.438 82.808C376.438 83.444 376.298 84.012 376.018 84.512C375.742 85.008 375.358 85.4 374.866 85.688C374.378 85.972 373.814 86.114 373.174 86.114ZM373.174 85.178C373.614 85.178 374.002 85.08 374.338 84.884C374.674 84.688 374.936 84.412 375.124 84.056C375.316 83.7 375.412 83.284 375.412 82.808C375.412 82.332 375.316 81.92 375.124 81.572C374.936 81.22 374.674 80.95 374.338 80.762C374.002 80.57 373.614 80.474 373.174 80.474C372.738 80.474 372.35 80.57 372.01 80.762C371.674 80.95 371.41 81.22 371.218 81.572C371.03 81.92 370.936 82.332 370.936 82.808C370.936 83.284 371.03 83.7 371.218 84.056C371.41 84.412 371.674 84.688 372.01 84.884C372.35 85.08 372.738 85.178 373.174 85.178ZM382.591 86V82.946C382.591 82.762 382.591 82.612 382.591 82.496C382.591 82.376 382.591 82.262 382.591 82.154C382.591 81.822 382.535 81.532 382.423 81.284C382.311 81.036 382.135 80.844 381.895 80.708C381.655 80.572 381.341 80.504 380.953 80.504C380.613 80.504 380.297 80.592 380.005 80.768C379.717 80.94 379.485 81.174 379.309 81.47C379.137 81.762 379.051 82.09 379.051 82.454L378.469 82.232C378.469 81.732 378.591 81.278 378.835 80.87C379.083 80.462 379.411 80.138 379.819 79.898C380.231 79.654 380.679 79.532 381.163 79.532C381.655 79.532 382.085 79.626 382.453 79.814C382.821 80.002 383.105 80.272 383.305 80.624C383.509 80.972 383.611 81.392 383.611 81.884C383.611 82.06 383.611 82.252 383.611 82.46C383.611 82.668 383.611 82.862 383.611 83.042V86H382.591ZM378.031 86V79.628H379.051V86H378.031ZM387.827 86.12C387.443 86.12 387.087 86.08 386.759 86C386.435 85.916 386.151 85.796 385.907 85.64C385.667 85.48 385.479 85.284 385.343 85.052C385.211 84.82 385.145 84.554 385.145 84.254C385.145 84.222 385.145 84.19 385.145 84.158C385.145 84.122 385.145 84.092 385.145 84.068H386.171C386.171 84.092 386.171 84.112 386.171 84.128C386.171 84.144 386.171 84.168 386.171 84.2C386.171 84.524 386.321 84.772 386.621 84.944C386.921 85.112 387.331 85.196 387.851 85.196C388.171 85.196 388.457 85.164 388.709 85.1C388.961 85.036 389.159 84.938 389.303 84.806C389.451 84.674 389.525 84.508 389.525 84.308C389.525 83.976 389.369 83.74 389.057 83.6C388.749 83.456 388.287 83.332 387.671 83.228C387.347 83.172 387.039 83.1 386.747 83.012C386.455 82.92 386.195 82.802 385.967 82.658C385.743 82.514 385.565 82.336 385.433 82.124C385.305 81.908 385.241 81.65 385.241 81.35C385.241 80.962 385.355 80.634 385.583 80.366C385.815 80.094 386.127 79.888 386.519 79.748C386.911 79.604 387.347 79.532 387.827 79.532C388.291 79.532 388.719 79.606 389.111 79.754C389.503 79.902 389.817 80.118 390.053 80.402C390.293 80.682 390.413 81.028 390.413 81.44C390.413 81.456 390.413 81.476 390.413 81.5C390.413 81.52 390.413 81.54 390.413 81.56H389.393C389.393 81.54 389.393 81.524 389.393 81.512C389.393 81.5 389.393 81.486 389.393 81.47C389.393 81.238 389.319 81.048 389.171 80.9C389.023 80.748 388.831 80.636 388.595 80.564C388.359 80.488 388.107 80.45 387.839 80.45C387.587 80.45 387.339 80.478 387.095 80.534C386.851 80.586 386.649 80.674 386.489 80.798C386.329 80.922 386.249 81.092 386.249 81.308C386.249 81.524 386.323 81.698 386.471 81.83C386.623 81.958 386.835 82.064 387.107 82.148C387.383 82.228 387.707 82.302 388.079 82.37C388.411 82.43 388.725 82.506 389.021 82.598C389.317 82.686 389.577 82.8 389.801 82.94C390.029 83.08 390.207 83.258 390.335 83.474C390.467 83.686 390.533 83.946 390.533 84.254C390.533 84.566 390.461 84.838 390.317 85.07C390.177 85.302 389.981 85.496 389.729 85.652C389.481 85.808 389.193 85.924 388.865 86C388.541 86.08 388.195 86.12 387.827 86.12ZM393.167 77.162L392.987 83.918H392.327L392.141 77.162H393.167ZM392.657 86.156C392.461 86.156 392.295 86.09 392.159 85.958C392.027 85.822 391.961 85.656 391.961 85.46C391.961 85.268 392.027 85.104 392.159 84.968C392.295 84.832 392.461 84.764 392.657 84.764C392.849 84.764 393.013 84.832 393.149 84.968C393.285 85.104 393.353 85.268 393.353 85.46C393.353 85.656 393.285 85.822 393.149 85.958C393.013 86.09 392.849 86.156 392.657 86.156Z" fill="#262626"/>
<g clip-path="url(#clip0_94_1983)">
<path d="M83.5799 57.424C83.4809 57.3243 83.3619 57.2465 83.2308 57.1959C83.0996 57.1452 82.9593 57.1228 82.8189 57.13C68.7909 57.862 63.6089 70.358 63.5589 70.484C63.4857 70.6658 63.4676 70.865 63.5067 71.057C63.5458 71.2491 63.6405 71.4253 63.7789 71.564L69.4359 77.221C69.5752 77.3601 69.7525 77.455 69.9455 77.4938C70.1385 77.5326 70.3387 77.5135 70.5209 77.439C70.6459 77.388 83.0749 72.148 83.8689 58.186C83.8769 58.0458 83.8554 57.9055 83.8056 57.7742C83.7558 57.6429 83.6789 57.5236 83.5799 57.424ZM75.4139 68.414C75.1342 68.6938 74.7779 68.8843 74.3899 68.9615C74.0019 69.0387 73.5998 68.9992 73.2343 68.8478C72.8688 68.6965 72.5564 68.4401 72.3366 68.1112C72.1168 67.7823 71.9995 67.3956 71.9995 67C71.9995 66.6044 72.1168 66.2177 72.3366 65.8888C72.5564 65.5599 72.8688 65.3035 73.2343 65.1522C73.5998 65.0008 74.0019 64.9613 74.3899 65.0385C74.7779 65.1157 75.1342 65.3062 75.4139 65.586C75.7889 65.9611 75.9995 66.4697 75.9995 67C75.9995 67.5303 75.7889 68.0389 75.4139 68.414Z" fill="#277DFE"/>
<path d="M61.113 75.844C61.3768 75.5784 61.6904 75.3675 62.0358 75.2234C62.3812 75.0793 62.7517 75.0048 63.126 75.0042C63.5003 75.0035 63.871 75.0768 64.217 75.2197C64.5629 75.3627 64.8772 75.5725 65.1419 75.8371C65.4065 76.1018 65.6164 76.4161 65.7593 76.762C65.9022 77.108 65.9755 77.4787 65.9749 77.853C65.9742 78.2273 65.8997 78.5978 65.7556 78.9432C65.6115 79.2887 65.4006 79.6022 65.135 79.866C64.024 80.977 60 81 60 81C60 81 60 76.954 61.113 75.844Z" fill="#9867FF"/>
<path d="M70.3571 59.341C68.9476 59.0957 67.4998 59.1933 66.1361 59.6257C64.7723 60.0581 63.5327 60.8124 62.5221 61.825C61.9873 62.3648 61.5223 62.9695 61.1381 63.625C61.0256 63.8161 60.9797 64.0391 61.0078 64.259C61.0359 64.479 61.1362 64.6833 61.2931 64.84L63.2821 66.83C65.1303 63.8968 67.5336 61.3529 70.3571 59.341Z" fill="#9867FF"/>
<path d="M81.6589 70.643C81.9042 72.0525 81.8066 73.5003 81.3742 74.864C80.9419 76.2278 80.1875 77.4674 79.1749 78.478C78.6352 79.0128 78.0304 79.4778 77.3749 79.862C77.1839 79.9745 76.9608 80.0204 76.7409 79.9923C76.521 79.9642 76.3166 79.8639 76.1599 79.707L74.1699 77.718C77.1031 75.8698 79.6471 73.4665 81.6589 70.643Z" fill="#9867FF"/>
</g>
<path d="M104.08 66V54.2H105.816V65.472L105.032 64.528H110.384V66H104.08ZM115.127 66.168C114.487 66.168 113.924 66.0667 113.439 65.864C112.959 65.6613 112.586 65.3707 112.319 64.992C112.052 64.6133 111.919 64.1573 111.919 63.624C111.919 63.0533 112.068 62.5813 112.367 62.208C112.671 61.8347 113.087 61.5467 113.615 61.344C114.148 61.136 114.754 61 115.431 60.936C116.439 60.8347 117.148 60.736 117.559 60.64C117.975 60.544 118.183 60.3867 118.183 60.168C118.183 60.1627 118.183 60.1573 118.183 60.152C118.183 59.72 117.999 59.392 117.631 59.168C117.263 58.944 116.738 58.832 116.055 58.832C115.335 58.832 114.778 58.96 114.383 59.216C113.994 59.4667 113.799 59.8667 113.799 60.416H112.095C112.095 59.7653 112.263 59.2133 112.599 58.76C112.94 58.3067 113.41 57.9627 114.007 57.728C114.604 57.488 115.29 57.368 116.063 57.368C116.772 57.368 117.418 57.4773 117.999 57.696C118.586 57.9093 119.052 58.2293 119.399 58.656C119.746 59.0827 119.919 59.6133 119.919 60.248C119.919 60.36 119.919 60.472 119.919 60.584C119.919 60.6907 119.919 60.8 119.919 60.912V64.304C119.919 64.5013 119.927 64.6933 119.943 64.88C119.959 65.0613 119.988 65.224 120.031 65.368C120.079 65.5333 120.135 65.6693 120.199 65.776C120.268 65.8827 120.324 65.9573 120.367 66H118.639C118.607 65.968 118.559 65.9013 118.495 65.8C118.436 65.6933 118.383 65.5707 118.335 65.432C118.287 65.2987 118.25 65.1467 118.223 64.976C118.202 64.8 118.191 64.6107 118.191 64.408L118.511 64.632C118.351 64.9413 118.108 65.2107 117.783 65.44C117.463 65.6693 117.076 65.848 116.623 65.976C116.175 66.104 115.676 66.168 115.127 66.168ZM115.487 64.728C115.983 64.728 116.434 64.6507 116.839 64.496C117.25 64.336 117.578 64.096 117.823 63.776C118.068 63.4507 118.191 63.0427 118.191 62.552V61.144L118.599 61.68C118.258 61.8133 117.839 61.9227 117.343 62.008C116.852 62.088 116.346 62.1547 115.823 62.208C115.103 62.272 114.562 62.3973 114.199 62.584C113.836 62.7653 113.655 63.0693 113.655 63.496C113.655 63.9067 113.804 64.216 114.103 64.424C114.407 64.6267 114.868 64.728 115.487 64.728ZM125.123 66.152C124.52 66.152 124.019 66.0507 123.619 65.848C123.219 65.64 122.901 65.3707 122.667 65.04C122.432 64.704 122.267 64.3387 122.171 63.944C122.075 63.544 122.027 63.1547 122.027 62.776C122.027 62.5787 122.027 62.3733 122.027 62.16C122.027 61.9413 122.027 61.7227 122.027 61.504V57.504H123.771V61.256C123.771 61.448 123.771 61.6373 123.771 61.824C123.771 62.0053 123.771 62.176 123.771 62.336C123.771 62.7467 123.824 63.1253 123.931 63.472C124.037 63.8133 124.224 64.0907 124.491 64.304C124.763 64.512 125.141 64.616 125.627 64.616C126.08 64.616 126.475 64.4827 126.811 64.216C127.147 63.944 127.408 63.6027 127.595 63.192C127.781 62.776 127.875 62.36 127.875 61.944L128.635 62.352C128.635 62.8427 128.552 63.3147 128.387 63.768C128.227 64.2213 127.995 64.6293 127.691 64.992C127.387 65.3493 127.016 65.632 126.579 65.84C126.147 66.048 125.661 66.152 125.123 66.152ZM127.875 66V57.504H129.611V66H127.875ZM137.856 66V62.08C137.856 61.8507 137.856 61.656 137.856 61.496C137.856 61.336 137.856 61.1867 137.856 61.048C137.856 60.632 137.792 60.2667 137.664 59.952C137.536 59.632 137.325 59.384 137.032 59.208C136.739 59.0267 136.347 58.936 135.856 58.936C135.424 58.936 135.032 59.0427 134.68 59.256C134.333 59.4693 134.056 59.76 133.848 60.128C133.645 60.4907 133.544 60.904 133.544 61.368L132.8 61C132.8 60.312 132.963 59.696 133.288 59.152C133.613 58.6027 134.048 58.168 134.592 57.848C135.141 57.528 135.741 57.368 136.392 57.368C137.064 57.368 137.637 57.4987 138.112 57.76C138.592 58.016 138.957 58.384 139.208 58.864C139.464 59.3387 139.592 59.9067 139.592 60.568C139.592 60.8133 139.592 61.0853 139.592 61.384C139.592 61.6827 139.592 61.9707 139.592 62.248V66H137.856ZM131.808 66V57.504H133.544V66H131.808ZM145.897 66.168C145.043 66.168 144.278 65.9893 143.601 65.632C142.929 65.2693 142.398 64.7547 142.009 64.088C141.625 63.4213 141.433 62.6373 141.433 61.736C141.433 60.8347 141.625 60.0587 142.009 59.408C142.398 58.752 142.929 58.248 143.601 57.896C144.278 57.544 145.043 57.368 145.897 57.368C146.542 57.368 147.115 57.4667 147.617 57.664C148.118 57.856 148.542 58.112 148.889 58.432C149.235 58.752 149.499 59.104 149.681 59.488C149.862 59.872 149.953 60.256 149.953 60.64C149.953 60.6453 149.953 60.6533 149.953 60.664C149.953 60.6747 149.953 60.6853 149.953 60.696H148.233C148.233 60.6693 148.23 60.64 148.225 60.608C148.219 60.5707 148.214 60.536 148.209 60.504C148.166 60.1893 148.043 59.9093 147.841 59.664C147.638 59.4187 147.371 59.224 147.041 59.08C146.71 58.936 146.323 58.864 145.881 58.864C145.395 58.864 144.947 58.9707 144.537 59.184C144.131 59.392 143.806 59.7093 143.561 60.136C143.315 60.5627 143.193 61.096 143.193 61.736C143.193 62.376 143.313 62.9147 143.553 63.352C143.798 63.784 144.123 64.112 144.529 64.336C144.939 64.56 145.39 64.672 145.881 64.672C146.409 64.672 146.841 64.592 147.177 64.432C147.513 64.2667 147.766 64.048 147.937 63.776C148.107 63.4987 148.206 63.2 148.233 62.88H149.953C149.953 63.264 149.865 63.6533 149.689 64.048C149.513 64.4373 149.254 64.792 148.913 65.112C148.571 65.432 148.147 65.688 147.641 65.88C147.139 66.072 146.558 66.168 145.897 66.168ZM157.926 66V62.888C157.926 62.7493 157.926 62.5813 157.926 62.384C157.926 62.1867 157.926 61.9867 157.926 61.784C157.926 61.576 157.926 61.4027 157.926 61.264C157.926 60.5013 157.769 59.9227 157.454 59.528C157.145 59.1333 156.636 58.936 155.926 58.936C155.452 58.936 155.041 59.0293 154.694 59.216C154.348 59.4027 154.078 59.6587 153.886 59.984C153.7 60.3093 153.606 60.68 153.606 61.096L152.79 60.76C152.79 60.1147 152.945 59.5387 153.254 59.032C153.569 58.52 153.998 58.1147 154.542 57.816C155.092 57.5173 155.718 57.368 156.422 57.368C157.446 57.368 158.241 57.6747 158.806 58.288C159.377 58.896 159.662 59.744 159.662 60.832C159.662 61.1093 159.662 61.4373 159.662 61.816C159.662 62.1893 159.662 62.5973 159.662 63.04V66H157.926ZM151.87 66V53.496H153.606V66H151.87ZM174.119 54.2H177.087V66H175.439V55.416L175.487 55.432L172.711 66H170.327L167.527 55.424L167.575 55.4V66H165.919V54.2H168.887L171.535 64.88H171.455L174.119 54.2ZM183.537 66.16C182.662 66.16 181.889 65.9707 181.217 65.592C180.55 65.2133 180.028 64.6933 179.649 64.032C179.276 63.3653 179.089 62.6027 179.089 61.744C179.089 60.8907 179.276 60.136 179.649 59.48C180.028 58.8187 180.55 58.304 181.217 57.936C181.889 57.5627 182.662 57.376 183.537 57.376C184.412 57.376 185.182 57.5627 185.849 57.936C186.521 58.304 187.044 58.8187 187.417 59.48C187.796 60.136 187.985 60.8907 187.985 61.744C187.985 62.6027 187.796 63.3653 187.417 64.032C187.044 64.6933 186.521 65.2133 185.849 65.592C185.182 65.9707 184.412 66.16 183.537 66.16ZM183.537 64.672C184.07 64.672 184.54 64.552 184.945 64.312C185.35 64.072 185.668 63.7333 185.897 63.296C186.126 62.8533 186.241 62.336 186.241 61.744C186.241 61.1573 186.126 60.648 185.897 60.216C185.668 59.784 185.35 59.4507 184.945 59.216C184.54 58.9813 184.07 58.864 183.537 58.864C183.009 58.864 182.54 58.9813 182.129 59.216C181.724 59.4507 181.406 59.784 181.177 60.216C180.948 60.648 180.833 61.1573 180.833 61.744C180.833 62.336 180.948 62.8533 181.177 63.296C181.406 63.7333 181.724 64.072 182.129 64.312C182.54 64.552 183.009 64.672 183.537 64.672ZM193.437 66.168C192.739 66.168 192.096 66 191.509 65.664C190.923 65.3227 190.453 64.8213 190.101 64.16C189.749 63.4987 189.573 62.6907 189.573 61.736C189.573 60.8027 189.752 60.0107 190.109 59.36C190.467 58.7093 190.939 58.216 191.525 57.88C192.112 57.5387 192.749 57.368 193.437 57.368C194.099 57.368 194.712 57.528 195.277 57.848C195.848 58.168 196.307 58.6133 196.653 59.184C197 59.7493 197.173 60.4027 197.173 61.144C197.173 61.1653 197.173 61.1867 197.173 61.208C197.173 61.224 197.173 61.24 197.173 61.256L196.165 61.288C196.165 61.272 196.165 61.256 196.165 61.24C196.165 61.2187 196.165 61.2 196.165 61.184C196.165 60.7413 196.053 60.3493 195.829 60.008C195.605 59.6613 195.309 59.3893 194.941 59.192C194.579 58.9893 194.192 58.888 193.781 58.888C193.093 58.888 192.517 59.12 192.053 59.584C191.589 60.0427 191.357 60.76 191.357 61.736C191.357 62.7067 191.589 63.4267 192.053 63.896C192.523 64.36 193.099 64.592 193.781 64.592C194.208 64.592 194.603 64.4907 194.965 64.288C195.328 64.08 195.619 63.7973 195.837 63.44C196.056 63.0827 196.165 62.6747 196.165 62.216L197.173 62.256C197.173 62.992 197.005 63.656 196.669 64.248C196.339 64.84 195.891 65.3093 195.325 65.656C194.765 65.9973 194.136 66.168 193.437 66.168ZM196.165 66V53.496H197.909V66H196.165ZM200.752 62.36V61.008H207.008L206.768 61.408C206.768 61.376 206.768 61.344 206.768 61.312C206.768 61.2747 206.768 61.2427 206.768 61.216C206.768 60.784 206.675 60.3867 206.488 60.024C206.301 59.656 206.021 59.3627 205.648 59.144C205.28 58.92 204.819 58.808 204.264 58.808C203.709 58.808 203.221 58.928 202.8 59.168C202.384 59.4027 202.059 59.7387 201.824 60.176C201.595 60.608 201.48 61.128 201.48 61.736C201.48 62.3547 201.592 62.888 201.816 63.336C202.04 63.7787 202.363 64.12 202.784 64.36C203.205 64.6 203.709 64.72 204.296 64.72C204.707 64.72 205.061 64.68 205.36 64.6C205.664 64.5147 205.912 64.4027 206.104 64.264C206.301 64.1253 206.451 63.976 206.552 63.816C206.653 63.6507 206.712 63.488 206.728 63.328H208.456C208.424 63.6747 208.309 64.0187 208.112 64.36C207.92 64.696 207.645 65.0027 207.288 65.28C206.936 65.552 206.504 65.7707 205.992 65.936C205.485 66.096 204.901 66.176 204.24 66.176C203.355 66.176 202.579 65.9893 201.912 65.616C201.245 65.2427 200.725 64.7253 200.352 64.064C199.979 63.3973 199.792 62.6347 199.792 61.776C199.792 60.9013 199.981 60.1333 200.36 59.472C200.739 58.8107 201.264 58.296 201.936 57.928C202.608 57.5547 203.379 57.368 204.248 57.368C205.133 57.368 205.899 57.5547 206.544 57.928C207.195 58.3013 207.696 58.816 208.048 59.472C208.4 60.128 208.576 60.8827 208.576 61.736C208.576 61.8373 208.573 61.9547 208.568 62.088C208.563 62.2213 208.555 62.312 208.544 62.36H200.752ZM212.343 53.496V66H210.631V53.496H212.343Z" fill="#262626"/>
<rect x="60" y="115" width="340" height="44" rx="10" fill="#277DFE"/>
<path d="M179.935 142V131.675H182.441V141.258L181.314 139.991H186.2V142H179.935ZM189.812 142.161C189.275 142.161 188.797 142.077 188.377 141.909C187.957 141.736 187.626 141.487 187.383 141.16C187.14 140.833 187.019 140.437 187.019 139.97C187.019 139.433 187.171 138.999 187.474 138.668C187.777 138.332 188.172 138.078 188.657 137.905C189.142 137.728 189.656 137.613 190.197 137.562C190.981 137.487 191.515 137.422 191.8 137.366C192.089 137.305 192.234 137.203 192.234 137.058C192.234 137.053 192.234 137.051 192.234 137.051C192.234 137.046 192.234 137.044 192.234 137.044C192.234 136.82 192.115 136.638 191.877 136.498C191.644 136.358 191.322 136.288 190.911 136.288C190.477 136.288 190.148 136.367 189.924 136.526C189.705 136.68 189.595 136.916 189.595 137.233H187.131C187.131 136.622 187.299 136.108 187.635 135.693C187.976 135.273 188.433 134.956 189.007 134.741C189.581 134.526 190.223 134.419 190.932 134.419C191.604 134.419 192.227 134.519 192.801 134.72C193.38 134.921 193.846 135.226 194.201 135.637C194.56 136.048 194.74 136.57 194.74 137.205C194.74 137.303 194.74 137.401 194.74 137.499C194.74 137.597 194.74 137.695 194.74 137.793V140.257C194.74 140.453 194.745 140.644 194.754 140.831C194.763 141.013 194.789 141.181 194.831 141.335C194.882 141.503 194.945 141.645 195.02 141.762C195.099 141.879 195.162 141.958 195.209 142H192.766C192.729 141.963 192.673 141.89 192.598 141.783C192.528 141.676 192.467 141.552 192.416 141.412C192.355 141.225 192.311 141.046 192.283 140.873C192.255 140.696 192.241 140.486 192.241 140.243L192.773 140.607C192.642 140.929 192.428 141.207 192.129 141.44C191.835 141.673 191.487 141.853 191.086 141.979C190.685 142.1 190.26 142.161 189.812 142.161ZM190.526 140.348C190.815 140.348 191.093 140.29 191.359 140.173C191.625 140.056 191.844 139.87 192.017 139.613C192.19 139.356 192.276 139.013 192.276 138.584V138.073L192.906 138.633C192.598 138.74 192.248 138.831 191.856 138.906C191.464 138.976 191.081 139.03 190.708 139.067C190.311 139.109 190.015 139.177 189.819 139.27C189.623 139.363 189.525 139.517 189.525 139.732C189.525 139.937 189.609 140.091 189.777 140.194C189.95 140.297 190.199 140.348 190.526 140.348ZM198.657 142.147C198.13 142.147 197.696 142.063 197.355 141.895C197.019 141.727 196.755 141.501 196.564 141.216C196.377 140.927 196.244 140.605 196.165 140.25C196.09 139.891 196.053 139.52 196.053 139.137C196.053 138.969 196.053 138.794 196.053 138.612C196.053 138.425 196.053 138.234 196.053 138.038V134.566H198.545V137.625C198.545 137.784 198.545 137.935 198.545 138.08C198.545 138.22 198.545 138.351 198.545 138.472C198.545 138.757 198.573 139.02 198.629 139.263C198.685 139.506 198.795 139.702 198.958 139.851C199.126 139.996 199.366 140.068 199.679 140.068C199.992 140.068 200.253 139.982 200.463 139.809C200.673 139.632 200.832 139.408 200.939 139.137C201.051 138.862 201.107 138.575 201.107 138.276L201.681 138.836C201.681 139.326 201.611 139.774 201.471 140.18C201.331 140.581 201.13 140.929 200.869 141.223C200.608 141.517 200.29 141.746 199.917 141.909C199.548 142.068 199.128 142.147 198.657 142.147ZM201.107 142V134.566H203.599V142H201.107ZM210.138 142V138.976C210.138 138.813 210.138 138.659 210.138 138.514C210.138 138.365 210.138 138.234 210.138 138.122C210.138 137.842 210.105 137.581 210.04 137.338C209.979 137.091 209.858 136.892 209.676 136.743C209.498 136.589 209.228 136.512 208.864 136.512C208.551 136.512 208.287 136.582 208.073 136.722C207.858 136.857 207.697 137.051 207.59 137.303C207.482 137.555 207.429 137.851 207.429 138.192L206.855 137.695C206.855 137.032 206.992 136.456 207.268 135.966C207.548 135.476 207.926 135.096 208.402 134.825C208.878 134.554 209.412 134.419 210.005 134.419C210.625 134.419 211.127 134.545 211.51 134.797C211.897 135.049 212.179 135.399 212.357 135.847C212.539 136.295 212.63 136.811 212.63 137.394C212.63 137.641 212.63 137.921 212.63 138.234C212.63 138.547 212.63 138.871 212.63 139.207V142H210.138ZM204.937 142V134.566H207.429V142H204.937ZM217.785 142.175C216.931 142.175 216.189 142.007 215.559 141.671C214.934 141.335 214.451 140.873 214.11 140.285C213.77 139.697 213.599 139.02 213.599 138.255C213.599 137.485 213.77 136.813 214.11 136.239C214.451 135.665 214.934 135.219 215.559 134.902C216.189 134.58 216.931 134.419 217.785 134.419C218.42 134.419 218.98 134.51 219.465 134.692C219.951 134.874 220.354 135.117 220.676 135.42C221.003 135.719 221.25 136.048 221.418 136.407C221.586 136.762 221.67 137.114 221.67 137.464C221.67 137.473 221.67 137.485 221.67 137.499C221.67 137.508 221.67 137.518 221.67 137.527H219.199C219.199 137.499 219.197 137.473 219.192 137.45C219.192 137.427 219.188 137.401 219.178 137.373C219.141 137.214 219.071 137.06 218.968 136.911C218.866 136.757 218.716 136.631 218.52 136.533C218.329 136.43 218.077 136.379 217.764 136.379C217.442 136.379 217.158 136.451 216.91 136.596C216.668 136.741 216.476 136.953 216.336 137.233C216.201 137.508 216.133 137.849 216.133 138.255C216.133 138.647 216.201 138.992 216.336 139.291C216.476 139.585 216.668 139.814 216.91 139.977C217.158 140.136 217.442 140.215 217.764 140.215C218.086 140.215 218.348 140.166 218.548 140.068C218.754 139.965 218.908 139.83 219.01 139.662C219.113 139.489 219.174 139.298 219.192 139.088H221.67C221.67 139.443 221.586 139.802 221.418 140.166C221.255 140.525 221.01 140.857 220.683 141.16C220.361 141.463 219.958 141.708 219.472 141.895C218.987 142.082 218.425 142.175 217.785 142.175ZM227.918 142V139.396C227.918 139.312 227.918 139.191 227.918 139.032C227.918 138.873 227.918 138.715 227.918 138.556C227.918 138.393 227.918 138.264 227.918 138.171C227.918 137.653 227.832 137.247 227.659 136.953C227.486 136.659 227.148 136.512 226.644 136.512C226.317 136.512 226.047 136.577 225.832 136.708C225.622 136.839 225.466 137.025 225.363 137.268C225.26 137.511 225.209 137.8 225.209 138.136L224.621 137.639C224.621 136.99 224.752 136.426 225.013 135.945C225.274 135.46 225.638 135.084 226.105 134.818C226.572 134.552 227.113 134.419 227.729 134.419C228.644 134.419 229.318 134.687 229.752 135.224C230.191 135.756 230.41 136.498 230.41 137.45C230.41 137.693 230.41 137.987 230.41 138.332C230.41 138.677 230.41 139.088 230.41 139.564V142H227.918ZM222.717 142V131.059H225.209V142H222.717ZM242.552 131.675H246.766V142H244.393V133.068L244.435 133.096L242.629 142H239.409L237.561 133.075L237.603 133.054V142H235.23V131.675H239.444L241.103 140.943H240.872L242.552 131.675ZM252.074 142.168C251.253 142.168 250.53 142.005 249.904 141.678C249.284 141.347 248.796 140.889 248.441 140.306C248.091 139.723 247.916 139.051 247.916 138.29C247.916 137.525 248.091 136.853 248.441 136.274C248.796 135.691 249.284 135.236 249.904 134.909C250.53 134.582 251.253 134.419 252.074 134.419C252.896 134.419 253.617 134.582 254.237 134.909C254.863 135.236 255.35 135.691 255.7 136.274C256.055 136.853 256.232 137.525 256.232 138.29C256.232 139.051 256.055 139.723 255.7 140.306C255.35 140.889 254.863 141.347 254.237 141.678C253.617 142.005 252.896 142.168 252.074 142.168ZM252.074 140.243C252.41 140.243 252.7 140.161 252.942 139.998C253.185 139.835 253.372 139.608 253.502 139.319C253.633 139.025 253.698 138.682 253.698 138.29C253.698 137.893 253.633 137.55 253.502 137.261C253.372 136.972 253.185 136.748 252.942 136.589C252.7 136.43 252.41 136.351 252.074 136.351C251.743 136.351 251.454 136.43 251.206 136.589C250.964 136.748 250.777 136.972 250.646 137.261C250.516 137.55 250.45 137.893 250.45 138.29C250.45 138.682 250.516 139.025 250.646 139.319C250.777 139.608 250.964 139.835 251.206 139.998C251.454 140.161 251.743 140.243 252.074 140.243ZM260.395 142.175C259.774 142.175 259.198 142.028 258.666 141.734C258.139 141.435 257.714 140.994 257.392 140.411C257.07 139.828 256.909 139.104 256.909 138.241C256.909 137.42 257.075 136.724 257.406 136.155C257.737 135.586 258.169 135.154 258.701 134.86C259.233 134.566 259.798 134.419 260.395 134.419C260.988 134.419 261.527 134.573 262.012 134.881C262.497 135.184 262.885 135.6 263.174 136.127C263.463 136.654 263.608 137.259 263.608 137.94C263.608 137.963 263.608 137.987 263.608 138.01C263.608 138.033 263.608 138.059 263.608 138.087L262.642 138.094C262.642 138.08 262.642 138.066 262.642 138.052C262.642 138.033 262.642 138.017 262.642 138.003C262.642 137.672 262.563 137.394 262.404 137.17C262.25 136.941 262.054 136.769 261.816 136.652C261.578 136.531 261.331 136.47 261.074 136.47C260.659 136.47 260.29 136.61 259.968 136.89C259.646 137.165 259.485 137.616 259.485 138.241C259.485 138.866 259.646 139.324 259.968 139.613C260.29 139.902 260.659 140.047 261.074 140.047C261.34 140.047 261.592 139.984 261.83 139.858C262.068 139.732 262.262 139.552 262.411 139.319C262.565 139.081 262.642 138.799 262.642 138.472L263.608 138.528C263.608 139.205 263.463 139.818 263.174 140.369C262.889 140.92 262.504 141.358 262.019 141.685C261.534 142.012 260.992 142.175 260.395 142.175ZM262.642 142V131.059H265.141V142H262.642ZM267.499 138.997V137.436H272.154L271.944 137.8C271.944 137.763 271.944 137.725 271.944 137.688C271.944 137.646 271.944 137.609 271.944 137.576C271.944 137.366 271.89 137.158 271.783 136.953C271.676 136.743 271.505 136.57 271.272 136.435C271.039 136.295 270.733 136.225 270.355 136.225C269.982 136.225 269.664 136.304 269.403 136.463C269.146 136.617 268.95 136.846 268.815 137.149C268.684 137.448 268.619 137.809 268.619 138.234C268.619 138.677 268.682 139.058 268.808 139.375C268.939 139.688 269.137 139.928 269.403 140.096C269.669 140.259 270.01 140.341 270.425 140.341C270.682 140.341 270.901 140.32 271.083 140.278C271.27 140.236 271.419 140.182 271.531 140.117C271.648 140.047 271.734 139.972 271.79 139.893C271.851 139.809 271.888 139.727 271.902 139.648H274.366C274.338 139.97 274.226 140.283 274.03 140.586C273.834 140.885 273.563 141.155 273.218 141.398C272.877 141.636 272.462 141.825 271.972 141.965C271.487 142.105 270.936 142.175 270.32 142.175C269.475 142.175 268.74 142.012 268.115 141.685C267.49 141.354 267.004 140.896 266.659 140.313C266.318 139.73 266.148 139.058 266.148 138.297C266.148 137.522 266.323 136.846 266.673 136.267C267.023 135.684 267.511 135.231 268.136 134.909C268.766 134.582 269.494 134.419 270.32 134.419C271.174 134.419 271.911 134.585 272.532 134.916C273.153 135.243 273.631 135.705 273.967 136.302C274.303 136.899 274.471 137.602 274.471 138.409C274.471 138.535 274.469 138.649 274.464 138.752C274.459 138.855 274.452 138.936 274.443 138.997H267.499ZM278.074 131.059V142H275.617V131.059H278.074Z" fill="white"/>
<circle cx="420" cy="103" r="3.5" fill="#9867FF" stroke="#3E343F"/>
<path d="M248.393 17.3039L231.303 23.6155L237.614 40.7055L254.704 34.3939L248.393 17.3039Z" fill="#F3E557"/>
<path d="M230 23.0117L237.012 42L256 34.9782L248.988 16L230 23.0117ZM237.62 40.703L231.307 23.6196L248.401 17.3071L254.703 34.3905L237.62 40.703Z" fill="#231F20"/>
<circle cx="94" cy="192" r="3.5" fill="#F3E557" stroke="#3E343F"/>
</g>
<defs>
<clipPath id="clip0_94_1983">
<rect width="24" height="24" fill="white" transform="translate(60 57)"/>
</clipPath>
</defs>
</svg>
