<svg width="460" height="205" viewBox="0 0 460 205" fill="none" xmlns="http://www.w3.org/2000/svg">
<mask id="mask0_94_2136" style="mask-type:alpha" maskUnits="userSpaceOnUse" x="0" y="0" width="460" height="205">
<path d="M10 205C4.47715 205 -1.95703e-07 200.523 -4.37114e-07 195L-8.52372e-06 10C-8.76513e-06 4.47717 4.47714 1.50631e-05 9.99999 1.48217e-05L450 -4.41134e-06C455.523 -4.65275e-06 460 4.47714 460 10L460 195C460 200.523 455.523 205 450 205L10 205Z" fill="#00D085"/>
</mask>
<g mask="url(#mask0_94_2136)">
<path d="M10 205C4.47715 205 -1.95703e-07 200.523 -4.37114e-07 195L-8.52372e-06 10C-8.76513e-06 4.47717 4.47714 1.50631e-05 9.99999 1.48217e-05L450 -4.41134e-06C455.523 -4.65275e-06 460 4.47714 460 10L460 195C460 200.523 455.523 205 450 205L10 205Z" fill="#267DFF"/>
<path opacity="0.3" d="M470 0.717792V0H330V70H470V69.2902V61.3148V60.589V52.6535V51.9278V43.9524V43.3303V35.3549V34.6371V26.6617V25.9439V17.9686V17.2508V9.27538V8.55759V0.5822V0.717792ZM338.702 65.143V69.2902H330.729V61.3148H338.702V65.143ZM338.702 60.6289H330.729V52.6934H338.702V60.6289ZM338.702 51.9676H330.729V43.9923H338.702V51.9676ZM338.702 43.3064H330.729V35.3549H338.702V43.3064ZM338.702 34.6451H330.729V26.6697H338.702V34.6451ZM338.702 25.9838H330.729V18.0084H338.702V25.9838ZM338.702 13.1674V17.3225H330.729V9.34716H338.702V13.1674ZM338.702 8.66127H330.729V0.685884H338.702V8.66127ZM347.397 65.143V69.2902H339.432V61.3148H347.397V65.143ZM347.397 60.6289H339.432V52.6934H347.397V60.6289ZM347.397 51.9676H339.432V43.9923H347.397V51.9676ZM347.397 43.3303H339.432V35.3549H347.397V43.3303ZM347.397 34.669H339.432V26.6936H347.397V34.669ZM347.397 26.0077H339.432V18.0324H347.397V26.0077ZM347.397 13.1913V17.3465H339.432V9.37108H347.397V13.1913ZM347.397 8.6852H339.432V0.709809H347.397V8.6852ZM356.099 65.1669V69.3141H348.086V61.3387H356.099V65.1669ZM356.099 60.6528H348.086V52.7173H356.099V60.6528ZM356.099 51.9916H348.086V44.0162H356.099V51.9916ZM356.099 43.3303H348.086V35.3549H356.099V43.3303ZM356.099 34.669H348.086V26.6936H356.099V34.669ZM356.099 26.0077H348.086V18.0324H356.099V26.0077ZM356.099 13.1913V17.3465H348.086V9.37108H356.099V13.1913ZM356.099 8.6852H348.086V0.709809H356.099V8.6852ZM364.802 65.1669V69.3141H356.788V61.3387H364.802V65.1669ZM364.802 60.6528H356.788V52.7173H364.802V60.6528ZM364.802 51.9916H356.788V44.0162H364.802V51.9916ZM364.802 43.3303H356.788V35.3549H364.802V43.3303ZM364.802 34.669H356.788V26.6936H364.802V34.669ZM364.802 26.0077H356.788V18.0324H364.802V26.0077ZM364.802 13.1913V17.3465H356.788V9.37108H364.802V13.1913ZM364.802 8.6852H356.788V0.709809H364.802V8.6852ZM373.504 65.1669V69.3141H365.491V61.3387H373.504V65.1669ZM373.504 60.6528H365.491V52.7173H373.504V60.6528ZM373.504 51.9916H365.491V44.0162H373.504V51.9916ZM373.504 43.3303H365.491V35.3549H373.504V43.3303ZM373.504 34.669H365.491V26.6936H373.504V34.669ZM373.504 26.0077H365.491V18.0324H373.504V26.0077ZM373.504 13.1913V17.3465H365.491V9.37108H373.504V13.1913ZM373.504 8.6852H365.491V0.709809H373.504V8.6852ZM382.215 65.1669V69.3141H374.201V61.3387H382.215V65.1669ZM382.215 60.6528H374.201V52.7173H382.215V60.6528ZM382.215 51.9916H374.201V44.0162H382.215V51.9916ZM382.215 43.3303H374.201V35.3549H382.215V43.3303ZM382.215 34.669H374.201V26.6936H382.215V34.669ZM382.215 26.0077H374.201V18.0324H382.215V26.0077ZM382.215 13.1913V17.3465H374.201V9.37108H382.215V13.1913ZM382.215 8.6852H374.201V0.709809H382.215V8.6852ZM390.917 65.1669V69.3141H382.904V61.3387H390.917V65.1669ZM390.917 60.6528H382.904V52.7173H390.917V60.6528ZM390.917 51.9916H382.904V44.0162H390.917V51.9916ZM390.917 43.3303H382.904V35.3549H390.917V43.3303ZM390.917 34.669H382.904V26.6936H390.917V34.669ZM390.917 26.0077H382.904V18.0324H390.917V26.0077ZM390.917 13.1913V17.3465H382.904V9.37108H390.917V13.1913ZM390.917 8.6852H382.904V0.709809H390.917V8.6852ZM399.619 65.1669V69.3141H391.606V61.3387H399.619V65.1669ZM399.619 60.6528H391.606V52.7173H399.619V60.6528ZM399.619 51.9916H391.606V44.0162H399.619V51.9916ZM399.619 43.3303H391.606V35.3549H399.619V43.3303ZM399.619 34.669H391.606V26.6936H399.619V34.669ZM399.619 26.0077H391.606V18.0324H399.619V26.0077ZM399.619 13.1913V17.3465H391.606V9.37108H399.619V13.1913ZM399.619 8.6852H391.606V0.709809H399.619V8.6852ZM408.298 65.143V69.2902H400.284V61.3148H408.298V65.143ZM408.298 60.6289H400.284V52.6934H408.298V60.6289ZM408.298 51.9676H400.284V43.9923H408.298V51.9676ZM408.298 43.3303H400.284V35.3549H408.298V43.3303ZM408.298 34.669H400.284V26.6936H408.298V34.669ZM408.298 26.0077H400.284V18.0324H408.298V26.0077ZM408.298 13.1913V17.3465H400.284V9.37108H408.298V13.1913ZM408.298 8.6852H400.284V0.709809H408.298V8.6852ZM417 65.1669V69.3141H408.987V61.3387H417V65.1669ZM417 60.6528H408.987V52.7173H417V60.6528ZM417 51.9916H408.987V44.0162H417V51.9916ZM417 43.3303H408.987V35.3549H417V43.3303ZM417 34.669H408.987V26.6936H417V34.669ZM417 26.0077H408.987V18.0324H417V26.0077ZM417 13.1913V17.3465H408.987V9.37108H417V13.1913ZM417 8.6852H408.987V0.709809H417V8.6852ZM425.703 65.1669V69.3141H417.689V61.3387H425.703V65.1669ZM425.703 60.6528H417.689V52.7173H425.703V60.6528ZM425.703 51.9916H417.689V44.0162H425.703V51.9916ZM425.703 43.3303H417.689V35.3549H425.703V43.3303ZM425.703 34.669H417.689V26.6936H425.703V34.669ZM425.703 26.0077H417.689V18.0324H425.703V26.0077ZM425.703 13.1913V17.3465H417.689V9.37108H425.703V13.1913ZM425.703 8.6852H417.689V0.709809H425.703V8.6852ZM434.405 65.1669V69.3141H426.392V61.3387H434.405V65.1669ZM434.405 60.6528H426.392V52.7173H434.405V60.6528ZM434.405 51.9916H426.392V44.0162H434.405V51.9916ZM434.405 43.3303H426.392V35.3549H434.405V43.3303ZM434.405 34.669H426.392V26.6936H434.405V34.669ZM434.405 26.0077H426.392V18.0324H434.405V26.0077ZM434.405 13.1913V17.3465H426.392V9.37108H434.405V13.1913ZM434.405 8.6852H426.392V0.709809H434.405V8.6852ZM443.107 65.1669V69.3141H435.094V61.3387H443.107V65.1669ZM443.107 60.6528H435.094V52.7173H443.107V60.6528ZM443.107 51.9916H435.094V44.0162H443.107V51.9916ZM443.107 43.3303H435.094V35.3549H443.107V43.3303ZM443.107 34.669H435.094V26.6936H443.107V34.669ZM443.107 26.0077H435.094V18.0324H443.107V26.0077ZM443.107 13.1913V17.3465H435.094V9.37108H443.107V13.1913ZM443.107 8.6852H435.094V0.709809H443.107V8.6852ZM451.81 65.1669V69.3141H443.797V61.3387H451.81V65.1669ZM451.81 60.6528H443.797V52.7173H451.81V60.6528ZM451.81 51.9916H443.797V44.0162H451.81V51.9916ZM451.81 43.3303H443.797V35.3549H451.81V43.3303ZM451.81 34.669H443.797V26.6936H451.81V34.669ZM451.81 26.0077H443.797V18.0324H451.81V26.0077ZM451.81 13.1913V17.3465H443.797V9.37108H451.81V13.1913ZM451.81 8.6852H443.797V0.709809H451.81V8.6852ZM460.512 65.1669V69.3141H452.499V61.3387H460.512V65.1669ZM460.512 60.6528H452.499V52.7173H460.512V60.6528ZM460.512 51.9916H452.499V44.0162H460.512V51.9916ZM460.512 43.3303H452.499V35.3549H460.512V43.3303ZM460.512 34.669H452.499V26.6936H460.512V34.669ZM460.512 26.0077H452.499V18.0324H460.512V26.0077ZM460.512 13.1913V17.3465H452.499V9.37108H460.512V13.1913ZM460.512 8.6852H452.499V0.709809H460.512V8.6852ZM469.215 65.1669V69.3141H461.201V61.3387H469.215V65.1669ZM469.215 60.6528H461.201V52.7173H469.215V60.6528ZM469.215 51.9916H461.201V44.0162H469.215V51.9916ZM469.215 43.3303H461.201V35.3549H469.215V43.3303ZM469.215 34.669H461.201V26.6936H469.215V34.669ZM469.215 26.0077H461.201V18.0324H469.215V26.0077ZM469.215 13.1913V17.3465H461.201V9.37108H469.215V13.1913ZM469.215 8.6852H461.201V0.709809H469.215V8.6852Z" fill="white"/>
<path opacity="0.3" d="M42.2822 310L43 310L43 170L-27 170L-27 310L-26.2902 310L-18.3148 310L-17.589 310L-9.65353 310L-8.92777 310L-0.95238 310L-0.330302 310L7.64509 310L8.36287 310L16.3383 310L17.0561 310L25.0314 310L25.7492 310L33.7246 310L34.4424 310L42.4178 310L42.2822 310ZM-22.143 178.702L-26.2902 178.702L-26.2902 170.729L-18.3148 170.729L-18.3148 178.702L-22.143 178.702ZM-17.6289 178.702L-17.6289 170.729L-9.69341 170.729L-9.69341 178.702L-17.6289 178.702ZM-8.96764 178.702L-8.96764 170.729L-0.992252 170.729L-0.992253 178.702L-8.96764 178.702ZM-0.30637 178.702L-0.30637 170.729L7.6451 170.729L7.6451 178.702L-0.30637 178.702ZM8.3549 178.702L8.3549 170.729L16.3303 170.729L16.3303 178.702L8.3549 178.702ZM17.0162 178.702L17.0162 170.729L24.9916 170.729L24.9916 178.702L17.0162 178.702ZM29.8326 178.702L25.6775 178.702L25.6775 170.729L33.6528 170.729L33.6528 178.702L29.8326 178.702ZM34.3387 178.702L34.3387 170.729L42.3141 170.729L42.3141 178.702L34.3387 178.702ZM-22.143 187.397L-26.2902 187.397L-26.2902 179.432L-18.3148 179.432L-18.3148 187.397L-22.143 187.397ZM-17.6289 187.397L-17.6289 179.432L-9.69341 179.432L-9.69341 187.397L-17.6289 187.397ZM-8.96764 187.397L-8.96764 179.432L-0.992253 179.432L-0.992253 187.397L-8.96764 187.397ZM-0.330296 187.397L-0.330296 179.432L7.6451 179.432L7.6451 187.397L-0.330296 187.397ZM8.33098 187.397L8.33098 179.432L16.3064 179.432L16.3064 187.397L8.33098 187.397ZM16.9923 187.397L16.9923 179.432L24.9676 179.432L24.9676 187.397L16.9923 187.397ZM29.8087 187.397L25.6535 187.397L25.6535 179.432L33.6289 179.432L33.6289 187.397L29.8087 187.397ZM34.3148 187.397L34.3148 179.432L42.2902 179.432L42.2902 187.397L34.3148 187.397ZM-22.1669 196.099L-26.3141 196.099L-26.3141 188.086L-18.3387 188.086L-18.3387 196.099L-22.1669 196.099ZM-17.6528 196.099L-17.6528 188.086L-9.71733 188.086L-9.71733 196.099L-17.6528 196.099ZM-8.99157 196.099L-8.99157 188.086L-1.01618 188.086L-1.01618 196.099L-8.99157 196.099ZM-0.330297 196.099L-0.330296 188.086L7.6451 188.086L7.64509 196.099L-0.330297 196.099ZM8.33098 196.099L8.33098 188.086L16.3064 188.086L16.3064 196.099L8.33098 196.099ZM16.9923 196.099L16.9923 188.086L24.9676 188.086L24.9676 196.099L16.9923 196.099ZM29.8087 196.099L25.6535 196.099L25.6535 188.086L33.6289 188.086L33.6289 196.099L29.8087 196.099ZM34.3148 196.099L34.3148 188.086L42.2902 188.086L42.2902 196.099L34.3148 196.099ZM-22.1669 204.802L-26.3141 204.802L-26.3141 196.788L-18.3387 196.788L-18.3387 204.802L-22.1669 204.802ZM-17.6528 204.802L-17.6528 196.788L-9.71733 196.788L-9.71733 204.802L-17.6528 204.802ZM-8.99157 204.802L-8.99157 196.788L-1.01618 196.788L-1.01618 204.802L-8.99157 204.802ZM-0.330297 204.802L-0.330297 196.788L7.64509 196.788L7.64509 204.802L-0.330297 204.802ZM8.33098 204.802L8.33098 196.788L16.3064 196.788L16.3064 204.802L8.33098 204.802ZM16.9923 204.802L16.9923 196.788L24.9676 196.788L24.9676 204.802L16.9923 204.802ZM29.8087 204.802L25.6535 204.802L25.6535 196.788L33.6289 196.788L33.6289 204.802L29.8087 204.802ZM34.3148 204.802L34.3148 196.788L42.2902 196.788L42.2902 204.802L34.3148 204.802ZM-22.1669 213.504L-26.3141 213.504L-26.3141 205.491L-18.3387 205.491L-18.3387 213.504L-22.1669 213.504ZM-17.6528 213.504L-17.6528 205.491L-9.71733 205.491L-9.71733 213.504L-17.6528 213.504ZM-8.99157 213.504L-8.99157 205.491L-1.01618 205.491L-1.01618 213.504L-8.99157 213.504ZM-0.330297 213.504L-0.330297 205.491L7.64509 205.491L7.64509 213.504L-0.330297 213.504ZM8.33098 213.504L8.33098 205.491L16.3064 205.491L16.3064 213.504L8.33098 213.504ZM16.9923 213.504L16.9923 205.491L24.9676 205.491L24.9676 213.504L16.9923 213.504ZM29.8087 213.504L25.6535 213.504L25.6535 205.491L33.6289 205.491L33.6289 213.504L29.8087 213.504ZM34.3148 213.504L34.3148 205.491L42.2902 205.491L42.2902 213.504L34.3148 213.504ZM-22.1669 222.215L-26.3141 222.215L-26.3141 214.201L-18.3387 214.201L-18.3387 222.215L-22.1669 222.215ZM-17.6528 222.215L-17.6528 214.201L-9.71733 214.201L-9.71733 222.215L-17.6528 222.215ZM-8.99157 222.215L-8.99157 214.201L-1.01618 214.201L-1.01618 222.215L-8.99157 222.215ZM-0.330298 222.215L-0.330297 214.201L7.64509 214.201L7.64509 222.215L-0.330298 222.215ZM8.33098 222.215L8.33098 214.201L16.3064 214.201L16.3064 222.215L8.33098 222.215ZM16.9923 222.215L16.9923 214.201L24.9676 214.201L24.9676 222.215L16.9923 222.215ZM29.8087 222.215L25.6535 222.215L25.6535 214.201L33.6289 214.201L33.6289 222.215L29.8087 222.215ZM34.3148 222.215L34.3148 214.201L42.2902 214.201L42.2902 222.215L34.3148 222.215ZM-22.1669 230.917L-26.3141 230.917L-26.3141 222.904L-18.3387 222.904L-18.3387 230.917L-22.1669 230.917ZM-17.6528 230.917L-17.6528 222.904L-9.71733 222.904L-9.71733 230.917L-17.6528 230.917ZM-8.99157 230.917L-8.99157 222.904L-1.01618 222.904L-1.01618 230.917L-8.99157 230.917ZM-0.330298 230.917L-0.330298 222.904L7.64509 222.904L7.64509 230.917L-0.330298 230.917ZM8.33098 230.917L8.33098 222.904L16.3064 222.904L16.3064 230.917L8.33098 230.917ZM16.9922 230.917L16.9923 222.904L24.9676 222.904L24.9676 230.917L16.9922 230.917ZM29.8087 230.917L25.6535 230.917L25.6535 222.904L33.6289 222.904L33.6289 230.917L29.8087 230.917ZM34.3148 230.917L34.3148 222.904L42.2902 222.904L42.2902 230.917L34.3148 230.917ZM-22.1669 239.619L-26.3141 239.619L-26.3141 231.606L-18.3387 231.606L-18.3387 239.619L-22.1669 239.619ZM-17.6528 239.619L-17.6528 231.606L-9.71733 231.606L-9.71733 239.619L-17.6528 239.619ZM-8.99157 239.619L-8.99157 231.606L-1.01618 231.606L-1.01618 239.619L-8.99157 239.619ZM-0.330299 239.619L-0.330298 231.606L7.64509 231.606L7.64509 239.619L-0.330299 239.619ZM8.33098 239.619L8.33098 231.606L16.3064 231.606L16.3064 239.619L8.33098 239.619ZM16.9922 239.619L16.9922 231.606L24.9676 231.606L24.9676 239.619L16.9922 239.619ZM29.8087 239.619L25.6535 239.619L25.6535 231.606L33.6289 231.606L33.6289 239.619L29.8087 239.619ZM34.3148 239.619L34.3148 231.606L42.2902 231.606L42.2902 239.619L34.3148 239.619ZM-22.143 248.298L-26.2902 248.298L-26.2902 240.284L-18.3148 240.284L-18.3148 248.298L-22.143 248.298ZM-17.6289 248.298L-17.6289 240.284L-9.69341 240.284L-9.69341 248.298L-17.6289 248.298ZM-8.96765 248.298L-8.96765 240.284L-0.992255 240.284L-0.992256 248.298L-8.96765 248.298ZM-0.330299 248.298L-0.330299 240.284L7.64509 240.284L7.64509 248.298L-0.330299 248.298ZM8.33097 248.298L8.33098 240.284L16.3064 240.284L16.3064 248.298L8.33097 248.298ZM16.9922 248.298L16.9922 240.284L24.9676 240.284L24.9676 248.298L16.9922 248.298ZM29.8087 248.298L25.6535 248.298L25.6535 240.284L33.6289 240.284L33.6289 248.298L29.8087 248.298ZM34.3148 248.298L34.3148 240.284L42.2902 240.284L42.2902 248.298L34.3148 248.298ZM-22.1669 257L-26.3141 257L-26.3141 248.987L-18.3387 248.987L-18.3387 257L-22.1669 257ZM-17.6528 257L-17.6528 248.987L-9.71733 248.987L-9.71733 257L-17.6528 257ZM-8.99157 257L-8.99157 248.987L-1.01618 248.987L-1.01618 257L-8.99157 257ZM-0.330299 257L-0.330299 248.987L7.64509 248.987L7.64509 257L-0.330299 257ZM8.33097 257L8.33097 248.987L16.3064 248.987L16.3064 257L8.33097 257ZM16.9922 257L16.9922 248.987L24.9676 248.987L24.9676 257L16.9922 257ZM29.8087 257L25.6535 257L25.6535 248.987L33.6289 248.987L33.6289 257L29.8087 257ZM34.3148 257L34.3148 248.987L42.2902 248.987L42.2902 257L34.3148 257ZM-22.1669 265.703L-26.3141 265.703L-26.3141 257.689L-18.3387 257.689L-18.3387 265.703L-22.1669 265.703ZM-17.6528 265.703L-17.6528 257.689L-9.71733 257.689L-9.71734 265.703L-17.6528 265.703ZM-8.99157 265.703L-8.99157 257.689L-1.01618 257.689L-1.01618 265.703L-8.99157 265.703ZM-0.3303 265.703L-0.330299 257.689L7.64509 257.689L7.64509 265.703L-0.3303 265.703ZM8.33097 265.703L8.33097 257.689L16.3064 257.689L16.3064 265.703L8.33097 265.703ZM16.9922 265.703L16.9922 257.689L24.9676 257.689L24.9676 265.703L16.9922 265.703ZM29.8087 265.703L25.6535 265.703L25.6535 257.689L33.6289 257.689L33.6289 265.703L29.8087 265.703ZM34.3148 265.703L34.3148 257.689L42.2902 257.689L42.2902 265.703L34.3148 265.703ZM-22.1669 274.405L-26.3141 274.405L-26.3141 266.392L-18.3387 266.392L-18.3387 274.405L-22.1669 274.405ZM-17.6528 274.405L-17.6528 266.392L-9.71734 266.392L-9.71734 274.405L-17.6528 274.405ZM-8.99157 274.405L-8.99157 266.392L-1.01618 266.392L-1.01618 274.405L-8.99157 274.405ZM-0.3303 274.405L-0.3303 266.392L7.64509 266.392L7.64509 274.405L-0.3303 274.405ZM8.33097 274.405L8.33097 266.392L16.3064 266.392L16.3064 274.405L8.33097 274.405ZM16.9922 274.405L16.9922 266.392L24.9676 266.392L24.9676 274.405L16.9922 274.405ZM29.8087 274.405L25.6535 274.405L25.6535 266.392L33.6289 266.392L33.6289 274.405L29.8087 274.405ZM34.3148 274.405L34.3148 266.392L42.2902 266.392L42.2902 274.405L34.3148 274.405ZM-22.1669 283.107L-26.3141 283.107L-26.3141 275.094L-18.3387 275.094L-18.3387 283.107L-22.1669 283.107ZM-17.6528 283.107L-17.6528 275.094L-9.71734 275.094L-9.71734 283.107L-17.6528 283.107ZM-8.99157 283.107L-8.99157 275.094L-1.01618 275.094L-1.01618 283.107L-8.99157 283.107ZM-0.330301 283.107L-0.3303 275.094L7.64509 275.094L7.64509 283.107L-0.330301 283.107ZM8.33097 283.107L8.33097 275.094L16.3064 275.094L16.3064 283.107L8.33097 283.107ZM16.9922 283.107L16.9922 275.094L24.9676 275.094L24.9676 283.107L16.9922 283.107ZM29.8087 283.107L25.6535 283.107L25.6535 275.094L33.6289 275.094L33.6289 283.107L29.8087 283.107ZM34.3148 283.107L34.3148 275.094L42.2902 275.094L42.2902 283.107L34.3148 283.107ZM-22.1669 291.81L-26.3141 291.81L-26.3141 283.797L-18.3387 283.797L-18.3387 291.81L-22.1669 291.81ZM-17.6528 291.81L-17.6528 283.797L-9.71734 283.797L-9.71734 291.81L-17.6528 291.81ZM-8.99157 291.81L-8.99157 283.797L-1.01618 283.797L-1.01618 291.81L-8.99157 291.81ZM-0.330301 291.81L-0.330301 283.797L7.64509 283.797L7.64509 291.81L-0.330301 291.81ZM8.33097 291.81L8.33097 283.797L16.3064 283.797L16.3064 291.81L8.33097 291.81ZM16.9922 291.81L16.9922 283.797L24.9676 283.797L24.9676 291.81L16.9922 291.81ZM29.8087 291.81L25.6535 291.81L25.6535 283.797L33.6289 283.797L33.6289 291.81L29.8087 291.81ZM34.3148 291.81L34.3148 283.797L42.2902 283.797L42.2902 291.81L34.3148 291.81ZM-22.1669 300.512L-26.3141 300.512L-26.3141 292.499L-18.3387 292.499L-18.3387 300.512L-22.1669 300.512ZM-17.6528 300.512L-17.6528 292.499L-9.71734 292.499L-9.71734 300.512L-17.6528 300.512ZM-8.99158 300.512L-8.99157 292.499L-1.01618 292.499L-1.01618 300.512L-8.99158 300.512ZM-0.330301 300.512L-0.330301 292.499L7.64509 292.499L7.64509 300.512L-0.330301 300.512ZM8.33097 300.512L8.33097 292.499L16.3064 292.499L16.3064 300.512L8.33097 300.512ZM16.9922 300.512L16.9922 292.499L24.9676 292.499L24.9676 300.512L16.9922 300.512ZM29.8087 300.512L25.6535 300.512L25.6535 292.499L33.6289 292.499L33.6289 300.512L29.8087 300.512ZM34.3148 300.512L34.3148 292.499L42.2902 292.499L42.2902 300.512L34.3148 300.512ZM-22.1669 309.215L-26.3141 309.215L-26.3141 301.201L-18.3387 301.201L-18.3387 309.215L-22.1669 309.215ZM-17.6528 309.215L-17.6528 301.201L-9.71734 301.201L-9.71734 309.215L-17.6528 309.215ZM-8.99158 309.215L-8.99158 301.201L-1.01618 301.201L-1.01618 309.215L-8.99158 309.215ZM-0.330302 309.215L-0.330301 301.201L7.64509 301.201L7.64509 309.215L-0.330302 309.215ZM8.33097 309.215L8.33097 301.201L16.3064 301.201L16.3064 309.215L8.33097 309.215ZM16.9922 309.215L16.9922 301.201L24.9676 301.201L24.9676 309.215L16.9922 309.215ZM29.8087 309.215L25.6535 309.215L25.6535 301.201L33.6289 301.201L33.6289 309.215L29.8087 309.215ZM34.3148 309.215L34.3148 301.201L42.2902 301.201L42.2902 309.215L34.3148 309.215Z" fill="white"/>
<path d="M109 86L110.448 91.1048C111.743 95.6762 115.324 99.2571 119.895 100.552L125 102L119.895 103.448C115.324 104.743 111.743 108.324 110.448 112.895L109 118L107.552 112.895C106.257 108.324 102.676 104.743 98.1048 103.448L93 102L98.1048 100.552C102.676 99.2571 106.257 95.6762 107.552 91.1048L109 86Z" stroke="white" stroke-miterlimit="10" stroke-linecap="round" stroke-linejoin="round"/>
<path d="M29.8403 39.6807C35.275 39.6807 39.6807 35.275 39.6807 29.8403C39.6807 24.4057 35.275 20 29.8403 20C24.4057 20 20 24.4057 20 29.8403C20 35.275 24.4057 39.6807 29.8403 39.6807Z" stroke="white" stroke-miterlimit="10"/>
<path d="M399 77C403.418 77 407 73.4183 407 69C407 64.5817 403.418 61 399 61C394.582 61 391 64.5817 391 69C391 73.4183 394.582 77 399 77Z" stroke="white" stroke-miterlimit="10"/>
<path d="M275.123 131.964C275.093 131.854 275.107 131.736 275.164 131.637C275.22 131.538 275.314 131.465 275.424 131.434C275.534 131.404 275.651 131.419 275.751 131.475C275.85 131.531 275.923 131.625 275.953 131.735L302.529 230.899C303.401 230.7 304.316 230.821 305.107 231.238C305.898 231.656 306.513 232.343 306.841 233.175C307.169 234.007 307.188 234.929 306.895 235.774C306.602 236.619 306.015 237.331 305.242 237.781C304.999 237.922 304.74 238.032 304.47 238.111L309.247 256.119C309.29 256.222 309.29 256.337 309.248 256.44C309.205 256.543 309.124 256.625 309.021 256.668C308.918 256.711 308.802 256.711 308.699 256.669C308.596 256.626 308.514 256.544 308.472 256.442L308.417 256.348L303.573 238.274C302.726 238.339 301.882 238.115 301.18 237.637C300.478 237.159 299.959 236.457 299.709 235.646C299.459 234.834 299.492 233.961 299.803 233.171C300.114 232.381 300.685 231.721 301.422 231.298C301.501 231.252 301.581 231.206 301.66 231.16L275.123 131.964ZM301.863 231.996C301.364 232.284 300.961 232.714 300.706 233.232C300.451 233.749 300.355 234.33 300.43 234.902C300.505 235.474 300.748 236.011 301.129 236.445C301.509 236.878 302.009 237.189 302.567 237.339C303.124 237.488 303.713 237.469 304.259 237.283C304.805 237.098 305.284 236.755 305.635 236.297C305.987 235.839 306.194 235.288 306.232 234.712C306.27 234.137 306.136 233.563 305.847 233.063C305.459 232.396 304.823 231.909 304.077 231.71C303.33 231.512 302.536 231.617 301.867 232.003L301.863 231.996Z" fill="#262626"/>
<path d="M262.084 133.681L262.086 164.684C262.946 164.838 263.724 165.29 264.285 165.96C264.845 166.63 265.152 167.476 265.152 168.35C265.152 169.224 264.845 170.07 264.284 170.74C263.724 171.41 262.946 171.862 262.086 172.016L262.05 240.087C262.049 240.178 262.018 240.266 261.962 240.338C261.906 240.41 261.828 240.461 261.741 240.485C261.653 240.508 261.56 240.502 261.475 240.468C261.391 240.434 261.321 240.373 261.274 240.294C261.236 240.231 261.218 240.158 261.221 240.085L261.251 172.036C260.435 172.015 259.649 171.728 259.013 171.217C258.376 170.707 257.925 170.003 257.726 169.212C257.528 168.42 257.595 167.586 257.915 166.836C258.236 166.086 258.794 165.462 259.503 165.059C260.037 164.756 260.637 164.588 261.25 164.57L261.241 133.687C261.243 133.576 261.288 133.47 261.367 133.392C261.446 133.314 261.553 133.27 261.664 133.269C261.774 133.268 261.88 133.311 261.959 133.388C262.038 133.465 262.083 133.571 262.084 133.681ZM259.918 165.829C259.419 166.118 259.016 166.548 258.761 167.065C258.506 167.582 258.41 168.164 258.485 168.736C258.56 169.308 258.804 169.845 259.184 170.278C259.564 170.712 260.065 171.023 260.622 171.172C261.179 171.322 261.768 171.302 262.314 171.117C262.861 170.932 263.34 170.588 263.691 170.131C264.042 169.673 264.249 169.122 264.287 168.546C264.325 167.97 264.191 167.396 263.903 166.897C263.514 166.229 262.877 165.741 262.131 165.541C261.384 165.341 260.589 165.445 259.918 165.829Z" fill="#262626"/>
<path d="M333.665 99.8793C333.42 100.547 332.989 101.131 332.423 101.562C331.858 101.993 331.181 102.253 330.472 102.313C329.763 102.372 329.052 102.228 328.423 101.897C327.793 101.566 327.272 101.062 326.919 100.445C326.478 99.7005 326.313 98.8249 326.453 97.9712L313.229 94.4341C313.124 94.4021 313.035 94.3314 312.98 94.2363C312.926 94.1411 312.909 94.0287 312.934 93.9217C312.964 93.8155 313.034 93.7252 313.13 93.67C313.226 93.6148 313.339 93.599 313.446 93.6259L326.739 97.1327C327.006 96.4907 327.448 95.9362 328.013 95.5317C328.579 95.1271 329.246 94.8887 329.94 94.8431C330.634 94.7976 331.327 94.9468 331.941 95.2739C332.555 95.6011 333.065 96.0932 333.414 96.6947C333.818 97.4231 333.966 98.2663 333.834 99.0888L380.241 111.469C380.346 111.498 380.436 111.567 380.49 111.662C380.545 111.756 380.56 111.868 380.533 111.974C380.519 112.027 380.495 112.077 380.461 112.121C380.428 112.164 380.386 112.201 380.338 112.229C380.291 112.256 380.238 112.274 380.184 112.281C380.129 112.288 380.074 112.284 380.021 112.27L333.665 99.8793ZM327.64 100.028C327.929 100.528 328.359 100.93 328.876 101.186C329.394 101.441 329.975 101.537 330.547 101.461C331.119 101.386 331.656 101.143 332.089 100.763C332.523 100.382 332.834 99.8818 332.984 99.3246C333.133 98.7674 333.114 98.1784 332.928 97.6322C332.743 97.0859 332.4 96.607 331.942 96.2558C331.484 95.9046 330.933 95.697 330.357 95.6593C329.782 95.6216 329.208 95.7554 328.708 96.0438C328.038 96.4306 327.549 97.0677 327.349 97.8148C327.149 98.562 327.254 99.3581 327.64 100.028Z" fill="#262626"/>
<path d="M308.237 106.555L361.188 137.135C361.749 136.458 362.532 136.001 363.397 135.845C364.263 135.69 365.155 135.845 365.917 136.285C366.679 136.724 367.261 137.419 367.559 138.246C367.858 139.073 367.855 139.979 367.55 140.804L406.251 163.185C406.304 163.209 406.351 163.243 406.391 163.287C406.43 163.33 406.459 163.381 406.477 163.436C406.495 163.492 406.502 163.55 406.496 163.608C406.49 163.666 406.472 163.723 406.443 163.773C406.414 163.824 406.374 163.868 406.327 163.902C406.28 163.936 406.227 163.961 406.17 163.973C406.113 163.985 406.054 163.986 405.997 163.974C405.94 163.962 405.886 163.938 405.838 163.904L367.155 141.57C366.84 142.084 366.403 142.511 365.882 142.815C365.181 143.221 364.367 143.388 363.562 143.291C362.758 143.194 362.006 142.838 361.421 142.278C360.836 141.717 360.449 140.982 360.317 140.182C360.186 139.383 360.318 138.562 360.693 137.844L307.789 107.295C307.724 107.261 307.67 107.208 307.634 107.143C307.598 107.08 307.579 107.009 307.58 106.936C307.58 106.863 307.599 106.792 307.636 106.729C307.662 106.676 307.699 106.629 307.744 106.592C307.789 106.554 307.841 106.526 307.898 106.509C307.955 106.493 308.014 106.489 308.072 106.496C308.131 106.504 308.187 106.524 308.237 106.555ZM365.494 142.077C365.994 141.788 366.397 141.358 366.652 140.841C366.907 140.324 367.003 139.742 366.928 139.17C366.853 138.598 366.609 138.062 366.229 137.628C365.849 137.194 365.348 136.883 364.791 136.734C364.234 136.584 363.645 136.604 363.099 136.789C362.552 136.974 362.073 137.318 361.722 137.775C361.371 138.233 361.163 138.785 361.126 139.36C361.088 139.936 361.222 140.51 361.51 141.009C361.897 141.679 362.534 142.168 363.281 142.368C364.028 142.568 364.825 142.464 365.494 142.077Z" fill="#262626"/>
<path d="M390.264 209.344L372.016 191.07C371.929 191.12 371.843 191.17 371.749 191.225C371.012 191.653 370.15 191.817 369.307 191.689C368.464 191.562 367.69 191.15 367.113 190.522C366.536 189.894 366.191 189.087 366.134 188.237C366.078 187.386 366.314 186.541 366.804 185.843L299.228 118.298L299.174 118.204C299.128 118.125 299.111 118.033 299.123 117.943C299.135 117.852 299.176 117.768 299.241 117.704C299.279 117.664 299.324 117.633 299.374 117.612C299.425 117.59 299.479 117.579 299.533 117.579C299.588 117.579 299.642 117.59 299.693 117.611C299.743 117.632 299.789 117.663 299.827 117.702L367.354 185.246C367.559 185.055 367.786 184.889 368.03 184.75C368.8 184.345 369.687 184.221 370.539 184.399C371.39 184.577 372.153 185.046 372.696 185.726C373.239 186.406 373.528 187.254 373.513 188.124C373.499 188.994 373.181 189.832 372.616 190.493L390.835 208.716C390.913 208.794 390.956 208.899 390.956 209.009C390.957 209.119 390.914 209.224 390.837 209.303C390.763 209.378 390.664 209.424 390.558 209.432C390.453 209.44 390.348 209.408 390.264 209.344ZM368.418 185.488C367.918 185.777 367.515 186.207 367.26 186.724C367.005 187.242 366.909 187.823 366.984 188.395C367.06 188.967 367.303 189.504 367.683 189.937C368.063 190.371 368.564 190.682 369.121 190.831C369.678 190.981 370.267 190.961 370.813 190.776C371.36 190.591 371.839 190.247 372.19 189.79C372.541 189.332 372.749 188.781 372.786 188.205C372.824 187.629 372.69 187.055 372.402 186.556C372.015 185.886 371.378 185.397 370.631 185.197C369.884 184.997 369.088 185.101 368.418 185.488Z" fill="#262626"/>
<path d="M304.709 160.543C303.904 159.148 304.382 157.364 305.777 156.558C307.172 155.753 308.955 156.231 309.761 157.626C310.566 159.021 310.088 160.805 308.693 161.61C307.298 162.416 305.515 161.938 304.709 160.543Z" fill="#2E80F6"/>
<path d="M303.987 160.96C303.53 160.162 303.382 159.223 303.573 158.324C303.763 157.424 304.278 156.626 305.02 156.082L288.07 126.723C288.015 126.628 288 126.514 288.028 126.407C288.057 126.3 288.127 126.209 288.222 126.154C288.318 126.099 288.432 126.084 288.539 126.112C288.645 126.141 288.736 126.211 288.792 126.307L305.742 155.665C306.582 155.302 307.526 155.26 308.396 155.548C309.265 155.836 309.998 156.433 310.455 157.225C310.913 158.018 311.064 158.952 310.878 159.848C310.693 160.745 310.185 161.542 309.45 162.088L351.5 234.921C351.555 235.016 351.57 235.13 351.542 235.237C351.513 235.344 351.443 235.435 351.347 235.49C351.252 235.545 351.138 235.56 351.031 235.531C350.924 235.503 350.833 235.433 350.778 235.337L308.728 162.505C307.886 162.875 306.937 162.922 306.063 162.637C305.188 162.352 304.45 161.755 303.987 160.96ZM308.693 161.611C309.193 161.322 309.596 160.892 309.851 160.375C310.106 159.857 310.202 159.276 310.127 158.704C310.051 158.132 309.808 157.595 309.428 157.162C309.047 156.728 308.547 156.417 307.99 156.267C307.433 156.118 306.844 156.137 306.297 156.323C305.751 156.508 305.272 156.852 304.921 157.309C304.57 157.767 304.362 158.318 304.324 158.894C304.287 159.47 304.421 160.043 304.709 160.543C305.096 161.213 305.733 161.702 306.48 161.902C307.227 162.102 308.023 161.997 308.693 161.611Z" fill="#262626"/>
<path d="M258.851 169.814C258.045 168.419 258.523 166.635 259.918 165.83C261.313 165.025 263.097 165.503 263.903 166.898C264.708 168.293 264.23 170.076 262.835 170.882C261.44 171.687 259.656 171.209 258.851 169.814Z" fill="#F3E557"/>
<path d="M367.35 189.472C366.545 188.077 367.023 186.294 368.418 185.488C369.813 184.683 371.596 185.161 372.402 186.556C373.207 187.951 372.729 189.735 371.334 190.54C369.939 191.345 368.155 190.867 367.35 189.472Z" fill="#2E80F6"/>
<path d="M327.641 100.027C326.835 98.6321 327.313 96.8483 328.708 96.0428C330.103 95.2374 331.887 95.7154 332.693 97.1104C333.498 98.5054 333.02 100.289 331.625 101.095C330.23 101.9 328.446 101.422 327.641 100.027Z" fill="#4FCA8A"/>
<path d="M334.843 181.836C334.038 180.441 334.516 178.657 335.911 177.851C337.306 177.046 339.09 177.524 339.895 178.919C340.701 180.314 340.223 182.098 338.828 182.903C337.433 183.709 335.649 183.231 334.843 181.836Z" fill="white"/>
<path d="M339.244 183.627C338.602 183.997 337.864 184.169 337.124 184.121C336.384 184.072 335.675 183.806 335.086 183.354C334.498 182.903 334.057 182.287 333.818 181.584C333.58 180.882 333.555 180.125 333.747 179.408C333.939 178.692 334.339 178.049 334.897 177.56C335.454 177.071 336.145 176.758 336.88 176.661C337.615 176.564 338.363 176.688 339.028 177.016C339.693 177.344 340.246 177.862 340.617 178.504C340.864 178.93 341.025 179.401 341.09 179.889C341.155 180.378 341.122 180.874 340.995 181.35C340.867 181.826 340.647 182.273 340.347 182.663C340.046 183.054 339.672 183.381 339.244 183.627ZM334.843 181.837C335.132 182.337 335.562 182.74 336.079 182.995C336.597 183.25 337.178 183.346 337.75 183.271C338.322 183.195 338.859 182.952 339.292 182.572C339.726 182.191 340.037 181.691 340.187 181.134C340.336 180.577 340.317 179.988 340.131 179.441C339.946 178.895 339.603 178.416 339.145 178.065C338.687 177.714 338.136 177.506 337.56 177.469C336.984 177.431 336.411 177.565 335.911 177.853C335.241 178.24 334.752 178.877 334.552 179.624C334.352 180.371 334.457 181.167 334.843 181.837Z" fill="#262626"/>
<path d="M332.142 139.574C331.337 138.179 331.815 136.395 333.21 135.59C334.605 134.784 336.389 135.262 337.194 136.657C338 138.052 337.522 139.836 336.127 140.642C334.732 141.447 332.948 140.969 332.142 139.574Z" fill="white"/>
<path d="M332.793 134.87C333.436 134.499 334.174 134.327 334.914 134.375C335.654 134.424 336.363 134.691 336.951 135.142C337.54 135.594 337.981 136.21 338.219 136.912C338.458 137.614 338.483 138.371 338.291 139.088C338.099 139.804 337.699 140.448 337.141 140.937C336.583 141.426 335.893 141.738 335.158 141.835C334.423 141.932 333.675 141.809 333.01 141.481C332.345 141.152 331.792 140.635 331.421 139.992C330.924 139.131 330.789 138.107 331.046 137.147C331.304 136.186 331.932 135.367 332.793 134.87ZM337.194 136.659C336.906 136.159 336.476 135.757 335.958 135.501C335.441 135.246 334.86 135.15 334.288 135.226C333.716 135.301 333.179 135.544 332.745 135.924C332.312 136.305 332 136.805 331.851 137.362C331.702 137.92 331.721 138.509 331.907 139.055C332.092 139.601 332.435 140.08 332.893 140.431C333.351 140.782 333.902 140.99 334.478 141.028C335.053 141.065 335.627 140.932 336.127 140.643C336.797 140.256 337.285 139.619 337.486 138.872C337.686 138.125 337.581 137.329 337.194 136.659Z" fill="#262626"/>
<path d="M274.909 206.894C274.104 205.499 274.582 203.715 275.977 202.91C277.372 202.105 279.156 202.583 279.961 203.978C280.767 205.373 280.289 207.156 278.894 207.962C277.499 208.767 275.715 208.289 274.909 206.894Z" fill="white"/>
<path d="M279.31 208.683C278.668 209.054 277.93 209.226 277.19 209.178C276.45 209.129 275.741 208.862 275.152 208.411C274.564 207.959 274.122 207.343 273.884 206.641C273.646 205.939 273.621 205.181 273.813 204.465C274.005 203.749 274.405 203.105 274.962 202.616C275.52 202.127 276.21 201.815 276.946 201.718C277.681 201.621 278.428 201.744 279.094 202.072C279.759 202.4 280.312 202.918 280.683 203.561C281.18 204.422 281.315 205.446 281.057 206.406C280.8 207.367 280.171 208.186 279.31 208.683ZM274.909 206.894C275.198 207.394 275.628 207.796 276.145 208.051C276.662 208.307 277.244 208.403 277.816 208.327C278.388 208.252 278.924 208.009 279.358 207.628C279.792 207.248 280.103 206.748 280.252 206.191C280.402 205.633 280.382 205.044 280.197 204.498C280.011 203.952 279.668 203.473 279.211 203.122C278.753 202.77 278.201 202.563 277.626 202.525C277.05 202.487 276.476 202.621 275.977 202.91C275.307 203.296 274.818 203.934 274.618 204.681C274.418 205.428 274.522 206.224 274.909 206.894Z" fill="#262626"/>
<path d="M275.123 131.964C275.093 131.854 275.107 131.736 275.164 131.637C275.22 131.538 275.314 131.465 275.424 131.434C275.534 131.404 275.651 131.419 275.751 131.475C275.85 131.531 275.923 131.625 275.953 131.735L302.529 230.899C303.401 230.7 304.316 230.821 305.107 231.238C305.898 231.656 306.513 232.343 306.841 233.175C307.169 234.007 307.188 234.929 306.895 235.774C306.602 236.619 306.015 237.331 305.242 237.781C304.999 237.922 304.74 238.032 304.47 238.111L309.247 256.119C309.29 256.222 309.29 256.337 309.248 256.44C309.205 256.543 309.124 256.625 309.021 256.668C308.918 256.711 308.802 256.711 308.699 256.669C308.596 256.626 308.514 256.544 308.472 256.442L308.417 256.348L303.573 238.274C302.726 238.339 301.882 238.115 301.18 237.637C300.478 237.159 299.959 236.457 299.709 235.646C299.459 234.834 299.492 233.961 299.803 233.171C300.114 232.381 300.685 231.721 301.422 231.298C301.501 231.252 301.581 231.206 301.66 231.16L275.123 131.964ZM301.863 231.996C301.364 232.284 300.961 232.714 300.706 233.232C300.451 233.749 300.355 234.33 300.43 234.902C300.505 235.474 300.748 236.011 301.129 236.445C301.509 236.878 302.009 237.189 302.567 237.339C303.124 237.488 303.713 237.469 304.259 237.283C304.805 237.098 305.284 236.755 305.635 236.297C305.987 235.839 306.194 235.288 306.232 234.712C306.27 234.137 306.136 233.563 305.847 233.063C305.459 232.396 304.823 231.909 304.077 231.71C303.33 231.512 302.536 231.617 301.867 232.003L301.863 231.996Z" fill="#262626"/>
<path d="M262.084 133.681L262.086 164.684C262.946 164.838 263.724 165.29 264.285 165.96C264.845 166.63 265.152 167.476 265.152 168.35C265.152 169.224 264.845 170.07 264.284 170.74C263.724 171.41 262.946 171.862 262.086 172.016L262.05 240.087C262.049 240.178 262.018 240.266 261.962 240.338C261.906 240.41 261.828 240.461 261.741 240.485C261.653 240.508 261.56 240.502 261.475 240.468C261.391 240.434 261.321 240.373 261.274 240.294C261.236 240.231 261.218 240.158 261.221 240.085L261.251 172.036C260.435 172.015 259.649 171.728 259.013 171.217C258.376 170.707 257.925 170.003 257.726 169.212C257.528 168.42 257.595 167.586 257.915 166.836C258.236 166.086 258.794 165.462 259.503 165.059C260.037 164.756 260.637 164.588 261.25 164.57L261.241 133.687C261.243 133.576 261.288 133.47 261.367 133.392C261.446 133.314 261.553 133.27 261.664 133.269C261.774 133.268 261.88 133.311 261.959 133.388C262.038 133.465 262.083 133.571 262.084 133.681ZM259.918 165.829C259.419 166.118 259.016 166.548 258.761 167.065C258.506 167.582 258.41 168.164 258.485 168.736C258.56 169.308 258.804 169.845 259.184 170.278C259.564 170.712 260.065 171.023 260.622 171.172C261.179 171.322 261.768 171.302 262.314 171.117C262.861 170.932 263.34 170.588 263.691 170.131C264.042 169.673 264.249 169.122 264.287 168.546C264.325 167.97 264.191 167.396 263.903 166.897C263.514 166.229 262.877 165.741 262.131 165.541C261.384 165.341 260.589 165.445 259.918 165.829Z" fill="#262626"/>
<path d="M333.665 99.8793C333.42 100.547 332.989 101.131 332.423 101.562C331.858 101.993 331.181 102.253 330.472 102.313C329.763 102.372 329.052 102.228 328.423 101.897C327.793 101.566 327.272 101.062 326.919 100.445C326.478 99.7005 326.313 98.8249 326.453 97.9712L313.229 94.4341C313.124 94.4021 313.035 94.3314 312.98 94.2363C312.926 94.1411 312.909 94.0287 312.934 93.9217C312.964 93.8155 313.034 93.7252 313.13 93.67C313.226 93.6148 313.339 93.599 313.446 93.6259L326.739 97.1327C327.006 96.4907 327.448 95.9362 328.013 95.5317C328.579 95.1271 329.246 94.8887 329.94 94.8431C330.634 94.7976 331.327 94.9468 331.941 95.2739C332.555 95.6011 333.065 96.0932 333.414 96.6947C333.818 97.4231 333.966 98.2663 333.834 99.0888L380.241 111.469C380.346 111.498 380.436 111.567 380.49 111.662C380.545 111.756 380.56 111.868 380.533 111.974C380.519 112.027 380.495 112.077 380.461 112.121C380.428 112.164 380.386 112.201 380.338 112.229C380.291 112.256 380.238 112.274 380.184 112.281C380.129 112.288 380.074 112.284 380.021 112.27L333.665 99.8793ZM327.64 100.028C327.929 100.528 328.359 100.93 328.876 101.186C329.394 101.441 329.975 101.537 330.547 101.461C331.119 101.386 331.656 101.143 332.089 100.763C332.523 100.382 332.834 99.8818 332.984 99.3246C333.133 98.7674 333.114 98.1784 332.928 97.6322C332.743 97.0859 332.4 96.607 331.942 96.2558C331.484 95.9046 330.933 95.697 330.357 95.6593C329.782 95.6216 329.208 95.7554 328.708 96.0438C328.038 96.4306 327.549 97.0677 327.349 97.8148C327.149 98.562 327.254 99.3581 327.64 100.028Z" fill="#262626"/>
<path d="M308.237 106.555L361.188 137.135C361.749 136.458 362.532 136.001 363.397 135.845C364.263 135.69 365.155 135.845 365.917 136.285C366.679 136.724 367.261 137.419 367.559 138.246C367.858 139.073 367.855 139.979 367.55 140.804L406.251 163.185C406.304 163.209 406.351 163.243 406.391 163.287C406.43 163.33 406.459 163.381 406.477 163.436C406.495 163.492 406.502 163.55 406.496 163.608C406.49 163.666 406.472 163.723 406.443 163.773C406.414 163.824 406.374 163.868 406.327 163.902C406.28 163.936 406.227 163.961 406.17 163.973C406.113 163.985 406.054 163.986 405.997 163.974C405.94 163.962 405.886 163.938 405.838 163.904L367.155 141.57C366.84 142.084 366.403 142.511 365.882 142.815C365.181 143.221 364.367 143.388 363.562 143.291C362.758 143.194 362.006 142.838 361.421 142.278C360.836 141.717 360.449 140.982 360.317 140.182C360.186 139.383 360.318 138.562 360.693 137.844L307.789 107.295C307.724 107.261 307.67 107.208 307.634 107.143C307.598 107.08 307.579 107.009 307.58 106.936C307.58 106.863 307.599 106.792 307.636 106.729C307.662 106.676 307.699 106.629 307.744 106.592C307.789 106.554 307.841 106.526 307.898 106.509C307.955 106.493 308.014 106.489 308.072 106.496C308.131 106.504 308.187 106.524 308.237 106.555ZM365.494 142.077C365.994 141.788 366.397 141.358 366.652 140.841C366.907 140.324 367.003 139.742 366.928 139.17C366.853 138.598 366.609 138.062 366.229 137.628C365.849 137.194 365.348 136.883 364.791 136.734C364.234 136.584 363.645 136.604 363.099 136.789C362.552 136.974 362.073 137.318 361.722 137.775C361.371 138.233 361.163 138.785 361.126 139.36C361.088 139.936 361.222 140.51 361.51 141.009C361.897 141.679 362.534 142.168 363.281 142.368C364.028 142.568 364.825 142.464 365.494 142.077Z" fill="#262626"/>
<path d="M390.264 209.344L372.016 191.07C371.929 191.12 371.843 191.17 371.749 191.225C371.012 191.653 370.15 191.817 369.307 191.689C368.464 191.562 367.69 191.15 367.113 190.522C366.536 189.894 366.191 189.087 366.134 188.237C366.078 187.386 366.314 186.541 366.804 185.843L299.228 118.298L299.174 118.204C299.128 118.125 299.111 118.033 299.123 117.943C299.135 117.852 299.176 117.768 299.241 117.704C299.279 117.664 299.324 117.633 299.374 117.612C299.425 117.59 299.479 117.579 299.533 117.579C299.588 117.579 299.642 117.59 299.693 117.611C299.743 117.632 299.789 117.663 299.827 117.702L367.354 185.246C367.559 185.055 367.786 184.889 368.03 184.75C368.8 184.345 369.687 184.221 370.539 184.399C371.39 184.577 372.153 185.046 372.696 185.726C373.239 186.406 373.528 187.254 373.513 188.124C373.499 188.994 373.181 189.832 372.616 190.493L390.835 208.716C390.913 208.794 390.956 208.899 390.956 209.009C390.957 209.119 390.914 209.224 390.837 209.303C390.763 209.378 390.664 209.424 390.558 209.432C390.453 209.44 390.348 209.408 390.264 209.344ZM368.418 185.488C367.918 185.777 367.515 186.207 367.26 186.724C367.005 187.242 366.909 187.823 366.984 188.395C367.06 188.967 367.303 189.504 367.683 189.937C368.063 190.371 368.564 190.682 369.121 190.831C369.678 190.981 370.267 190.961 370.813 190.776C371.36 190.591 371.839 190.247 372.19 189.79C372.541 189.332 372.749 188.781 372.786 188.205C372.824 187.629 372.69 187.055 372.402 186.556C372.015 185.886 371.378 185.397 370.631 185.197C369.884 184.997 369.088 185.101 368.418 185.488Z" fill="#262626"/>
<path d="M304.709 160.543C303.904 159.148 304.382 157.364 305.777 156.558C307.172 155.753 308.955 156.231 309.761 157.626C310.566 159.021 310.088 160.805 308.693 161.61C307.298 162.416 305.515 161.938 304.709 160.543Z" fill="#2E80F6"/>
<path d="M303.987 160.96C303.53 160.162 303.382 159.223 303.573 158.324C303.763 157.424 304.278 156.626 305.02 156.082L288.07 126.723C288.015 126.628 288 126.514 288.028 126.407C288.057 126.3 288.127 126.209 288.222 126.154C288.318 126.099 288.432 126.084 288.539 126.112C288.645 126.141 288.736 126.211 288.792 126.307L305.742 155.665C306.582 155.302 307.526 155.26 308.396 155.548C309.265 155.836 309.998 156.433 310.455 157.225C310.913 158.018 311.064 158.952 310.878 159.848C310.693 160.745 310.185 161.542 309.45 162.088L351.5 234.921C351.555 235.016 351.57 235.13 351.542 235.237C351.513 235.344 351.443 235.435 351.347 235.49C351.252 235.545 351.138 235.56 351.031 235.531C350.924 235.503 350.833 235.433 350.778 235.337L308.728 162.505C307.886 162.875 306.937 162.922 306.063 162.637C305.188 162.352 304.45 161.755 303.987 160.96ZM308.693 161.611C309.193 161.322 309.596 160.892 309.851 160.375C310.106 159.857 310.202 159.276 310.127 158.704C310.051 158.132 309.808 157.595 309.428 157.162C309.047 156.728 308.547 156.417 307.99 156.267C307.433 156.118 306.844 156.137 306.297 156.323C305.751 156.508 305.272 156.852 304.921 157.309C304.57 157.767 304.362 158.318 304.324 158.894C304.287 159.47 304.421 160.043 304.709 160.543C305.096 161.213 305.733 161.702 306.48 161.902C307.227 162.102 308.023 161.997 308.693 161.611Z" fill="#262626"/>
<path d="M258.851 169.814C258.045 168.419 258.523 166.635 259.918 165.83C261.313 165.025 263.097 165.503 263.903 166.898C264.708 168.293 264.23 170.076 262.835 170.882C261.44 171.687 259.656 171.209 258.851 169.814Z" fill="#F3E557"/>
<path d="M367.35 189.472C366.545 188.077 367.023 186.294 368.418 185.488C369.813 184.683 371.596 185.161 372.402 186.556C373.207 187.951 372.729 189.735 371.334 190.54C369.939 191.345 368.155 190.867 367.35 189.472Z" fill="#2E80F6"/>
<path d="M327.641 100.027C326.835 98.6321 327.313 96.8483 328.708 96.0428C330.103 95.2374 331.887 95.7154 332.693 97.1104C333.498 98.5054 333.02 100.289 331.625 101.095C330.23 101.9 328.446 101.422 327.641 100.027Z" fill="#4FCA8A"/>
<path d="M334.843 181.836C334.038 180.441 334.516 178.657 335.911 177.851C337.306 177.046 339.09 177.524 339.895 178.919C340.701 180.314 340.223 182.098 338.828 182.903C337.433 183.709 335.649 183.231 334.843 181.836Z" fill="white"/>
<path d="M339.244 183.627C338.602 183.997 337.864 184.169 337.124 184.121C336.384 184.072 335.675 183.806 335.086 183.354C334.498 182.903 334.057 182.287 333.818 181.584C333.58 180.882 333.555 180.125 333.747 179.408C333.939 178.692 334.339 178.049 334.897 177.56C335.454 177.071 336.145 176.758 336.88 176.661C337.615 176.564 338.363 176.688 339.028 177.016C339.693 177.344 340.246 177.862 340.617 178.504C340.864 178.93 341.025 179.401 341.09 179.889C341.155 180.378 341.122 180.874 340.995 181.35C340.867 181.826 340.647 182.273 340.347 182.663C340.046 183.054 339.672 183.381 339.244 183.627ZM334.843 181.837C335.132 182.337 335.562 182.74 336.079 182.995C336.597 183.25 337.178 183.346 337.75 183.271C338.322 183.195 338.859 182.952 339.292 182.572C339.726 182.191 340.037 181.691 340.187 181.134C340.336 180.577 340.317 179.988 340.131 179.441C339.946 178.895 339.603 178.416 339.145 178.065C338.687 177.714 338.136 177.506 337.56 177.469C336.984 177.431 336.411 177.565 335.911 177.853C335.241 178.24 334.752 178.877 334.552 179.624C334.352 180.371 334.457 181.167 334.843 181.837Z" fill="#262626"/>
<path d="M332.142 139.574C331.337 138.179 331.815 136.395 333.21 135.59C334.605 134.784 336.389 135.262 337.194 136.657C338 138.052 337.522 139.836 336.127 140.642C334.732 141.447 332.948 140.969 332.142 139.574Z" fill="white"/>
<path d="M332.793 134.87C333.436 134.499 334.174 134.327 334.914 134.375C335.654 134.424 336.363 134.691 336.951 135.142C337.54 135.594 337.981 136.21 338.219 136.912C338.458 137.614 338.483 138.371 338.291 139.088C338.099 139.804 337.699 140.448 337.141 140.937C336.583 141.426 335.893 141.738 335.158 141.835C334.423 141.932 333.675 141.809 333.01 141.481C332.345 141.152 331.792 140.635 331.421 139.992C330.924 139.131 330.789 138.107 331.046 137.147C331.304 136.186 331.932 135.367 332.793 134.87ZM337.194 136.659C336.906 136.159 336.476 135.757 335.958 135.501C335.441 135.246 334.86 135.15 334.288 135.226C333.716 135.301 333.179 135.544 332.745 135.924C332.312 136.305 332 136.805 331.851 137.362C331.702 137.92 331.721 138.509 331.907 139.055C332.092 139.601 332.435 140.08 332.893 140.431C333.351 140.782 333.902 140.99 334.478 141.028C335.053 141.065 335.627 140.932 336.127 140.643C336.797 140.256 337.285 139.619 337.486 138.872C337.686 138.125 337.581 137.329 337.194 136.659Z" fill="#262626"/>
<path d="M274.909 206.894C274.104 205.499 274.582 203.715 275.977 202.91C277.372 202.105 279.156 202.583 279.961 203.978C280.767 205.373 280.289 207.156 278.894 207.962C277.499 208.767 275.715 208.289 274.909 206.894Z" fill="white"/>
<path d="M279.31 208.683C278.668 209.054 277.93 209.226 277.19 209.178C276.45 209.129 275.741 208.862 275.152 208.411C274.564 207.959 274.122 207.343 273.884 206.641C273.646 205.939 273.621 205.181 273.813 204.465C274.005 203.749 274.405 203.105 274.962 202.616C275.52 202.127 276.21 201.815 276.946 201.718C277.681 201.621 278.428 201.744 279.094 202.072C279.759 202.4 280.312 202.918 280.683 203.561C281.18 204.422 281.315 205.446 281.057 206.406C280.8 207.367 280.171 208.186 279.31 208.683ZM274.909 206.894C275.198 207.394 275.628 207.796 276.145 208.051C276.662 208.307 277.244 208.403 277.816 208.327C278.388 208.252 278.924 208.009 279.358 207.628C279.792 207.248 280.103 206.748 280.252 206.191C280.402 205.633 280.382 205.044 280.197 204.498C280.011 203.952 279.668 203.473 279.211 203.122C278.753 202.77 278.201 202.563 277.626 202.525C277.05 202.487 276.476 202.621 275.977 202.91C275.307 203.296 274.818 203.934 274.618 204.681C274.418 205.428 274.522 206.224 274.909 206.894Z" fill="#262626"/>
<path d="M184 0V10.8857C184 29.1703 169.151 44.0106 150.856 44.0106H84.1436C65.8487 44.0106 51 58.8509 51 77.1354V125.356C51 143.64 65.8487 158.481 84.1436 158.481C102.439 158.481 117.287 173.321 117.287 191.605V205" stroke="#262626" stroke-linecap="round" stroke-linejoin="round" stroke-dasharray="2 2"/>
<circle cx="51" cy="100" r="3.5" fill="#267DFF" stroke="#3E343F"/>
<circle cx="138" cy="44" r="3.5" fill="#F3E557" stroke="#3E343F"/>
<circle cx="111" cy="172" r="3.5" fill="#00D085" stroke="#3E343F"/>
<path d="M239.753 97.0824V111.753H225.083C222.418 111.753 220.275 109.61 220.275 106.945V92.2747H234.945C237.583 92.2473 239.753 94.4176 239.753 97.0824Z" fill="#267DFF" stroke="#262626" stroke-miterlimit="10"/>
<path d="M239.753 111.753V134.363C239.753 157.604 220.907 176.451 197.665 176.451C174.396 176.451 155.55 157.604 155.55 134.363C155.55 122.742 160.275 112.22 167.885 104.61C175.495 97 186.017 92.2747 197.665 92.2747H220.275V106.945C220.275 109.61 222.445 111.753 225.083 111.753H239.753Z" fill="white" stroke="#262626" stroke-miterlimit="10"/>
<path d="M201.099 130.571L209.478 116.093C218.874 122.137 222.143 134.363 217.033 144.308L202.527 135.929C200.659 134.83 200 132.44 201.099 130.571Z" fill="#F8B228"/>
<path d="M201.429 137.797L215.907 146.176C209.863 155.571 197.637 158.841 187.692 153.731L196.072 139.253C197.17 137.357 199.561 136.725 201.429 137.797Z" fill="#2D1D2F"/>
<path d="M185.824 152.632L197.253 132.824C197.665 132.082 196.758 131.313 196.126 131.863C190.604 136.423 184.286 139.94 177.335 142.22C178.956 146.368 181.841 150.049 185.824 152.632Z" fill="#6AB3E3"/>
<path d="M176.648 140.132C189.231 135.956 200.412 127.357 207.555 114.994C197.308 109.72 184.615 113.401 178.791 123.484C175.769 128.731 175.165 134.72 176.648 140.132Z" fill="#E41E26"/>
<path d="M304.451 69.6374C304.451 92.8791 285.605 111.725 262.363 111.725H239.753V97.0549C239.753 94.3901 237.61 92.2473 234.945 92.2473H220.275V69.6374C220.247 46.3956 239.121 27.5495 262.363 27.5495C273.984 27.5495 284.506 32.2473 292.116 39.8846C299.753 47.4945 304.451 58.0165 304.451 69.6374Z" fill="white" stroke="#262626" stroke-miterlimit="10"/>
<path d="M267.335 69.6648C267.335 71.1484 267.061 72.5495 266.566 73.8681C265.247 74.3626 263.846 74.6374 262.363 74.6374H262.335C260.852 74.6374 259.451 74.3626 258.132 73.8681C257.638 72.5495 257.363 71.1484 257.363 69.6648V69.6374C257.363 68.1539 257.638 66.7528 258.132 65.4341C259.451 64.9396 260.852 64.6648 262.335 64.6648H262.363C263.846 64.6648 265.247 64.9396 266.566 65.4341C267.061 66.7528 267.335 68.1539 267.335 69.6648ZM281.978 66.3407H270.385L278.599 58.1264C277.967 57.2198 277.226 56.3681 276.456 55.5989C275.66 54.8022 274.835 54.0879 273.929 53.4561L265.715 61.6703V50.0495C264.616 49.8572 263.517 49.7747 262.418 49.7747H262.39C261.291 49.7747 260.165 49.8572 259.094 50.0495V61.6429L250.879 53.4286C249.973 54.0604 249.121 54.8022 248.352 55.5714C247.555 56.3681 246.841 57.1923 246.209 58.0989L254.423 66.3132H242.83C242.83 66.3132 242.555 68.4835 242.555 69.6099V69.6374C242.555 70.7363 242.638 71.8626 242.83 72.9341H254.423L246.209 81.1484C247.5 82.9615 249.094 84.555 250.907 85.8462L259.121 77.6319V89.2253C260.22 89.4176 261.319 89.5 262.418 89.5H262.445C263.544 89.5 264.643 89.4176 265.742 89.2253V77.6319L273.956 85.8462C274.863 85.2143 275.715 84.4725 276.484 83.7033C277.28 82.9066 277.995 82.0824 278.627 81.1758L270.412 72.9615H282.006C282.198 71.8626 282.28 70.7637 282.28 69.6648V69.6374C282.253 68.5385 282.143 67.4121 281.978 66.3407Z" fill="#FF4A00"/>
<path d="M235.632 102.934H231.319V106.396H229.396V102.934H225.083V101.011H229.396V97.5494H231.319V101.011H235.632V102.934Z" fill="white"/>
</g>
</svg>
