<svg width="460" height="205" viewBox="0 0 460 205" fill="none" xmlns="http://www.w3.org/2000/svg">
<mask id="mask0_94_2198" style="mask-type:alpha" maskUnits="userSpaceOnUse" x="0" y="0" width="460" height="205">
<path d="M10 205C4.47715 205 -1.95703e-07 200.523 -4.37114e-07 195L-8.52372e-06 10C-8.76513e-06 4.47717 4.47714 1.50631e-05 9.99999 1.48217e-05L450 -4.41134e-06C455.523 -4.65275e-06 460 4.47714 460 10L460 195C460 200.523 455.523 205 450 205L10 205Z" fill="#00D085"/>
</mask>
<g mask="url(#mask0_94_2198)">
<path d="M10 205C4.47715 205 -1.95703e-07 200.523 -4.37114e-07 195L-8.52372e-06 10C-8.76513e-06 4.47717 4.47714 1.50631e-05 9.99999 1.48217e-05L450 -4.41134e-06C455.523 -4.65275e-06 460 4.47714 460 10L460 195C460 200.523 455.523 205 450 205L10 205Z" fill="#9867FF"/>
<circle cx="381" cy="172" r="3.5" fill="white" stroke="#3E343F"/>
<path d="M458 232C474.016 232 487 219.016 487 203C487 186.984 474.016 174 458 174C441.984 174 429 186.984 429 203C429 219.016 441.984 232 458 232Z" stroke="white" stroke-miterlimit="10"/>
<path d="M293.666 130L293.666 209.679C293.666 222.336 303.972 232.642 316.629 232.642L350.313 232.642" stroke="#2B2B2B" stroke-miterlimit="10" stroke-linecap="round" stroke-linejoin="round"/>
<path d="M279.833 130.001L279.833 209.68C279.833 230.014 296.364 246.476 316.629 246.476L350.313 246.476" stroke="#2B2B2B" stroke-miterlimit="10" stroke-linecap="round" stroke-linejoin="round"/>
<path d="M266 116.174L266 203.68C266 231.692 288.686 254.378 316.698 254.378L342.151 254.378" stroke="#2B2B2B" stroke-linecap="round" stroke-linejoin="round" stroke-dasharray="11.61 11.61"/>
<path d="M298.577 157.391C298.577 154.679 296.378 152.48 293.666 152.48C290.954 152.48 288.755 154.679 288.755 157.391C288.755 160.103 290.954 162.302 293.666 162.302C296.378 162.302 298.577 160.103 298.577 157.391Z" fill="#9867FF" stroke="#2B2B2B" stroke-miterlimit="10" stroke-linecap="round" stroke-linejoin="round"/>
<path d="M284.203 189.346C284.203 186.634 282.005 184.435 279.293 184.435C276.58 184.435 274.382 186.634 274.382 189.346C274.382 192.058 276.58 194.257 279.293 194.257C282.005 194.257 284.203 192.058 284.203 189.346Z" fill="#F3E557" stroke="#2B2B2B" stroke-miterlimit="10" stroke-linecap="round" stroke-linejoin="round"/>
<path d="M-5.99911 43.6663H143.68C156.337 43.6663 166.643 53.9719 166.643 66.6292V100.313" stroke="#2B2B2B" stroke-miterlimit="10" stroke-linecap="round" stroke-linejoin="round"/>
<path d="M-5.99825 29.833H143.68C164.015 29.833 180.477 46.3636 180.477 66.6291V100.313" stroke="#2B2B2B" stroke-miterlimit="10" stroke-linecap="round" stroke-linejoin="round"/>
<path d="M-3.82503 16H143.681C171.693 16 194.379 38.6863 194.379 66.6984V92.1513" stroke="#2B2B2B" stroke-linecap="round" stroke-linejoin="round" stroke-dasharray="11.61 11.61"/>
<path d="M194.379 96.163V100.313" stroke="#2B2B2B" stroke-linecap="round" stroke-linejoin="round"/>
<path d="M91.392 48.5769C88.6799 48.5769 86.4812 46.3783 86.4812 43.6661C86.4812 40.954 88.6799 38.7554 91.392 38.7554C94.1041 38.7554 96.3027 40.954 96.3027 43.6661C96.3027 46.3783 94.1041 48.5769 91.392 48.5769Z" fill="#00D085" stroke="#2B2B2B" stroke-miterlimit="10" stroke-linecap="round" stroke-linejoin="round"/>
<path d="M123.347 34.2033C120.635 34.2033 118.436 32.0047 118.436 29.2926C118.436 26.5805 120.635 24.3818 123.347 24.3818C126.059 24.3818 128.258 26.5805 128.258 29.2926C128.258 32.0047 126.059 34.2033 123.347 34.2033Z" fill="#F3E557" stroke="#2B2B2B" stroke-miterlimit="10" stroke-linecap="round" stroke-linejoin="round"/>
<path d="M43 179C47.9706 179 52 174.971 52 170C52 165.029 47.9706 161 43 161C38.0294 161 34 165.029 34 170C34 174.971 38.0294 179 43 179Z" stroke="white" stroke-miterlimit="10"/>
<path d="M470 0.717792V0H330V70H470V69.2902V61.3148V60.589V52.6535V51.9278V43.9524V43.3303V35.3549V34.6371V26.6617V25.9439V17.9686V17.2508V9.27538V8.55759V0.5822V0.717792ZM338.702 65.143V69.2902H330.729V61.3148H338.702V65.143ZM338.702 60.6289H330.729V52.6934H338.702V60.6289ZM338.702 51.9676H330.729V43.9923H338.702V51.9676ZM338.702 43.3064H330.729V35.3549H338.702V43.3064ZM338.702 34.6451H330.729V26.6697H338.702V34.6451ZM338.702 25.9838H330.729V18.0084H338.702V25.9838ZM338.702 13.1674V17.3225H330.729V9.34716H338.702V13.1674ZM338.702 8.66127H330.729V0.685884H338.702V8.66127ZM347.397 65.143V69.2902H339.432V61.3148H347.397V65.143ZM347.397 60.6289H339.432V52.6934H347.397V60.6289ZM347.397 51.9676H339.432V43.9923H347.397V51.9676ZM347.397 43.3303H339.432V35.3549H347.397V43.3303ZM347.397 34.669H339.432V26.6936H347.397V34.669ZM347.397 26.0077H339.432V18.0324H347.397V26.0077ZM347.397 13.1913V17.3465H339.432V9.37108H347.397V13.1913ZM347.397 8.6852H339.432V0.709809H347.397V8.6852ZM356.099 65.1669V69.3141H348.086V61.3387H356.099V65.1669ZM356.099 60.6528H348.086V52.7173H356.099V60.6528ZM356.099 51.9916H348.086V44.0162H356.099V51.9916ZM356.099 43.3303H348.086V35.3549H356.099V43.3303ZM356.099 34.669H348.086V26.6936H356.099V34.669ZM356.099 26.0077H348.086V18.0324H356.099V26.0077ZM356.099 13.1913V17.3465H348.086V9.37108H356.099V13.1913ZM356.099 8.6852H348.086V0.709809H356.099V8.6852ZM364.802 65.1669V69.3141H356.788V61.3387H364.802V65.1669ZM364.802 60.6528H356.788V52.7173H364.802V60.6528ZM364.802 51.9916H356.788V44.0162H364.802V51.9916ZM364.802 43.3303H356.788V35.3549H364.802V43.3303ZM364.802 34.669H356.788V26.6936H364.802V34.669ZM364.802 26.0077H356.788V18.0324H364.802V26.0077ZM364.802 13.1913V17.3465H356.788V9.37108H364.802V13.1913ZM364.802 8.6852H356.788V0.709809H364.802V8.6852ZM373.504 65.1669V69.3141H365.491V61.3387H373.504V65.1669ZM373.504 60.6528H365.491V52.7173H373.504V60.6528ZM373.504 51.9916H365.491V44.0162H373.504V51.9916ZM373.504 43.3303H365.491V35.3549H373.504V43.3303ZM373.504 34.669H365.491V26.6936H373.504V34.669ZM373.504 26.0077H365.491V18.0324H373.504V26.0077ZM373.504 13.1913V17.3465H365.491V9.37108H373.504V13.1913ZM373.504 8.6852H365.491V0.709809H373.504V8.6852ZM382.215 65.1669V69.3141H374.201V61.3387H382.215V65.1669ZM382.215 60.6528H374.201V52.7173H382.215V60.6528ZM382.215 51.9916H374.201V44.0162H382.215V51.9916ZM382.215 43.3303H374.201V35.3549H382.215V43.3303ZM382.215 34.669H374.201V26.6936H382.215V34.669ZM382.215 26.0077H374.201V18.0324H382.215V26.0077ZM382.215 13.1913V17.3465H374.201V9.37108H382.215V13.1913ZM382.215 8.6852H374.201V0.709809H382.215V8.6852ZM390.917 65.1669V69.3141H382.904V61.3387H390.917V65.1669ZM390.917 60.6528H382.904V52.7173H390.917V60.6528ZM390.917 51.9916H382.904V44.0162H390.917V51.9916ZM390.917 43.3303H382.904V35.3549H390.917V43.3303ZM390.917 34.669H382.904V26.6936H390.917V34.669ZM390.917 26.0077H382.904V18.0324H390.917V26.0077ZM390.917 13.1913V17.3465H382.904V9.37108H390.917V13.1913ZM390.917 8.6852H382.904V0.709809H390.917V8.6852ZM399.619 65.1669V69.3141H391.606V61.3387H399.619V65.1669ZM399.619 60.6528H391.606V52.7173H399.619V60.6528ZM399.619 51.9916H391.606V44.0162H399.619V51.9916ZM399.619 43.3303H391.606V35.3549H399.619V43.3303ZM399.619 34.669H391.606V26.6936H399.619V34.669ZM399.619 26.0077H391.606V18.0324H399.619V26.0077ZM399.619 13.1913V17.3465H391.606V9.37108H399.619V13.1913ZM399.619 8.6852H391.606V0.709809H399.619V8.6852ZM408.298 65.143V69.2902H400.284V61.3148H408.298V65.143ZM408.298 60.6289H400.284V52.6934H408.298V60.6289ZM408.298 51.9676H400.284V43.9923H408.298V51.9676ZM408.298 43.3303H400.284V35.3549H408.298V43.3303ZM408.298 34.669H400.284V26.6936H408.298V34.669ZM408.298 26.0077H400.284V18.0324H408.298V26.0077ZM408.298 13.1913V17.3465H400.284V9.37108H408.298V13.1913ZM408.298 8.6852H400.284V0.709809H408.298V8.6852ZM417 65.1669V69.3141H408.987V61.3387H417V65.1669ZM417 60.6528H408.987V52.7173H417V60.6528ZM417 51.9916H408.987V44.0162H417V51.9916ZM417 43.3303H408.987V35.3549H417V43.3303ZM417 34.669H408.987V26.6936H417V34.669ZM417 26.0077H408.987V18.0324H417V26.0077ZM417 13.1913V17.3465H408.987V9.37108H417V13.1913ZM417 8.6852H408.987V0.709809H417V8.6852ZM425.703 65.1669V69.3141H417.689V61.3387H425.703V65.1669ZM425.703 60.6528H417.689V52.7173H425.703V60.6528ZM425.703 51.9916H417.689V44.0162H425.703V51.9916ZM425.703 43.3303H417.689V35.3549H425.703V43.3303ZM425.703 34.669H417.689V26.6936H425.703V34.669ZM425.703 26.0077H417.689V18.0324H425.703V26.0077ZM425.703 13.1913V17.3465H417.689V9.37108H425.703V13.1913ZM425.703 8.6852H417.689V0.709809H425.703V8.6852ZM434.405 65.1669V69.3141H426.392V61.3387H434.405V65.1669ZM434.405 60.6528H426.392V52.7173H434.405V60.6528ZM434.405 51.9916H426.392V44.0162H434.405V51.9916ZM434.405 43.3303H426.392V35.3549H434.405V43.3303ZM434.405 34.669H426.392V26.6936H434.405V34.669ZM434.405 26.0077H426.392V18.0324H434.405V26.0077ZM434.405 13.1913V17.3465H426.392V9.37108H434.405V13.1913ZM434.405 8.6852H426.392V0.709809H434.405V8.6852ZM443.107 65.1669V69.3141H435.094V61.3387H443.107V65.1669ZM443.107 60.6528H435.094V52.7173H443.107V60.6528ZM443.107 51.9916H435.094V44.0162H443.107V51.9916ZM443.107 43.3303H435.094V35.3549H443.107V43.3303ZM443.107 34.669H435.094V26.6936H443.107V34.669ZM443.107 26.0077H435.094V18.0324H443.107V26.0077ZM443.107 13.1913V17.3465H435.094V9.37108H443.107V13.1913ZM443.107 8.6852H435.094V0.709809H443.107V8.6852ZM451.81 65.1669V69.3141H443.797V61.3387H451.81V65.1669ZM451.81 60.6528H443.797V52.7173H451.81V60.6528ZM451.81 51.9916H443.797V44.0162H451.81V51.9916ZM451.81 43.3303H443.797V35.3549H451.81V43.3303ZM451.81 34.669H443.797V26.6936H451.81V34.669ZM451.81 26.0077H443.797V18.0324H451.81V26.0077ZM451.81 13.1913V17.3465H443.797V9.37108H451.81V13.1913ZM451.81 8.6852H443.797V0.709809H451.81V8.6852ZM460.512 65.1669V69.3141H452.499V61.3387H460.512V65.1669ZM460.512 60.6528H452.499V52.7173H460.512V60.6528ZM460.512 51.9916H452.499V44.0162H460.512V51.9916ZM460.512 43.3303H452.499V35.3549H460.512V43.3303ZM460.512 34.669H452.499V26.6936H460.512V34.669ZM460.512 26.0077H452.499V18.0324H460.512V26.0077ZM460.512 13.1913V17.3465H452.499V9.37108H460.512V13.1913ZM460.512 8.6852H452.499V0.709809H460.512V8.6852ZM469.215 65.1669V69.3141H461.201V61.3387H469.215V65.1669ZM469.215 60.6528H461.201V52.7173H469.215V60.6528ZM469.215 51.9916H461.201V44.0162H469.215V51.9916ZM469.215 43.3303H461.201V35.3549H469.215V43.3303ZM469.215 34.669H461.201V26.6936H469.215V34.669ZM469.215 26.0077H461.201V18.0324H469.215V26.0077ZM469.215 13.1913V17.3465H461.201V9.37108H469.215V13.1913ZM469.215 8.6852H461.201V0.709809H469.215V8.6852Z" fill="#B795FF"/>
<path d="M470 69.7178V69H330V139H470V138.29V130.315V129.589V121.654V120.928V112.952V112.33V104.355V103.637V95.6617V94.9439V86.9686V86.2508V78.2754V77.5576V69.5822V69.7178ZM338.702 134.143V138.29H330.729V130.315H338.702V134.143ZM338.702 129.629H330.729V121.693H338.702V129.629ZM338.702 120.968H330.729V112.992H338.702V120.968ZM338.702 112.306H330.729V104.355H338.702V112.306ZM338.702 103.645H330.729V95.6697H338.702V103.645ZM338.702 94.9838H330.729V87.0084H338.702V94.9838ZM338.702 82.1674V86.3225H330.729V78.3472H338.702V82.1674ZM338.702 77.6613H330.729V69.6859H338.702V77.6613ZM347.397 134.143V138.29H339.432V130.315H347.397V134.143ZM347.397 129.629H339.432V121.693H347.397V129.629ZM347.397 120.968H339.432V112.992H347.397V120.968ZM347.397 112.33H339.432V104.355H347.397V112.33ZM347.397 103.669H339.432V95.6936H347.397V103.669ZM347.397 95.0077H339.432V87.0324H347.397V95.0077ZM347.397 82.1913V86.3465H339.432V78.3711H347.397V82.1913ZM347.397 77.6852H339.432V69.7098H347.397V77.6852ZM356.099 134.167V138.314H348.086V130.339H356.099V134.167ZM356.099 129.653H348.086V121.717H356.099V129.653ZM356.099 120.992H348.086V113.016H356.099V120.992ZM356.099 112.33H348.086V104.355H356.099V112.33ZM356.099 103.669H348.086V95.6936H356.099V103.669ZM356.099 95.0077H348.086V87.0324H356.099V95.0077ZM356.099 82.1913V86.3465H348.086V78.3711H356.099V82.1913ZM356.099 77.6852H348.086V69.7098H356.099V77.6852ZM364.802 134.167V138.314H356.788V130.339H364.802V134.167ZM364.802 129.653H356.788V121.717H364.802V129.653ZM364.802 120.992H356.788V113.016H364.802V120.992ZM364.802 112.33H356.788V104.355H364.802V112.33ZM364.802 103.669H356.788V95.6936H364.802V103.669ZM364.802 95.0077H356.788V87.0324H364.802V95.0077ZM364.802 82.1913V86.3465H356.788V78.3711H364.802V82.1913ZM364.802 77.6852H356.788V69.7098H364.802V77.6852ZM373.504 134.167V138.314H365.491V130.339H373.504V134.167ZM373.504 129.653H365.491V121.717H373.504V129.653ZM373.504 120.992H365.491V113.016H373.504V120.992ZM373.504 112.33H365.491V104.355H373.504V112.33ZM373.504 103.669H365.491V95.6936H373.504V103.669ZM373.504 95.0077H365.491V87.0324H373.504V95.0077ZM373.504 82.1913V86.3465H365.491V78.3711H373.504V82.1913ZM373.504 77.6852H365.491V69.7098H373.504V77.6852ZM382.215 134.167V138.314H374.201V130.339H382.215V134.167ZM382.215 129.653H374.201V121.717H382.215V129.653ZM382.215 120.992H374.201V113.016H382.215V120.992ZM382.215 112.33H374.201V104.355H382.215V112.33ZM382.215 103.669H374.201V95.6936H382.215V103.669ZM382.215 95.0077H374.201V87.0324H382.215V95.0077ZM382.215 82.1913V86.3465H374.201V78.3711H382.215V82.1913ZM382.215 77.6852H374.201V69.7098H382.215V77.6852ZM390.917 134.167V138.314H382.904V130.339H390.917V134.167ZM390.917 129.653H382.904V121.717H390.917V129.653ZM390.917 120.992H382.904V113.016H390.917V120.992ZM390.917 112.33H382.904V104.355H390.917V112.33ZM390.917 103.669H382.904V95.6936H390.917V103.669ZM390.917 95.0077H382.904V87.0324H390.917V95.0077ZM390.917 82.1913V86.3465H382.904V78.3711H390.917V82.1913ZM390.917 77.6852H382.904V69.7098H390.917V77.6852ZM399.619 134.167V138.314H391.606V130.339H399.619V134.167ZM399.619 129.653H391.606V121.717H399.619V129.653ZM399.619 120.992H391.606V113.016H399.619V120.992ZM399.619 112.33H391.606V104.355H399.619V112.33ZM399.619 103.669H391.606V95.6936H399.619V103.669ZM399.619 95.0077H391.606V87.0324H399.619V95.0077ZM399.619 82.1913V86.3465H391.606V78.3711H399.619V82.1913ZM399.619 77.6852H391.606V69.7098H399.619V77.6852ZM408.298 134.143V138.29H400.284V130.315H408.298V134.143ZM408.298 129.629H400.284V121.693H408.298V129.629ZM408.298 120.968H400.284V112.992H408.298V120.968ZM408.298 112.33H400.284V104.355H408.298V112.33ZM408.298 103.669H400.284V95.6936H408.298V103.669ZM408.298 95.0077H400.284V87.0324H408.298V95.0077ZM408.298 82.1913V86.3465H400.284V78.3711H408.298V82.1913ZM408.298 77.6852H400.284V69.7098H408.298V77.6852ZM417 134.167V138.314H408.987V130.339H417V134.167ZM417 129.653H408.987V121.717H417V129.653ZM417 120.992H408.987V113.016H417V120.992ZM417 112.33H408.987V104.355H417V112.33ZM417 103.669H408.987V95.6936H417V103.669ZM417 95.0077H408.987V87.0324H417V95.0077ZM417 82.1913V86.3465H408.987V78.3711H417V82.1913ZM417 77.6852H408.987V69.7098H417V77.6852ZM425.703 134.167V138.314H417.689V130.339H425.703V134.167ZM425.703 129.653H417.689V121.717H425.703V129.653ZM425.703 120.992H417.689V113.016H425.703V120.992ZM425.703 112.33H417.689V104.355H425.703V112.33ZM425.703 103.669H417.689V95.6936H425.703V103.669ZM425.703 95.0077H417.689V87.0324H425.703V95.0077ZM425.703 82.1913V86.3465H417.689V78.3711H425.703V82.1913ZM425.703 77.6852H417.689V69.7098H425.703V77.6852ZM434.405 134.167V138.314H426.392V130.339H434.405V134.167ZM434.405 129.653H426.392V121.717H434.405V129.653ZM434.405 120.992H426.392V113.016H434.405V120.992ZM434.405 112.33H426.392V104.355H434.405V112.33ZM434.405 103.669H426.392V95.6936H434.405V103.669ZM434.405 95.0077H426.392V87.0324H434.405V95.0077ZM434.405 82.1913V86.3465H426.392V78.3711H434.405V82.1913ZM434.405 77.6852H426.392V69.7098H434.405V77.6852ZM443.107 134.167V138.314H435.094V130.339H443.107V134.167ZM443.107 129.653H435.094V121.717H443.107V129.653ZM443.107 120.992H435.094V113.016H443.107V120.992ZM443.107 112.33H435.094V104.355H443.107V112.33ZM443.107 103.669H435.094V95.6936H443.107V103.669ZM443.107 95.0077H435.094V87.0324H443.107V95.0077ZM443.107 82.1913V86.3465H435.094V78.3711H443.107V82.1913ZM443.107 77.6852H435.094V69.7098H443.107V77.6852ZM451.81 134.167V138.314H443.797V130.339H451.81V134.167ZM451.81 129.653H443.797V121.717H451.81V129.653ZM451.81 120.992H443.797V113.016H451.81V120.992ZM451.81 112.33H443.797V104.355H451.81V112.33ZM451.81 103.669H443.797V95.6936H451.81V103.669ZM451.81 95.0077H443.797V87.0324H451.81V95.0077ZM451.81 82.1913V86.3465H443.797V78.3711H451.81V82.1913ZM451.81 77.6852H443.797V69.7098H451.81V77.6852ZM460.512 134.167V138.314H452.499V130.339H460.512V134.167ZM460.512 129.653H452.499V121.717H460.512V129.653ZM460.512 120.992H452.499V113.016H460.512V120.992ZM460.512 112.33H452.499V104.355H460.512V112.33ZM460.512 103.669H452.499V95.6936H460.512V103.669ZM460.512 95.0077H452.499V87.0324H460.512V95.0077ZM460.512 82.1913V86.3465H452.499V78.3711H460.512V82.1913ZM460.512 77.6852H452.499V69.7098H460.512V77.6852ZM469.215 134.167V138.314H461.201V130.339H469.215V134.167ZM469.215 129.653H461.201V121.717H469.215V129.653ZM469.215 120.992H461.201V113.016H469.215V120.992ZM469.215 112.33H461.201V104.355H469.215V112.33ZM469.215 103.669H461.201V95.6936H469.215V103.669ZM469.215 95.0077H461.201V87.0324H469.215V95.0077ZM469.215 82.1913V86.3465H461.201V78.3711H469.215V82.1913ZM469.215 77.6852H461.201V69.7098H469.215V77.6852Z" fill="#B795FF"/>
<path opacity="0.3" d="M-27 239.282L-27 240L113 240L113 170L-27 170L-27 170.71L-27 178.685L-27 179.411L-27 187.346L-27 188.072L-27 196.048L-27 196.67L-27 204.645L-27 205.363L-27 213.338L-27 214.056L-27 222.031L-27 222.749L-27 230.725L-27 231.442L-27 239.418L-27 239.282ZM104.298 174.857L104.298 170.71L112.271 170.71L112.271 178.685L104.298 178.685L104.298 174.857ZM104.298 179.371L112.271 179.371L112.271 187.307L104.298 187.307L104.298 179.371ZM104.298 188.032L112.271 188.032L112.271 196.008L104.298 196.008L104.298 188.032ZM104.298 196.694L112.271 196.694L112.271 204.645L104.298 204.645L104.298 196.694ZM104.298 205.355L112.271 205.355L112.271 213.33L104.298 213.33L104.298 205.355ZM104.298 214.016L112.271 214.016L112.271 221.992L104.298 221.992L104.298 214.016ZM104.298 226.833L104.298 222.677L112.271 222.677L112.271 230.653L104.298 230.653L104.298 226.833ZM104.298 231.339L112.271 231.339L112.271 239.314L104.298 239.314L104.298 231.339ZM95.6032 174.857L95.6032 170.71L103.568 170.71L103.568 178.685L95.6032 178.685L95.6032 174.857ZM95.6032 179.371L103.568 179.371L103.568 187.307L95.6032 187.307L95.6032 179.371ZM95.6032 188.032L103.568 188.032L103.568 196.008L95.6032 196.008L95.6032 188.032ZM95.6032 196.67L103.568 196.67L103.568 204.645L95.6032 204.645L95.6032 196.67ZM95.6032 205.331L103.568 205.331L103.568 213.306L95.6032 213.306L95.6032 205.331ZM95.6032 213.992L103.568 213.992L103.568 221.968L95.6032 221.968L95.6032 213.992ZM95.6032 226.809L95.6032 222.654L103.568 222.654L103.568 230.629L95.6032 230.629L95.6032 226.809ZM95.6032 231.315L103.568 231.315L103.568 239.29L95.6032 239.29L95.6032 231.315ZM86.9008 174.833L86.9008 170.686L94.914 170.686L94.914 178.661L86.9008 178.661L86.9008 174.833ZM86.9008 179.347L94.914 179.347L94.914 187.283L86.9008 187.283L86.9008 179.347ZM86.9008 188.008L94.914 188.008L94.914 195.984L86.9008 195.984L86.9008 188.008ZM86.9008 196.67L94.914 196.67L94.914 204.645L86.9008 204.645L86.9008 196.67ZM86.9008 205.331L94.914 205.331L94.914 213.306L86.9008 213.306L86.9008 205.331ZM86.9008 213.992L94.914 213.992L94.914 221.968L86.9008 221.968L86.9008 213.992ZM86.9008 226.809L86.9008 222.654L94.914 222.654L94.914 230.629L86.9008 230.629L86.9008 226.809ZM86.9007 231.315L94.914 231.315L94.914 239.29L86.9007 239.29L86.9007 231.315ZM78.1983 174.833L78.1983 170.686L86.2116 170.686L86.2116 178.661L78.1983 178.661L78.1983 174.833ZM78.1983 179.347L86.2116 179.347L86.2116 187.283L78.1983 187.283L78.1983 179.347ZM78.1983 188.008L86.2116 188.008L86.2116 195.984L78.1983 195.984L78.1983 188.008ZM78.1983 196.67L86.2116 196.67L86.2116 204.645L78.1983 204.645L78.1983 196.67ZM78.1983 205.331L86.2116 205.331L86.2116 213.306L78.1983 213.306L78.1983 205.331ZM78.1983 213.992L86.2116 213.992L86.2116 221.968L78.1983 221.968L78.1983 213.992ZM78.1983 226.809L78.1983 222.654L86.2116 222.654L86.2116 230.629L78.1983 230.629L78.1983 226.809ZM78.1983 231.315L86.2116 231.315L86.2116 239.29L78.1983 239.29L78.1983 231.315ZM69.4959 174.833L69.4959 170.686L77.5092 170.686L77.5092 178.661L69.4959 178.661L69.4959 174.833ZM69.4959 179.347L77.5092 179.347L77.5092 187.283L69.4959 187.283L69.4959 179.347ZM69.4959 188.008L77.5092 188.008L77.5092 195.984L69.4959 195.984L69.4959 188.008ZM69.4959 196.67L77.5092 196.67L77.5092 204.645L69.4959 204.645L69.4959 196.67ZM69.4959 205.331L77.5092 205.331L77.5092 213.306L69.4959 213.306L69.4959 205.331ZM69.4959 213.992L77.5092 213.992L77.5092 221.968L69.4959 221.968L69.4959 213.992ZM69.4959 226.809L69.4959 222.654L77.5092 222.654L77.5092 230.629L69.4959 230.629L69.4959 226.809ZM69.4959 231.315L77.5092 231.315L77.5092 239.29L69.4959 239.29L69.4959 231.315ZM60.7855 174.833L60.7855 170.686L68.7988 170.686L68.7988 178.661L60.7855 178.661L60.7855 174.833ZM60.7855 179.347L68.7988 179.347L68.7988 187.283L60.7855 187.283L60.7855 179.347ZM60.7855 188.008L68.7988 188.008L68.7988 195.984L60.7855 195.984L60.7855 188.008ZM60.7855 196.67L68.7988 196.67L68.7988 204.645L60.7855 204.645L60.7855 196.67ZM60.7855 205.331L68.7988 205.331L68.7988 213.306L60.7855 213.306L60.7855 205.331ZM60.7855 213.992L68.7988 213.992L68.7988 221.968L60.7855 221.968L60.7855 213.992ZM60.7855 226.809L60.7855 222.654L68.7988 222.654L68.7988 230.629L60.7855 230.629L60.7855 226.809ZM60.7855 231.315L68.7988 231.315L68.7988 239.29L60.7855 239.29L60.7855 231.315ZM52.0831 174.833L52.0831 170.686L60.0963 170.686L60.0963 178.661L52.0831 178.661L52.0831 174.833ZM52.0831 179.347L60.0963 179.347L60.0963 187.283L52.0831 187.283L52.0831 179.347ZM52.0831 188.008L60.0963 188.008L60.0963 195.984L52.0831 195.984L52.0831 188.008ZM52.0831 196.67L60.0963 196.67L60.0963 204.645L52.0831 204.645L52.0831 196.67ZM52.0831 205.331L60.0963 205.331L60.0963 213.306L52.0831 213.306L52.0831 205.331ZM52.0831 213.992L60.0963 213.992L60.0963 221.968L52.0831 221.968L52.0831 213.992ZM52.0831 226.809L52.0831 222.654L60.0963 222.654L60.0963 230.629L52.0831 230.629L52.0831 226.809ZM52.0831 231.315L60.0963 231.315L60.0963 239.29L52.0831 239.29L52.0831 231.315ZM43.3806 174.833L43.3806 170.686L51.3939 170.686L51.3939 178.661L43.3806 178.661L43.3806 174.833ZM43.3806 179.347L51.3939 179.347L51.3939 187.283L43.3806 187.283L43.3806 179.347ZM43.3806 188.008L51.3939 188.008L51.3939 195.984L43.3806 195.984L43.3806 188.008ZM43.3806 196.67L51.3939 196.67L51.3939 204.645L43.3806 204.645L43.3806 196.67ZM43.3806 205.331L51.3939 205.331L51.3939 213.306L43.3806 213.306L43.3806 205.331ZM43.3806 213.992L51.3939 213.992L51.3939 221.968L43.3806 221.968L43.3806 213.992ZM43.3806 226.809L43.3806 222.654L51.3939 222.654L51.3939 230.629L43.3806 230.629L43.3806 226.809ZM43.3806 231.315L51.3939 231.315L51.3939 239.29L43.3806 239.29L43.3806 231.315ZM34.7023 174.857L34.7023 170.71L42.7155 170.71L42.7155 178.685L34.7023 178.685L34.7023 174.857ZM34.7023 179.371L42.7155 179.371L42.7155 187.307L34.7023 187.307L34.7023 179.371ZM34.7023 188.032L42.7155 188.032L42.7155 196.008L34.7023 196.008L34.7023 188.032ZM34.7023 196.67L42.7155 196.67L42.7155 204.645L34.7023 204.645L34.7023 196.67ZM34.7023 205.331L42.7155 205.331L42.7155 213.306L34.7022 213.306L34.7023 205.331ZM34.7022 213.992L42.7155 213.992L42.7155 221.968L34.7022 221.968L34.7022 213.992ZM34.7022 226.809L34.7022 222.654L42.7155 222.654L42.7155 230.629L34.7022 230.629L34.7022 226.809ZM34.7022 231.315L42.7155 231.315L42.7155 239.29L34.7022 239.29L34.7022 231.315ZM25.9998 174.833L25.9998 170.686L34.0131 170.686L34.0131 178.661L25.9998 178.661L25.9998 174.833ZM25.9998 179.347L34.0131 179.347L34.0131 187.283L25.9998 187.283L25.9998 179.347ZM25.9998 188.008L34.0131 188.008L34.0131 195.984L25.9998 195.984L25.9998 188.008ZM25.9998 196.67L34.0131 196.67L34.0131 204.645L25.9998 204.645L25.9998 196.67ZM25.9998 205.331L34.0131 205.331L34.0131 213.306L25.9998 213.306L25.9998 205.331ZM25.9998 213.992L34.0131 213.992L34.0131 221.968L25.9998 221.968L25.9998 213.992ZM25.9998 226.809L25.9998 222.654L34.0131 222.654L34.0131 230.629L25.9998 230.629L25.9998 226.809ZM25.9998 231.315L34.0131 231.315L34.0131 239.29L25.9998 239.29L25.9998 231.315ZM17.2974 174.833L17.2974 170.686L25.3107 170.686L25.3107 178.661L17.2974 178.661L17.2974 174.833ZM17.2974 179.347L25.3107 179.347L25.3107 187.283L17.2974 187.283L17.2974 179.347ZM17.2974 188.008L25.3107 188.008L25.3107 195.984L17.2974 195.984L17.2974 188.008ZM17.2974 196.67L25.3107 196.67L25.3107 204.645L17.2974 204.645L17.2974 196.67ZM17.2974 205.331L25.3107 205.331L25.3107 213.306L17.2974 213.306L17.2974 205.331ZM17.2974 213.992L25.3107 213.992L25.3107 221.968L17.2974 221.968L17.2974 213.992ZM17.2974 226.809L17.2974 222.654L25.3107 222.654L25.3107 230.629L17.2974 230.629L17.2974 226.809ZM17.2974 231.315L25.3107 231.315L25.3107 239.29L17.2974 239.29L17.2974 231.315ZM8.59498 174.833L8.59498 170.686L16.6083 170.686L16.6083 178.661L8.59498 178.661L8.59498 174.833ZM8.59498 179.347L16.6083 179.347L16.6083 187.283L8.59498 187.283L8.59498 179.347ZM8.59498 188.008L16.6083 188.008L16.6083 195.984L8.59498 195.984L8.59498 188.008ZM8.59498 196.67L16.6083 196.67L16.6083 204.645L8.59498 204.645L8.59498 196.67ZM8.59498 205.331L16.6083 205.331L16.6083 213.306L8.59498 213.306L8.59498 205.331ZM8.59498 213.992L16.6083 213.992L16.6083 221.968L8.59498 221.968L8.59498 213.992ZM8.59498 226.809L8.59498 222.654L16.6083 222.654L16.6083 230.629L8.59498 230.629L8.59498 226.809ZM8.59498 231.315L16.6083 231.315L16.6083 239.29L8.59498 239.29L8.59498 231.315ZM-0.107431 174.833L-0.107431 170.686L7.90585 170.686L7.90585 178.661L-0.107432 178.661L-0.107431 174.833ZM-0.107432 179.347L7.90585 179.347L7.90585 187.283L-0.107433 187.283L-0.107432 179.347ZM-0.107433 188.008L7.90585 188.008L7.90585 195.984L-0.107433 195.984L-0.107433 188.008ZM-0.107433 196.67L7.90585 196.67L7.90585 204.645L-0.107434 204.645L-0.107433 196.67ZM-0.107434 205.331L7.90585 205.331L7.90585 213.306L-0.107435 213.306L-0.107434 205.331ZM-0.107435 213.992L7.90585 213.992L7.90585 221.968L-0.107436 221.968L-0.107435 213.992ZM-0.107436 226.809L-0.107436 222.654L7.90585 222.654L7.90585 230.629L-0.107436 230.629L-0.107436 226.809ZM-0.107436 231.315L7.90585 231.315L7.90585 239.29L-0.107437 239.29L-0.107436 231.315ZM-8.80986 174.833L-8.80986 170.686L-0.796587 170.686L-0.796587 178.661L-8.80986 178.661L-8.80986 174.833ZM-8.80986 179.347L-0.796587 179.347L-0.796588 187.283L-8.80986 187.283L-8.80986 179.347ZM-8.80986 188.008L-0.796588 188.008L-0.796589 195.984L-8.80986 195.984L-8.80986 188.008ZM-8.80986 196.67L-0.796589 196.67L-0.79659 204.645L-8.80986 204.645L-8.80986 196.67ZM-8.80986 205.331L-0.79659 205.331L-0.79659 213.306L-8.80987 213.306L-8.80986 205.331ZM-8.80987 213.992L-0.79659 213.992L-0.796591 221.968L-8.80987 221.968L-8.80987 213.992ZM-8.80987 226.809L-8.80987 222.654L-0.796591 222.654L-0.796592 230.629L-8.80987 230.629L-8.80987 226.809ZM-8.80987 231.315L-0.796592 231.315L-0.796593 239.29L-8.80987 239.29L-8.80987 231.315ZM-17.5123 174.833L-17.5123 170.686L-9.49899 170.686L-9.499 178.661L-17.5123 178.661L-17.5123 174.833ZM-17.5123 179.347L-9.499 179.347L-9.499 187.283L-17.5123 187.283L-17.5123 179.347ZM-17.5123 188.008L-9.499 188.008L-9.499 195.984L-17.5123 195.984L-17.5123 188.008ZM-17.5123 196.67L-9.499 196.67L-9.499 204.645L-17.5123 204.645L-17.5123 196.67ZM-17.5123 205.331L-9.499 205.331L-9.499 213.306L-17.5123 213.306L-17.5123 205.331ZM-17.5123 213.992L-9.499 213.992L-9.499 221.968L-17.5123 221.968L-17.5123 213.992ZM-17.5123 226.809L-17.5123 222.654L-9.499 222.654L-9.499 230.629L-17.5123 230.629L-17.5123 226.809ZM-17.5123 231.315L-9.499 231.315L-9.499 239.29L-17.5123 239.29L-17.5123 231.315ZM-26.2147 174.833L-26.2147 170.686L-18.2014 170.686L-18.2014 178.661L-26.2147 178.661L-26.2147 174.833ZM-26.2147 179.347L-18.2014 179.347L-18.2014 187.283L-26.2147 187.283L-26.2147 179.347ZM-26.2147 188.008L-18.2014 188.008L-18.2014 195.984L-26.2147 195.984L-26.2147 188.008ZM-26.2147 196.67L-18.2014 196.67L-18.2014 204.645L-26.2147 204.645L-26.2147 196.67ZM-26.2147 205.331L-18.2014 205.331L-18.2014 213.306L-26.2147 213.306L-26.2147 205.331ZM-26.2147 213.992L-18.2014 213.992L-18.2014 221.968L-26.2147 221.968L-26.2147 213.992ZM-26.2147 226.809L-26.2147 222.654L-18.2014 222.654L-18.2014 230.629L-26.2147 230.629L-26.2147 226.809ZM-26.2147 231.315L-18.2014 231.315L-18.2014 239.29L-26.2147 239.29L-26.2147 231.315Z" fill="white"/>
<mask id="mask1_94_2198" style="mask-type:alpha" maskUnits="userSpaceOnUse" x="342" y="57" width="92" height="91">
<path d="M387.802 147.8C412.876 147.8 433.202 127.474 433.202 102.4C433.202 77.3263 412.876 57 387.802 57C362.729 57 342.402 77.3263 342.402 102.4C342.402 127.474 362.729 147.8 387.802 147.8Z" fill="#D9D9D9"/>
</mask>
<g mask="url(#mask1_94_2198)">
<path d="M387.802 147.8C412.876 147.8 433.202 127.474 433.202 102.4C433.202 77.3263 412.876 57 387.802 57C362.729 57 342.402 77.3263 342.402 102.4C342.402 127.474 362.729 147.8 387.802 147.8Z" fill="white" stroke="black" stroke-miterlimit="10"/>
<path d="M366.703 95.6L364.703 72.9H409.903L408.703 93.6L366.703 95.6Z" fill="#FF2247" stroke="#262626" stroke-width="0.3165" stroke-miterlimit="10"/>
<path d="M393.802 125.6H383.902C369.002 125.6 356.902 137.7 356.902 152.6V186.4H420.902V152.6C420.802 137.7 408.702 125.6 393.802 125.6Z" fill="#3EB2F7" stroke="black" stroke-width="0.3165" stroke-miterlimit="10"/>
<path d="M396.203 108.5L380.303 108.1L376.103 130.9C375.903 131.9 384.003 135.5 389.903 135C398.803 134.2 401.703 130.5 401.703 130.5L396.203 108.5Z" fill="#FF939F" stroke="black" stroke-width="0.3165" stroke-miterlimit="10"/>
<path d="M378.902 114.9L377.902 120.3C377.902 120.3 382.402 123.7 388.402 123.7C394.402 123.7 399.202 119.6 399.202 119.6L397.202 113.1L378.902 114.9Z" fill="black" stroke="black" stroke-width="0.3165" stroke-miterlimit="10"/>
<path d="M370.903 107.5C365.703 107.5 363.203 103.9 362.603 100.7C361.803 96.8 364.503 91.6 370.203 93.7" fill="#FF939F"/>
<path d="M370.903 107.5C365.703 107.5 363.203 103.9 362.603 100.7C361.803 96.8 364.503 91.6 370.203 93.7" stroke="black" stroke-width="0.3165" stroke-miterlimit="10"/>
<path d="M369.202 95.2C367.002 94 362.302 98.8 366.302 102.7C366.302 102.7 366.202 107.2 370.002 105.4" stroke="black" stroke-width="0.3165" stroke-miterlimit="10" stroke-linecap="round"/>
<path d="M367.703 93.2L368.703 107.4L372.303 108.1L369.103 93.4L367.703 93.2Z" fill="black" stroke="black" stroke-width="0.3165" stroke-miterlimit="10"/>
<path d="M404.402 105.5C409.602 105.5 412.102 101.9 412.702 98.7C413.502 94.8 410.802 89.6 405.102 91.7" fill="#FF939F"/>
<path d="M404.402 105.5C409.602 105.5 412.102 101.9 412.702 98.7C413.502 94.8 410.802 89.6 405.102 91.7" stroke="black" stroke-width="0.3165" stroke-miterlimit="10"/>
<path d="M406.202 93.2C408.402 92 413.102 96.8 409.102 100.7C409.102 100.7 409.202 105.2 405.402 103.4" stroke="black" stroke-width="0.3165" stroke-miterlimit="10" stroke-linecap="round"/>
<path d="M407.302 91.2L406.702 105.5L403.002 106.1L406.302 91.4L407.302 91.2Z" fill="black" stroke="black" stroke-width="0.3165" stroke-miterlimit="10"/>
<path d="M406.302 97.7C406.302 97.6 407.302 84.5 407.302 84.5C407.502 76.6 395.802 74.6 387.502 74.6C379.202 74.6 369.902 74.3 367.402 83.4C367.402 83.4 368.702 97.6 368.702 97.7C370.302 113.3 377.102 120.8 387.402 120.9C397.902 120.8 404.702 116.3 406.302 97.7Z" fill="#FF939F" stroke="black" stroke-width="0.3165" stroke-miterlimit="10"/>
<path d="M370.803 96.1C373.603 92.8 379.903 89.6 384.903 96.8C384.903 96.8 382.803 100.4 377.903 100.2C373.103 99.9 370.803 96.1 370.803 96.1Z" stroke="black" stroke-width="0.3165" stroke-linejoin="round"/>
<path d="M370.803 96.1C370.803 96.1 373.103 99.9 377.903 100.2C382.803 100.4 384.903 96.8 384.903 96.8C382.703 93.6 380.203 92.4 377.903 92.4C375.003 92.4 372.403 94.2 370.803 96.1Z" fill="white" stroke="black" stroke-width="0.3165" stroke-miterlimit="10"/>
<path d="M404.702 96.1C401.902 92.8 395.602 89.6 390.602 96.8C390.602 96.8 392.702 100.4 397.602 100.2C402.502 99.9 404.702 96.1 404.702 96.1Z" stroke="black" stroke-width="0.3165" stroke-linejoin="round"/>
<path d="M390.602 96.8C390.602 96.8 392.702 100.4 397.602 100.2C402.502 100 404.702 96.1 404.702 96.1C403.102 94.3 400.502 92.5 397.602 92.5C395.302 92.4 392.802 93.6 390.602 96.8Z" fill="white" stroke="black" stroke-width="0.3165" stroke-miterlimit="10"/>
<path d="M372.602 90.8C374.202 89.8 377.702 87.7 381.602 90" stroke="black" stroke-width="0.3165" stroke-linejoin="round"/>
<path d="M393.902 90.8C395.602 90.1 399.502 88.6 402.902 91.6" stroke="black" stroke-width="0.3165" stroke-linejoin="round"/>
<path d="M389.103 93.3C389.103 93.3 389.803 107 388.703 108.3C387.603 109.6 385.303 108.9 385.303 108.9" stroke="black" stroke-width="0.3165" stroke-linejoin="round"/>
<path d="M380.402 112.7C384.102 115.1 391.802 114.6 396.302 110.7" stroke="black" stroke-width="0.3165" stroke-linejoin="round"/>
<path d="M365.503 83.5L388.203 86.6L409.203 83.5L409.903 72.9H364.703L365.503 83.5Z" stroke="black" stroke-width="0.3165" stroke-miterlimit="10"/>
<path d="M365.503 83.5L388.203 86.6L409.203 83.5L409.903 72.9H364.703L365.503 83.5Z" fill="#FF2247" stroke="#262626" stroke-width="0.3165" stroke-miterlimit="10"/>
<path d="M394.203 95.1001C394.203 97.0001 395.703 98.6 397.503 98.7C399.403 98.7 400.903 97.2 400.903 95.3C400.903 93.4 399.403 91.8 397.603 91.7C395.803 91.6 394.203 93.1001 394.203 95.1001Z" fill="black" stroke="black" stroke-width="0.3165" stroke-miterlimit="10"/>
<path d="M381.302 95.1001C381.302 97.0001 379.802 98.6 378.002 98.7C376.102 98.7 374.602 97.2 374.602 95.3C374.602 93.4 376.102 91.8 377.902 91.7C379.802 91.6 381.302 93.1001 381.302 95.1001Z" fill="black" stroke="black" stroke-width="0.3165" stroke-miterlimit="10"/>
</g>
<mask id="mask2_94_2198" style="mask-type:alpha" maskUnits="userSpaceOnUse" x="130" y="76" width="93" height="93">
<path d="M176.201 167.8C201.275 167.8 221.601 147.474 221.601 122.4C221.601 97.3263 201.275 77 176.201 77C151.127 77 130.801 97.3263 130.801 122.4C130.801 147.474 151.127 167.8 176.201 167.8Z" fill="#D9D9D9" stroke="black" stroke-miterlimit="10"/>
</mask>
<g mask="url(#mask2_94_2198)">
<path d="M176.201 167.8C201.275 167.8 221.601 147.474 221.601 122.4C221.601 97.3263 201.275 77 176.201 77C151.127 77 130.801 97.3263 130.801 122.4C130.801 147.474 151.127 167.8 176.201 167.8Z" fill="white" stroke="black" stroke-miterlimit="10"/>
<path d="M218.2 139.812C227.796 116.647 216.795 90.0882 193.63 80.4925C170.464 70.8968 143.906 81.8974 134.31 105.063C124.714 128.229 135.715 154.787 158.881 164.383C182.046 173.978 208.605 162.978 218.2 139.812Z" fill="white" stroke="black" stroke-width="0.3165" stroke-miterlimit="10"/>
<path d="M176.4 152.2C157.9 152.2 142.9 167.2 142.9 185.7V215.9H209.9V185.7C209.9 167.3 194.9 152.2 176.4 152.2Z" fill="#00D873" stroke="black" stroke-width="0.3165" stroke-miterlimit="10"/>
<path d="M156.401 110H152.201V120.4H156.401V110Z" fill="black" stroke="black" stroke-width="0.3165" stroke-miterlimit="10"/>
<path d="M198.1 110H193.9V120.4H198.1V110Z" fill="black" stroke="black" stroke-width="0.3165" stroke-miterlimit="10"/>
<path d="M184.1 134.3L167.4 133.9L163 157.8C162.8 158.8 171.3 162.7 177.4 162.1C186.7 161.2 189.8 157.3 189.8 157.3L184.1 134.3Z" fill="#FF939F" stroke="black" stroke-width="0.3165" stroke-miterlimit="10"/>
<path d="M166 141L164.9 146.7C164.9 146.7 169.6 150.3 175.9 150.3C182.2 150.3 187.2 146 187.2 146L185.1 139.2L166 141Z" fill="black" stroke="black" stroke-width="0.3165" stroke-miterlimit="10"/>
<path d="M157.7 133.3C152.3 133.3 149.7 129.5 149 126.2C148.2 122.1 150.9 116.7 157 118.8" fill="#FF939F"/>
<path d="M157.7 133.3C152.3 133.3 149.7 129.5 149 126.2C148.2 122.1 150.9 116.7 157 118.8" stroke="black" stroke-width="0.3165" stroke-miterlimit="10"/>
<path d="M155.801 120.4C153.501 119.1 148.601 124.1 152.801 128.2C152.801 128.2 152.701 132.9 156.701 131" stroke="black" stroke-width="0.3165" stroke-miterlimit="10" stroke-linecap="round"/>
<path d="M154.301 118.3L155.301 133.1L159.101 133.9L155.701 118.5L154.301 118.3Z" fill="black" stroke="black" stroke-width="0.3165" stroke-miterlimit="10"/>
<path d="M192.701 131.2C198.101 131.2 200.701 127.4 201.401 124.1C202.201 120 199.501 114.6 193.401 116.7" fill="#FF939F"/>
<path d="M192.701 131.2C198.101 131.2 200.701 127.4 201.401 124.1C202.201 120 199.501 114.6 193.401 116.7" stroke="black" stroke-width="0.3165" stroke-miterlimit="10"/>
<path d="M194.601 118.3C196.901 117 201.801 122 197.601 126.1C197.601 126.1 197.701 130.8 193.701 128.9" stroke="black" stroke-width="0.3165" stroke-miterlimit="10" stroke-linecap="round"/>
<path d="M195.701 116.3L195.101 131.2L191.301 131.8L194.701 116.4L195.701 116.3Z" fill="black" stroke="black" stroke-width="0.3165" stroke-miterlimit="10"/>
<path d="M194.7 123C194.7 122.9 195.8 109.2 195.8 109.2C196 101 183.8 98.8 175.1 98.8C166.5 98.8 156.7 98.5 154 108C154 108 155.3 122.8 155.3 123C156.9 139.4 164 147.2 174.9 147.3C185.8 147.4 193 142.5 194.7 123Z" fill="#FF939F" stroke="black" stroke-width="0.3165" stroke-miterlimit="10"/>
<path d="M157.5 121.3C160.4 117.8 167 114.5 172.3 122.1C172.3 122.1 170.1 125.9 165 125.6C159.9 125.3 157.5 121.3 157.5 121.3Z" stroke="black" stroke-width="0.3165" stroke-linejoin="round"/>
<path d="M157.5 121.3C157.5 121.3 159.9 125.3 165 125.6C170.1 125.9 172.3 122.1 172.3 122.1C170 118.7 167.4 117.5 164.9 117.5C161.9 117.5 159.2 119.4 157.5 121.3Z" fill="white" stroke="black" stroke-width="0.3165" stroke-miterlimit="10"/>
<path d="M193.001 121.3C190.101 117.8 183.501 114.5 178.201 122.1C178.201 122.1 180.401 125.9 185.501 125.6C190.701 125.3 193.001 121.3 193.001 121.3Z" stroke="black" stroke-width="0.3165" stroke-linejoin="round"/>
<path d="M178.301 122.1C178.301 122.1 180.501 125.9 185.601 125.6C190.701 125.3 193.101 121.3 193.101 121.3C191.501 119.4 188.701 117.5 185.701 117.5C183.201 117.5 180.601 118.7 178.301 122.1Z" fill="white" stroke="black" stroke-width="0.3165" stroke-miterlimit="10"/>
<path d="M159.4 115.8C161 114.7 164.8 112.6 168.9 115" stroke="black" stroke-width="0.3165" stroke-linejoin="round"/>
<path d="M181.701 115.9C183.501 115.1 187.501 113.6 191.201 116.7" stroke="black" stroke-width="0.3165" stroke-linejoin="round"/>
<path d="M176.701 118.4C176.701 118.4 177.401 132.7 176.301 134.1C175.201 135.5 172.801 134.8 172.801 134.8" stroke="black" stroke-width="0.3165" stroke-linejoin="round"/>
<path d="M167.6 138.7C171.5 141.3 179.5 140.7 184.2 136.6" stroke="black" stroke-width="0.3165" stroke-linejoin="round"/>
<path d="M150.6 111.5C150.6 98.1 161.5 87.1 175 87.1C188.4 87.1 199.4 98 199.4 111.5" fill="black"/>
<path d="M150.6 111.5C150.6 98.1 161.5 87.1 175 87.1C188.4 87.1 199.4 98 199.4 111.5" stroke="black" stroke-width="0.3165" stroke-miterlimit="10"/>
<path d="M168.6 120.3C168.6 122.3 167.1 124 165.1 124C163.2 124 161.5 122.4 161.5 120.4C161.5 118.4 163 116.7 165 116.7C167 116.7 168.5 118.3 168.6 120.3Z" fill="black" stroke="black" stroke-width="0.3165" stroke-miterlimit="10"/>
<path d="M182 120.3C182 122.3 183.5 124 185.5 124C187.4 124 189.1 122.4 189.1 120.4C189.1 118.4 187.6 116.7 185.6 116.7C183.6 116.6 182 118.3 182 120.3Z" fill="black" stroke="black" stroke-width="0.3165" stroke-miterlimit="10"/>
<path d="M218.2 139.812C227.796 116.647 216.795 90.0882 193.63 80.4925C170.464 70.8968 143.906 81.8974 134.31 105.063C124.714 128.229 135.715 154.787 158.881 164.383C182.046 173.978 208.605 162.978 218.2 139.812Z" stroke="black" stroke-width="0.3165" stroke-miterlimit="10"/>
</g>
<mask id="mask3_94_2198" style="mask-type:alpha" maskUnits="userSpaceOnUse" x="25" y="57" width="91" height="91">
<path d="M25 102.4C25 127.5 45.3 147.8 70.4 147.8C95.5 147.8 115.8 127.5 115.8 102.4C115.8 77.3 95.5 57 70.4 57C45.3 57 25 77.4 25 102.4Z" fill="white"/>
</mask>
<g mask="url(#mask3_94_2198)">
<path d="M25 102.4C25 127.5 45.3 147.8 70.4 147.8C95.5 147.8 115.8 127.5 115.8 102.4C115.8 77.3 95.5 57 70.4 57C45.3 57 25 77.4 25 102.4Z" fill="white" stroke="black" stroke-width="0.3165" stroke-miterlimit="10"/>
<path d="M48.5006 90.5L47.4006 73.9C47.2006 71.4 48.7006 69.1 51.0006 68.5L61.7006 65.5C67.6006 63.9 73.8006 63.8 79.7006 65.2L86.7006 66.9C90.6006 67.9 93.2006 71.8 92.9007 76L91.9007 89.3L48.5006 90.5Z" fill="black" stroke="black" stroke-width="0.3165" stroke-miterlimit="10"/>
<path d="M71.1004 122.5C53.0004 122.5 38.4004 137.1 38.4004 155.2V184.7H103.8V155.2C103.8 137.2 89.2004 122.5 71.1004 122.5Z" fill="#FF2247" stroke="#262626" stroke-width="0.3165" stroke-miterlimit="10"/>
<path d="M78.6012 105.1L62.3012 104.7L58.1012 128C57.9012 129 66.2012 132.7 72.2012 132.2C81.3012 131.4 84.3012 127.6 84.3012 127.6L78.6012 105.1Z" fill="#CF6A4E" stroke="black" stroke-width="0.3165" stroke-miterlimit="10"/>
<path d="M61.0004 111.6L59.9004 117.1C59.9004 117.1 64.5004 120.6 70.7004 120.6C76.8004 120.6 81.7004 116.4 81.7004 116.4L79.7004 109.7L61.0004 111.6Z" fill="black" stroke="black" stroke-width="0.3165" stroke-miterlimit="10"/>
<path d="M52.7997 104C47.4997 104 44.9997 100.3 44.2997 97C43.4997 93 46.1997 87.8 52.0997 89.8" fill="#CF6A4E"/>
<path d="M52.7997 104C47.4997 104 44.9997 100.3 44.2997 97C43.4997 93 46.1997 87.8 52.0997 89.8" stroke="black" stroke-width="0.3165" stroke-miterlimit="10"/>
<path d="M51.0001 91.4C48.8001 90.2 43.9001 95 48.0001 99C48.0001 99 47.9001 103.6 51.8001 101.7" stroke="black" stroke-width="0.3165" stroke-miterlimit="10" stroke-linecap="round"/>
<path d="M49.5 89.4L50.5 103.9L54.2 104.6L50.9 89.6L49.5 89.4Z" fill="black" stroke="black" stroke-width="0.3165" stroke-miterlimit="10"/>
<path d="M87.0996 102C92.3996 102 94.8996 98.3 95.5996 95C96.3996 91 93.6996 85.8 87.7996 87.8" fill="#CF6A4E"/>
<path d="M87.0996 102C92.3996 102 94.8996 98.3 95.5996 95C96.3996 91 93.6996 85.8 87.7996 87.8" stroke="black" stroke-width="0.3165" stroke-miterlimit="10"/>
<path d="M88.8996 89.4C91.0996 88.2 95.9996 93 91.8996 97C91.8996 97 91.9996 101.6 88.0996 99.7" stroke="black" stroke-width="0.3165" stroke-miterlimit="10" stroke-linecap="round"/>
<path d="M89.9996 87.4L89.3996 102L85.5996 102.6L88.9996 87.5L89.9996 87.4Z" fill="black" stroke="black" stroke-width="0.3165" stroke-miterlimit="10"/>
<path d="M89.0012 94C89.0012 93.9 90.0012 80.6 90.0012 80.5C90.2012 72.5 78.3012 70.4 69.8012 70.3C61.4012 70.3 51.8012 70 49.2012 79.3C49.2012 79.3 50.5012 93.8 50.5012 93.9C52.1012 109.9 59.0012 117.5 69.6012 117.6C80.3012 117.6 87.4012 113 89.0012 94Z" fill="#CF6A4E" stroke="black" stroke-width="0.3165" stroke-miterlimit="10"/>
<path d="M52.7012 92.3C55.6012 88.9 62.0012 85.7 67.1012 93C67.1012 93 64.9012 96.7 60.0012 96.4C55.0012 96.3 52.7012 92.3 52.7012 92.3Z" stroke="black" stroke-width="0.3165" stroke-linejoin="round"/>
<path d="M52.7012 92.3C52.7012 92.3 55.0012 96.2 60.0012 96.5C65.0012 96.8 67.1012 93.1 67.1012 93.1C64.8012 89.8 62.3012 88.6 59.9012 88.6C57.0012 88.6 54.3012 90.5 52.7012 92.3Z" fill="white" stroke="black" stroke-width="0.3165" stroke-miterlimit="10"/>
<path d="M87.4 92.3C84.5 88.9 78.1 85.7 73 93C73 93 75.2 96.7 80.1 96.4C85 96.3 87.4 92.3 87.4 92.3Z" stroke="black" stroke-width="0.3165" stroke-linejoin="round"/>
<path d="M72.9004 93.1C72.9004 93.1 75.1004 96.8 80.0004 96.5C85.0004 96.2 87.3004 92.3 87.3004 92.3C85.7004 90.4 83.0004 88.6 80.1004 88.6C77.7004 88.6 75.2004 89.8 72.9004 93.1Z" fill="white" stroke="black" stroke-width="0.3165" stroke-miterlimit="10"/>
<path d="M54.5 87C56.1 86 59.7 83.8 63.7 86.2" stroke="black" stroke-width="0.3165" stroke-linejoin="round"/>
<path d="M76.3008 87C78.0008 86.2 82.0008 84.8 85.5008 87.8" stroke="black" stroke-width="0.3165" stroke-linejoin="round"/>
<path d="M71.3996 89.5C71.3996 89.5 72.0996 103.5 70.9996 104.8C69.8996 106.2 67.5996 105.5 67.5996 105.5" stroke="black" stroke-width="0.3165" stroke-linejoin="round"/>
<path d="M62.5996 109.3C66.3996 111.8 74.2996 111.2 78.7996 107.2" stroke="black" stroke-width="0.3165" stroke-linejoin="round"/>
<path d="M80.9 71.9C83.8 74.6 78.5 86 90.8 87.4L91.9 75.2L81.7 71.1C81.7 71.1 61.9 86.4 49.5 89.4L48.5 72L78.4 68.7" fill="black"/>
<path d="M80.9 71.9C83.8 74.6 78.5 86 90.8 87.4L91.9 75.2L81.7 71.1C81.7 71.1 61.9 86.4 49.5 89.4L48.5 72L78.4 68.7" stroke="black" stroke-width="0.3165" stroke-miterlimit="10"/>
<path d="M76.5996 91.3C76.5996 93.3 78.0996 94.9 79.9996 94.9C81.8996 94.9 83.4996 93.4 83.4996 91.4C83.4996 89.4 81.9996 87.8 80.0996 87.8C78.1996 87.8 76.5996 89.4 76.5996 91.3Z" fill="black" stroke="black" stroke-width="0.3165" stroke-miterlimit="10"/>
<path d="M63.4996 91.3C63.4996 93.3 61.9996 94.9 60.0996 94.9C58.1996 94.9 56.5996 93.4 56.5996 91.4C56.5996 89.4 58.0996 87.8 59.9996 87.8C61.8996 87.8 63.3996 89.4 63.4996 91.3Z" fill="black" stroke="black" stroke-width="0.3165" stroke-miterlimit="10"/>
<path d="M25 102.4C25 127.5 45.3 147.8 70.4 147.8C95.5 147.8 115.8 127.5 115.8 102.4C115.8 77.3 95.5 57 70.4 57C45.3 57 25 77.4 25 102.4Z" stroke="black" stroke-width="0.3165" stroke-miterlimit="10"/>
<path d="M70.4 147.8C95.4737 147.8 115.8 127.474 115.8 102.4C115.8 77.3263 95.4737 57 70.4 57C45.3263 57 25 77.3263 25 102.4C25 127.474 45.3263 147.8 70.4 147.8Z" stroke="black" stroke-miterlimit="10"/>
</g>
<mask id="mask4_94_2198" style="mask-type:alpha" maskUnits="userSpaceOnUse" x="236" y="37" width="92" height="91">
<path d="M282.002 127.8C307.075 127.8 327.402 107.474 327.402 82.4C327.402 57.3262 307.075 37 282.002 37C256.928 37 236.602 57.3262 236.602 82.4C236.602 107.474 256.928 127.8 282.002 127.8Z" fill="#D9D9D9"/>
</mask>
<g mask="url(#mask4_94_2198)">
<path d="M282.002 127.8C307.075 127.8 327.402 107.474 327.402 82.4C327.402 57.3262 307.075 37 282.002 37C256.928 37 236.602 57.3262 236.602 82.4C236.602 107.474 256.928 127.8 282.002 127.8Z" fill="white" stroke="black" stroke-width="0.3165" stroke-miterlimit="10"/>
<path d="M282.002 97.8C296.085 97.8 307.502 86.3832 307.502 72.3C307.502 58.2167 296.085 46.8 282.002 46.8C267.919 46.8 256.502 58.2167 256.502 72.3C256.502 86.3832 267.919 97.8 282.002 97.8Z" fill="black" stroke="black" stroke-width="0.3165" stroke-miterlimit="10"/>
<path d="M289.502 88.4L275.802 88.1L273.102 108C272.902 108.8 279.002 111.8 284.102 111.3C291.702 110.6 293.302 107.6 293.302 107.6L289.502 88.4Z" fill="#CF6A4E" stroke="black" stroke-width="0.3165" stroke-miterlimit="10"/>
<path d="M274.601 93.9L274.201 98.8C274.201 98.8 277.601 101.5 282.701 101.5C287.901 101.5 291.301 98.5 291.301 98.5L290.301 92.3L274.601 93.9Z" fill="black" stroke="black" stroke-width="0.3165" stroke-miterlimit="10"/>
<path d="M267.802 87.5C263.302 87.5 261.202 84.4 260.602 81.6C259.902 78.2 262.202 73.8 267.102 75.5" fill="#CF6A4E"/>
<path d="M267.802 87.5C263.302 87.5 261.202 84.4 260.602 81.6C259.902 78.2 262.202 73.8 267.102 75.5" stroke="black" stroke-width="0.3165" stroke-miterlimit="10"/>
<path d="M266.202 76.9C264.302 75.9 260.202 80 263.702 83.3C263.702 83.3 263.602 87.2 266.902 85.6" stroke="black" stroke-width="0.3165" stroke-miterlimit="10" stroke-linecap="round"/>
<path d="M264.902 75.2L265.802 87.4L268.902 88L266.102 75.3L264.902 75.2Z" fill="black" stroke="black" stroke-width="0.3165" stroke-miterlimit="10"/>
<path d="M296.602 85.8C301.102 85.8 303.202 82.7 303.802 79.9C304.502 76.5 302.202 72.1 297.302 73.8" fill="#CF6A4E"/>
<path d="M296.602 85.8C301.102 85.8 303.202 82.7 303.802 79.9C304.502 76.5 302.202 72.1 297.302 73.8" stroke="black" stroke-width="0.3165" stroke-miterlimit="10"/>
<path d="M298.102 75.1C300.002 74.1 304.102 78.2 300.602 81.5C300.602 81.5 300.702 85.4 297.402 83.8" stroke="black" stroke-width="0.3165" stroke-miterlimit="10" stroke-linecap="round"/>
<path d="M299.102 73.5L298.602 85.8L295.402 86.3L298.202 73.6L299.102 73.5Z" fill="black" stroke="black" stroke-width="0.3165" stroke-miterlimit="10"/>
<path d="M298.203 79C298.203 78.9 299.103 67.7 299.103 67.6C299.303 60.8 289.203 59.1 282.103 59C275.003 59 267.003 58.7 264.803 66.6C264.803 66.6 265.903 78.8 265.903 78.9C267.203 92.4 273.103 98.8 282.003 98.8C290.903 98.9 296.903 95.1 298.203 79Z" fill="#CF6A4E" stroke="black" stroke-width="0.3165" stroke-miterlimit="10"/>
<path d="M267.602 77.5999C270.002 74.7999 275.502 72 279.802 78.2C279.802 78.2 278.002 81.2999 273.802 81.0999C269.602 80.8999 267.602 77.5999 267.602 77.5999Z" stroke="black" stroke-width="0.3165" stroke-linejoin="round"/>
<path d="M267.602 77.6C267.602 77.6 269.502 80.9 273.702 81.1C277.902 81.3 279.702 78.2 279.702 78.2C277.802 75.4 275.602 74.4 273.702 74.4C271.302 74.5 269.002 76.1 267.602 77.6Z" fill="white" stroke="black" stroke-width="0.3165" stroke-miterlimit="10"/>
<path d="M296.802 77.5999C294.402 74.7999 288.902 72 284.602 78.2C284.602 78.2 286.402 81.2999 290.602 81.0999C294.902 80.8999 296.802 77.5999 296.802 77.5999Z" stroke="black" stroke-width="0.3165" stroke-linejoin="round"/>
<path d="M284.701 78.3C284.701 78.3 286.501 81.4 290.701 81.2C294.901 81 296.801 77.7 296.801 77.7C295.501 76.1 293.201 74.6 290.701 74.6C288.701 74.5 286.601 75.5 284.701 78.3Z" fill="white" stroke="black" stroke-width="0.3165" stroke-miterlimit="10"/>
<path d="M269.201 73.1C270.501 72.2 273.601 70.3999 277.001 72.3999" stroke="black" stroke-width="0.3165" stroke-linejoin="round"/>
<path d="M287.602 73.1C289.102 72.5 292.402 71.2 295.402 73.7" stroke="black" stroke-width="0.3165" stroke-linejoin="round"/>
<path d="M283.401 75.3C283.401 75.3 284.001 87.1 283.101 88.2C282.201 89.3 280.201 88.8 280.201 88.8" stroke="black" stroke-width="0.3165" stroke-linejoin="round"/>
<path d="M276.002 91.9C279.202 94 285.802 93.5 289.702 90.1" stroke="black" stroke-width="0.3165" stroke-linejoin="round"/>
<path d="M273.702 102.7L292.202 103L293.202 107.5H295.302C300.602 107.5 305.602 111.9 305.602 117.3V144.2H260.102V118.6C260.102 113.3 262.502 107.6 271.102 107.6H273.102L273.702 102.7Z" fill="#AB56FF" stroke="black" stroke-width="0.3165" stroke-miterlimit="10"/>
<path d="M304.002 64C304.002 68.4 300.402 72 296.002 72C291.602 72 288.002 68.4 288.002 64C288.002 59.6 291.602 56 296.002 56C300.402 56 304.002 59.6 304.002 64Z" fill="black" stroke="black" stroke-width="0.3165" stroke-miterlimit="10"/>
<path d="M293.803 57.2C293.803 61.6 290.203 65.2 285.803 65.2C281.403 65.2 277.803 61.6 277.803 57.2C277.803 52.8 281.403 49.2 285.803 49.2C290.203 49.1 293.803 52.8 293.803 57.2Z" fill="black" stroke="black" stroke-width="0.3165" stroke-miterlimit="10"/>
<path d="M286.602 59.6C286.602 64 283.002 67.6 278.602 67.6C274.202 67.6 270.602 64 270.602 59.6C270.602 55.2 274.202 51.6 278.602 51.6C283.002 51.5 286.602 55.1 286.602 59.6Z" fill="black" stroke="black" stroke-width="0.3165" stroke-miterlimit="10"/>
<path d="M277.701 61.6C277.701 66 274.101 69.6 269.701 69.6C265.301 69.6 261.701 66 261.701 61.6C261.701 57.2 265.301 53.6 269.701 53.6C274.101 53.6 277.701 57.2 277.701 61.6Z" fill="black" stroke="black" stroke-width="0.3165" stroke-miterlimit="10"/>
<path d="M270.502 69.2C270.502 72.7 267.702 75.5 264.202 75.5C260.702 75.5 257.902 72.7 257.902 69.2C257.902 65.7 260.702 62.9 264.202 62.9C267.602 62.8 270.502 65.7 270.502 69.2Z" fill="black" stroke="black" stroke-width="0.3165" stroke-miterlimit="10"/>
<path d="M287.803 76.8C287.803 78.5 289.103 79.8 290.703 79.9C292.303 79.9 293.603 78.6 293.703 76.9C293.703 75.2 292.403 73.9 290.803 73.8C289.103 73.8 287.803 75.1 287.803 76.8Z" fill="black" stroke="black" stroke-width="0.3165" stroke-miterlimit="10"/>
<path d="M276.703 76.8C276.703 78.5 275.403 79.8 273.803 79.9C272.203 79.9 270.903 78.6 270.803 76.9C270.803 75.2 272.103 73.9 273.703 73.8C275.403 73.8 276.703 75.1 276.703 76.8Z" fill="black" stroke="black" stroke-width="0.3165" stroke-miterlimit="10"/>
<path d="M282.002 127.8C307.075 127.8 327.402 107.474 327.402 82.4C327.402 57.3262 307.075 37 282.002 37C256.928 37 236.602 57.3262 236.602 82.4C236.602 107.474 256.928 127.8 282.002 127.8Z" stroke="black" stroke-miterlimit="10"/>
</g>
<path d="M397.393 12.3039L380.303 18.6155L386.614 35.7055L403.704 29.3939L397.393 12.3039Z" fill="#F3E557"/>
<path d="M379 18.0117L386.012 37L405 29.9782L397.988 11L379 18.0117ZM386.62 35.703L380.307 18.6196L397.401 12.3071L403.703 29.3905L386.62 35.703Z" fill="#231F20"/>
</g>
</svg>
