<svg width="352" height="35" viewBox="0 0 352 35" fill="none" xmlns="http://www.w3.org/2000/svg">
<g clip-path="url(#clip0_33_106)">
<path d="M1 26.38H0V34.24H1V26.38Z" fill="#3E343F"/>
<path d="M19.22 22.67H18.22V34.23H19.22V22.67Z" fill="#3E343F"/>
<path d="M37.6699 17.0601H36.6699V34.2401H37.6699V17.0601Z" fill="#3E343F"/>
<path d="M56.1201 10.66H55.1201V34.24H56.1201V10.66Z" fill="#3E343F"/>
<path d="M74.5701 6.63H73.5701V34.24H74.5701V6.63Z" fill="#3E343F"/>
<path d="M93.02 3.62012H92.02V34.2401H93.02V3.62012Z" fill="#3E343F"/>
<path d="M111.47 6.63H110.47V34.24H111.47V6.63Z" fill="#3E343F"/>
<path d="M129.91 10.66H128.91V34.24H129.91V10.66Z" fill="#3E343F"/>
<path d="M148.36 15.26H147.36V34.23H148.36V15.26Z" fill="#3E343F"/>
<path d="M166.81 20.4301H165.81V34.2301H166.81V20.4301Z" fill="#3E343F"/>
<path d="M185.26 24.75H184.26V34.24H185.26V24.75Z" fill="#3E343F"/>
<path d="M203.71 26.38H202.71V34.24H203.71V26.38Z" fill="#3E343F"/>
<path d="M222.16 29.11H221.16V34.24H222.16V29.11Z" fill="#3E343F"/>
<path d="M240.6 26.38H239.6V34.24H240.6V26.38Z" fill="#3E343F"/>
<path d="M259.05 23.98H258.05V34.24H259.05V23.98Z" fill="#3E343F"/>
<path d="M277.5 20.08H276.5V34.24H277.5V20.08Z" fill="#3E343F"/>
<path d="M295.95 17.12H294.95V34.24H295.95V17.12Z" fill="#3E343F"/>
<path d="M314.4 11.33H313.4V34.24H314.4V11.33Z" fill="#3E343F"/>
<path d="M332.85 6.63H331.85V34.24H332.85V6.63Z" fill="#3E343F"/>
<path d="M351.29 0H350.29V34.24H351.29V0Z" fill="#3E343F"/>
</g>
<defs>
<clipPath id="clip0_33_106">
<rect width="351.29" height="34.24" fill="white"/>
</clipPath>
</defs>
</svg>
