<svg xmlns="http://www.w3.org/2000/svg" viewBox="0 0 800 148.76"><defs><style>.cls-1{fill:#f8b228;}.cls-2{fill:#2d1d2f;}.cls-3{fill:#6ab3e3;}.cls-4{fill:#e41e26;}</style></defs><g id="Layer_2" data-name="Layer 2"><g id="Layer_1-2" data-name="Layer 1"><path d="M0,77.76A44.38,44.38,0,0,1,2.79,62.11a38.66,38.66,0,0,1,8-13Q22.15,37,40.29,37T69,48.4Q79.18,59.25,79.17,76.57t-10.48,28.7q-11.07,12-29.36,12-18.88,0-29.59-11.82Q0,94.71,0,77.76Zm18.07-.44a26.8,26.8,0,0,0,1.56,9.06,21.27,21.27,0,0,0,4.46,7.51q6.16,6.77,16.2,6.77,9.3,0,14.65-6.62,5.2-6.39,5.2-16.65t-5.35-16.8q-5.73-6.84-15.69-6.84Q29,53.75,23.27,61A25.72,25.72,0,0,0,18.07,77.32Z"/><path d="M109.38,41.33a36.68,36.68,0,0,1,17-4.31,37.6,37.6,0,0,1,15,2.72,32.93,32.93,0,0,1,11,7.76q10.34,11.24,10.34,28.4,0,18.81-11.23,30.33-10.78,11.08-26.84,11.08-14.11,0-23.27-7.36-10.26-8.33-10.25-23V5.58h18.21Zm0,45.43q0,13.08,16.28,13.08,8,0,13.38-7t5.5-17.77q0-10.69-5.8-16.13-5.2-4.83-14-4.83-5.28,0-11.67,3.57a28.15,28.15,0,0,0-3.72,2.45Z"/><path d="M166.47,38.51h21l18.14,51.15,17.54-51.15h20.59l-30.7,77.69H197.76Z"/><path d="M255.34,16.36A119.25,119.25,0,0,1,267.75,0l16,12.56q-3.21,3.94-5.95,7.74l-5.73,8.1Zm19.55,91.51a73.43,73.43,0,0,0,.29,8.33H256.3V38.51h18.59Z"/><path d="M430.88,109.43q-9.51,7.88-20.74,7.88-12,0-18.88-8.1-6.54-7.89-6.55-21.64V58.06c0-9.91-.2-15.6-.63-17.06a23.44,23.44,0,0,0-.92-2.79q3.4.3,7.13.3h6.17c1.64,0,3.79-.08,6.47-.22v43q0,15.32,8.33,17.77a19.54,19.54,0,0,0,5.49.74,17.53,17.53,0,0,0,14.13-6.39V38.51h18.44v68.17a53.79,53.79,0,0,0,.59,9.52h-19Z"/><path d="M496.25,117.31q-21,0-31.6-7.66c.1-1.48.25-3.17.45-5.05l.67-5.35c.39-3.52.64-5.72.74-6.58a8,8,0,0,1,.22-1.42c0-.07.45.33,1.19,1.19a18,18,0,0,0,4.24,3.16,38.59,38.59,0,0,0,7.21,3.27,56,56,0,0,0,18.44,3q12.85,0,12.86-8.55a4.39,4.39,0,0,0-2.45-4.09q-4.39-2.22-12.9-3.38a57.44,57.44,0,0,1-13.94-3.38,29.87,29.87,0,0,1-8.85-5.35q-6.31-5.88-6.32-15.39,0-11.6,8.92-18.22T499.59,37q15.46,0,26.39,8.77-.53,1.93-1.11,3.72c-1.14,3.27-2,5.63-2.53,7.06L520.63,61c-.1.4-.18.59-.22.59A6.36,6.36,0,0,1,519.22,60q-4.69-5.41-14.57-7.13a32.38,32.38,0,0,0-6.25-.6q-13.53,0-13.53,8.18a4.67,4.67,0,0,0,2.83,4.31q5.26,2.84,14.46,4.16t13.93,3.61A24.14,24.14,0,0,1,523.75,78q5.36,5.8,5.35,15.39a20.59,20.59,0,0,1-8.4,17Q511.93,117.32,496.25,117.31Z"/><path d="M561.62,107.87a70.2,70.2,0,0,0,.3,8.33H543V5.43h18.59Z"/><path d="M577.81,142.07l4.9-3.94q11.09-9,18.37-26.54l3.42-8.26L576,38.51h20.82l17.84,44.9,16.58-44.9h21.41q-3.87,5.35-9.44,19.92L632.08,86Q609.7,138.64,597,148.76Z"/><path d="M649.18,116.2a55.28,55.28,0,0,0,.67-8q0-3.49,0-4.8c0-.87-.07-1.72-.12-2.56s-.09-1.64-.14-2.38l-.23-1.86h21.56c-.15,1.88-.22,3.42-.22,4.61l-.15,3.12v5.32a48.72,48.72,0,0,0,.37,6.58Z"/><path d="M739.09,111.59q-10.56,5.72-19.11,5.72a58.11,58.11,0,0,1-14.64-1.6A30.05,30.05,0,0,1,695,111q-8.62-6.31-8.62-18.29,0-10.7,10.55-17.84,11.46-7.73,31.08-7.73l3,.07q.9.08,2,.12a14.71,14.71,0,0,1,2,.18q-.6-11.89-10.26-13.9a32.88,32.88,0,0,0-6.8-.67,39.2,39.2,0,0,0-7.06.63,53,53,0,0,0-6.73,1.68q-7.21,2.3-10.34,5.27l-.22-.14-2.23-16.43A60.89,60.89,0,0,1,720.13,37q24.24,0,31,17.47a34.6,34.6,0,0,1,2.15,12.57V94q0,8.63,6.1,11.74l-13.45,12.34A17.38,17.38,0,0,1,739.09,111.59Zm-4-30.71a23.49,23.49,0,0,0-4.16-.37h-3q-16.44,0-20.89,7.29a8.41,8.41,0,0,0-1.34,4.53,9.75,9.75,0,0,0,.85,4.2,6.93,6.93,0,0,0,2.86,3q3.87,2.23,11.49,2.23a29.07,29.07,0,0,0,14.24-3.64c0-.54-.08-1.11-.08-1.71Z"/><path d="M771.6,16.36A120.09,120.09,0,0,1,784,0l16,12.56q-3.19,3.94-6,7.74l-5.72,8.1Zm19.56,91.51a71,71,0,0,0,.29,8.33H772.57V38.51h18.59Z"/><path class="cls-1" d="M337.25,71.65l16.91-29.29a44,44,0,0,1,15.28,57L340.15,82.47A7.92,7.92,0,0,1,337.25,71.65Z"/><path class="cls-2" d="M338,86.28l29.29,16.91a44,44,0,0,1-57,15.27l16.91-29.28A7.92,7.92,0,0,1,338,86.28Z"/><path class="cls-3" d="M306.41,116.26l23.12-40a1.53,1.53,0,0,0-2.3-2,117,117,0,0,1-38,20.93A43.72,43.72,0,0,0,306.41,116.26Z"/><path class="cls-4" d="M287.87,91a112.89,112.89,0,0,0,62.48-50.81A44,44,0,0,0,287.87,91Z"/></g></g></svg>