<svg width="90" height="28" viewBox="0 0 90 28" fill="none" xmlns="http://www.w3.org/2000/svg">
<path fill-rule="evenodd" clip-rule="evenodd" d="M54.5702 0.0259066C54.4145 0.0815563 54.4083 0.137614 54.4092 1.49291C54.4097 2.34211 54.4311 3.02654 54.4694 3.41774C54.5021 3.75164 54.529 4.06364 54.5293 4.11108C54.5297 4.18028 54.4679 4.13767 54.2161 3.89516C53.8499 3.5424 53.5542 3.33995 53.3487 3.30142C53.2682 3.28633 53.1413 3.24258 53.0667 3.20421C52.9622 3.15042 52.8018 3.1314 52.3672 3.12112C51.8079 3.10793 51.5684 3.14087 51.3325 3.2635C51.2768 3.2924 51.1945 3.31616 51.1496 3.31632C51.1047 3.31644 51.0009 3.36209 50.919 3.41774C50.8372 3.47339 50.7518 3.51892 50.7294 3.51892C50.6562 3.51892 49.9332 4.26313 49.825 4.44979C49.6608 4.73334 49.4303 5.21092 49.43 5.26823C49.4298 5.29668 49.4028 5.37171 49.3698 5.43493C49.3368 5.49819 49.2811 5.69853 49.246 5.88013C49.2109 6.06177 49.1551 6.33828 49.122 6.49466C49.0362 6.90048 49.0615 8.66423 49.1597 9.12436C49.2871 9.72101 49.3186 9.84226 49.3744 9.94903C49.4048 10.0074 49.4298 10.0844 49.43 10.12C49.4301 10.1557 49.4758 10.2705 49.5314 10.3751C49.5871 10.4798 49.6326 10.5855 49.6326 10.6101C49.6326 10.6346 49.6781 10.7144 49.7338 10.7873C49.7894 10.8603 49.835 10.9364 49.835 10.9565C49.835 11.0161 50.1232 11.3731 50.3409 11.5832C50.7462 11.9744 51.3965 12.2467 52.0191 12.2862C52.379 12.3089 52.5231 12.2936 52.9716 12.1851C53.2407 12.12 53.4773 12.0215 53.5684 11.9366C53.6158 11.8924 53.6756 11.8563 53.7013 11.8563C53.7913 11.8563 54.1881 11.4818 54.3858 11.2104C54.4513 11.1204 54.518 11.0468 54.5341 11.0468C54.5824 11.0468 54.8131 11.3572 54.8131 11.422C54.8131 11.455 54.8417 11.5059 54.8767 11.5349C54.9118 11.564 54.9739 11.6527 55.0149 11.7321C55.0558 11.8115 55.1281 11.9174 55.1754 11.9676C55.2605 12.0576 55.2731 12.0586 56.3648 12.0586C57.1689 12.0586 57.4812 12.0455 57.5166 12.01C57.554 11.9727 57.5652 10.5875 57.5652 6.02154C57.5652 0.190346 57.5638 0.0808304 57.4869 0.0397103C57.4062 -0.00347379 54.6885 -0.0163466 54.5702 0.0259066ZM2.14775 1.60612C2.11165 1.64602 2.02524 1.80589 1.95575 1.96138C1.88626 2.11684 1.79475 2.31689 1.75238 2.40593C1.70996 2.49497 1.61951 2.70442 1.55131 2.87136C1.36506 3.32749 1.3003 3.44174 1.18811 3.51221C1.1319 3.54754 0.977048 3.65908 0.843974 3.76014C0.710941 3.8612 0.572403 3.9621 0.536099 3.98436C-8.00899e-05 4.31324 0.0064363 4.30097 0.000405905 4.99127C-0.00242717 5.3142 0.0098772 5.5931 0.0277256 5.61107C0.0456144 5.62904 0.272786 5.65283 0.532579 5.66396L1.00493 5.6842L1.02829 7.88995C1.05095 10.0264 1.05443 10.103 1.13958 10.3274C1.18795 10.4549 1.22753 10.5895 1.22753 10.6267C1.22753 10.6639 1.29204 10.8284 1.37084 10.9922C1.66641 11.6068 2.19256 12.0052 2.94761 12.1863C3.67814 12.3616 4.76794 12.331 5.43667 12.1166C5.53684 12.0845 5.66481 12.0583 5.72107 12.0584C5.77736 12.0585 5.85932 12.0339 5.90319 12.0037C5.94711 11.9735 6.0559 11.9256 6.14494 11.8974C6.45908 11.7977 6.44856 11.8371 6.44787 10.7673C6.44751 10.2421 6.43092 9.78657 6.41092 9.75504C6.36045 9.67531 6.1079 9.69179 5.72892 9.79957C5.54542 9.85178 5.26061 9.89479 5.03891 9.90386C4.66721 9.91904 4.6583 9.91722 4.46242 9.78487C4.31785 9.68725 4.25261 9.61173 4.22387 9.50877C4.20104 9.42702 4.18283 8.59781 4.18077 7.5497C4.17797 6.09338 4.18777 5.72572 4.23023 5.69881C4.25937 5.68031 4.71209 5.66494 5.23633 5.66457C5.92294 5.66413 6.20305 5.65037 6.23802 5.6154C6.30723 5.54619 6.30723 3.43433 6.23802 3.36513C6.20293 3.33004 5.91748 3.31656 5.20836 3.31656C4.53207 3.31656 4.21865 3.3026 4.19947 3.27155C4.18417 3.24678 4.17498 2.92689 4.17911 2.56062C4.18761 1.79937 4.15592 1.64375 3.97974 1.58236C3.91531 1.55985 3.49152 1.5397 3.03799 1.53751C2.2935 1.53391 2.20709 1.54059 2.14775 1.60612ZM11.054 3.13606C11.0419 3.14808 10.9433 3.17434 10.8347 3.19437C10.4025 3.27415 10.1245 3.35068 10.0588 3.40799C10.0209 3.4411 9.92337 3.48011 9.84214 3.49464C9.76087 3.50917 9.63338 3.56243 9.55883 3.61302C9.48424 3.66361 9.39326 3.71643 9.35667 3.73043C9.11885 3.82149 8.42293 4.48427 8.21883 4.81404C7.95936 5.23322 7.72575 5.77648 7.6633 6.1058C7.64084 6.22427 7.59292 6.41465 7.5569 6.52886C7.51141 6.6729 7.48518 6.9533 7.47122 7.44475C7.45297 8.08908 7.46074 8.20418 7.55747 8.71964C7.73534 9.6675 7.95244 10.1605 8.49234 10.8425C8.74169 11.1575 8.75068 11.1661 9.09943 11.4266C9.64564 11.8346 10.2006 12.0795 10.779 12.168C10.8569 12.1799 10.9458 12.2099 10.9765 12.2346C11.0672 12.3077 12.4691 12.3145 12.6867 12.2429C12.7838 12.2109 13.0446 12.1462 13.2661 12.099C13.9091 11.9621 14.5518 11.6066 15.0111 11.1337C15.2923 10.8442 15.3702 10.7518 15.4855 10.5713C15.5458 10.4766 15.6408 10.33 15.6964 10.2453C15.7521 10.1606 15.7976 10.0688 15.7976 10.0413C15.7976 10.0138 15.8358 9.91653 15.8824 9.82514C15.929 9.73375 16.0227 9.44761 16.0906 9.18932C16.2123 8.72664 16.2141 8.70454 16.2152 7.70782C16.2159 7.06249 16.1994 6.63737 16.1697 6.53412C16.1441 6.44508 16.0844 6.22653 16.037 6.04845C15.9896 5.87037 15.928 5.69735 15.9002 5.66396C15.8723 5.63058 15.8294 5.54328 15.8048 5.46994C15.7802 5.39661 15.723 5.2845 15.6777 5.22083C15.6323 5.15717 15.5953 5.07825 15.5953 5.04547C15.5953 5.01268 15.5667 4.96217 15.5319 4.93323C15.497 4.90429 15.4403 4.82469 15.4058 4.75629C15.3455 4.63645 14.8133 4.09987 14.5323 3.87561C14.4573 3.81575 14.3426 3.74395 14.2772 3.71599C14.2119 3.68802 14.1312 3.64342 14.0978 3.61687C13.9374 3.48934 13.0452 3.19514 12.8188 3.19514C12.768 3.19514 12.7152 3.17693 12.7015 3.15467C12.6756 3.11278 11.0951 3.09494 11.054 3.13606ZM35.3673 3.15273C35.3529 3.17604 35.214 3.19514 35.0588 3.19514C34.8995 3.19514 34.7133 3.22157 34.6313 3.25585C34.5514 3.28924 34.4345 3.31656 34.3715 3.31656C34.2436 3.31656 33.8535 3.41143 33.7399 3.47016C33.6994 3.49112 33.5944 3.52127 33.5066 3.53713C33.4188 3.553 33.2822 3.5985 33.203 3.63816C33.1239 3.67786 33.0049 3.73602 32.9387 3.76739C32.8725 3.79879 32.7907 3.87366 32.7569 3.93381C32.7004 4.03454 32.7024 4.0568 32.7831 4.2161C32.9104 4.46735 33.067 4.81999 33.0988 4.92688C33.1139 4.97779 33.1701 5.09618 33.2237 5.18995C33.2774 5.28368 33.3218 5.38774 33.3225 5.42113C33.3249 5.53882 33.5624 5.86633 33.6453 5.86633C33.7253 5.86633 34.113 5.72666 34.4544 5.57484C34.5539 5.53057 34.7179 5.4788 34.8186 5.45978C35.1817 5.3913 35.3272 5.3535 35.4203 5.30339C35.4856 5.26834 35.6558 5.25698 35.9667 5.26697C36.3879 5.28049 36.4301 5.28948 36.5922 5.40017C36.8417 5.57052 37.0052 5.87316 37.0052 6.16469C37.0052 6.31889 36.9888 6.39308 36.9546 6.39437C36.9268 6.39546 36.6399 6.39481 36.3172 6.39295C35.8985 6.39057 35.6723 6.40728 35.528 6.45132C35.4166 6.48523 35.1832 6.5132 35.0093 6.51344C34.8353 6.51368 34.6551 6.53413 34.6089 6.55889C34.5626 6.58362 34.4001 6.61952 34.2476 6.63866C34.0951 6.65781 33.8893 6.71042 33.7901 6.75559C33.691 6.80072 33.5849 6.83767 33.5543 6.83767C33.4857 6.83767 33.0155 7.0716 32.863 7.18168C32.5892 7.37923 32.0676 7.94495 32.0676 8.04431C32.0676 8.06507 32.0309 8.1648 31.9862 8.26594C31.8714 8.52541 31.8258 8.80613 31.8178 9.30183C31.8035 10.1955 31.9349 10.7137 32.3154 11.2644C32.492 11.5199 32.6044 11.6241 33.0342 11.9308C33.2783 12.105 33.8553 12.2515 34.4186 12.2824C35.4983 12.3418 36.3913 12.0228 37.0769 11.3329C37.2112 11.1978 37.3393 11.0873 37.3616 11.0873C37.4065 11.0873 37.5521 11.3232 37.7735 11.7551L37.9189 12.0384L38.9454 12.0492C39.8578 12.0588 39.9803 12.0525 40.0468 11.9924C40.1182 11.9277 40.1216 11.7934 40.1216 9.00856C40.1216 6.53408 40.1118 6.03089 40.0569 5.68598C39.9927 5.28202 39.8168 4.77053 39.6714 4.56497C39.6296 4.50588 39.5954 4.44174 39.5954 4.42243C39.5954 4.37281 38.9526 3.75079 38.8062 3.6588C38.7394 3.61683 38.5814 3.53317 38.455 3.47282C38.2487 3.37444 38.1109 3.3304 37.5516 3.18418C37.3261 3.12521 35.4014 3.09753 35.3673 3.15273ZM46.7525 3.15593C46.7156 3.1775 46.5756 3.2293 46.4416 3.27099C46.3076 3.31272 46.1487 3.38557 46.0886 3.43288C46.0284 3.48019 45.9543 3.51892 45.9239 3.51892C45.8935 3.51892 45.8362 3.55078 45.7965 3.58975C45.7568 3.62873 45.643 3.7229 45.5436 3.79911C45.365 3.93595 45.1754 4.14605 44.9783 4.42555C44.9226 4.50443 44.8553 4.56947 44.8286 4.57008C44.77 4.57145 44.5933 4.23043 44.5542 4.04041C44.528 3.91292 44.4352 3.67745 44.3169 3.43798L44.2669 3.3368L43.1807 3.32599C42.4131 3.31838 42.0781 3.32874 42.0388 3.36132C41.9621 3.42503 41.9552 11.9334 42.0319 12.01C42.1042 12.0823 44.8941 12.0793 44.9932 12.0068C45.0591 11.9586 45.0648 11.7958 45.0733 9.70996C45.0812 7.77015 45.0919 7.42217 45.1514 7.15011C45.1908 6.96961 45.2549 6.79796 45.3016 6.7479C45.3464 6.69982 45.383 6.64842 45.383 6.63368C45.383 6.56751 45.6549 6.33237 45.8501 6.22969C46.0469 6.12616 46.3422 6.05857 46.8464 6.00171C46.95 5.99001 47.1412 6.0039 47.2713 6.03255C47.5579 6.09573 47.8482 6.08205 47.9392 6.00114C47.9902 5.95573 48.0124 5.83767 48.0316 5.50928C48.0456 5.27158 48.0955 4.72051 48.1427 4.28467C48.232 3.45826 48.2261 3.32656 48.0936 3.19413C48.0212 3.12165 47.9581 3.11432 47.4167 3.11542C47.0884 3.1161 46.7895 3.13431 46.7525 3.15593ZM61.9362 3.1539C61.8806 3.17215 61.7704 3.18887 61.6914 3.1911C61.6124 3.19332 61.5297 3.21319 61.5076 3.23521C61.4856 3.25727 61.3772 3.28726 61.2668 3.30183C61.1564 3.31644 61.0204 3.36027 60.9645 3.39921C60.9087 3.43818 60.7881 3.49023 60.6966 3.51488C60.6051 3.53953 60.484 3.59603 60.4275 3.64047C60.371 3.68494 60.3084 3.72129 60.2884 3.72129C60.2684 3.72129 60.1109 3.86327 59.9386 4.03677C59.4739 4.50451 59.3446 4.79377 59.2561 5.56278C59.2196 5.88065 59.2251 5.98265 59.2998 6.36353C59.4215 6.98446 59.5671 7.26368 59.9921 7.69107C60.3171 8.018 60.5084 8.15889 60.8435 8.31811C60.9214 8.35514 61.0125 8.40181 61.0458 8.4218C61.0792 8.44184 61.1703 8.48518 61.2482 8.5182C61.3261 8.55119 61.4572 8.61457 61.5395 8.65901C61.6218 8.70349 61.7083 8.73987 61.7316 8.73987C61.7843 8.73987 62.2108 8.93159 62.6591 9.15678C63.2194 9.43823 63.3656 9.70631 63.0906 9.94785C62.9102 10.1062 62.7954 10.1254 62.1791 10.1007C61.4982 10.0733 61.2047 10.0375 61.1084 9.96999C61.0641 9.93895 60.9581 9.91357 60.8729 9.91357C60.7878 9.91357 60.6689 9.88892 60.6087 9.85885C60.5486 9.82874 60.3743 9.77333 60.2213 9.73574C60.0684 9.69814 59.8714 9.63071 59.7836 9.58591C59.6795 9.53285 59.565 9.50873 59.4546 9.51678L59.2853 9.52909L59.2745 10.6528L59.2638 11.7764L59.3757 11.8198C59.4373 11.8436 59.5423 11.8906 59.6091 11.9243C59.7445 11.9926 60.349 12.1257 60.7828 12.1827C60.9386 12.2031 61.1754 12.2357 61.3089 12.255C61.4425 12.2743 61.9176 12.2936 62.3647 12.2978C63.007 12.304 63.2152 12.2925 63.3563 12.2434C63.4545 12.2092 63.6077 12.1803 63.6968 12.1792C63.7858 12.1781 63.9042 12.1511 63.9599 12.1193C64.0155 12.0875 64.1157 12.0603 64.1825 12.0588C64.2492 12.0574 64.4405 11.9848 64.6074 11.8974C64.7744 11.8101 64.9732 11.709 65.0493 11.6727C65.1253 11.6364 65.3054 11.4853 65.4494 11.3369C65.785 10.9912 65.8053 10.9657 65.8419 10.8444C65.8587 10.7888 65.914 10.6704 65.9649 10.5814C66.0296 10.4682 66.0793 10.2647 66.1302 9.9045C66.2027 9.392 66.2026 9.38723 66.1143 8.90763C66.0633 8.63112 65.982 8.33924 65.9235 8.2228C65.8675 8.11118 65.8216 8.00125 65.8216 7.97846C65.8216 7.92192 65.1579 7.24239 65.1026 7.24239C65.0783 7.24239 65.031 7.21499 64.9975 7.18152C64.8948 7.0788 64.1281 6.67606 63.9194 6.61523C63.8637 6.599 63.6543 6.50766 63.454 6.41222C63.2536 6.31679 63.0442 6.2254 62.9885 6.20917C62.9329 6.19294 62.8055 6.13648 62.7055 6.0837C62.6055 6.03093 62.501 5.98774 62.4733 5.98774C62.4087 5.98774 62.2195 5.68983 62.2195 5.588C62.2195 5.54538 62.2852 5.45282 62.3655 5.38232L62.5114 5.25422L62.922 5.26928C63.1898 5.27907 63.4344 5.31514 63.6254 5.37297C63.7866 5.4217 63.9505 5.46172 63.9897 5.46184C64.029 5.46201 64.1134 5.48941 64.1773 5.52276C64.2413 5.55611 64.4041 5.612 64.5391 5.64701C64.6742 5.68202 64.8292 5.74568 64.8836 5.78846C64.938 5.83128 65.0356 5.86633 65.1004 5.86633C65.2335 5.86633 65.4168 5.70921 65.417 5.59496C65.4171 5.55501 65.4717 5.41304 65.5383 5.27948C65.6049 5.14592 65.6595 5.00382 65.6595 4.96371C65.6596 4.9236 65.695 4.82343 65.7381 4.74111C66.0169 4.20906 66.0914 3.9086 65.9695 3.80741C65.9396 3.78256 65.8543 3.7501 65.78 3.73525C65.7057 3.72035 65.5709 3.66584 65.4803 3.61407C65.3898 3.56227 65.2702 3.51912 65.2145 3.51815C65.1589 3.51718 65.0223 3.47161 64.911 3.41685C64.7997 3.36209 64.6597 3.31713 64.5999 3.31693C64.5402 3.31673 64.44 3.29535 64.3773 3.26941C64.3147 3.24347 64.145 3.20506 64.0003 3.18405C63.6573 3.13427 62.067 3.11104 61.9362 3.1539ZM17.2223 3.36513C17.1509 3.43644 17.1621 3.55774 17.2724 3.91102C17.4525 4.48727 17.5719 4.9132 17.5991 5.0757C17.6138 5.16397 17.6526 5.28806 17.6854 5.3514C17.7182 5.41477 17.7703 5.61058 17.8012 5.7866C17.8322 5.96257 17.879 6.14684 17.9054 6.19605C17.9317 6.24527 17.9773 6.387 18.0066 6.51101C18.1152 6.97005 18.2271 7.38914 18.2886 7.56617C18.3233 7.66634 18.3856 7.894 18.427 8.07208C18.4683 8.25016 18.5581 8.58709 18.6266 8.82082C18.695 9.05455 18.7808 9.37327 18.8172 9.52909C18.8536 9.6849 18.9062 9.85792 18.934 9.91357C18.9619 9.96922 19.0063 10.1412 19.0328 10.2958C19.0593 10.4503 19.1162 10.6542 19.1594 10.7488C19.2025 10.8435 19.2378 10.9558 19.2378 10.9985C19.2378 11.0411 19.2833 11.2195 19.339 11.3948C19.3946 11.5702 19.4401 11.7548 19.4401 11.8052C19.4401 11.8555 19.4766 11.9331 19.5211 11.9777C19.5992 12.0558 19.656 12.0586 21.1579 12.0586H22.7138L22.7768 11.9686C22.8115 11.9192 22.8394 11.8418 22.8389 11.7966C22.838 11.7097 23.0043 11.0019 23.1292 10.5611C23.1702 10.4164 23.2238 10.1888 23.2482 10.0552C23.2726 9.92167 23.3168 9.75452 23.3463 9.68373C23.3758 9.61299 23.4115 9.44907 23.4257 9.31948C23.44 9.18993 23.4941 8.93819 23.546 8.76011C23.6558 8.38375 23.7863 7.781 23.8703 7.26263C23.9028 7.06229 23.9407 6.84374 23.9547 6.77696C23.9687 6.71018 24.0069 6.51947 24.0395 6.35317C24.133 5.87685 24.1531 5.89453 24.2359 6.52578C24.2699 6.78537 24.3143 7.03914 24.3346 7.08973C24.3548 7.14032 24.3919 7.34309 24.4172 7.54039C24.4424 7.73769 24.4886 7.96535 24.5198 8.0463C24.5511 8.12724 24.596 8.31188 24.6197 8.45656C24.6433 8.60125 24.6976 8.85623 24.7403 9.02318C24.8418 9.42082 25.0052 10.0693 25.087 10.3992C25.1228 10.5439 25.1787 10.8171 25.211 11.0063C25.2619 11.3041 25.3532 11.6356 25.4757 11.9676L25.5093 12.0586H27.0853C27.9521 12.0586 28.6896 12.0478 28.7242 12.0345C28.7588 12.0212 28.7991 11.9438 28.8138 11.8624C28.8285 11.7811 28.8648 11.6666 28.8945 11.608C28.9242 11.5493 28.9844 11.3364 29.0284 11.1349C29.0724 10.9334 29.1367 10.7137 29.1714 10.6466C29.2061 10.5795 29.2342 10.4828 29.234 10.4316C29.2335 10.3409 29.3472 9.92126 29.5389 9.30649C29.5909 9.13954 29.646 8.92099 29.6614 8.82082C29.6767 8.72065 29.7155 8.58733 29.7477 8.5246C29.7798 8.46182 29.8315 8.27732 29.8627 8.11454C29.8939 7.95171 29.9551 7.71167 29.9989 7.58106C30.0426 7.45042 30.091 7.27983 30.1063 7.20192C30.1217 7.12401 30.1473 7.04205 30.1632 7.01979C30.1792 6.99753 30.2153 6.87004 30.2433 6.73649C30.2715 6.60293 30.3224 6.414 30.3565 6.31666C30.3907 6.21933 30.4512 6.00077 30.491 5.83099C30.5307 5.66121 30.5899 5.44035 30.6225 5.34019C30.655 5.24002 30.7025 5.0761 30.7281 4.97593C30.7536 4.87576 30.822 4.62079 30.8802 4.40932C31.1076 3.58247 31.1262 3.4976 31.0968 3.41811C31.0676 3.33911 31.027 3.33652 29.6596 3.32616C28.7364 3.31915 28.2352 3.32988 28.2022 3.35728C28.1745 3.38022 28.1398 3.474 28.1252 3.56559C28.1106 3.65718 28.0633 3.86173 28.0202 4.02014C27.9144 4.40952 27.7511 5.11682 27.7156 5.34019C27.6997 5.44035 27.655 5.60427 27.6163 5.70444C27.5776 5.80461 27.534 6.00753 27.5194 6.15538C27.5048 6.30327 27.457 6.52825 27.4133 6.65538C27.3695 6.7825 27.3162 7.02595 27.2949 7.19634C27.2736 7.36677 27.2379 7.58795 27.2157 7.68795C27.1935 7.78792 27.1555 8.07005 27.1313 8.31491C27.0781 8.85275 27.0499 9.03763 27.0249 9.01258C27.0065 8.99416 26.8958 8.39808 26.8052 7.82924C26.7804 7.67342 26.7156 7.3547 26.6612 7.12097C26.6068 6.88725 26.5625 6.65862 26.5628 6.61292C26.5631 6.56723 26.5181 6.35779 26.4629 6.14749C26.4076 5.9372 26.3621 5.71306 26.3617 5.64944C26.3613 5.58577 26.3153 5.34439 26.2596 5.11305C26.2039 4.88171 26.1407 4.56858 26.1192 4.41721C26.0977 4.26588 26.0545 4.07923 26.0231 4.00249C25.9917 3.92575 25.9534 3.75816 25.9379 3.63006C25.9178 3.46259 25.8885 3.38577 25.8337 3.35643C25.7851 3.33044 25.1738 3.31948 24.1512 3.3262L22.545 3.3368L22.4681 3.43984C22.4228 3.50051 22.3672 3.69081 22.3329 3.90281C22.3009 4.10076 22.248 4.34578 22.2153 4.44732C22.1828 4.54887 22.1433 4.7227 22.1277 4.83359C22.1121 4.94453 22.0751 5.09322 22.0455 5.16405C22.0159 5.23483 21.9718 5.42639 21.9475 5.58965C21.9231 5.75296 21.8674 5.99584 21.8238 6.1294C21.7801 6.26296 21.7185 6.51793 21.6867 6.69601C21.655 6.87409 21.6029 7.14728 21.5709 7.3031C21.5389 7.45892 21.481 7.76853 21.4424 7.99113C21.3675 8.42156 21.2641 8.83704 21.2383 8.81126C21.2298 8.80268 21.1947 8.52848 21.1604 8.20191C21.1261 7.87534 21.0805 7.56184 21.059 7.50526C21.0374 7.44864 20.9936 7.23433 20.9616 7.02894C20.902 6.64704 20.781 6.05218 20.6676 5.58302C20.6327 5.43833 20.5886 5.21747 20.5697 5.09225C20.5508 4.96699 20.4997 4.73023 20.456 4.56611C20.4124 4.40195 20.3655 4.18571 20.3517 4.08554C20.3014 3.71817 20.2376 3.49654 20.1566 3.40762L20.0736 3.31656H18.6722C17.6362 3.31656 17.2582 3.32923 17.2223 3.36513ZM12.3257 5.56278C12.4076 5.61843 12.4916 5.66396 12.5124 5.66396C12.5722 5.66396 12.7707 5.94484 12.8917 6.20051C12.985 6.39797 13.0099 6.52749 13.051 7.03068C13.1492 8.23154 12.9728 9.30993 12.6295 9.60777C12.3322 9.8657 12.2145 9.91361 11.8791 9.91321C11.6095 9.91284 11.5407 9.89702 11.3608 9.79382C11.0542 9.61796 10.9108 9.41038 10.7641 8.92985C10.6401 8.52379 10.6382 8.50384 10.6386 7.66735C10.6391 6.90606 10.6481 6.79209 10.7248 6.57459C10.7719 6.44104 10.824 6.26802 10.8405 6.19011C10.8569 6.1122 10.9136 5.99697 10.9664 5.93404C11.0192 5.87114 11.0623 5.80457 11.0623 5.78615C11.0623 5.74738 11.4512 5.52122 11.5695 5.49123C11.6133 5.4801 11.7679 5.46889 11.913 5.4663C12.1324 5.46241 12.2018 5.47864 12.3257 5.56278ZM53.9667 5.60143C54.346 5.85544 54.5243 6.16238 54.6182 6.72305C54.6819 7.10325 54.6815 8.33964 54.6175 8.75999C54.5472 9.22247 54.2992 9.66333 54.0681 9.73666C54.0224 9.75119 53.9366 9.79883 53.8775 9.8425C53.7853 9.91066 53.719 9.91984 53.4113 9.90701C53.0953 9.89386 53.0317 9.878 52.8773 9.77391C52.6382 9.61262 52.4882 9.37978 52.3364 8.93418L52.2082 8.55775L52.2084 7.66735C52.2086 6.85665 52.216 6.76052 52.2916 6.59321C52.3372 6.49215 52.3883 6.3471 52.405 6.27089C52.4483 6.07391 52.7093 5.73851 52.9382 5.58577C53.124 5.46176 53.1493 5.4561 53.4608 5.46864C53.7438 5.48006 53.8122 5.49799 53.9667 5.60143ZM36.9412 8.15735C36.9949 8.17795 37.0052 8.26436 37.0052 8.69394C37.0052 9.16746 36.9973 9.22113 36.8994 9.40799C36.7512 9.69118 36.5819 9.85566 36.295 9.99545C36.0897 10.0955 35.9976 10.1159 35.753 10.1159C35.492 10.1159 35.4362 10.1016 35.2645 9.99035C35.0673 9.86254 35.0362 9.80251 34.9615 9.40568C34.9347 9.26346 35.028 8.8224 35.1089 8.70899C35.2132 8.56277 35.4477 8.387 35.6089 8.33418C36.0969 8.17439 36.7571 8.08672 36.9412 8.15735ZM6.6542 15.7578C6.61968 15.7994 6.60806 16.3988 6.61041 18.0141C6.61219 19.2239 6.61292 20.2366 6.61203 20.2644C6.60908 20.3549 6.53809 20.3184 6.35912 20.1342C6.16975 19.9394 5.76919 19.627 5.70881 19.627C5.68845 19.627 5.62001 19.5901 5.55679 19.5451C5.49357 19.5001 5.24965 19.4081 5.01474 19.3408C4.60646 19.2238 4.55951 19.219 3.94975 19.232C3.48075 19.242 3.24755 19.2651 3.06903 19.3192C2.93547 19.3597 2.75363 19.4102 2.66491 19.4313C2.5762 19.4524 2.47603 19.4939 2.44231 19.5234C2.4086 19.5528 2.34162 19.5889 2.2935 19.6035C2.12938 19.6535 1.5813 20.1139 1.44661 20.315C1.3944 20.3929 1.29755 20.5295 1.23134 20.6185C1.10834 20.784 0.937425 21.1074 0.782213 21.4685C0.506231 22.1106 0.367775 23.7811 0.521692 24.612C0.556012 24.7974 0.597618 25.0493 0.614171 25.1717C0.659339 25.5064 0.946289 26.1992 1.19252 26.568C1.35943 26.818 1.79063 27.2727 1.97356 27.3916C2.37699 27.6539 2.54827 27.7344 2.8869 27.8212C3.03159 27.8583 3.20591 27.9056 3.27427 27.9264C3.34262 27.9472 3.66134 27.9644 3.98253 27.9646C4.48516 27.9648 4.6201 27.9502 4.951 27.8601C5.56432 27.6931 5.85811 27.5293 6.30529 27.1051C6.4397 26.9776 6.57289 26.8729 6.60126 26.8724C6.66881 26.8713 6.71001 26.9873 6.77351 27.3572C6.80217 27.5242 6.84317 27.6835 6.86462 27.7113C6.91788 27.7805 7.82851 27.7822 7.89739 27.7134C7.96798 27.6428 7.96798 15.8203 7.89739 15.7497C7.82301 15.6753 6.71669 15.6825 6.6542 15.7578ZM53.0501 16.1382C52.9327 16.1782 52.7852 16.3041 52.6567 16.4739C52.5558 16.6073 52.5467 16.6494 52.5478 16.9798C52.5488 17.3145 52.5573 17.3514 52.6668 17.4961C52.88 17.7777 53.0106 17.8462 53.3336 17.8457C53.6169 17.8453 53.6208 17.8438 53.8326 17.6535C54.0243 17.4812 54.0503 17.4376 54.0884 17.2247C54.1656 16.7924 54.0834 16.5134 53.8114 16.2861C53.6436 16.1458 53.597 16.1279 53.3784 16.1193C53.2437 16.1141 53.096 16.1225 53.0501 16.1382ZM19.9875 17.4516C19.9147 17.5148 19.8727 17.6044 19.8498 17.745C19.8318 17.8563 19.7857 18.0202 19.7473 18.1092C19.709 18.1983 19.662 18.344 19.6429 18.433C19.5714 18.7655 19.4125 19.1198 19.3137 19.1668C19.2608 19.192 19.1174 19.2579 18.9949 19.3132C18.8725 19.3686 18.6494 19.4755 18.4992 19.5508L18.2261 19.6877L18.226 19.9784C18.226 20.2222 18.2377 20.2728 18.2984 20.2921C18.3383 20.3047 18.5933 20.3185 18.865 20.3228C19.1368 20.327 19.3765 20.3411 19.3977 20.3543C19.4212 20.3688 19.4409 21.5144 19.4483 23.3111L19.4604 26.2442L19.5556 26.4466C19.8154 26.9987 19.8785 27.1071 20.0464 27.2896C20.2278 27.4868 20.6019 27.7619 20.6885 27.7619C20.7138 27.7619 20.869 27.8084 21.0333 27.8651C21.3148 27.9623 21.369 27.9673 21.9746 27.9525C22.6501 27.9359 22.8454 27.9059 23.1059 27.7788L23.2648 27.7012L23.2765 27.3222C23.2856 27.0257 23.2739 26.9212 23.2224 26.8427C23.1503 26.7327 23.1685 26.733 22.5565 26.8311C21.7282 26.9639 21.13 26.6603 20.891 25.9858L20.7962 25.7181L20.7841 23.071C20.777 21.5407 20.7872 20.4087 20.8083 20.3877C20.8283 20.3677 21.3444 20.3495 21.9552 20.3473C22.566 20.3451 23.106 20.3284 23.1552 20.3102C23.2405 20.2787 23.2446 20.2553 23.2446 19.7982C23.2446 19.4798 23.2283 19.3031 23.196 19.2708C23.1606 19.2354 22.8473 19.2222 22.0399 19.2222C21.3538 19.2222 20.9025 19.2063 20.854 19.1804C20.7805 19.141 20.7757 19.0875 20.7757 18.2981C20.7757 17.6984 20.7618 17.4437 20.7272 17.4091C20.6984 17.3803 20.5595 17.3605 20.3854 17.3605C20.1394 17.3605 20.0754 17.3752 19.9875 17.4516ZM13.0455 19.2627C13.0121 19.2843 12.9331 19.3022 12.87 19.3026C12.499 19.3046 11.1677 19.7549 11.0252 19.9265C10.988 19.9714 10.9922 20.0185 11.0444 20.1395C11.0813 20.2249 11.135 20.3804 11.1637 20.485C11.2439 20.7777 11.3642 20.9221 11.5277 20.9221C11.6024 20.9221 11.6904 20.8953 11.7231 20.8626C11.8253 20.7604 12.3347 20.5865 13.0989 20.3928C13.3942 20.318 14.2258 20.3262 14.39 20.4056C14.463 20.4409 14.6001 20.4925 14.6946 20.5202C14.8735 20.5728 15.174 20.8328 15.2574 21.0074C15.4713 21.4548 15.5143 21.6653 15.5143 22.2632C15.5143 22.5879 15.5011 22.7029 15.4637 22.7029C14.8067 22.7031 13.9704 22.743 13.8827 22.7784C13.82 22.8036 13.5823 22.8243 13.3545 22.8243C13.1033 22.8243 12.9225 22.8421 12.8951 22.8695C12.8702 22.8944 12.7041 22.9294 12.5259 22.9474C12.3478 22.9653 12.1597 23.0071 12.1078 23.0401C12.0559 23.0732 11.909 23.1213 11.7814 23.1471C11.6538 23.1729 11.5387 23.2112 11.5257 23.2323C11.5127 23.2535 11.4406 23.2964 11.3656 23.3277C11.1793 23.4055 10.8037 23.6877 10.5865 23.913C10.2449 24.2674 10.0101 24.9011 10.0101 25.4686C10.0101 25.8243 10.1449 26.4521 10.273 26.6931C10.3824 26.8988 10.6728 27.2703 10.772 27.3314C10.8032 27.3506 10.8588 27.3965 10.8957 27.4334C11.0515 27.5892 11.4582 27.7852 11.8516 27.8941C12.067 27.9537 13.4624 27.9527 13.6728 27.8928C13.7619 27.8674 13.944 27.8166 14.0775 27.78C14.2111 27.7433 14.3477 27.69 14.3811 27.6615C14.4145 27.6331 14.4987 27.581 14.5683 27.5458C14.7204 27.4688 14.976 27.251 15.2528 26.9626C15.3649 26.8458 15.4784 26.7501 15.5048 26.7501C15.5818 26.7501 15.6701 26.9173 15.697 27.1144C15.7547 27.5356 15.8006 27.6693 15.9035 27.7162C16.0534 27.7846 16.7473 27.7761 16.8061 27.7053C16.8412 27.663 16.8501 26.8273 16.8414 24.4169L16.8297 21.1852L16.6999 20.8296C16.6285 20.6341 16.5329 20.4218 16.4874 20.3579C16.4419 20.2941 16.4047 20.2245 16.4047 20.2034C16.4047 20.1823 16.2935 20.0606 16.1575 19.933C15.903 19.694 15.5608 19.4892 15.312 19.4268C15.234 19.4072 15.1157 19.3729 15.0489 19.3505C14.9821 19.3281 14.8407 19.2901 14.7347 19.266C14.4955 19.2118 13.1285 19.2091 13.0455 19.2627ZM27.2918 19.2614C27.2584 19.2837 27.1731 19.3022 27.1022 19.3026C27.0313 19.3029 26.922 19.3229 26.8594 19.3471C26.7967 19.3712 26.6452 19.4073 26.5227 19.4273C26.4002 19.4473 26.2279 19.5004 26.1398 19.5453C26.0516 19.5902 25.9565 19.627 25.9283 19.627C25.9001 19.627 25.74 19.6911 25.5726 19.7695C25.2358 19.9272 25.2205 19.9572 25.3444 20.2163C25.3863 20.304 25.4338 20.4394 25.45 20.5174C25.4941 20.7298 25.6544 20.9221 25.7874 20.9221C25.8481 20.9221 25.9337 20.8969 25.9775 20.8662C26.1388 20.7532 26.8373 20.5161 27.3727 20.3924C27.7339 20.309 28.4143 20.3103 28.6072 20.3948C28.6962 20.4337 28.8482 20.4876 28.945 20.5146C29.1471 20.5707 29.4408 20.8221 29.5294 21.0148C29.5622 21.0862 29.6182 21.2084 29.6539 21.2863C29.7871 21.578 29.8603 22.6422 29.7499 22.6846C29.7218 22.6954 29.3712 22.7089 28.9708 22.7147C28.4904 22.7217 28.2128 22.7421 28.1545 22.7747C28.1013 22.8046 27.9058 22.8243 27.6637 22.8243C27.3904 22.8243 27.2126 22.8446 27.1099 22.8875C27.0267 22.9223 26.9361 22.9421 26.9087 22.9316C26.8492 22.9088 26.4794 22.9818 26.4216 23.0277C26.3994 23.0454 26.2652 23.0899 26.1234 23.1265C25.7029 23.2354 25.2902 23.4937 24.8609 23.917C24.6456 24.1293 24.4533 24.4865 24.3616 24.8444C24.2332 25.3456 24.314 26.2298 24.5246 26.6284C24.5774 26.7284 24.6206 26.8239 24.6206 26.8405C24.6206 26.9224 25.2516 27.5583 25.3335 27.5591C25.3584 27.5594 25.4221 27.5929 25.4752 27.6336C25.571 27.7072 25.8277 27.8075 26.1383 27.8927C26.3596 27.9534 27.7366 27.9808 27.7918 27.9256C27.8151 27.9024 27.8781 27.8833 27.9319 27.8833C28.065 27.8833 28.3992 27.775 28.6645 27.646C28.9352 27.5142 29.3537 27.1783 29.5514 26.9339C29.6331 26.833 29.7313 26.7504 29.7697 26.7503C29.864 26.7501 29.9476 26.926 29.9813 27.1953C30.0204 27.5087 30.0788 27.6751 30.1659 27.7218C30.2072 27.7438 30.4236 27.7619 30.6469 27.7619C31.0069 27.7619 31.0576 27.7531 31.0948 27.6837C31.1471 27.5859 31.1508 22.0014 31.0989 21.4653C31.0583 21.0451 30.8972 20.5472 30.7137 20.2745C30.3905 19.7942 29.8446 19.4509 29.1535 19.2935C28.9021 19.2362 27.3691 19.2098 27.2918 19.2614ZM39.5418 19.2488C39.5272 19.2634 39.4377 19.2896 39.3429 19.307C39.0058 19.3688 38.6434 19.472 38.5836 19.5231C38.5502 19.5516 38.4628 19.5952 38.3894 19.6198C38.0726 19.7261 37.5177 20.2779 37.3758 20.6277C37.1645 21.1489 37.161 21.8245 37.3673 22.2931C37.493 22.5785 37.9305 23.0713 38.1615 23.1875C38.2267 23.2204 38.3316 23.2887 38.3945 23.3393C38.4574 23.3899 38.5404 23.4314 38.5788 23.4314C38.6173 23.4314 38.7105 23.4769 38.786 23.5326C38.8614 23.5882 38.9515 23.6338 38.9861 23.6339C39.0207 23.634 39.105 23.6682 39.1734 23.7099C39.2418 23.7516 39.4049 23.8169 39.5359 23.855C39.6669 23.893 39.8107 23.9499 39.8556 23.9813C39.9005 24.0128 39.9709 24.0385 40.0121 24.0385C40.0533 24.0385 40.163 24.0822 40.256 24.1357C40.349 24.1891 40.483 24.245 40.5539 24.2597C40.6246 24.2745 40.7035 24.3117 40.7291 24.3425C40.7547 24.3734 40.8404 24.42 40.9195 24.4461C41.2636 24.5596 41.6799 24.8975 41.8245 25.1806C42.0776 25.6759 41.8961 26.2178 41.3595 26.5694C41.3072 26.6036 41.0826 26.6837 40.8603 26.7472C39.9498 27.0074 38.9463 26.8551 37.7444 26.2741C37.5389 26.1747 37.3446 26.1034 37.3129 26.1156C37.2376 26.1445 37.1914 26.5697 37.2165 27.0026C37.2342 27.3087 37.2439 27.3377 37.3638 27.4449C37.4344 27.508 37.5182 27.5596 37.5501 27.5596C37.5819 27.5596 37.6936 27.6051 37.7983 27.6607C37.903 27.7164 38.0302 27.7619 38.0811 27.7619C38.132 27.7619 38.2249 27.7831 38.2876 27.8091C38.3502 27.835 38.5199 27.8738 38.6646 27.8952C39.0341 27.95 40.747 27.9483 40.9715 27.8929C41.0717 27.8683 41.2674 27.8218 41.4065 27.7898C41.5456 27.7578 41.6837 27.7113 41.7135 27.6866C41.7433 27.6618 41.8391 27.6164 41.9264 27.5856C42.3007 27.4536 42.783 27.0188 42.9879 26.6287C43.2078 26.21 43.2576 26.0009 43.2579 25.4942C43.2582 24.9886 43.2121 24.821 42.9349 24.3218C42.7558 23.9993 42.226 23.6409 41.3358 23.2401C41.2133 23.1849 41.0403 23.1055 40.9513 23.0636C40.8622 23.0218 40.7074 22.9675 40.6072 22.9432C40.4357 22.9014 40.2556 22.8264 39.777 22.5976C39.6654 22.5442 39.5501 22.5005 39.521 22.5005C39.4101 22.5005 38.9195 22.1764 38.7458 21.9884L38.5645 21.7922L38.5497 21.4361C38.5361 21.1066 38.5427 21.0687 38.6393 20.9302C38.6967 20.8478 38.8032 20.7333 38.8761 20.6758C39.0786 20.5158 39.6625 20.3456 40.0329 20.3386C40.404 20.3315 40.9215 20.3734 41.1739 20.431C41.274 20.4539 41.4562 20.4924 41.5786 20.5166C41.701 20.5408 41.8376 20.5784 41.8821 20.6001C42.031 20.6727 42.5663 20.8358 42.5959 20.8175C42.6269 20.7983 42.8594 20.325 42.9746 20.0463C43.0923 19.7617 43.0421 19.7062 42.5405 19.5654C42.413 19.5295 42.2981 19.4832 42.2852 19.4624C42.2724 19.4416 42.1855 19.4245 42.0922 19.4244C41.9989 19.4242 41.8704 19.3969 41.8067 19.3636C41.7429 19.3304 41.6028 19.3032 41.4954 19.3032C41.388 19.3032 41.2888 19.285 41.275 19.2627C41.2472 19.2177 39.5862 19.2044 39.5418 19.2488ZM47.7506 19.2712C47.6393 19.2929 47.5 19.3363 47.4409 19.3676C47.3818 19.3989 47.2937 19.4246 47.2453 19.4246C47.1398 19.4246 46.605 19.6539 46.5258 19.733C46.4951 19.7637 46.4548 19.7889 46.4362 19.7889C46.3903 19.7889 46.0866 20.0341 45.8889 20.2308C45.6923 20.4265 45.3925 20.8351 45.2804 21.0603C45.2351 21.1512 45.1773 21.2621 45.1519 21.3066C45.1265 21.3511 45.0597 21.5423 45.0034 21.7315C44.6623 22.8772 44.623 23.6974 44.8488 24.9494C44.943 25.4711 45.1414 25.9823 45.438 26.4668C45.5364 26.6275 46.2614 27.3572 46.3227 27.3572C46.3448 27.3572 46.417 27.4027 46.4831 27.4584C46.5493 27.514 46.6362 27.5596 46.6763 27.5596C46.7164 27.5596 46.7693 27.5839 46.794 27.6136C46.839 27.6678 46.9353 27.7019 47.3864 27.8235C47.5199 27.8595 47.693 27.907 47.7709 27.929C47.9429 27.9777 49.4064 27.9516 49.6933 27.8948C50.2216 27.7901 50.4857 27.7064 50.6545 27.5902L50.7658 27.5136V27.0095C50.7658 26.5135 50.7643 26.5049 50.6663 26.4602C50.5865 26.4238 50.5462 26.4284 50.4626 26.4831C50.3512 26.5562 49.6205 26.7501 49.4569 26.7501C49.4028 26.7501 49.3064 26.7773 49.2426 26.8106C49.0861 26.8922 48.2227 26.8957 48.0401 26.8155C47.9699 26.7847 47.8033 26.7277 47.6697 26.6888C47.5361 26.6499 47.3904 26.5864 47.3459 26.5475C47.3014 26.5087 47.2237 26.4556 47.1733 26.4296C46.9282 26.3033 46.4848 25.6858 46.3972 25.349C46.3748 25.2626 46.3202 25.0595 46.276 24.8976C46.172 24.5165 46.1295 23.5466 46.1871 22.8666C46.2334 22.3204 46.3182 22.0063 46.5444 21.5418C46.6865 21.25 47.0856 20.7602 47.1811 20.7602C47.2092 20.7602 47.2644 20.7245 47.3039 20.681C47.3433 20.6374 47.4964 20.5636 47.644 20.5169C47.7917 20.4702 47.9461 20.4136 47.9872 20.391C48.1213 20.3173 49.0192 20.3092 49.2684 20.3794C49.6107 20.4758 49.76 20.5115 49.9361 20.5392C50.0252 20.5532 50.1277 20.5913 50.164 20.6238C50.2002 20.6563 50.281 20.6866 50.3435 20.6912C50.4375 20.6981 50.4731 20.6716 50.5489 20.5382C50.6881 20.2935 50.8541 19.7948 50.8259 19.706C50.7915 19.5975 50.4833 19.4246 50.3245 19.4246C50.2527 19.4246 50.1541 19.4025 50.1055 19.3755C50.0569 19.3485 49.8987 19.3101 49.754 19.2903C49.3737 19.2381 47.9883 19.2249 47.7506 19.2712ZM52.6912 19.2858C52.6342 19.3428 52.6276 19.7801 52.6276 23.4927V27.6359L52.7175 27.6989C52.7882 27.7485 52.9253 27.7619 53.3588 27.7619C53.8415 27.7619 53.9185 27.7527 53.9771 27.6879C54.0385 27.6201 54.0441 27.2699 54.0441 23.4817C54.0441 19.7791 54.0375 19.3428 53.9805 19.2858C53.9286 19.2339 53.8101 19.2222 53.3358 19.2222C52.8615 19.2222 52.7431 19.2339 52.6912 19.2858ZM59.1032 19.2654C59.0475 19.2844 58.8479 19.3391 58.6597 19.3868C58.4714 19.4345 58.2532 19.5172 58.1747 19.5705C58.0963 19.6238 58.0173 19.6674 57.9993 19.6674C57.9488 19.6674 57.5662 19.9586 57.3559 20.1572C57.1784 20.3248 56.8772 20.6934 56.8772 20.743C56.8772 20.7554 56.8316 20.8253 56.776 20.8982C56.7203 20.9712 56.6748 21.0495 56.6748 21.0722C56.6748 21.0949 56.6412 21.1569 56.6 21.21C56.5589 21.2631 56.512 21.3606 56.4959 21.4266C56.4797 21.4926 56.4304 21.6261 56.3861 21.7232C56.3418 21.8202 56.2806 22.0424 56.2499 22.2168C56.2193 22.3912 56.1757 22.6038 56.153 22.6892C56.1304 22.7746 56.1007 23.0722 56.0869 23.3504C56.0489 24.1202 56.1628 24.893 56.4132 25.5643C56.4945 25.7825 56.5867 25.9896 56.618 26.0248C56.6492 26.0599 56.6748 26.1181 56.6748 26.154C56.6748 26.1898 56.6938 26.2309 56.7169 26.2452C56.7401 26.2595 56.8059 26.3455 56.8631 26.4362C57.0354 26.709 57.6286 27.2685 57.8637 27.3797C57.9333 27.4126 58.0357 27.464 58.0914 27.4938C58.5387 27.7335 58.8305 27.8349 59.16 27.8651C59.2469 27.8731 59.337 27.8986 59.3603 27.922C59.4166 27.9782 61.0094 27.9782 61.2957 27.922C62.0904 27.7658 62.3545 27.6982 62.4826 27.6181C62.5271 27.5903 62.6227 27.5552 62.6951 27.5401C62.9082 27.4957 62.9481 27.3965 62.9481 26.9108C62.9481 26.3427 62.9322 26.3208 62.5832 26.4071C62.4388 26.4428 62.2479 26.5057 62.1588 26.5468C62.0118 26.6148 61.8126 26.6622 61.2887 26.7538C61.1885 26.7713 61.0064 26.8066 60.884 26.8323C60.5941 26.8931 59.6522 26.8702 59.5827 26.8007C59.5549 26.7729 59.4732 26.7501 59.401 26.7501C59.3288 26.7501 59.2594 26.7333 59.2468 26.7128C59.2341 26.6922 59.1647 26.6625 59.0926 26.6468C59.0205 26.631 58.9181 26.5841 58.865 26.5425C58.8119 26.5009 58.7465 26.4668 58.7196 26.4668C58.6584 26.4668 58.0104 25.8237 58.0102 25.7628C58.0102 25.7382 57.9699 25.6543 57.9208 25.5764C57.8717 25.4985 57.8098 25.3619 57.7832 25.2729C57.7566 25.1838 57.7057 25.0328 57.6699 24.9372C57.5868 24.7151 57.518 23.9567 57.5747 23.8867C57.6067 23.8471 58.2133 23.8361 60.3601 23.8361C62.0454 23.8361 63.1447 23.8209 63.2085 23.7966L63.3123 23.7572L63.3118 23.058C63.3115 22.499 63.2953 22.2939 63.2314 22.0351C63.1874 21.857 63.1511 21.6749 63.1507 21.6304C63.1504 21.5858 63.1168 21.4948 63.0761 21.428C63.0355 21.3612 62.9888 21.253 62.9725 21.1876C62.9561 21.1222 62.9075 21.0192 62.8644 20.9588C62.8214 20.8983 62.7862 20.8321 62.7862 20.8117C62.7862 20.7506 62.5265 20.4041 62.3163 20.1848C61.9238 19.7753 61.4511 19.5028 60.825 19.3251C60.5026 19.2336 60.3929 19.2227 59.8334 19.2265C59.4874 19.2289 59.1588 19.2464 59.1032 19.2654ZM65.5209 19.2858C65.4639 19.3428 65.4574 19.7788 65.458 23.4848C65.4584 26.0144 65.4735 27.6438 65.4969 27.681C65.5555 27.7739 66.6369 27.7939 66.7732 27.7046L66.8702 27.6411L66.8859 24.8988L66.9017 22.1565L67.0193 21.8324C67.084 21.6541 67.1779 21.4425 67.228 21.3622C67.2781 21.2818 67.3191 21.1993 67.3191 21.1788C67.3191 21.1208 67.6857 20.7833 67.8655 20.6758C68.2029 20.4741 68.6572 20.3649 69.2539 20.342C69.7361 20.3236 69.8174 20.3353 70.2227 20.482C70.742 20.6699 71.0994 21.173 71.1665 21.81C71.1866 22.0006 71.2036 23.3858 71.2044 24.8884C71.2051 26.534 71.2209 27.6444 71.244 27.681C71.2745 27.7293 71.4012 27.7444 71.8649 27.7547C72.3662 27.7659 72.4569 27.7583 72.515 27.7003C72.577 27.6382 72.5813 27.3879 72.5683 24.5911C72.5539 21.4816 72.5369 21.1293 72.3881 20.8577C72.3626 20.8111 72.3166 20.7002 72.2859 20.6112C72.2304 20.4501 71.7933 19.8698 71.7274 19.8698C71.7084 19.8698 71.6331 19.8197 71.56 19.7585C71.3873 19.6139 71.0395 19.4463 70.7592 19.3725C70.2463 19.2374 70.1224 19.2222 69.5323 19.2222C68.9927 19.2222 68.8699 19.2351 68.5717 19.3226C68.3836 19.3777 68.2003 19.4233 68.1643 19.4238C68.1284 19.4242 68.0556 19.4585 68.0025 19.5C67.9494 19.5414 67.8654 19.5881 67.8159 19.6036C67.6573 19.6532 67.2597 19.9408 67.0867 20.1308C66.8046 20.4408 66.7435 20.3817 66.6764 19.7341C66.645 19.4308 66.6177 19.3221 66.5622 19.2801C66.4509 19.1956 65.6064 19.2003 65.5209 19.2858ZM77.5384 19.2706C77.4271 19.292 77.2814 19.3338 77.2146 19.3635C77.1478 19.3933 77.0323 19.4282 76.9578 19.4411C76.7894 19.4703 76.3323 19.6858 76.2639 19.7681C76.236 19.8018 76.1905 19.8293 76.1629 19.8293C76.1352 19.8293 76.0692 19.8719 76.016 19.9241C75.9629 19.9762 75.8901 20.0353 75.8542 20.0556C75.78 20.0975 75.3495 20.5973 75.2299 20.7804C75.1107 20.9628 74.847 21.5006 74.847 21.5611C74.847 21.5903 74.8205 21.6653 74.7882 21.7278C74.7102 21.8786 74.5759 22.5477 74.5185 23.071C74.4395 23.7916 74.5642 24.9347 74.7896 25.5562C74.907 25.8799 75.125 26.3373 75.1772 26.3696C75.1965 26.3816 75.2466 26.4584 75.2885 26.5404C75.3809 26.7212 76.0243 27.3572 76.1149 27.3572C76.1346 27.3572 76.2047 27.4027 76.2709 27.4584C76.337 27.514 76.4237 27.5596 76.4635 27.5596C76.5033 27.5596 76.5824 27.5962 76.6392 27.6409C76.6961 27.6856 76.8033 27.7327 76.8774 27.7455C76.9516 27.7584 77.0942 27.7934 77.1944 27.8233C77.2945 27.8533 77.4493 27.8983 77.5384 27.9234C77.7388 27.98 79.1797 27.9555 79.5013 27.8901C79.9505 27.7988 80.1894 27.7274 80.3594 27.6338L80.5333 27.5379L80.5446 27.0246C80.5552 26.545 80.5506 26.5085 80.4743 26.4677C80.4106 26.4336 80.3524 26.4422 80.2118 26.5062C80.0343 26.5871 79.5776 26.7033 79.2989 26.7385C79.221 26.7484 79.0999 26.7823 79.0297 26.814C78.8579 26.8916 78.0058 26.8933 77.8278 26.8165C77.7577 26.7862 77.5941 26.7302 77.4644 26.692C77.0274 26.5634 76.6334 26.2154 76.3332 25.693C76.2741 25.5902 76.2079 25.4354 76.186 25.349C76.164 25.2626 76.1096 25.0677 76.0649 24.9158C75.8858 24.307 75.9164 22.6738 76.1185 22.0508C76.3273 21.4074 76.7075 20.8584 77.0426 20.7166C77.1038 20.6906 77.1539 20.6549 77.1539 20.6372C77.1539 20.6194 77.2768 20.566 77.4271 20.5185C77.5774 20.4709 77.7339 20.4136 77.7749 20.391C77.8717 20.3378 78.7576 20.3101 78.9376 20.3546C79.0139 20.3735 79.1765 20.4156 79.2989 20.4482C79.4214 20.4807 79.6003 20.5191 79.6964 20.5335C79.7927 20.548 79.9224 20.5975 79.9849 20.6436C80.1427 20.7603 80.2337 20.7282 80.3449 20.5169C80.4905 20.24 80.6419 19.7948 80.6169 19.7168C80.5833 19.6119 80.2594 19.4246 80.1116 19.4246C80.0401 19.4246 79.9419 19.4025 79.8932 19.3755C79.8446 19.3485 79.6865 19.3101 79.5418 19.2903C79.1636 19.2384 77.7771 19.2248 77.5384 19.2706ZM85.1904 19.2583C85.1782 19.278 85.1088 19.3028 85.0363 19.3133C84.8015 19.3473 84.3799 19.472 84.3175 19.5259C84.2841 19.5548 84.1931 19.6077 84.1152 19.6435C83.8225 19.7779 83.3535 20.1732 83.1301 20.4739C82.8243 20.8854 82.5367 21.3765 82.5367 21.4875C82.5367 21.5109 82.5011 21.6072 82.4574 21.7016C82.4138 21.796 82.3421 22.0553 82.298 22.2779C82.0822 23.3675 82.078 23.767 82.2715 24.8479C82.3844 25.4787 82.6608 26.0945 83.0721 26.6316C83.2874 26.9127 83.8614 27.3661 84.1961 27.5196C84.2517 27.5451 84.3883 27.6094 84.4996 27.6624C84.6109 27.7155 84.784 27.7792 84.8841 27.8039C84.9843 27.8287 85.1482 27.8689 85.2484 27.8934C85.4807 27.95 87.2153 27.9502 87.5148 27.8936C88.0812 27.7866 88.3947 27.7065 88.5064 27.6403C88.5732 27.6007 88.687 27.5558 88.7593 27.5405C88.9725 27.4954 89.0123 27.3964 89.0123 26.9108C89.0123 26.3287 89.0007 26.3148 88.6063 26.4235C88.44 26.4692 88.2494 26.5324 88.1826 26.5637C88.0709 26.6162 87.8193 26.6736 87.353 26.7529C87.2528 26.77 87.0898 26.8045 86.9908 26.8297C86.7779 26.8839 85.8138 26.8613 85.6329 26.7978C85.5661 26.7744 85.4022 26.7227 85.2686 26.6829C85.1351 26.6432 84.9824 26.5783 84.9293 26.5387C84.8762 26.4991 84.8098 26.4668 84.7817 26.4668C84.7065 26.4668 84.0868 25.8408 84.0533 25.7311C84.0375 25.6794 84.0012 25.6098 83.9726 25.5764C83.9441 25.543 83.8932 25.4246 83.8598 25.3133C83.8263 25.202 83.7716 25.0472 83.7383 24.9693C83.6528 24.7694 83.5751 23.9623 83.6345 23.8907C83.6718 23.8459 84.1701 23.8361 86.4244 23.8361C88.1097 23.8361 89.209 23.8209 89.2728 23.7966L89.3766 23.7572L89.3741 23.0985C89.3728 22.7362 89.3564 22.3578 89.3376 22.2577C89.2357 21.7133 89.1775 21.4796 89.1235 21.3972C89.0905 21.3467 89.051 21.2487 89.0358 21.1794C89.0205 21.1102 88.9635 20.9931 88.909 20.9192C88.8545 20.8453 88.81 20.7689 88.81 20.7493C88.81 20.6924 88.473 20.2702 88.279 20.0841C88.0765 19.8898 87.8585 19.7351 87.5958 19.5994C87.4956 19.5476 87.3863 19.4891 87.353 19.4693C87.3196 19.4495 87.1183 19.3858 86.9057 19.3278C86.5636 19.2344 86.4441 19.2222 85.8659 19.2222C85.5066 19.2222 85.2027 19.2384 85.1904 19.2583ZM5.07242 20.4753C5.52599 20.622 5.78449 20.7989 6.02093 21.1244C6.17444 21.3358 6.36466 21.7579 6.39218 21.9482C6.4055 22.0405 6.44075 22.2162 6.47046 22.3386C6.71851 23.3602 6.61612 24.9756 6.25555 25.7282C6.02417 26.2113 5.69197 26.5181 5.24009 26.6661C4.59512 26.8774 4.55324 26.8843 4.07218 26.8568C3.74678 26.8382 3.56696 26.8084 3.46141 26.7555C3.37917 26.7144 3.26289 26.6689 3.20307 26.6545C2.99675 26.605 2.36659 26.0294 2.36189 25.8862C2.36129 25.8674 2.32737 25.8036 2.28657 25.7445C2.24578 25.6854 2.15581 25.4641 2.08664 25.2526C1.98655 24.9467 1.95179 24.7469 1.91653 24.2744C1.76549 22.2505 2.25703 20.9348 3.3321 20.4853C3.67308 20.3428 3.84209 20.3178 4.30344 20.3418C4.60929 20.3578 4.82481 20.3952 5.07242 20.4753ZM60.5948 20.46C60.841 20.5707 60.854 20.5779 61.0301 20.699C61.1833 20.8044 61.4506 21.0794 61.4506 21.1316C61.4506 21.1542 61.4857 21.222 61.5287 21.2824C61.6947 21.5156 61.9275 22.613 61.8244 22.6767C61.7643 22.7139 57.67 22.7224 57.6103 22.6855C57.5755 22.664 57.5676 22.601 57.5851 22.4862C57.6169 22.2778 57.7976 21.6517 57.8497 21.5696C57.8709 21.5363 57.9335 21.427 57.9888 21.3268C58.0441 21.2266 58.1217 21.1083 58.1612 21.0637C58.3224 20.882 58.7258 20.5669 58.8282 20.5426C58.8884 20.5284 58.9886 20.4951 59.0508 20.4688C59.3161 20.3564 59.5423 20.324 59.9473 20.3403C60.285 20.3538 60.4107 20.3771 60.5948 20.46ZM86.6521 20.4668C87.0494 20.627 87.3806 20.8909 87.5284 21.1649C87.5704 21.2428 87.6288 21.3521 87.6581 21.4078C87.7427 21.5681 87.9196 22.2977 87.9196 22.4862C87.9196 22.5805 87.8995 22.67 87.875 22.6851C87.8165 22.7213 83.7293 22.7193 83.6707 22.6831C83.6091 22.645 83.6511 22.3596 83.7807 21.9339C83.9348 21.428 84.2211 21.0185 84.6645 20.6697C84.7206 20.6255 84.9068 20.5384 85.0783 20.4761C85.3524 20.3764 85.4496 20.3623 85.8831 20.3591C86.3318 20.3558 86.401 20.3655 86.6521 20.4668ZM15.4552 23.8791C15.4698 23.9028 15.4792 24.176 15.4761 24.4863C15.4675 25.3368 15.3194 25.7354 14.834 26.2139C14.7155 26.3307 14.6039 26.4263 14.5862 26.4263C14.5684 26.4263 14.5021 26.4673 14.4388 26.5174C14.3263 26.6064 13.8547 26.7629 13.4907 26.8321C13.1455 26.8977 12.593 26.8791 12.4378 26.7965C12.3602 26.7553 12.2239 26.6985 12.1349 26.6704C11.9237 26.6036 11.7065 26.3925 11.5685 26.1198C11.4648 25.9147 11.4589 25.8752 11.4747 25.4858C11.4901 25.1065 11.5028 25.0512 11.622 24.8479C11.6938 24.7255 11.793 24.5942 11.8425 24.5562C11.892 24.5182 11.9871 24.4434 12.0539 24.39C12.1207 24.3367 12.2482 24.2701 12.3372 24.2422C12.4263 24.2142 12.5394 24.1661 12.5887 24.1352C12.7101 24.059 13.1289 23.994 13.7133 23.9606C13.9804 23.9453 14.2445 23.9122 14.3001 23.887C14.4322 23.8273 15.419 23.8206 15.4552 23.8791ZM29.7145 23.8722C29.7584 23.9 29.7656 24.0328 29.7501 24.5293C29.7336 25.0594 29.7161 25.1911 29.6315 25.4191C29.577 25.5663 29.4927 25.7373 29.4441 25.799C29.3956 25.8607 29.3559 25.9236 29.3559 25.939C29.3559 25.9853 28.9421 26.3755 28.769 26.4924C28.6166 26.5954 28.1598 26.7557 27.7977 26.8333C27.7087 26.8524 27.4628 26.8686 27.2513 26.8694C26.9322 26.8705 26.8324 26.8548 26.6645 26.7767C26.5532 26.725 26.415 26.6709 26.3574 26.6566C26.2156 26.6212 25.9993 26.4085 25.856 26.1633C25.7466 25.9761 25.7376 25.9303 25.7373 25.5541C25.737 25.1867 25.748 25.1259 25.851 24.9268C25.9543 24.7271 26.1146 24.5439 26.3519 24.3542C26.3992 24.3164 26.5146 24.2649 26.6083 24.2396C26.7019 24.2144 26.821 24.166 26.8728 24.132C26.9967 24.0508 27.3655 23.9959 27.9394 23.9731C28.1953 23.9629 28.4412 23.9383 28.4857 23.9185C28.5303 23.8987 28.594 23.8735 28.6274 23.8625C28.7334 23.8276 29.6571 23.8359 29.7145 23.8722Z" fill="#D7DDF1"/>
</svg>
