<svg width="95" height="25" viewBox="0 0 95 25" fill="none" xmlns="http://www.w3.org/2000/svg">
<path fill-rule="evenodd" clip-rule="evenodd" d="M47.6168 11.7876C47.6168 21.9396 47.6263 23.5848 47.6854 23.6438C47.7429 23.7013 48.116 23.7124 49.9895 23.7124H52.2249V21.3604C52.2249 19.8243 52.2082 19.0083 52.1769 19.0083C52.1454 19.0083 52.1289 17.8563 52.1289 15.6483C52.1289 13.4402 52.1124 12.2882 52.0809 12.2882C52.0497 12.2882 52.0329 11.6642 52.0329 10.5122C52.0329 9.36016 52.016 8.73615 51.9849 8.73615C51.9549 8.73615 51.9369 8.44815 51.9369 7.96814C51.9369 7.48813 51.9549 7.20012 51.9849 7.20012C52.0113 7.20012 52.0329 7.26493 52.0329 7.34413C52.0329 7.42333 52.0545 7.48813 52.0809 7.48813C52.1073 7.48813 52.1289 7.55293 52.1289 7.63213C52.1289 7.71133 52.1505 7.77613 52.1769 7.77613C52.2033 7.77613 52.2249 7.81934 52.2249 7.87214C52.2249 7.92494 52.2465 7.96814 52.2729 7.96814C52.2993 7.96814 52.3209 8.03294 52.3209 8.11214C52.3209 8.19134 52.3425 8.25614 52.3689 8.25614C52.3953 8.25614 52.4169 8.29934 52.4169 8.35214C52.4169 8.40495 52.4385 8.44815 52.4649 8.44815C52.4913 8.44815 52.5129 8.51295 52.5129 8.59215C52.5129 8.67135 52.5345 8.73615 52.5609 8.73615C52.5873 8.73615 52.6089 8.80095 52.6089 8.88015C52.6089 8.95936 52.6305 9.02416 52.6569 9.02416C52.6833 9.02416 52.7049 9.06736 52.7049 9.12016C52.7049 9.17296 52.7265 9.21616 52.7529 9.21616C52.7793 9.21616 52.8009 9.25936 52.8009 9.31216C52.8009 9.36496 52.8225 9.40816 52.8489 9.40816C52.8753 9.40816 52.8969 9.47296 52.8969 9.55217C52.8969 9.63137 52.9185 9.69617 52.9449 9.69617C52.9713 9.69617 52.9929 9.73937 52.9929 9.79217C52.9929 9.84497 53.0145 9.88817 53.0409 9.88817C53.0673 9.88817 53.0889 9.95297 53.0889 10.0322C53.0889 10.1114 53.1105 10.1762 53.1369 10.1762C53.1633 10.1762 53.1849 10.2194 53.1849 10.2722C53.1849 10.325 53.2065 10.3682 53.2329 10.3682C53.2593 10.3682 53.2809 10.4114 53.2809 10.4642C53.2809 10.517 53.3025 10.5602 53.3289 10.5602C53.3553 10.5602 53.3769 10.625 53.3769 10.7042C53.3769 10.7834 53.3985 10.8482 53.4249 10.8482C53.4513 10.8482 53.4729 10.8914 53.4729 10.9442C53.4729 10.997 53.4945 11.0402 53.5209 11.0402C53.5473 11.0402 53.5689 11.105 53.5689 11.1842C53.5689 11.2634 53.5905 11.3282 53.6169 11.3282C53.6433 11.3282 53.6649 11.3714 53.6649 11.4242C53.6649 11.477 53.6865 11.5202 53.7129 11.5202C53.7393 11.5202 53.7609 11.5634 53.7609 11.6162C53.7609 11.669 53.7825 11.7122 53.8089 11.7122C53.8353 11.7122 53.8569 11.7554 53.8569 11.8082C53.8569 11.861 53.8785 11.9042 53.9049 11.9042C53.9313 11.9042 53.9529 11.969 53.9529 12.0482C53.9529 12.1274 53.9745 12.1922 54.0009 12.1922C54.0273 12.1922 54.0489 12.2354 54.0489 12.2882C54.0489 12.341 54.0705 12.3842 54.0969 12.3842C54.1233 12.3842 54.1449 12.4274 54.1449 12.4802C54.1449 12.533 54.1665 12.5762 54.1929 12.5762C54.2193 12.5762 54.2409 12.641 54.2409 12.7202C54.2409 12.7994 54.2625 12.8642 54.2889 12.8642C54.3153 12.8642 54.3369 12.9074 54.3369 12.9602C54.3369 13.013 54.3585 13.0562 54.3849 13.0562C54.4113 13.0562 54.4329 13.0994 54.4329 13.1522C54.4329 13.205 54.4545 13.2482 54.4809 13.2482C54.5073 13.2482 54.5289 13.2914 54.5289 13.3442C54.5289 13.397 54.5505 13.4402 54.5769 13.4402C54.6033 13.4402 54.6249 13.505 54.6249 13.5842C54.6249 13.6634 54.6465 13.7282 54.6729 13.7282C54.6993 13.7282 54.7209 13.7714 54.7209 13.8242C54.7209 13.877 54.7425 13.9202 54.7689 13.9202C54.7953 13.9202 54.8169 13.9634 54.8169 14.0162C54.8169 14.069 54.8385 14.1122 54.8649 14.1122C54.8913 14.1122 54.9129 14.1554 54.9129 14.2082C54.9129 14.261 54.9345 14.3042 54.9609 14.3042C54.9873 14.3042 55.0089 14.369 55.0089 14.4482C55.0089 14.5275 55.0305 14.5923 55.0569 14.5923C55.0834 14.5923 55.1049 14.6355 55.1049 14.6883C55.1049 14.7411 55.1265 14.7843 55.153 14.7843C55.1794 14.7843 55.201 14.8275 55.201 14.8803C55.201 14.9331 55.2226 14.9763 55.249 14.9763C55.2754 14.9763 55.297 15.0195 55.297 15.0723C55.297 15.1251 55.3186 15.1683 55.345 15.1683C55.3714 15.1683 55.393 15.2331 55.393 15.3123C55.393 15.3915 55.4146 15.4563 55.441 15.4563C55.4674 15.4563 55.489 15.4995 55.489 15.5523C55.489 15.6051 55.5106 15.6483 55.537 15.6483C55.5634 15.6483 55.585 15.6915 55.585 15.7443C55.585 15.7971 55.6066 15.8403 55.633 15.8403C55.6594 15.8403 55.681 15.8835 55.681 15.9363C55.681 15.9891 55.7026 16.0323 55.729 16.0323C55.7554 16.0323 55.777 16.0971 55.777 16.1763C55.777 16.2555 55.7986 16.3203 55.825 16.3203C55.8514 16.3203 55.873 16.3635 55.873 16.4163C55.873 16.4691 55.8946 16.5123 55.921 16.5123C55.9474 16.5123 55.969 16.5555 55.969 16.6083C55.969 16.6611 55.9906 16.7043 56.017 16.7043C56.0434 16.7043 56.065 16.7475 56.065 16.8003C56.065 16.8531 56.0866 16.8963 56.113 16.8963C56.1394 16.8963 56.161 16.9611 56.161 17.0403C56.161 17.1195 56.1826 17.1843 56.209 17.1843C56.2354 17.1843 56.257 17.2275 56.257 17.2803C56.257 17.3331 56.2786 17.3763 56.305 17.3763C56.3314 17.3763 56.353 17.4195 56.353 17.4723C56.353 17.5251 56.3746 17.5683 56.401 17.5683C56.4274 17.5683 56.449 17.6115 56.449 17.6643C56.449 17.7171 56.4706 17.7603 56.497 17.7603C56.5234 17.7603 56.545 17.8035 56.545 17.8563C56.545 17.9091 56.5666 17.9523 56.593 17.9523C56.6194 17.9523 56.641 18.0171 56.641 18.0963C56.641 18.1755 56.6626 18.2403 56.689 18.2403C56.7154 18.2403 56.737 18.2835 56.737 18.3363C56.737 18.3891 56.7586 18.4323 56.785 18.4323C56.8114 18.4323 56.833 18.4755 56.833 18.5283C56.833 18.5811 56.8546 18.6243 56.881 18.6243C56.9074 18.6243 56.929 18.6675 56.929 18.7203C56.929 18.7731 56.9506 18.8163 56.977 18.8163C57.0034 18.8163 57.025 18.8811 57.025 18.9603C57.025 19.0395 57.0466 19.1043 57.073 19.1043C57.0994 19.1043 57.121 19.1475 57.121 19.2003C57.121 19.2531 57.1426 19.2963 57.169 19.2963C57.1954 19.2963 57.217 19.3395 57.217 19.3923C57.217 19.4451 57.2386 19.4883 57.265 19.4883C57.2914 19.4883 57.313 19.5315 57.313 19.5843C57.313 19.6371 57.3346 19.6803 57.361 19.6803C57.3874 19.6803 57.409 19.7451 57.409 19.8243C57.409 19.9035 57.4306 19.9683 57.457 19.9683C57.4834 19.9683 57.505 20.0115 57.505 20.0643C57.505 20.1171 57.5266 20.1603 57.553 20.1603C57.5794 20.1603 57.601 20.2036 57.601 20.2564C57.601 20.3092 57.6226 20.3524 57.649 20.3524C57.6754 20.3524 57.697 20.3956 57.697 20.4484C57.697 20.5012 57.7186 20.5444 57.745 20.5444C57.7714 20.5444 57.793 20.6092 57.793 20.6884C57.793 20.7676 57.8146 20.8324 57.841 20.8324C57.8674 20.8324 57.889 20.8756 57.889 20.9284C57.889 20.9812 57.9106 21.0244 57.937 21.0244C57.9634 21.0244 57.985 21.0676 57.985 21.1204C57.985 21.1732 58.0066 21.2164 58.033 21.2164C58.0594 21.2164 58.081 21.2596 58.081 21.3124C58.081 21.3652 58.1026 21.4084 58.129 21.4084C58.1554 21.4084 58.177 21.4516 58.177 21.5044C58.177 21.5572 58.1986 21.6004 58.225 21.6004C58.2514 21.6004 58.273 21.6652 58.273 21.7444C58.273 21.8236 58.2946 21.8884 58.321 21.8884C58.3474 21.8884 58.369 21.9316 58.369 21.9844C58.369 22.0372 58.3906 22.0804 58.417 22.0804C58.4434 22.0804 58.465 22.1236 58.465 22.1764C58.465 22.2292 58.4866 22.2724 58.513 22.2724C58.5394 22.2724 58.561 22.3156 58.561 22.3684C58.561 22.4212 58.5826 22.4644 58.609 22.4644C58.6354 22.4644 58.657 22.5292 58.657 22.6084C58.657 22.6876 58.6786 22.7524 58.705 22.7524C58.7314 22.7524 58.753 22.7956 58.753 22.8484C58.753 22.9012 58.7746 22.9444 58.801 22.9444C58.8274 22.9444 58.849 22.9876 58.849 23.0404C58.849 23.0932 58.8706 23.1364 58.897 23.1364C58.9234 23.1364 58.945 23.1796 58.945 23.2324C58.945 23.2852 58.9666 23.3284 58.993 23.3284C59.0194 23.3284 59.041 23.3839 59.041 23.4518C59.041 23.7192 58.9747 23.7124 61.5851 23.7124C63.607 23.7124 64.0029 23.7015 64.0605 23.6438C64.1196 23.5848 64.1291 21.9396 64.1291 11.7876V0H61.8731H59.617V4.41608C59.617 7.32814 59.6334 8.83215 59.665 8.83215C59.696 8.83215 59.713 9.37615 59.713 10.3682C59.713 11.3602 59.73 11.9042 59.761 11.9042C59.7911 11.9042 59.809 12.2082 59.809 12.7202C59.809 13.2322 59.8269 13.5362 59.857 13.5362C59.8869 13.5362 59.905 13.8083 59.905 14.2562C59.905 14.7042 59.9232 14.9763 59.953 14.9763C59.9815 14.9763 60.001 15.1523 60.001 15.4083C60.001 15.6643 59.9815 15.8403 59.953 15.8403C59.9266 15.8403 59.905 15.7755 59.905 15.6963C59.905 15.6171 59.8834 15.5523 59.857 15.5523C59.8306 15.5523 59.809 15.4659 59.809 15.3603C59.809 15.2547 59.7874 15.1683 59.761 15.1683C59.7346 15.1683 59.713 15.1035 59.713 15.0243C59.713 14.9451 59.6914 14.8803 59.665 14.8803C59.6386 14.8803 59.617 14.8155 59.617 14.7363C59.617 14.6571 59.5954 14.5923 59.569 14.5923C59.5426 14.5923 59.521 14.5275 59.521 14.4482C59.521 14.369 59.4994 14.3042 59.473 14.3042C59.4466 14.3042 59.425 14.261 59.425 14.2082C59.425 14.1554 59.4034 14.1122 59.377 14.1122C59.3506 14.1122 59.329 14.0474 59.329 13.9682C59.329 13.889 59.3074 13.8242 59.281 13.8242C59.2546 13.8242 59.233 13.7594 59.233 13.6802C59.233 13.601 59.2114 13.5362 59.185 13.5362C59.1586 13.5362 59.137 13.4714 59.137 13.3922C59.137 13.313 59.1154 13.2482 59.089 13.2482C59.0626 13.2482 59.041 13.205 59.041 13.1522C59.041 13.0994 59.0194 13.0562 58.993 13.0562C58.9666 13.0562 58.945 12.9914 58.945 12.9122C58.945 12.833 58.9234 12.7682 58.897 12.7682C58.8706 12.7682 58.849 12.725 58.849 12.6722C58.849 12.6194 58.8274 12.5762 58.801 12.5762C58.7746 12.5762 58.753 12.5114 58.753 12.4322C58.753 12.353 58.7314 12.2882 58.705 12.2882C58.6786 12.2882 58.657 12.245 58.657 12.1922C58.657 12.1394 58.6354 12.0962 58.609 12.0962C58.5826 12.0962 58.561 12.0314 58.561 11.9522C58.561 11.873 58.5394 11.8082 58.513 11.8082C58.4866 11.8082 58.465 11.765 58.465 11.7122C58.465 11.6594 58.4434 11.6162 58.417 11.6162C58.3906 11.6162 58.369 11.5514 58.369 11.4722C58.369 11.393 58.3474 11.3282 58.321 11.3282C58.2946 11.3282 58.273 11.285 58.273 11.2322C58.273 11.1794 58.2514 11.1362 58.225 11.1362C58.1986 11.1362 58.177 11.093 58.177 11.0402C58.177 10.9874 58.1554 10.9442 58.129 10.9442C58.1026 10.9442 58.081 10.8794 58.081 10.8002C58.081 10.721 58.0594 10.6562 58.033 10.6562C58.0066 10.6562 57.985 10.613 57.985 10.5602C57.985 10.5074 57.9634 10.4642 57.937 10.4642C57.9106 10.4642 57.889 10.421 57.889 10.3682C57.889 10.3154 57.8674 10.2722 57.841 10.2722C57.8146 10.2722 57.793 10.229 57.793 10.1762C57.793 10.1234 57.7714 10.0802 57.745 10.0802C57.7186 10.0802 57.697 10.037 57.697 9.98417C57.697 9.93137 57.6754 9.88817 57.649 9.88817C57.6226 9.88817 57.601 9.82337 57.601 9.74417C57.601 9.66497 57.5794 9.60017 57.553 9.60017C57.5266 9.60017 57.505 9.55697 57.505 9.50416C57.505 9.45136 57.4834 9.40816 57.457 9.40816C57.4306 9.40816 57.409 9.36496 57.409 9.31216C57.409 9.25936 57.3874 9.21616 57.361 9.21616C57.3346 9.21616 57.313 9.17296 57.313 9.12016C57.313 9.06736 57.2914 9.02416 57.265 9.02416C57.2386 9.02416 57.217 8.98096 57.217 8.92815C57.217 8.87535 57.1954 8.83215 57.169 8.83215C57.1426 8.83215 57.121 8.78895 57.121 8.73615C57.121 8.68335 57.0994 8.64015 57.073 8.64015C57.0466 8.64015 57.025 8.59695 57.025 8.54415C57.025 8.49135 57.0034 8.44815 56.977 8.44815C56.9506 8.44815 56.929 8.40495 56.929 8.35214C56.929 8.29934 56.9074 8.25614 56.881 8.25614C56.8546 8.25614 56.833 8.21294 56.833 8.16014C56.833 8.10734 56.8114 8.06414 56.785 8.06414C56.7586 8.06414 56.737 8.02094 56.737 7.96814C56.737 7.91534 56.7154 7.87214 56.689 7.87214C56.6626 7.87214 56.641 7.82894 56.641 7.77613C56.641 7.72333 56.6194 7.68013 56.593 7.68013C56.5666 7.68013 56.545 7.61533 56.545 7.53613C56.545 7.45693 56.5234 7.39213 56.497 7.39213C56.4706 7.39213 56.449 7.34893 56.449 7.29613C56.449 7.24333 56.4274 7.20012 56.401 7.20012C56.3746 7.20012 56.353 7.15692 56.353 7.10412C56.353 7.05132 56.3314 7.00812 56.305 7.00812C56.2786 7.00812 56.257 6.96492 56.257 6.91212C56.257 6.85932 56.2354 6.81612 56.209 6.81612C56.1826 6.81612 56.161 6.77292 56.161 6.72012C56.161 6.66732 56.1394 6.62411 56.113 6.62411C56.0866 6.62411 56.065 6.58091 56.065 6.52811C56.065 6.47531 56.0434 6.43211 56.017 6.43211C55.9906 6.43211 55.969 6.38891 55.969 6.33611C55.969 6.28331 55.9474 6.24011 55.921 6.24011C55.8946 6.24011 55.873 6.19691 55.873 6.14411C55.873 6.09131 55.8514 6.0481 55.825 6.0481C55.7986 6.0481 55.777 6.0049 55.777 5.9521C55.777 5.8993 55.7554 5.8561 55.729 5.8561C55.7026 5.8561 55.681 5.8129 55.681 5.7601C55.681 5.7073 55.6594 5.6641 55.633 5.6641C55.6066 5.6641 55.585 5.6209 55.585 5.5681C55.585 5.5153 55.5634 5.47209 55.537 5.47209C55.5106 5.47209 55.489 5.40729 55.489 5.32809C55.489 5.24889 55.4674 5.18409 55.441 5.18409C55.4146 5.18409 55.393 5.14089 55.393 5.08809C55.393 5.03529 55.3714 4.99209 55.345 4.99209C55.3186 4.99209 55.297 4.94889 55.297 4.89608C55.297 4.84328 55.2754 4.80008 55.249 4.80008C55.2226 4.80008 55.201 4.75688 55.201 4.70408C55.201 4.65128 55.1794 4.60808 55.153 4.60808C55.1265 4.60808 55.1049 4.56488 55.1049 4.51208C55.1049 4.45928 55.0834 4.41608 55.0569 4.41608C55.0305 4.41608 55.0089 4.37288 55.0089 4.32008C55.0089 4.26727 54.9873 4.22407 54.9609 4.22407C54.9345 4.22407 54.9129 4.18087 54.9129 4.12807C54.9129 4.07527 54.8913 4.03207 54.8649 4.03207C54.8385 4.03207 54.8169 3.98887 54.8169 3.93607C54.8169 3.88327 54.7953 3.84007 54.7689 3.84007C54.7425 3.84007 54.7209 3.79687 54.7209 3.74406C54.7209 3.69126 54.6993 3.64806 54.6729 3.64806C54.6465 3.64806 54.6249 3.60486 54.6249 3.55206C54.6249 3.49926 54.6033 3.45606 54.5769 3.45606C54.5505 3.45606 54.5289 3.41286 54.5289 3.36006C54.5289 3.30726 54.5073 3.26406 54.4809 3.26406C54.4545 3.26406 54.4329 3.19926 54.4329 3.12005C54.4329 3.04085 54.4113 2.97605 54.3849 2.97605C54.3585 2.97605 54.3369 2.93285 54.3369 2.88005C54.3369 2.82725 54.3153 2.78405 54.2889 2.78405C54.2625 2.78405 54.2409 2.74085 54.2409 2.68805C54.2409 2.63525 54.2193 2.59204 54.1929 2.59204C54.1665 2.59204 54.1449 2.54884 54.1449 2.49604C54.1449 2.44324 54.1233 2.40004 54.0969 2.40004C54.0705 2.40004 54.0489 2.35684 54.0489 2.30404C54.0489 2.25124 54.0273 2.20804 54.0009 2.20804C53.9745 2.20804 53.9529 2.16484 53.9529 2.11204C53.9529 2.05924 53.9313 2.01603 53.9049 2.01603C53.8785 2.01603 53.8569 1.97283 53.8569 1.92003C53.8569 1.86723 53.8353 1.82403 53.8089 1.82403C53.7825 1.82403 53.7609 1.78083 53.7609 1.72803C53.7609 1.67523 53.7393 1.63203 53.7129 1.63203C53.6865 1.63203 53.6649 1.58883 53.6649 1.53603C53.6649 1.48323 53.6433 1.44002 53.6169 1.44002C53.5905 1.44002 53.5689 1.39682 53.5689 1.34402C53.5689 1.29122 53.5473 1.24802 53.5209 1.24802C53.4945 1.24802 53.4729 1.20482 53.4729 1.15202C53.4729 1.09922 53.4513 1.05602 53.4249 1.05602C53.3985 1.05602 53.3769 0.991217 53.3769 0.912016C53.3769 0.832814 53.3553 0.768013 53.3289 0.768013C53.3025 0.768013 53.2809 0.724813 53.2809 0.672012C53.2809 0.619211 53.2593 0.57601 53.2329 0.57601C53.2065 0.57601 53.1849 0.532809 53.1849 0.480008C53.1849 0.427207 53.1633 0.384007 53.1369 0.384007C53.1105 0.384007 53.0889 0.340806 53.0889 0.288005C53.0889 0.235204 53.0673 0.192003 53.0409 0.192003C53.0145 0.192003 52.9929 0.148803 52.9929 0.0960017C52.9929 0.00115202 52.9609 0 50.3049 0H47.6168V11.7876ZM4.38008 0.359814C4.3471 0.397303 4.32007 0.456488 4.32007 0.491384C4.32007 0.526281 4.27687 0.585946 4.22407 0.624011C4.17127 0.662075 4.12807 0.726877 4.12807 0.768013C4.12807 0.80915 4.08487 0.873951 4.03207 0.912016C3.97927 0.95008 3.93607 1.01488 3.93607 1.05602C3.93607 1.09715 3.89287 1.16196 3.84007 1.20002C3.78727 1.23809 3.74406 1.30289 3.74406 1.34402C3.74406 1.38516 3.70086 1.44996 3.64806 1.48803C3.59526 1.52609 3.55206 1.587 3.55206 1.62339C3.55206 1.65973 3.48726 1.75006 3.40806 1.82403C3.32886 1.898 3.26406 1.98834 3.26406 2.02467C3.26406 2.06106 3.22086 2.12197 3.16805 2.16004C3.11525 2.1981 3.07205 2.2629 3.07205 2.30404C3.07205 2.34518 3.02885 2.40998 2.97605 2.44804C2.92325 2.48611 2.88005 2.55091 2.88005 2.59204C2.88005 2.63318 2.83685 2.69798 2.78405 2.73605C2.73125 2.77411 2.68805 2.83891 2.68805 2.88005C2.68805 2.92119 2.64485 2.98599 2.59204 3.02405C2.53924 3.06212 2.49604 3.12692 2.49604 3.16805C2.49604 3.20919 2.45284 3.27399 2.40004 3.31206C2.34724 3.35012 2.30404 3.41492 2.30404 3.45606C2.30404 3.4972 2.26084 3.562 2.20804 3.60006C2.15524 3.63813 2.11204 3.70293 2.11204 3.74406C2.11204 3.7852 2.06884 3.85 2.01603 3.88807C1.96323 3.92613 1.92003 3.99093 1.92003 4.03207C1.92003 4.07321 1.87683 4.13801 1.82403 4.17607C1.77123 4.21414 1.72803 4.27894 1.72803 4.32008C1.72803 4.36121 1.68483 4.42601 1.63203 4.46408C1.57923 4.50214 1.53603 4.56694 1.53603 4.60808C1.53603 4.64922 1.49283 4.71402 1.44002 4.75208C1.38722 4.79015 1.34402 4.85495 1.34402 4.89608C1.34402 4.93722 1.30082 5.00202 1.24802 5.04009C1.19522 5.07815 1.15202 5.14771 1.15202 5.1947C1.15202 5.24164 1.13042 5.28009 1.10402 5.28009C1.07762 5.28009 1.05602 5.30169 1.05602 5.32809C1.05602 5.35982 2.94403 5.37609 6.62411 5.37609C10.3042 5.37609 12.1922 5.39237 12.1922 5.42409C12.1922 5.45049 12.1706 5.47209 12.1442 5.47209C12.1178 5.47209 12.0962 5.51054 12.0962 5.55749C12.0962 5.60448 12.053 5.67403 12.0002 5.7121C11.9474 5.75016 11.9042 5.81496 11.9042 5.8561C11.9042 5.89724 11.861 5.96204 11.8082 6.0001C11.7554 6.03817 11.7122 6.10297 11.7122 6.14411C11.7122 6.18524 11.669 6.25004 11.6162 6.28811C11.5634 6.32617 11.5202 6.39097 11.5202 6.43211C11.5202 6.47325 11.477 6.53805 11.4242 6.57611C11.3714 6.61418 11.3282 6.67898 11.3282 6.72012C11.3282 6.76125 11.285 6.82605 11.2322 6.86412C11.1794 6.90218 11.1362 6.96698 11.1362 7.00812C11.1362 7.04926 11.093 7.11406 11.0402 7.15212C10.9874 7.19019 10.9442 7.25499 10.9442 7.29613C10.9442 7.33726 10.901 7.40206 10.8482 7.44013C10.7954 7.47819 10.7522 7.53911 10.7522 7.57549C10.7522 7.61183 10.6874 7.70217 10.6082 7.77613C10.529 7.8501 10.4642 7.94044 10.4642 7.97678C10.4642 8.01316 10.421 8.07408 10.3682 8.11214C10.3154 8.1502 10.2722 8.21501 10.2722 8.25614C10.2722 8.29728 10.229 8.36208 10.1762 8.40015C10.1234 8.43821 10.0802 8.50301 10.0802 8.54415C10.0802 8.58528 10.037 8.65009 9.98417 8.68815C9.93137 8.72622 9.88817 8.79102 9.88817 8.83215C9.88817 8.87329 9.84497 8.93809 9.79217 8.97616C9.73937 9.01422 9.69617 9.07902 9.69617 9.12016C9.69617 9.16129 9.65297 9.2261 9.60017 9.26416C9.54736 9.30223 9.50416 9.36703 9.50416 9.40816C9.50416 9.4493 9.46096 9.5141 9.40816 9.55217C9.35536 9.59023 9.31216 9.65503 9.31216 9.69617C9.31216 9.7373 9.26896 9.80211 9.21616 9.84017C9.16336 9.87823 9.12016 9.94304 9.12016 9.98417C9.12016 10.0253 9.07696 10.0901 9.02416 10.1282C8.97135 10.1662 8.92815 10.2272 8.92815 10.2635C8.92815 10.2999 8.86335 10.3902 8.78415 10.4642C8.70495 10.5382 8.64015 10.6285 8.64015 10.6648C8.64015 10.7012 8.59695 10.7621 8.54415 10.8002C8.49135 10.8383 8.44815 10.9031 8.44815 10.9442C8.44815 10.9853 8.40494 11.0501 8.35214 11.0882C8.29934 11.1263 8.25614 11.1911 8.25614 11.2322C8.25614 11.2733 8.21294 11.3381 8.16014 11.3762C8.10734 11.4143 8.06414 11.4791 8.06414 11.5202C8.06414 11.5613 8.02094 11.6261 7.96814 11.6642C7.91534 11.7023 7.87214 11.7671 7.87214 11.8082C7.87214 11.8493 7.82894 11.9141 7.77613 11.9522C7.72333 11.9903 7.68013 12.0551 7.68013 12.0962C7.68013 12.1373 7.63693 12.2021 7.58413 12.2402C7.53133 12.2783 7.48813 12.3431 7.48813 12.3842C7.48813 12.4254 7.44493 12.4902 7.39213 12.5282C7.33933 12.5663 7.29613 12.6311 7.29613 12.6722C7.29613 12.7134 7.25292 12.7782 7.20012 12.8162C7.14732 12.8543 7.10412 12.9152 7.10412 12.9516C7.10412 12.9879 7.03932 13.0783 6.96012 13.1522C6.88092 13.2262 6.81612 13.3165 6.81612 13.3529C6.81612 13.3893 6.77292 13.4502 6.72012 13.4882C6.66732 13.5263 6.62411 13.5911 6.62411 13.6322C6.62411 13.6734 6.58091 13.7382 6.52811 13.7762C6.47531 13.8143 6.43211 13.8791 6.43211 13.9202C6.43211 13.9614 6.38891 14.0262 6.33611 14.0642C6.28331 14.1023 6.24011 14.1671 6.24011 14.2082C6.24011 14.2494 6.19691 14.3142 6.14411 14.3522C6.0913 14.3903 6.0481 14.4551 6.0481 14.4963C6.0481 14.5374 6.0049 14.6022 5.9521 14.6403C5.8993 14.6783 5.8561 14.7431 5.8561 14.7843C5.8561 14.8254 5.8129 14.8902 5.7601 14.9283C5.7073 14.9663 5.6641 15.0311 5.6641 15.0723C5.6641 15.1134 5.6209 15.1782 5.5681 15.2163C5.5153 15.2543 5.47209 15.3152 5.47209 15.3516C5.47209 15.388 5.40729 15.4783 5.32809 15.5523C5.24889 15.6262 5.18409 15.7166 5.18409 15.7529C5.18409 15.7893 5.14089 15.8502 5.08809 15.8883C5.03529 15.9263 4.99209 15.9911 4.99209 16.0323C4.99209 16.0734 4.94889 16.1382 4.89608 16.1763C4.84328 16.2143 4.80008 16.2791 4.80008 16.3203C4.80008 16.3614 4.75688 16.4262 4.70408 16.4643C4.65128 16.5023 4.60808 16.5672 4.60808 16.6083C4.60808 16.6494 4.56488 16.7142 4.51208 16.7523C4.45928 16.7904 4.41608 16.8552 4.41608 16.8963C4.41608 16.9374 4.37288 17.0022 4.32007 17.0403C4.26727 17.0784 4.22407 17.1432 4.22407 17.1843C4.22407 17.2254 4.18087 17.2902 4.12807 17.3283C4.07527 17.3664 4.03207 17.4312 4.03207 17.4723C4.03207 17.5134 3.98887 17.5782 3.93607 17.6163C3.88327 17.6544 3.84007 17.7192 3.84007 17.7603C3.84007 17.8014 3.79687 17.8662 3.74406 17.9043C3.69126 17.9424 3.64806 18.0033 3.64806 18.0397C3.64806 18.076 3.58326 18.1663 3.50406 18.2403C3.42486 18.3143 3.36006 18.4046 3.36006 18.441C3.36006 18.4773 3.31686 18.5383 3.26406 18.5763C3.21126 18.6144 3.16805 18.6792 3.16805 18.7203C3.16805 18.7615 3.12485 18.8263 3.07205 18.8643C3.01925 18.9024 2.97605 18.9672 2.97605 19.0083C2.97605 19.0495 2.93285 19.1143 2.88005 19.1523C2.82725 19.1904 2.78405 19.2552 2.78405 19.2963C2.78405 19.3375 2.74085 19.4023 2.68805 19.4403C2.63525 19.4784 2.59204 19.5432 2.59204 19.5843C2.59204 19.6255 2.54884 19.6903 2.49604 19.7283C2.44324 19.7664 2.40004 19.8312 2.40004 19.8723C2.40004 19.9135 2.35684 19.9783 2.30404 20.0163C2.25124 20.0544 2.20804 20.1192 2.20804 20.1603C2.20804 20.2015 2.16484 20.2663 2.11204 20.3044C2.05924 20.3424 2.01603 20.4072 2.01603 20.4484C2.01603 20.4895 1.97283 20.5543 1.92003 20.5924C1.86723 20.6304 1.82403 20.6913 1.82403 20.7277C1.82403 20.7641 1.75923 20.8544 1.68003 20.9284C1.60083 21.0023 1.53603 21.0927 1.53603 21.129C1.53603 21.1654 1.49283 21.2263 1.44002 21.2644C1.38722 21.3024 1.34402 21.3672 1.34402 21.4084C1.34402 21.4495 1.30082 21.5143 1.24802 21.5524C1.19522 21.5904 1.15202 21.6552 1.15202 21.6964C1.15202 21.7375 1.10882 21.8023 1.05602 21.8404C1.00322 21.8784 0.960017 21.9432 0.960017 21.9844C0.960017 22.0255 0.916816 22.0903 0.864015 22.1284C0.811214 22.1664 0.768013 22.2312 0.768013 22.2724C0.768013 22.3135 0.724813 22.3783 0.672012 22.4164C0.619211 22.4545 0.57601 22.5193 0.57601 22.5604C0.57601 22.6015 0.532809 22.6663 0.480008 22.7044C0.427207 22.7425 0.384007 22.8073 0.384007 22.8484C0.384007 22.8895 0.340806 22.9543 0.288005 22.9924C0.235204 23.0305 0.192003 23.0953 0.192003 23.1364C0.192003 23.1775 0.148803 23.2423 0.0960017 23.2804C0.0432007 23.3185 0 23.3664 0 23.387C0 23.4076 5.60626 23.4244 12.4584 23.4244H24.9168L25.0346 23.3066C25.0994 23.2418 25.1524 23.1602 25.1524 23.1252C25.1524 23.0902 25.1956 23.0305 25.2484 22.9924C25.3012 22.9543 25.3444 22.8934 25.3444 22.857C25.3444 22.8207 25.4092 22.7304 25.4884 22.6564C25.5676 22.5824 25.6324 22.4921 25.6324 22.4557C25.6324 22.4194 25.6756 22.3585 25.7284 22.3204C25.7812 22.2823 25.8244 22.2175 25.8244 22.1764C25.8244 22.1352 25.8676 22.0704 25.9204 22.0324C25.9732 21.9943 26.0164 21.9295 26.0164 21.8884C26.0164 21.8472 26.0596 21.7824 26.1124 21.7444C26.1653 21.7063 26.2085 21.6415 26.2085 21.6004C26.2085 21.5592 26.2517 21.4944 26.3045 21.4564C26.3573 21.4183 26.4005 21.3535 26.4005 21.3124C26.4005 21.2712 26.4437 21.2064 26.4965 21.1684C26.5493 21.1303 26.5925 21.0655 26.5925 21.0244C26.5925 20.9832 26.6357 20.9184 26.6885 20.8804C26.7413 20.8423 26.7845 20.7775 26.7845 20.7364C26.7845 20.6952 26.8277 20.6304 26.8805 20.5924C26.9333 20.5543 26.9765 20.4895 26.9765 20.4484C26.9765 20.4072 27.0197 20.3424 27.0725 20.3044C27.1253 20.2663 27.1685 20.2054 27.1685 20.169C27.1685 20.1327 27.2333 20.0423 27.3125 19.9683C27.3917 19.8944 27.4565 19.804 27.4565 19.7677C27.4565 19.7313 27.4997 19.6704 27.5525 19.6323C27.6053 19.5943 27.6485 19.5295 27.6485 19.4883C27.6485 19.4472 27.6917 19.3824 27.7445 19.3443C27.7973 19.3063 27.8405 19.2415 27.8405 19.2003C27.8405 19.1592 27.8837 19.0944 27.9365 19.0563C27.9893 19.0183 28.0325 18.9535 28.0325 18.9123C28.0325 18.8712 28.0757 18.8064 28.1285 18.7683C28.1813 18.7303 28.2245 18.6655 28.2245 18.6243C28.2245 18.5832 28.2677 18.5184 28.3205 18.4803C28.3733 18.4423 28.4165 18.3775 28.4165 18.3363C28.4165 18.2952 28.4597 18.2304 28.5125 18.1923C28.5653 18.1543 28.6085 18.0894 28.6085 18.0483C28.6085 18.0072 28.6517 17.9424 28.7045 17.9043C28.7573 17.8662 28.8005 17.8014 28.8005 17.7603C28.8005 17.7192 28.8437 17.6544 28.8965 17.6163C28.9493 17.5782 28.9925 17.5134 28.9925 17.4723C28.9925 17.4312 29.0357 17.3664 29.0885 17.3283C29.1413 17.2902 29.1845 17.2254 29.1845 17.1843C29.1845 17.1432 29.2277 17.0784 29.2805 17.0403C29.3756 16.9718 29.3765 16.916 29.3765 11.1736V5.37609H31.5845C33.0246 5.37609 33.7926 5.3928 33.7926 5.42409C33.7926 5.45078 33.9206 5.47209 34.0806 5.47209C34.2406 5.47209 34.3686 5.49341 34.3686 5.5201C34.3686 5.5465 34.4766 5.5681 34.6086 5.5681C34.7406 5.5681 34.8486 5.5897 34.8486 5.6161C34.8486 5.6425 34.9134 5.6641 34.9926 5.6641C35.0718 5.6641 35.1366 5.6857 35.1366 5.7121C35.1366 5.7385 35.2014 5.7601 35.2806 5.7601C35.3598 5.7601 35.4246 5.7817 35.4246 5.8081C35.4246 5.8345 35.4894 5.8561 35.5686 5.8561C35.6478 5.8561 35.7126 5.8777 35.7126 5.9041C35.7126 5.9305 35.7558 5.9521 35.8086 5.9521C35.8614 5.9521 35.9046 5.9737 35.9046 6.0001C35.9046 6.0265 35.9478 6.0481 36.0006 6.0481C36.0534 6.0481 36.0966 6.06971 36.0966 6.09611C36.0966 6.12251 36.1398 6.14411 36.1926 6.14411C36.2454 6.14411 36.2886 6.16571 36.2886 6.19211C36.2886 6.21851 36.3318 6.24011 36.3846 6.24011C36.4374 6.24011 36.4806 6.26171 36.4806 6.28811C36.4806 6.31451 36.5191 6.33611 36.566 6.33611C36.613 6.33611 36.6826 6.37931 36.7206 6.43211C36.7587 6.48491 36.8191 6.52811 36.855 6.52811C36.8908 6.52811 37.0032 6.61451 37.1046 6.72012C37.2061 6.82572 37.313 6.91212 37.3421 6.91212C37.4112 6.91212 37.8247 7.3256 37.8247 7.39462C37.8247 7.42381 37.9111 7.53066 38.0167 7.63213C38.1223 7.73361 38.2087 7.84593 38.2087 7.88178C38.2087 7.91764 38.2519 7.97807 38.3047 8.01614C38.3575 8.0542 38.4007 8.12376 38.4007 8.17075C38.4007 8.21769 38.4223 8.25614 38.4487 8.25614C38.4751 8.25614 38.4967 8.29934 38.4967 8.35214C38.4967 8.40495 38.5183 8.44815 38.5447 8.44815C38.5711 8.44815 38.5927 8.49135 38.5927 8.54415C38.5927 8.59695 38.6143 8.64015 38.6407 8.64015C38.6671 8.64015 38.6887 8.68335 38.6887 8.73615C38.6887 8.78895 38.7103 8.83215 38.7367 8.83215C38.7631 8.83215 38.7847 8.87535 38.7847 8.92815C38.7847 8.98096 38.8063 9.02416 38.8327 9.02416C38.8591 9.02416 38.8807 9.08896 38.8807 9.16816C38.8807 9.24736 38.9023 9.31216 38.9287 9.31216C38.9551 9.31216 38.9767 9.37696 38.9767 9.45616C38.9767 9.53537 38.9983 9.60017 39.0247 9.60017C39.0511 9.60017 39.0727 9.66497 39.0727 9.74417C39.0727 9.82337 39.0943 9.88817 39.1207 9.88817C39.1471 9.88817 39.1687 9.99617 39.1687 10.1282C39.1687 10.2602 39.1903 10.3682 39.2167 10.3682C39.2447 10.3682 39.2647 10.5282 39.2647 10.7522C39.2647 10.9762 39.2847 11.1362 39.3127 11.1362C39.3425 11.1362 39.3607 11.4082 39.3607 11.8562C39.3607 12.3042 39.3425 12.5762 39.3127 12.5762C39.2847 12.5762 39.2647 12.7362 39.2647 12.9602C39.2647 13.1842 39.2447 13.3442 39.2167 13.3442C39.1903 13.3442 39.1687 13.4522 39.1687 13.5842C39.1687 13.7162 39.1471 13.8242 39.1207 13.8242C39.0943 13.8242 39.0727 13.889 39.0727 13.9682C39.0727 14.0474 39.0511 14.1122 39.0247 14.1122C38.9983 14.1122 38.9767 14.177 38.9767 14.2562C38.9767 14.3354 38.9551 14.4002 38.9287 14.4002C38.9023 14.4002 38.8807 14.4651 38.8807 14.5443C38.8807 14.6235 38.8591 14.6883 38.8327 14.6883C38.8063 14.6883 38.7847 14.7315 38.7847 14.7843C38.7847 14.8371 38.7631 14.8803 38.7367 14.8803C38.7103 14.8803 38.6887 14.9235 38.6887 14.9763C38.6887 15.0291 38.6671 15.0723 38.6407 15.0723C38.6143 15.0723 38.5927 15.1155 38.5927 15.1683C38.5927 15.2211 38.5711 15.2643 38.5447 15.2643C38.5183 15.2643 38.4967 15.3075 38.4967 15.3603C38.4967 15.4131 38.4751 15.4563 38.4487 15.4563C38.4223 15.4563 38.4007 15.4947 38.4007 15.5417C38.4007 15.5887 38.3575 15.6582 38.3047 15.6963C38.2519 15.7343 38.2087 15.7943 38.2087 15.8295C38.2087 15.8648 38.0791 16.0208 37.9207 16.1763C37.7623 16.3318 37.6326 16.4926 37.6326 16.5336C37.6326 16.5747 37.5989 16.6083 37.5575 16.6083C37.5162 16.6083 37.3772 16.7163 37.2486 16.8483C37.12 16.9803 36.9858 17.0883 36.9504 17.0883C36.9148 17.0883 36.8547 17.1315 36.8166 17.1843C36.7786 17.2371 36.709 17.2803 36.662 17.2803C36.6151 17.2803 36.5766 17.3019 36.5766 17.3283C36.5766 17.3547 36.5382 17.3763 36.4912 17.3763C36.4442 17.3763 36.3747 17.4195 36.3366 17.4723C36.2986 17.5251 36.229 17.5683 36.182 17.5683C36.1351 17.5683 36.0966 17.5899 36.0966 17.6163C36.0966 17.6427 36.0318 17.6643 35.9526 17.6643C35.8734 17.6643 35.8086 17.6859 35.8086 17.7123C35.8086 17.7387 35.7654 17.7603 35.7126 17.7603C35.6598 17.7603 35.6166 17.7819 35.6166 17.8083C35.6166 17.8347 35.5518 17.8563 35.4726 17.8563C35.3934 17.8563 35.3286 17.8779 35.3286 17.9043C35.3286 17.9307 35.2638 17.9523 35.1846 17.9523C35.1054 17.9523 35.0406 17.9739 35.0406 18.0003C35.0406 18.0267 34.9542 18.0483 34.8486 18.0483C34.743 18.0483 34.6566 18.0699 34.6566 18.0963C34.6566 18.1227 34.5486 18.1443 34.4166 18.1443C34.2846 18.1443 34.1766 18.1659 34.1766 18.1923C34.1766 18.2203 34.0166 18.2403 33.7926 18.2403C33.5686 18.2403 33.4086 18.2603 33.4086 18.2883C33.4086 18.3194 32.8166 18.3363 31.7285 18.3363H30.0485V20.8804V23.4244H32.4006C33.9366 23.4244 34.7526 23.4077 34.7526 23.3764C34.7526 23.3479 34.9286 23.3284 35.1846 23.3284C35.4406 23.3284 35.6166 23.3089 35.6166 23.2804C35.6166 23.2537 35.7446 23.2324 35.9046 23.2324C36.0646 23.2324 36.1926 23.2111 36.1926 23.1844C36.1926 23.158 36.279 23.1364 36.3846 23.1364C36.4902 23.1364 36.5766 23.1148 36.5766 23.0884C36.5766 23.062 36.663 23.0404 36.7686 23.0404C36.8742 23.0404 36.9606 23.0188 36.9606 22.9924C36.9606 22.966 37.047 22.9444 37.1526 22.9444C37.2582 22.9444 37.3446 22.9228 37.3446 22.8964C37.3446 22.87 37.4094 22.8484 37.4886 22.8484C37.5678 22.8484 37.6326 22.8268 37.6326 22.8004C37.6326 22.774 37.6974 22.7524 37.7766 22.7524C37.8559 22.7524 37.9207 22.7308 37.9207 22.7044C37.9207 22.678 37.9855 22.6564 38.0647 22.6564C38.1439 22.6564 38.2087 22.6348 38.2087 22.6084C38.2087 22.582 38.2519 22.5604 38.3047 22.5604C38.3575 22.5604 38.4007 22.5388 38.4007 22.5124C38.4007 22.486 38.4439 22.4644 38.4967 22.4644C38.5495 22.4644 38.5927 22.4428 38.5927 22.4164C38.5927 22.39 38.6575 22.3684 38.7367 22.3684C38.8159 22.3684 38.8807 22.3468 38.8807 22.3204C38.8807 22.294 38.9239 22.2724 38.9767 22.2724C39.0295 22.2724 39.0727 22.2508 39.0727 22.2244C39.0727 22.198 39.1159 22.1764 39.1687 22.1764C39.2215 22.1764 39.2647 22.1548 39.2647 22.1284C39.2647 22.102 39.3079 22.0804 39.3607 22.0804C39.4135 22.0804 39.4567 22.0588 39.4567 22.0324C39.4567 22.006 39.4951 21.9844 39.5421 21.9844C39.5891 21.9844 39.6586 21.9412 39.6967 21.8884C39.7347 21.8356 39.8043 21.7924 39.8513 21.7924C39.8982 21.7924 39.9367 21.7708 39.9367 21.7444C39.9367 21.718 39.9751 21.6964 40.0221 21.6964C40.0691 21.6964 40.1386 21.6532 40.1767 21.6004C40.2148 21.5476 40.2796 21.5044 40.3207 21.5044C40.3618 21.5044 40.4266 21.4612 40.4647 21.4084C40.5028 21.3556 40.5676 21.3124 40.6087 21.3124C40.6498 21.3124 40.7146 21.2692 40.7527 21.2164C40.7908 21.1636 40.8512 21.1204 40.8871 21.1204C40.9229 21.1204 41.0352 21.034 41.1367 20.9284C41.2382 20.8228 41.3446 20.7364 41.3733 20.7364C41.4414 20.7364 43.0087 19.169 43.0087 19.1009C43.0087 19.0723 43.0951 18.9658 43.2007 18.8643C43.3063 18.7629 43.3927 18.6505 43.3927 18.6147C43.3927 18.5788 43.4359 18.5184 43.4888 18.4803C43.5415 18.4423 43.5848 18.3775 43.5848 18.3363C43.5848 18.2952 43.628 18.2304 43.6808 18.1923C43.7336 18.1543 43.7768 18.0894 43.7768 18.0483C43.7768 18.0072 43.82 17.9424 43.8728 17.9043C43.9256 17.8662 43.9688 17.7967 43.9688 17.7497C43.9688 17.7028 43.9904 17.6643 44.0168 17.6643C44.0432 17.6643 44.0648 17.6259 44.0648 17.5789C44.0648 17.5319 44.108 17.4624 44.1608 17.4243C44.2136 17.3862 44.2568 17.3167 44.2568 17.2697C44.2568 17.2227 44.2784 17.1843 44.3048 17.1843C44.3312 17.1843 44.3528 17.1411 44.3528 17.0883C44.3528 17.0355 44.3744 16.9923 44.4008 16.9923C44.4272 16.9923 44.4488 16.9491 44.4488 16.8963C44.4488 16.8435 44.4704 16.8003 44.4968 16.8003C44.5232 16.8003 44.5448 16.7355 44.5448 16.6563C44.5448 16.5771 44.5664 16.5123 44.5928 16.5123C44.6192 16.5123 44.6408 16.4691 44.6408 16.4163C44.6408 16.3635 44.6624 16.3203 44.6888 16.3203C44.7152 16.3203 44.7368 16.2771 44.7368 16.2243C44.7368 16.1715 44.7584 16.1283 44.7848 16.1283C44.8112 16.1283 44.8328 16.0635 44.8328 15.9843C44.8328 15.9051 44.8544 15.8403 44.8808 15.8403C44.9072 15.8403 44.9288 15.7755 44.9288 15.6963C44.9288 15.6171 44.9504 15.5523 44.9768 15.5523C45.0032 15.5523 45.0248 15.4875 45.0248 15.4083C45.0248 15.3291 45.0464 15.2643 45.0728 15.2643C45.0992 15.2643 45.1208 15.1995 45.1208 15.1203C45.1208 15.0411 45.1424 14.9763 45.1688 14.9763C45.1952 14.9763 45.2168 14.8899 45.2168 14.7843C45.2168 14.6787 45.2384 14.5923 45.2648 14.5923C45.2912 14.5923 45.3128 14.5059 45.3128 14.4002C45.3128 14.2946 45.3344 14.2082 45.3608 14.2082C45.3875 14.2082 45.4088 14.0802 45.4088 13.9202C45.4088 13.7603 45.4301 13.6322 45.4568 13.6322C45.4848 13.6322 45.5048 13.4722 45.5048 13.2482C45.5048 13.0242 45.5248 12.8642 45.5528 12.8642C45.5833 12.8642 45.6008 12.4802 45.6008 11.8082C45.6008 11.1362 45.5833 10.7522 45.5528 10.7522C45.5248 10.7522 45.5048 10.5922 45.5048 10.3682C45.5048 10.1442 45.4848 9.98417 45.4568 9.98417C45.4304 9.98417 45.4088 9.87617 45.4088 9.74417C45.4088 9.61217 45.3872 9.50416 45.3608 9.50416C45.3344 9.50416 45.3128 9.39616 45.3128 9.26416C45.3128 9.13216 45.2912 9.02416 45.2648 9.02416C45.2384 9.02416 45.2168 8.95936 45.2168 8.88015C45.2168 8.80095 45.1952 8.73615 45.1688 8.73615C45.1424 8.73615 45.1208 8.64975 45.1208 8.54415C45.1208 8.43855 45.0992 8.35214 45.0728 8.35214C45.0464 8.35214 45.0248 8.28734 45.0248 8.20814C45.0248 8.12894 45.0032 8.06414 44.9768 8.06414C44.9504 8.06414 44.9288 7.99934 44.9288 7.92014C44.9288 7.84094 44.9072 7.77613 44.8808 7.77613C44.8544 7.77613 44.8328 7.73293 44.8328 7.68013C44.8328 7.62733 44.8112 7.58413 44.7848 7.58413C44.7584 7.58413 44.7368 7.51933 44.7368 7.44013C44.7368 7.36093 44.7152 7.29613 44.6888 7.29613C44.6624 7.29613 44.6408 7.25293 44.6408 7.20012C44.6408 7.14732 44.6192 7.10412 44.5928 7.10412C44.5664 7.10412 44.5448 7.06092 44.5448 7.00812C44.5448 6.95532 44.5232 6.91212 44.4968 6.91212C44.4704 6.91212 44.4488 6.86892 44.4488 6.81612C44.4488 6.76332 44.4272 6.72012 44.4008 6.72012C44.3744 6.72012 44.3528 6.67692 44.3528 6.62411C44.3528 6.57131 44.3312 6.52811 44.3048 6.52811C44.2784 6.52811 44.2568 6.48491 44.2568 6.43211C44.2568 6.37931 44.2352 6.33611 44.2088 6.33611C44.1824 6.33611 44.1608 6.29766 44.1608 6.25072C44.1608 6.20372 44.1176 6.13417 44.0648 6.09611C44.012 6.05804 43.9688 5.98849 43.9688 5.94149C43.9688 5.89455 43.9472 5.8561 43.9208 5.8561C43.8944 5.8561 43.8728 5.81765 43.8728 5.77071C43.8728 5.72372 43.8296 5.65416 43.7768 5.6161C43.724 5.57803 43.6808 5.51323 43.6808 5.47209C43.6808 5.43096 43.6376 5.36616 43.5848 5.32809C43.532 5.29003 43.4888 5.22911 43.4888 5.19273C43.4888 5.15639 43.424 5.06606 43.3447 4.99209C43.2655 4.91812 43.2007 4.83244 43.2007 4.80171C43.2007 4.77099 43.0927 4.64067 42.9607 4.51208C42.8287 4.38348 42.7207 4.25503 42.7207 4.22662C42.7207 4.15879 41.7294 3.16805 41.6615 3.16805C41.6327 3.16805 41.5262 3.08165 41.4247 2.97605C41.3232 2.87045 41.2148 2.78405 41.1838 2.78405C41.1526 2.78405 41.0667 2.71925 40.9927 2.64005C40.9187 2.56084 40.8284 2.49604 40.7921 2.49604C40.7557 2.49604 40.6948 2.45284 40.6567 2.40004C40.6186 2.34724 40.5538 2.30404 40.5127 2.30404C40.4716 2.30404 40.4068 2.26084 40.3687 2.20804C40.3306 2.15524 40.2658 2.11204 40.2247 2.11204C40.1836 2.11204 40.1188 2.06884 40.0807 2.01603C40.0426 1.96323 39.9731 1.92003 39.9261 1.92003C39.8791 1.92003 39.8407 1.89843 39.8407 1.87203C39.8407 1.84563 39.7975 1.82403 39.7447 1.82403C39.6919 1.82403 39.6487 1.80243 39.6487 1.77603C39.6487 1.74963 39.6102 1.72803 39.5633 1.72803C39.5163 1.72803 39.4467 1.68483 39.4087 1.63203C39.3706 1.57923 39.3011 1.53603 39.2541 1.53603C39.2071 1.53603 39.1687 1.51443 39.1687 1.48803C39.1687 1.46163 39.1255 1.44002 39.0727 1.44002C39.0199 1.44002 38.9767 1.41842 38.9767 1.39202C38.9767 1.36562 38.9119 1.34402 38.8327 1.34402C38.7535 1.34402 38.6887 1.32242 38.6887 1.29602C38.6887 1.26962 38.6455 1.24802 38.5927 1.24802C38.5399 1.24802 38.4967 1.22642 38.4967 1.20002C38.4967 1.17362 38.4535 1.15202 38.4007 1.15202C38.3479 1.15202 38.3047 1.13042 38.3047 1.10402C38.3047 1.07762 38.2399 1.05602 38.1607 1.05602C38.0815 1.05602 38.0167 1.03442 38.0167 1.00802C38.0167 0.981617 37.9519 0.960017 37.8727 0.960017C37.7935 0.960017 37.7286 0.938416 37.7286 0.912016C37.7286 0.885615 37.6638 0.864015 37.5846 0.864015C37.5054 0.864015 37.4406 0.842415 37.4406 0.816014C37.4406 0.789614 37.3758 0.768013 37.2966 0.768013C37.2174 0.768013 37.1526 0.746413 37.1526 0.720012C37.1526 0.693612 37.0662 0.672012 36.9606 0.672012C36.855 0.672012 36.7686 0.650411 36.7686 0.624011C36.7686 0.59761 36.6822 0.57601 36.5766 0.57601C36.471 0.57601 36.3846 0.55441 36.3846 0.528009C36.3846 0.501321 36.2566 0.480008 36.0966 0.480008C35.9366 0.480008 35.8086 0.458696 35.8086 0.432007C35.8086 0.404599 35.6646 0.384007 35.4726 0.384007C35.2806 0.384007 35.1366 0.363414 35.1366 0.336006C35.1366 0.304277 33.1366 0.288005 29.2325 0.288005H23.3284V9.31216V18.3363H17.0883C10.8802 18.3363 10.8482 18.3358 10.8482 18.2403C10.8482 18.1875 10.8698 18.1443 10.8962 18.1443C10.9226 18.1443 10.9442 18.1059 10.9442 18.0589C10.9442 18.0119 10.9874 17.9424 11.0402 17.9043C11.093 17.8662 11.1362 17.8014 11.1362 17.7603C11.1362 17.7192 11.1794 17.6544 11.2322 17.6163C11.285 17.5782 11.3282 17.5173 11.3282 17.4809C11.3282 17.4446 11.393 17.3543 11.4722 17.2803C11.5514 17.2063 11.6162 17.116 11.6162 17.0797C11.6162 17.0433 11.6594 16.9824 11.7122 16.9443C11.765 16.9062 11.8082 16.8414 11.8082 16.8003C11.8082 16.7592 11.8514 16.6944 11.9042 16.6563C11.957 16.6182 12.0002 16.5534 12.0002 16.5123C12.0002 16.4711 12.0434 16.4063 12.0962 16.3683C12.149 16.3302 12.1922 16.2654 12.1922 16.2243C12.1922 16.1831 12.2354 16.1183 12.2882 16.0803C12.341 16.0422 12.3842 15.9774 12.3842 15.9363C12.3842 15.8951 12.4274 15.8303 12.4802 15.7923C12.533 15.7542 12.5762 15.6894 12.5762 15.6483C12.5762 15.6071 12.6194 15.5423 12.6722 15.5043C12.725 15.4662 12.7682 15.4014 12.7682 15.3603C12.7682 15.3191 12.8114 15.2543 12.8642 15.2163C12.917 15.1782 12.9602 15.1134 12.9602 15.0723C12.9602 15.0311 13.0034 14.9663 13.0562 14.9283C13.109 14.8902 13.1522 14.8254 13.1522 14.7843C13.1522 14.7431 13.1954 14.6783 13.2482 14.6403C13.301 14.6022 13.3442 14.5374 13.3442 14.4963C13.3442 14.4551 13.3874 14.3903 13.4402 14.3522C13.493 14.3142 13.5362 14.2494 13.5362 14.2082C13.5362 14.1671 13.5794 14.1023 13.6322 14.0642C13.685 14.0262 13.7282 13.9614 13.7282 13.9202C13.7282 13.8791 13.7714 13.8143 13.8242 13.7762C13.877 13.7382 13.9202 13.6773 13.9202 13.6409C13.9202 13.6045 13.985 13.5142 14.0642 13.4402C14.1434 13.3663 14.2082 13.2759 14.2082 13.2396C14.2082 13.2032 14.2514 13.1423 14.3042 13.1042C14.357 13.0662 14.4002 13.0014 14.4002 12.9602C14.4002 12.9191 14.4434 12.8543 14.4963 12.8162C14.5491 12.7782 14.5923 12.7134 14.5923 12.6722C14.5923 12.6311 14.6355 12.5663 14.6883 12.5282C14.7411 12.4902 14.7843 12.4254 14.7843 12.3842C14.7843 12.3431 14.8275 12.2783 14.8803 12.2402C14.9331 12.2021 14.9763 12.1373 14.9763 12.0962C14.9763 12.0551 15.0195 11.9903 15.0723 11.9522C15.1251 11.9141 15.1683 11.8493 15.1683 11.8082C15.1683 11.7671 15.2115 11.7023 15.2643 11.6642C15.3171 11.6261 15.3603 11.5613 15.3603 11.5202C15.3603 11.4791 15.4035 11.4143 15.4563 11.3762C15.5091 11.3381 15.5523 11.2733 15.5523 11.2322C15.5523 11.1911 15.5955 11.1263 15.6483 11.0882C15.7011 11.0501 15.7443 10.9853 15.7443 10.9442C15.7443 10.9031 15.7875 10.8383 15.8403 10.8002C15.8931 10.7621 15.9363 10.6973 15.9363 10.6562C15.9363 10.615 15.9795 10.5502 16.0323 10.5122C16.0851 10.4741 16.1283 10.4093 16.1283 10.3682C16.1283 10.327 16.1715 10.2622 16.2243 10.2242C16.2771 10.1861 16.3203 10.1252 16.3203 10.0888C16.3203 10.0525 16.3851 9.96214 16.4643 9.88817C16.5435 9.8142 16.6083 9.72386 16.6083 9.68753C16.6083 9.65114 16.6515 9.59023 16.7043 9.55217C16.7571 9.5141 16.8003 9.4493 16.8003 9.40816C16.8003 9.36703 16.8435 9.30223 16.8963 9.26416C16.9491 9.2261 16.9923 9.16129 16.9923 9.12016C16.9923 9.07902 17.0355 9.01422 17.0883 8.97616C17.1411 8.93809 17.1843 8.87329 17.1843 8.83215C17.1843 8.79102 17.2275 8.72622 17.2803 8.68815C17.3331 8.65009 17.3763 8.58528 17.3763 8.54415C17.3763 8.50301 17.4195 8.43821 17.4723 8.40015C17.5251 8.36208 17.5683 8.29728 17.5683 8.25614C17.5683 8.21501 17.6115 8.1502 17.6643 8.11214C17.7171 8.07408 17.7603 8.00927 17.7603 7.96814C17.7603 7.927 17.8035 7.8622 17.8563 7.82414C17.9091 7.78607 17.9523 7.72127 17.9523 7.68013C17.9523 7.639 17.9955 7.5742 18.0483 7.53613C18.1011 7.49807 18.1443 7.43326 18.1443 7.39213C18.1443 7.35099 18.1875 7.28619 18.2403 7.24813C18.2931 7.21006 18.3363 7.14526 18.3363 7.10412C18.3363 7.06299 18.3795 6.99819 18.4323 6.96012C18.4851 6.92206 18.5283 6.85725 18.5283 6.81612C18.5283 6.77498 18.5715 6.71018 18.6243 6.67212C18.6771 6.63405 18.7203 6.56925 18.7203 6.52811C18.7203 6.48698 18.7635 6.42218 18.8163 6.38411C18.8691 6.34605 18.9123 6.28513 18.9123 6.24875C18.9123 6.21241 18.9771 6.12207 19.0563 6.0481C19.1355 5.97414 19.2003 5.8838 19.2003 5.84746C19.2003 5.81108 19.2435 5.75016 19.2963 5.7121C19.3491 5.67403 19.3923 5.60923 19.3923 5.5681C19.3923 5.52696 19.4355 5.46216 19.4883 5.42409C19.5411 5.38603 19.5843 5.32123 19.5843 5.28009C19.5843 5.23895 19.6275 5.17415 19.6803 5.13609C19.7331 5.09802 19.7763 5.03322 19.7763 4.99209C19.7763 4.95095 19.8195 4.88615 19.8723 4.84808C19.9251 4.81002 19.9683 4.74522 19.9683 4.70408C19.9683 4.66294 20.0115 4.59814 20.0643 4.56008C20.1171 4.52201 20.1603 4.45721 20.1603 4.41608C20.1603 4.37494 20.2035 4.31014 20.2563 4.27207C20.3092 4.23401 20.3524 4.16921 20.3524 4.12807C20.3524 4.08693 20.3956 4.02213 20.4484 3.98407C20.5012 3.946 20.5444 3.8812 20.5444 3.84007C20.5444 3.79893 20.5876 3.73413 20.6404 3.69606C20.6932 3.658 20.7364 3.5932 20.7364 3.55206C20.7364 3.51092 20.7796 3.44612 20.8324 3.40806C20.8852 3.36999 20.9284 3.30519 20.9284 3.26406C20.9284 3.22292 20.9716 3.15812 21.0244 3.12005C21.0772 3.08199 21.1204 3.01719 21.1204 2.97605C21.1204 2.93491 21.1636 2.87011 21.2164 2.83205C21.2692 2.79398 21.3124 2.72918 21.3124 2.68805C21.3124 2.64691 21.3556 2.58211 21.4084 2.54404C21.4612 2.50598 21.5044 2.44507 21.5044 2.40868C21.5044 2.37234 21.5692 2.28201 21.6484 2.20804C21.7276 2.13407 21.7924 2.04373 21.7924 2.0074C21.7924 1.97101 21.8356 1.9101 21.8884 1.87203C21.9412 1.83397 21.9844 1.76917 21.9844 1.72803C21.9844 1.68689 22.0276 1.62209 22.0804 1.58403C22.1332 1.54596 22.1764 1.48116 22.1764 1.44002C22.1764 1.39889 22.2196 1.33409 22.2724 1.29602C22.3252 1.25796 22.3684 1.19316 22.3684 1.15202C22.3684 1.11088 22.4116 1.04608 22.4644 1.00802C22.5172 0.969953 22.5604 0.905152 22.5604 0.864015C22.5604 0.822878 22.6036 0.758077 22.6564 0.720012C22.7092 0.681948 22.7524 0.617147 22.7524 0.57601C22.7524 0.534873 22.7956 0.470072 22.8484 0.432007C22.9012 0.393943 22.9444 0.34599 22.9444 0.325397C22.9444 0.304853 18.7809 0.288821 13.6922 0.289829C5.76231 0.291413 4.43148 0.301397 4.38008 0.359814ZM90.0496 1.00802C90.0496 1.03442 89.9632 1.05602 89.8576 1.05602C89.7519 1.05602 89.6655 1.07762 89.6655 1.10402C89.6655 1.13042 89.5791 1.15202 89.4735 1.15202C89.3679 1.15202 89.2815 1.17362 89.2815 1.20002C89.2815 1.22642 89.1951 1.24802 89.0895 1.24802C88.9839 1.24802 88.8975 1.26962 88.8975 1.29602C88.8975 1.32242 88.8111 1.34402 88.7055 1.34402C88.5999 1.34402 88.5135 1.36562 88.5135 1.39202C88.5135 1.41842 88.4271 1.44002 88.3215 1.44002C88.2159 1.44002 88.1295 1.46163 88.1295 1.48803C88.1295 1.51443 88.0431 1.53603 87.9375 1.53603C87.8319 1.53603 87.7455 1.55763 87.7455 1.58403C87.7455 1.61043 87.6591 1.63203 87.5535 1.63203C87.4479 1.63203 87.3615 1.65363 87.3615 1.68003C87.3615 1.70643 87.2751 1.72803 87.1695 1.72803C87.0639 1.72803 86.9775 1.74963 86.9775 1.77603C86.9775 1.80243 86.8911 1.82403 86.7855 1.82403C86.6799 1.82403 86.5935 1.84563 86.5935 1.87203C86.5935 1.89843 86.5071 1.92003 86.4015 1.92003C86.2959 1.92003 86.2095 1.94163 86.2095 1.96803C86.2095 1.99443 86.1323 2.01603 86.0381 2.01603C85.7675 2.01603 85.7295 2.08967 85.7295 2.61264C85.7295 2.88691 85.7101 3.07205 85.6815 3.07205C85.6505 3.07205 85.6335 3.63208 85.6335 4.65608V6.24011H84.7695H83.9054V7.77613V9.31216H84.7695H85.6335V14.9763C85.6335 18.7203 85.6497 20.6404 85.6815 20.6404C85.7079 20.6404 85.7295 20.7268 85.7295 20.8324C85.7295 20.938 85.7511 21.0244 85.7775 21.0244C85.8039 21.0244 85.8255 21.1108 85.8255 21.2164C85.8255 21.322 85.8471 21.4084 85.8735 21.4084C85.8999 21.4084 85.9215 21.4516 85.9215 21.5044C85.9215 21.5572 85.9431 21.6004 85.9695 21.6004C85.9959 21.6004 86.0175 21.6604 86.0175 21.7338C86.0175 21.8121 86.0571 21.8957 86.1135 21.9364C86.1663 21.9744 86.2095 22.0392 86.2095 22.0804C86.2095 22.1215 86.2527 22.1863 86.3055 22.2244C86.3583 22.2624 86.4015 22.3217 86.4015 22.356C86.4015 22.4323 86.9061 22.9444 86.9812 22.9444C87.0108 22.9444 87.0955 23.0092 87.1695 23.0884C87.2435 23.1676 87.3386 23.2324 87.3807 23.2324C87.423 23.2324 87.4575 23.254 87.4575 23.2804C87.4575 23.3068 87.5007 23.3284 87.5535 23.3284C87.6063 23.3284 87.6495 23.35 87.6495 23.3764C87.6495 23.4028 87.6927 23.4244 87.7455 23.4244C87.7983 23.4244 87.8415 23.446 87.8415 23.4724C87.8415 23.4988 87.8847 23.5204 87.9375 23.5204C87.9903 23.5204 88.0335 23.542 88.0335 23.5684C88.0335 23.5948 88.0767 23.6164 88.1295 23.6164C88.1823 23.6164 88.2255 23.638 88.2255 23.6644C88.2255 23.6908 88.2903 23.7124 88.3695 23.7124C88.4487 23.7124 88.5135 23.734 88.5135 23.7604C88.5135 23.7868 88.5999 23.8084 88.7055 23.8084C88.8111 23.8084 88.8975 23.83 88.8975 23.8564C88.8975 23.8828 88.9839 23.9044 89.0895 23.9044C89.1951 23.9044 89.2815 23.926 89.2815 23.9524C89.2815 23.9804 89.4415 24.0004 89.6655 24.0004C89.8896 24.0004 90.0496 24.0204 90.0496 24.0484C90.0496 24.0779 90.2896 24.0964 90.6736 24.0964C91.0576 24.0964 91.2976 24.0779 91.2976 24.0484C91.2976 24.0204 91.4576 24.0004 91.6816 24.0004C91.9056 24.0004 92.0656 23.9804 92.0656 23.9524C92.0656 23.926 92.1736 23.9044 92.3056 23.9044C92.4376 23.9044 92.5456 23.8828 92.5456 23.8564C92.5456 23.83 92.632 23.8084 92.7376 23.8084C92.8432 23.8084 92.9296 23.7868 92.9296 23.7604C92.9296 23.734 93.016 23.7124 93.1216 23.7124C93.2272 23.7124 93.3136 23.6908 93.3136 23.6644C93.3136 23.638 93.3784 23.6164 93.4576 23.6164C93.5368 23.6164 93.6016 23.5948 93.6016 23.5684C93.6016 23.542 93.6664 23.5204 93.7456 23.5204C93.8248 23.5204 93.8896 23.4988 93.8896 23.4724C93.8896 23.446 93.9328 23.4244 93.9856 23.4244C94.0384 23.4244 94.0816 23.4028 94.0816 23.3764C94.0816 23.35 94.1464 23.3284 94.2256 23.3284C94.3376 23.3284 94.3696 23.3071 94.3696 23.2324C94.3696 23.1796 94.348 23.1364 94.3216 23.1364C94.2952 23.1364 94.2736 23.05 94.2736 22.9444C94.2736 22.8388 94.252 22.7524 94.2256 22.7524C94.1992 22.7524 94.1776 22.6444 94.1776 22.5124C94.1776 22.3804 94.156 22.2724 94.1296 22.2724C94.1032 22.2724 94.0816 22.1644 94.0816 22.0324C94.0816 21.9004 94.06 21.7924 94.0336 21.7924C94.0072 21.7924 93.9856 21.706 93.9856 21.6004C93.9856 21.4948 93.964 21.4084 93.9376 21.4084C93.9112 21.4084 93.8896 21.3004 93.8896 21.1684C93.8896 21.0364 93.868 20.9284 93.8416 20.9284C93.8152 20.9284 93.7936 20.842 93.7936 20.7364C93.7936 20.6308 93.772 20.5444 93.7456 20.5444C93.7192 20.5444 93.6976 20.566 93.6976 20.5924C93.6976 20.6188 93.6112 20.6404 93.5056 20.6404C93.4 20.6404 93.3136 20.662 93.3136 20.6884C93.3136 20.7148 93.2272 20.7364 93.1216 20.7364C93.016 20.7364 92.9296 20.758 92.9296 20.7844C92.9296 20.8108 92.8216 20.8324 92.6896 20.8324C92.5576 20.8324 92.4496 20.854 92.4496 20.8804C92.4496 20.9083 92.2896 20.9284 92.0656 20.9284C91.8416 20.9284 91.6816 20.9083 91.6816 20.8804C91.6816 20.854 91.5736 20.8324 91.4416 20.8324C91.3096 20.8324 91.2016 20.8108 91.2016 20.7844C91.2016 20.758 91.1471 20.7364 91.0805 20.7364C90.9448 20.7364 90.4336 20.2631 90.4336 20.1374C90.4336 20.0972 90.412 20.0643 90.3856 20.0643C90.3592 20.0643 90.3376 19.9779 90.3376 19.8723C90.3376 19.7667 90.316 19.6803 90.2896 19.6803C90.2629 19.6803 90.2416 19.5523 90.2416 19.3923C90.2416 19.2323 90.2202 19.1043 90.1936 19.1043C90.1619 19.1043 90.1456 17.4403 90.1456 14.2082V9.31216H91.6336C93.0896 9.31216 93.1216 9.3101 93.1216 9.21616C93.1216 9.16336 93.1432 9.12016 93.1696 9.12016C93.196 9.12016 93.2176 9.05536 93.2176 8.97616C93.2176 8.89695 93.2392 8.83215 93.2656 8.83215C93.292 8.83215 93.3136 8.78895 93.3136 8.73615C93.3136 8.68335 93.3352 8.64015 93.3616 8.64015C93.388 8.64015 93.4096 8.57535 93.4096 8.49615C93.4096 8.41695 93.4312 8.35214 93.4576 8.35214C93.484 8.35214 93.5056 8.28734 93.5056 8.20814C93.5056 8.12894 93.5272 8.06414 93.5536 8.06414C93.58 8.06414 93.6016 7.99934 93.6016 7.92014C93.6016 7.84094 93.6232 7.77613 93.6496 7.77613C93.676 7.77613 93.6976 7.73293 93.6976 7.68013C93.6976 7.62733 93.7192 7.58413 93.7456 7.58413C93.772 7.58413 93.7936 7.51933 93.7936 7.44013C93.7936 7.36093 93.8152 7.29613 93.8416 7.29613C93.868 7.29613 93.8896 7.23133 93.8896 7.15212C93.8896 7.07292 93.9112 7.00812 93.9376 7.00812C93.964 7.00812 93.9856 6.96492 93.9856 6.91212C93.9856 6.85932 94.0072 6.81612 94.0336 6.81612C94.06 6.81612 94.0816 6.75132 94.0816 6.67212C94.0816 6.59291 94.1032 6.52811 94.1296 6.52811C94.156 6.52811 94.1776 6.46331 94.1776 6.38411V6.24011H92.1616H90.1456V5.23209C90.1456 4.5921 90.1631 4.22407 90.1936 4.22407C90.2239 4.22407 90.2416 3.88807 90.2416 3.31206C90.2416 2.73605 90.2592 2.40004 90.2896 2.40004C90.3189 2.40004 90.3376 2.17602 90.3376 1.82403C90.3376 1.47204 90.3562 1.24802 90.3856 1.24802C90.412 1.24802 90.4336 1.18322 90.4336 1.10402C90.4336 0.968033 90.4229 0.960017 90.2416 0.960017C90.136 0.960017 90.0496 0.981617 90.0496 1.00802ZM72.9613 5.9041C72.9613 5.93079 72.8332 5.9521 72.6733 5.9521C72.5133 5.9521 72.3852 5.97342 72.3852 6.0001C72.3852 6.0265 72.2988 6.0481 72.1932 6.0481C72.0876 6.0481 72.0012 6.06971 72.0012 6.09611C72.0012 6.12251 71.9364 6.14411 71.8572 6.14411C71.778 6.14411 71.7132 6.16571 71.7132 6.19211C71.7132 6.21851 71.6484 6.24011 71.5692 6.24011C71.49 6.24011 71.4252 6.26171 71.4252 6.28811C71.4252 6.31451 71.3604 6.33611 71.2812 6.33611C71.202 6.33611 71.1372 6.35771 71.1372 6.38411C71.1372 6.41051 71.094 6.43211 71.0412 6.43211C70.9884 6.43211 70.9452 6.45371 70.9452 6.48011C70.9452 6.50651 70.902 6.52811 70.8492 6.52811C70.7964 6.52811 70.7532 6.54971 70.7532 6.57611C70.7532 6.60251 70.71 6.62411 70.6572 6.62411C70.6044 6.62411 70.5612 6.64572 70.5612 6.67212C70.5612 6.69852 70.518 6.72012 70.4652 6.72012C70.4124 6.72012 70.3692 6.74172 70.3692 6.76812C70.3692 6.79452 70.3308 6.81612 70.2838 6.81612C70.2368 6.81612 70.1673 6.85932 70.1292 6.91212C70.0911 6.96492 70.0307 7.00812 69.9949 7.00812C69.959 7.00812 69.8467 7.09452 69.7452 7.20012C69.6437 7.30573 69.5372 7.39213 69.5084 7.39213C69.4395 7.39213 68.4492 8.38335 68.4492 8.45232C68.4492 8.48165 68.3844 8.56618 68.3052 8.64015C68.226 8.71412 68.1612 8.80446 68.1612 8.84079C68.1612 8.87718 68.118 8.93809 68.0652 8.97616C68.0124 9.01422 67.9692 9.07902 67.9692 9.12016C67.9692 9.16129 67.926 9.2261 67.8732 9.26416C67.8204 9.30223 67.7772 9.37178 67.7772 9.41877C67.7772 9.46572 67.7556 9.50416 67.7292 9.50416C67.7028 9.50416 67.6812 9.54261 67.6812 9.58956C67.6812 9.63655 67.638 9.7061 67.5852 9.74417C67.5324 9.78223 67.4892 9.85179 67.4892 9.89878C67.4892 9.94572 67.4676 9.98417 67.4412 9.98417C67.4148 9.98417 67.3932 10.049 67.3932 10.1282C67.3932 10.2074 67.3716 10.2722 67.3452 10.2722C67.3188 10.2722 67.2972 10.3154 67.2972 10.3682C67.2972 10.421 67.2756 10.4642 67.2492 10.4642C67.2228 10.4642 67.2012 10.529 67.2012 10.6082C67.2012 10.6874 67.1796 10.7522 67.1532 10.7522C67.1268 10.7522 67.1052 10.7954 67.1052 10.8482C67.1052 10.901 67.0836 10.9442 67.0572 10.9442C67.0308 10.9442 67.0092 11.0306 67.0092 11.1362C67.0092 11.2418 66.9876 11.3282 66.9612 11.3282C66.9348 11.3282 66.9132 11.393 66.9132 11.4722C66.9132 11.5514 66.8916 11.6162 66.8652 11.6162C66.8388 11.6162 66.8172 11.7242 66.8172 11.8562C66.8172 11.9882 66.7956 12.0962 66.7691 12.0962C66.7428 12.0962 66.7212 12.2042 66.7212 12.3362C66.7212 12.4682 66.6995 12.5762 66.6731 12.5762C66.6452 12.5762 66.6251 12.7362 66.6251 12.9602C66.6251 13.1842 66.6051 13.3442 66.5771 13.3442C66.5461 13.3442 66.5291 13.9043 66.5291 14.9283C66.5291 15.9523 66.5461 16.5123 66.5771 16.5123C66.6046 16.5123 66.6251 16.6563 66.6251 16.8483C66.6251 17.0403 66.6457 17.1843 66.6731 17.1843C66.6995 17.1843 66.7212 17.2923 66.7212 17.4243C66.7212 17.5563 66.7428 17.6643 66.7691 17.6643C66.7956 17.6643 66.8172 17.7507 66.8172 17.8563C66.8172 17.9619 66.8388 18.0483 66.8652 18.0483C66.8916 18.0483 66.9132 18.1347 66.9132 18.2403C66.9132 18.3459 66.9348 18.4323 66.9612 18.4323C66.9876 18.4323 67.0092 18.4971 67.0092 18.5763C67.0092 18.6555 67.0308 18.7203 67.0572 18.7203C67.0836 18.7203 67.1052 18.7851 67.1052 18.8643C67.1052 18.9435 67.1268 19.0083 67.1532 19.0083C67.1796 19.0083 67.2012 19.0731 67.2012 19.1523C67.2012 19.2315 67.2228 19.2963 67.2492 19.2963C67.2756 19.2963 67.2972 19.3395 67.2972 19.3923C67.2972 19.4451 67.3188 19.4883 67.3452 19.4883C67.3716 19.4883 67.3932 19.5315 67.3932 19.5843C67.3932 19.6371 67.4148 19.6803 67.4412 19.6803C67.4676 19.6803 67.4892 19.7235 67.4892 19.7763C67.4892 19.8291 67.5108 19.8723 67.5372 19.8723C67.5636 19.8723 67.5852 19.9155 67.5852 19.9683C67.5852 20.0211 67.6068 20.0643 67.6332 20.0643C67.6596 20.0643 67.6812 20.1075 67.6812 20.1603C67.6812 20.2132 67.7028 20.2564 67.7292 20.2564C67.7556 20.2564 67.7772 20.2948 67.7772 20.3417C67.7772 20.3887 67.8204 20.4583 67.8732 20.4964C67.926 20.5344 67.9692 20.5992 67.9692 20.6404C67.9692 20.6815 68.0124 20.7463 68.0652 20.7844C68.118 20.8224 68.1612 20.8872 68.1612 20.9284C68.1612 20.9695 68.2044 21.0343 68.2572 21.0724C68.31 21.1104 68.3532 21.1694 68.3532 21.2034C68.3532 21.2841 69.6294 22.5604 69.7102 22.5604C69.7442 22.5604 69.8031 22.6036 69.8412 22.6564C69.8793 22.7092 69.9441 22.7524 69.9852 22.7524C70.0263 22.7524 70.0911 22.7956 70.1292 22.8484C70.1673 22.9012 70.2321 22.9444 70.2732 22.9444C70.3143 22.9444 70.3792 22.9876 70.4172 23.0404C70.4553 23.0932 70.5248 23.1364 70.5718 23.1364C70.6188 23.1364 70.6572 23.158 70.6572 23.1844C70.6572 23.2108 70.7004 23.2324 70.7532 23.2324C70.806 23.2324 70.8492 23.254 70.8492 23.2804C70.8492 23.3068 70.8924 23.3284 70.9452 23.3284C70.998 23.3284 71.0412 23.35 71.0412 23.3764C71.0412 23.4028 71.106 23.4244 71.1852 23.4244C71.2644 23.4244 71.3292 23.446 71.3292 23.4724C71.3292 23.4988 71.3724 23.5204 71.4252 23.5204C71.478 23.5204 71.5212 23.542 71.5212 23.5684C71.5212 23.5948 71.586 23.6164 71.6652 23.6164C71.7444 23.6164 71.8092 23.638 71.8092 23.6644C71.8092 23.6908 71.874 23.7124 71.9532 23.7124C72.0324 23.7124 72.0972 23.734 72.0972 23.7604C72.0972 23.7868 72.162 23.8084 72.2412 23.8084C72.3204 23.8084 72.3852 23.83 72.3852 23.8564C72.3852 23.8828 72.4932 23.9044 72.6253 23.9044C72.7573 23.9044 72.8653 23.926 72.8653 23.9524C72.8653 23.9788 72.9733 24.0004 73.1053 24.0004C73.2373 24.0004 73.3453 24.022 73.3453 24.0484C73.3453 24.0793 73.8413 24.0964 74.7373 24.0964C75.6333 24.0964 76.1293 24.0793 76.1293 24.0484C76.1293 24.021 76.2733 24.0004 76.4653 24.0004C76.6573 24.0004 76.8013 23.9798 76.8013 23.9524C76.8013 23.926 76.8877 23.9044 76.9933 23.9044C77.0989 23.9044 77.1853 23.8828 77.1853 23.8564C77.1853 23.83 77.2717 23.8084 77.3773 23.8084C77.4829 23.8084 77.5693 23.7868 77.5693 23.7604C77.5693 23.734 77.6341 23.7124 77.7133 23.7124C77.7925 23.7124 77.8573 23.6908 77.8573 23.6644C77.8573 23.638 77.9221 23.6164 78.0013 23.6164C78.0805 23.6164 78.1453 23.5948 78.1453 23.5684C78.1453 23.542 78.2102 23.5204 78.2894 23.5204C78.3686 23.5204 78.4333 23.4988 78.4333 23.4724C78.4333 23.446 78.4766 23.4244 78.5294 23.4244C78.5822 23.4244 78.6254 23.4028 78.6254 23.3764C78.6254 23.35 78.6686 23.3284 78.7214 23.3284C78.7742 23.3284 78.8174 23.3068 78.8174 23.2804C78.8174 23.254 78.8822 23.2324 78.9614 23.2324C79.0406 23.2324 79.1054 23.2108 79.1054 23.1844C79.1054 23.158 79.1438 23.1364 79.1908 23.1364C79.2378 23.1364 79.3073 23.0932 79.3454 23.0404C79.3834 22.9876 79.453 22.9444 79.5 22.9444C79.5469 22.9444 79.5854 22.9228 79.5854 22.8964C79.5854 22.87 79.6286 22.8484 79.6814 22.8484C79.7342 22.8484 79.7774 22.8268 79.7774 22.8004C79.7774 22.774 79.8158 22.7524 79.8628 22.7524C79.9098 22.7524 79.9793 22.7092 80.0174 22.6564C80.0554 22.6036 80.1202 22.5604 80.1614 22.5604C80.2025 22.5604 80.2673 22.5172 80.3054 22.4644C80.3435 22.4116 80.4082 22.3684 80.4494 22.3684C80.4905 22.3684 80.5553 22.3252 80.5934 22.2724C80.6315 22.2196 80.6924 22.1764 80.7288 22.1764C80.7651 22.1764 80.8554 22.1116 80.9294 22.0324C81.0034 21.9532 81.0892 21.8884 81.1201 21.8884C81.1964 21.8884 81.3134 21.7661 81.3134 21.6864C81.3134 21.6507 81.2702 21.5904 81.2174 21.5524C81.1646 21.5143 81.1214 21.4495 81.1214 21.4084C81.1214 21.3672 81.0782 21.3024 81.0254 21.2644C80.9726 21.2263 80.9294 21.1567 80.9294 21.1098C80.9294 21.0628 80.9078 21.0244 80.8814 21.0244C80.855 21.0244 80.8334 20.9859 80.8334 20.939C80.8334 20.892 80.7902 20.8224 80.7374 20.7844C80.6846 20.7463 80.6414 20.6815 80.6414 20.6404C80.6414 20.5992 80.5982 20.5344 80.5454 20.4964C80.4926 20.4583 80.4494 20.3935 80.4494 20.3524C80.4494 20.3112 80.4062 20.2464 80.3534 20.2083C80.3006 20.1703 80.2574 20.1055 80.2574 20.0643C80.2574 20.0232 80.2142 19.9584 80.1614 19.9203C80.1086 19.8823 80.0654 19.8175 80.0654 19.7763C80.0654 19.7352 80.0222 19.6704 79.9694 19.6323C79.9166 19.5943 79.8734 19.5295 79.8734 19.4883C79.8734 19.4472 79.8302 19.3824 79.7774 19.3443C79.7246 19.3063 79.6814 19.246 79.6814 19.2103C79.6814 19.1747 79.6482 19.1122 79.6076 19.0716C79.5411 19.0052 79.5249 19.008 79.4459 19.0991C79.3976 19.1548 79.3315 19.2003 79.299 19.2003C79.2665 19.2003 79.1793 19.2651 79.1054 19.3443C79.0314 19.4235 78.9411 19.4883 78.9047 19.4883C78.8683 19.4883 78.8074 19.5315 78.7694 19.5843C78.7313 19.6371 78.6617 19.6803 78.6147 19.6803C78.5678 19.6803 78.5294 19.7019 78.5294 19.7283C78.5294 19.7547 78.4909 19.7763 78.444 19.7763C78.397 19.7763 78.3274 19.8195 78.2894 19.8723C78.2513 19.9251 78.1817 19.9683 78.1347 19.9683C78.0878 19.9683 78.0493 19.9899 78.0493 20.0163C78.0493 20.0427 78.0061 20.0643 77.9533 20.0643C77.9005 20.0643 77.8573 20.0859 77.8573 20.1123C77.8573 20.1387 77.8141 20.1603 77.7613 20.1603C77.7085 20.1603 77.6653 20.1819 77.6653 20.2083C77.6653 20.2348 77.6005 20.2564 77.5213 20.2564C77.4421 20.2564 77.3773 20.278 77.3773 20.3044C77.3773 20.3308 77.3125 20.3524 77.2333 20.3524C77.1541 20.3524 77.0893 20.374 77.0893 20.4004C77.0893 20.4268 77.0245 20.4484 76.9453 20.4484C76.8661 20.4484 76.8013 20.47 76.8013 20.4964C76.8013 20.5228 76.7149 20.5444 76.6093 20.5444C76.5037 20.5444 76.4173 20.566 76.4173 20.5924C76.4173 20.619 76.2893 20.6404 76.1293 20.6404C75.9693 20.6404 75.8413 20.6617 75.8413 20.6884C75.8413 20.7181 75.5853 20.7364 75.1693 20.7364C74.7533 20.7364 74.4973 20.7181 74.4973 20.6884C74.4973 20.662 74.3893 20.6404 74.2573 20.6404C74.1253 20.6404 74.0173 20.6188 74.0173 20.5924C74.0173 20.566 73.9525 20.5444 73.8733 20.5444C73.7941 20.5444 73.7293 20.5228 73.7293 20.4964C73.7293 20.47 73.6645 20.4484 73.5853 20.4484C73.5061 20.4484 73.4413 20.4268 73.4413 20.4004C73.4413 20.374 73.3981 20.3524 73.3453 20.3524C73.2925 20.3524 73.2493 20.3308 73.2493 20.3044C73.2493 20.278 73.2108 20.2564 73.1639 20.2564C73.1169 20.2564 73.0473 20.2132 73.0093 20.1603C72.9712 20.1075 72.912 20.0643 72.8776 20.0643C72.7963 20.0643 72.2892 19.5573 72.2892 19.476C72.2892 19.4416 72.246 19.3824 72.1932 19.3443C72.1404 19.3063 72.0972 19.2367 72.0972 19.1897C72.0972 19.1428 72.0756 19.1043 72.0492 19.1043C72.0228 19.1043 72.0012 19.0611 72.0012 19.0083C72.0012 18.9555 71.9796 18.9123 71.9532 18.9123C71.9268 18.9123 71.9052 18.8691 71.9052 18.8163C71.9052 18.7635 71.8836 18.7203 71.8572 18.7203C71.8308 18.7203 71.8092 18.6771 71.8092 18.6243C71.8092 18.5715 71.7876 18.5283 71.7612 18.5283C71.7348 18.5283 71.7132 18.4635 71.7132 18.3843C71.7132 18.3051 71.6916 18.2403 71.6652 18.2403C71.6388 18.2403 71.6172 18.1539 71.6172 18.0483C71.6172 17.9427 71.5956 17.8563 71.5692 17.8563C71.5418 17.8563 71.5212 17.7123 71.5212 17.5203C71.5212 17.3283 71.5006 17.1843 71.4732 17.1843C71.3947 17.1843 71.4131 16.4695 71.4938 16.3889C71.5523 16.3303 72.2892 16.3203 76.5339 16.3203H81.5054V14.8323C81.5054 13.8722 81.4884 13.3442 81.4574 13.3442C81.4289 13.3442 81.4094 13.1682 81.4094 12.9122C81.4094 12.6562 81.3899 12.4802 81.3614 12.4802C81.3347 12.4802 81.3134 12.3522 81.3134 12.1922C81.3134 12.0322 81.2921 11.9042 81.2654 11.9042C81.239 11.9042 81.2174 11.7962 81.2174 11.6642C81.2174 11.5322 81.1958 11.4242 81.1694 11.4242C81.143 11.4242 81.1214 11.3378 81.1214 11.2322C81.1214 11.1266 81.0998 11.0402 81.0734 11.0402C81.047 11.0402 81.0254 10.9754 81.0254 10.8962C81.0254 10.817 81.0038 10.7522 80.9774 10.7522C80.951 10.7522 80.9294 10.6874 80.9294 10.6082C80.9294 10.529 80.9078 10.4642 80.8814 10.4642C80.855 10.4642 80.8334 10.3994 80.8334 10.3202C80.8334 10.241 80.8118 10.1762 80.7854 10.1762C80.759 10.1762 80.7374 10.1114 80.7374 10.0322C80.7374 9.95297 80.7158 9.88817 80.6894 9.88817C80.663 9.88817 80.6414 9.84497 80.6414 9.79217C80.6414 9.73937 80.6198 9.69617 80.5934 9.69617C80.567 9.69617 80.5454 9.65297 80.5454 9.60017C80.5454 9.54737 80.5238 9.50416 80.4974 9.50416C80.471 9.50416 80.4494 9.46096 80.4494 9.40816C80.4494 9.35536 80.4278 9.31216 80.4014 9.31216C80.375 9.31216 80.3534 9.26896 80.3534 9.21616C80.3534 9.16336 80.3318 9.12016 80.3054 9.12016C80.279 9.12016 80.2574 9.08171 80.2574 9.03477C80.2574 8.98777 80.2142 8.91822 80.1614 8.88015C80.1086 8.84209 80.0654 8.77729 80.0654 8.73615C80.0654 8.69501 80.0222 8.63021 79.9694 8.59215C79.9166 8.55408 79.8734 8.49365 79.8734 8.45779C79.8734 8.42194 79.787 8.30962 79.6814 8.20814C79.5758 8.10667 79.4894 7.99996 79.4894 7.97102C79.4894 7.90175 78.8828 7.29613 78.8135 7.29613C78.784 7.29613 78.6993 7.23133 78.6254 7.15212C78.5514 7.07292 78.4563 7.00812 78.4141 7.00812C78.3719 7.00812 78.3373 6.98652 78.3373 6.96012C78.3373 6.93372 78.2989 6.91212 78.252 6.91212C78.205 6.91212 78.1354 6.86892 78.0973 6.81612C78.0593 6.76332 77.9897 6.72012 77.9427 6.72012C77.8958 6.72012 77.8573 6.69852 77.8573 6.67212C77.8573 6.64572 77.8141 6.62411 77.7613 6.62411C77.7085 6.62411 77.6653 6.60251 77.6653 6.57611C77.6653 6.54971 77.6221 6.52811 77.5693 6.52811C77.5165 6.52811 77.4733 6.50651 77.4733 6.48011C77.4733 6.45371 77.4085 6.43211 77.3293 6.43211C77.2501 6.43211 77.1853 6.41051 77.1853 6.38411C77.1853 6.35771 77.1421 6.33611 77.0893 6.33611C77.0365 6.33611 76.9933 6.31451 76.9933 6.28811C76.9933 6.26171 76.9285 6.24011 76.8493 6.24011C76.7701 6.24011 76.7053 6.21851 76.7053 6.19211C76.7053 6.16571 76.6189 6.14411 76.5133 6.14411C76.4077 6.14411 76.3213 6.12251 76.3213 6.09611C76.3213 6.06971 76.2349 6.0481 76.1293 6.0481C76.0237 6.0481 75.9373 6.0265 75.9373 6.0001C75.9373 5.97342 75.8093 5.9521 75.6493 5.9521C75.4893 5.9521 75.3613 5.93079 75.3613 5.9041C75.3613 5.87338 74.9293 5.8561 74.1613 5.8561C73.3933 5.8561 72.9613 5.87338 72.9613 5.9041ZM51.9369 7.05612C51.9369 7.08252 51.9153 7.10412 51.8889 7.10412C51.8625 7.10412 51.8409 7.08252 51.8409 7.05612C51.8409 7.02972 51.8625 7.00812 51.8889 7.00812C51.9153 7.00812 51.9369 7.02972 51.9369 7.05612ZM74.9773 9.26416C74.9773 9.29056 75.0421 9.31216 75.1213 9.31216C75.2005 9.31216 75.2653 9.33376 75.2653 9.36016C75.2653 9.38656 75.3085 9.40816 75.3613 9.40816C75.4141 9.40816 75.4573 9.42976 75.4573 9.45616C75.4573 9.48256 75.4901 9.50416 75.5302 9.50416C75.6189 9.50416 76.2253 10.1013 76.2253 10.1887C76.2253 10.2229 76.2685 10.2821 76.3213 10.3202C76.3741 10.3582 76.4173 10.4278 76.4173 10.4748C76.4173 10.5217 76.4389 10.5602 76.4653 10.5602C76.4917 10.5602 76.5133 10.625 76.5133 10.7042C76.5133 10.7834 76.5349 10.8482 76.5613 10.8482C76.5877 10.8482 76.6093 10.913 76.6093 10.9922C76.6093 11.0714 76.6309 11.1362 76.6573 11.1362C76.684 11.1362 76.7053 11.2642 76.7053 11.4242C76.7053 11.5842 76.7266 11.7122 76.7533 11.7122C76.783 11.7122 76.8013 11.9682 76.8013 12.3842V13.0562H74.1613H71.5212V12.5282C71.5212 12.2082 71.5401 12.0002 71.5692 12.0002C71.5956 12.0002 71.6172 11.8922 71.6172 11.7602C71.6172 11.6282 71.6388 11.5202 71.6652 11.5202C71.6916 11.5202 71.7132 11.4338 71.7132 11.3282C71.7132 11.2226 71.7348 11.1362 71.7612 11.1362C71.7876 11.1362 71.8092 11.0714 71.8092 10.9922C71.8092 10.913 71.8308 10.8482 71.8572 10.8482C71.8836 10.8482 71.9052 10.805 71.9052 10.7522C71.9052 10.6994 71.9268 10.6562 71.9532 10.6562C71.9796 10.6562 72.0012 10.613 72.0012 10.5602C72.0012 10.5074 72.0228 10.4642 72.0492 10.4642C72.0756 10.4642 72.0972 10.4257 72.0972 10.3788C72.0972 10.3318 72.1404 10.2622 72.1932 10.2242C72.246 10.1861 72.2892 10.1268 72.2892 10.0923C72.2892 10.0049 72.7027 9.60017 72.792 9.60017C72.8323 9.60017 72.8653 9.57857 72.8653 9.55217C72.8653 9.52577 72.9085 9.50416 72.9613 9.50416C73.0141 9.50416 73.0573 9.48256 73.0573 9.45616C73.0573 9.42976 73.1005 9.40816 73.1533 9.40816C73.2061 9.40816 73.2493 9.38656 73.2493 9.36016C73.2493 9.33376 73.3141 9.31216 73.3933 9.31216C73.4725 9.31216 73.5373 9.29056 73.5373 9.26416C73.5373 9.2343 73.8093 9.21616 74.2573 9.21616C74.7053 9.21616 74.9773 9.2343 74.9773 9.26416Z" fill="#D7DDF1"/>
</svg>
