<?xml version="1.0" encoding="utf-8"?>
<!-- Generator: Adobe Illustrator 25.0.0, SVG Export Plug-In . SVG Version: 6.00 Build 0)  -->
<svg version="1.1" id="Layer_1" xmlns="http://www.w3.org/2000/svg" xmlns:xlink="http://www.w3.org/1999/xlink" x="0px" y="0px"
	 viewBox="0 0 92 22" style="enable-background:new 0 0 92 22;" xml:space="preserve">
<style type="text/css">
	.st0{fill:#D7DDF1;}
	.st1{fill-rule:evenodd;clip-rule:evenodd;fill:#D7DDF1;}
</style>
<g>
	<path class="st0" d="M23.6,21.9c-1.6-0.2-3-0.8-4-1.8c-0.9-0.8-1.5-1.7-1.9-2.9c-0.7-1.9-0.7-4.3,0-6.2c0.6-1.8,2.1-3.4,3.8-4.2
		c2.4-1.1,5.9-1.1,8.1,0.2c2,1.1,3.3,3.1,3.6,5.8c0.1,0.8,0,2.5-0.1,3.3c-0.7,2.9-2.6,5-5.5,5.7c-0.3,0.1-0.8,0.2-1.1,0.2
		C25.9,22,24.1,22,23.6,21.9z M27,21.7c1.2-0.3,2.1-0.6,2.9-1.2c2-1.4,3.1-3.5,3.2-6.2s-0.8-4.9-2.4-6.4c-1.4-1.2-3.1-1.8-5.3-1.8
		c-2.3,0-4.2,0.7-5.7,2c-1.6,1.4-2.4,3.5-2.4,5.8c0,2.5,0.7,4.5,2.2,5.8c0.8,0.8,1.6,1.2,2.7,1.6c0.4,0.1,0.7,0.2,1.7,0.4
		c0.1,0,0.7,0,1.3,0C26.1,21.8,26.6,21.8,27,21.7z M24.5,20.9c-1.1-0.5-1.8-1.8-2.2-4c-0.2-1.4-0.3-4.4,0-5.9c0.3-2.1,1-3.3,2-3.8
		C25,6.9,26,7.1,26.6,7.6C28,8.8,28.7,12,28.4,16c-0.2,2.8-0.9,4.4-2.1,4.9C25.7,21,24.9,21,24.5,20.9z M25.9,20.8
		c0.5-0.1,1-0.6,1.3-1.2c0.6-1.1,0.9-2.8,0.9-5.4c0-3.3-0.5-5.4-1.7-6.4C26,7.3,25.6,7.2,25,7.2c-1.4,0-2.3,1.3-2.6,4
		c-0.2,1.2-0.2,4.1,0,5.2C22.9,19.7,24.1,21.3,25.9,20.8z M51.7,21.9c-0.6-0.1-2.6-0.4-3.3-0.5l-0.5-0.1v-2.4
		c0.1-5.7,0.1-8.8,0-11.8s-0.1-3.3-0.2-3.7c-0.2-0.6-0.4-0.9-0.7-1.1c-0.1-0.1-0.4-0.2-0.6-0.2c-0.8-0.2-0.8-0.1-0.8-0.5
		c0-0.2,0-0.3,0.1-0.4s6.8-1.2,7-1.2c0.1,0,0.1,0.8,0,3.5c0,1.9,0,3.5,0,3.5s0.3-0.1,0.5-0.2c0.8-0.4,1.6-0.5,2.7-0.6
		c0.8,0,1.1,0,1.5,0.1c2.5,0.5,4.4,2.4,5,5.1c0.2,0.7,0.2,2.5,0.1,3.4c-0.1,0.8-0.4,1.8-0.7,2.5c-1.1,2.5-3.4,4.2-6.5,4.6
		C54.8,22,52.6,22,51.7,21.9z M55.3,21.8c2-0.3,3.4-0.9,4.7-2c1.8-1.6,2.6-3.9,2.5-6.7c-0.1-1.4-0.3-2.4-1-3.6
		c-0.9-1.6-2.4-2.7-4.1-3c-1.3-0.2-2.9-0.1-4.2,0.5c-0.3,0.1-0.6,0.2-0.7,0.2c-0.1,0-0.1-0.4-0.1-3.5V0.2h-0.3
		c-0.1,0-1.6,0.3-3.3,0.6C47.4,1,46,1.3,45.9,1.3s-0.1,0.1-0.1,0.3s0,0.2,0.3,0.3c0.8,0.2,1,0.2,1.3,0.5c0.4,0.4,0.5,0.8,0.7,1.8
		c0.1,0.8,0.1,14,0,15.9L48,21.2l0.7,0.1C51.2,21.8,53.8,22,55.3,21.8z M53,20.9c-0.1,0-0.3-0.1-0.3-0.1c-0.1-0.1-0.2-8.3-0.2-10.7
		l0.1-1.9L53.1,8c0.8-0.2,1.6-0.2,2.2,0.1c1.2,0.5,2,1.8,2.4,3.9c0.1,0.7,0.1,3.1,0,3.9c-0.3,1.8-0.8,3.1-1.6,4
		c-0.4,0.4-1,0.8-1.5,1C54.3,20.9,53.6,20.9,53,20.9z M54.3,20.7c0.5-0.1,0.8-0.3,1.2-0.6c1-0.8,1.7-2.5,2-4.6
		c0.1-0.9,0.1-2.8,0-3.5c-0.4-1.9-1.1-3.2-2.3-3.7C54.8,8,54.7,8,54.2,8c-0.4,0-0.7,0-1,0.1l-0.4,0.1v2.2c0,2.8,0.1,9.9,0.1,10.1
		c0.1,0.1,0.1,0.2,0.4,0.2C53.8,20.8,53.9,20.8,54.3,20.7z M70.5,21.9c-3.2-0.5-5.6-2.7-6.3-5.8C64,15.7,64,15.3,64,14.4
		c0-1.4,0.1-2.2,0.5-3.3c0.7-2,2.1-3.5,4-4.4c2-0.9,4.8-1,6.6-0.1c2,0.9,3.2,2.8,3.5,5.5c0,0.4,0.1,0.8,0.1,1v0.3h-4.8h-4.8v0.5
		c0,1.2,0.3,2.3,0.9,3.2c0.2,0.4,0.4,0.7,0.9,1.1c1,1,2.1,1.4,3.7,1.4c1.2,0,2-0.2,2.9-0.8c0.3-0.1,0.5-0.3,0.6-0.3s0.5,0.4,0.5,0.5
		c0,0.3-0.9,1.1-1.9,1.7c-0.7,0.5-1.9,0.9-3,1.1C72.8,22,71.2,22,70.5,21.9z M73.4,21.8c1.5-0.2,3-0.9,4.1-1.8
		c0.6-0.5,0.8-0.8,0.7-0.9c-0.2-0.3-0.2-0.3-0.8,0c-0.9,0.5-1.3,0.6-2.4,0.7c-1.2,0.1-2.3-0.1-3.4-0.6c-0.7-0.3-1.5-1.1-1.9-1.8
		c-0.6-0.9-0.9-2-1-3.4c0-0.6,0-0.7,0-0.8c0.1,0,2.2-0.1,4.9-0.1h4.8v-0.2c0-0.4-0.1-1.5-0.3-2c-0.5-2.3-1.9-3.9-3.8-4.5
		C73.7,6.3,73,6.2,72,6.2c-2.3,0-4.1,0.7-5.5,2c-1.1,1.1-1.8,2.3-2.2,4c-0.1,0.5-0.1,0.8-0.1,1.9s0,1.4,0.1,1.9
		c0.8,3.2,3,5.3,6.3,5.8C71.3,21.9,72.6,21.9,73.4,21.8z M68.8,12.2c0-0.1,0.1-1.1,0.2-1.7c0.3-1.3,0.8-2.3,1.4-2.9
		c0.3-0.3,0.5-0.4,0.8-0.5c0.1,0,0.4-0.1,0.4-0.1c0.3,0,0.7,0.1,0.9,0.4c0.7,0.6,1.1,1.9,1.2,3.8v0.9H73
		C71.7,12.2,68.8,12.3,68.8,12.2z M72.5,12.1h1.1v-0.7c-0.1-2.6-0.8-4.1-2-4.1s-2.2,1.5-2.6,3.9c-0.1,0.3-0.1,0.7-0.1,0.8v0.2h1.2
		C70.8,12.1,71.9,12.1,72.5,12.1z M83.5,22c-1.2-0.1-3-0.5-3.6-0.7l-0.3-0.1v-1.4c0-0.8,0-1.8-0.1-2.3v-0.9l0.2-0.1
		c0.1,0,0.3-0.1,0.4-0.1h0.3l0.2,0.5c0.9,2,1.9,3.1,3.3,3.4c0.5,0.1,1.5,0.1,1.9,0c1.1-0.3,1.7-1.1,1.7-2.1c0-1.2-0.7-1.8-3.4-2.8
		c-1.7-0.6-2.3-0.9-3-1.6c-0.8-0.7-1.1-1.5-1.2-2.7c-0.1-1.4,0.4-2.5,1.4-3.5s2.4-1.5,4.2-1.7c1.6-0.1,4.1,0.2,5.4,0.7L91,6.8V8
		c0,0.7,0,1.6,0.1,2v0.8L90.8,11c-0.5,0.2-0.5,0.2-0.8-0.5c-0.8-1.9-1.7-2.8-3.1-3.1c-0.9-0.2-1.6,0-2.1,0.5
		c-0.4,0.4-0.6,0.8-0.6,1.4c0,0.7,0.1,1,0.5,1.4c0.5,0.5,1.4,1,3.1,1.7c2.1,0.8,3.1,1.5,3.7,2.5c0.4,0.7,0.5,1.2,0.4,2.2
		c0,0.8-0.1,0.9-0.2,1.4c-0.6,1.7-2,2.8-4.1,3.3C86.9,22,86.7,22,85.3,22C84.5,22,83.7,22,83.5,22z M86.7,21.8
		c2.8-0.4,4.6-1.8,5-3.9c0.2-1,0.1-2.1-0.3-2.9c-0.6-1.1-1.5-1.7-3.8-2.6c-1.7-0.7-2.7-1.2-3.2-1.7C84.1,10.3,84,9.9,84,9.4
		c0-0.8,0.4-1.5,1-1.9c0.6-0.3,1.3-0.4,2.1-0.2c1,0.2,1.7,0.8,2.4,1.8c0.2,0.3,0.6,1.2,0.9,1.8c0,0.1,0.1,0.1,0.3,0
		c0.1,0,0.3-0.1,0.3-0.1s0-0.9,0-1.9V7l-0.2-0.1c-0.4-0.2-1.4-0.4-2.1-0.5c-0.5-0.1-1-0.1-2.2-0.1c-1.5,0-1.6,0-2.2,0.2
		c-1.7,0.4-3,1.3-3.7,2.6c-0.4,0.7-0.5,1.2-0.5,2c0,1.2,0.3,2,1.1,2.7c0.6,0.6,1.5,1.1,2.9,1.6c1.1,0.4,2.3,0.9,2.7,1.3
		c0.3,0.2,0.5,0.4,0.6,0.7c0.2,0.4,0.2,0.4,0.2,1s0,0.6-0.2,1c-0.5,1-1.5,1.5-2.8,1.4c-1.8-0.1-3-1.2-4-3.5
		c-0.3-0.6-0.3-0.6-0.7-0.5l-0.2,0.1V19c0,1.9,0.1,2.1,0.2,2.2c0.3,0.2,2.2,0.6,3.5,0.8C84.3,21.9,85.9,21.9,86.7,21.8z M1,21.6
		c0,0,0-0.2,0-0.4c0-0.5,0-0.5,1-0.7c0.8-0.1,1.1-0.3,1.4-0.7c0.7-0.8,0.8-2.4,0.8-9.1c0-6.2-0.1-7.5-0.8-8.5
		C3.1,1.8,2.6,1.6,1.7,1.5L1,1.4V0.9V0.4h0.2c0.1,0,4.3,0,9.2,0h9v0.2c0,0.1,0.1,1.5,0.1,3v2.8L19,6.5c-0.7,0.2-0.7,0.2-1-0.6
		c-0.8-1.9-1.7-3-2.9-3.5C14.3,2,13.9,2,11.5,2H9.6v0.3C9.5,3,9.4,6.8,9.4,8.6v1.8H10c0.3,0,1,0,1.5-0.1c0.7,0,0.9-0.1,1.2-0.2
		c0.7-0.3,1.2-1,1.5-2.1l0.2-0.6h0.5h0.5V11v3.6h-0.5h-0.5L14.2,14c-0.3-1.1-0.8-1.9-1.5-2.1c-0.3-0.1-1.1-0.2-2.6-0.2H9.4v1.4
		c0,1.5,0.1,3.5,0.2,4.6c0.2,1.5,0.6,2.4,1.3,2.7c0.1,0.1,0.6,0.2,1,0.2c0.4,0.1,0.8,0.1,0.9,0.2c0.2,0.1,0.2,0.9,0,0.9
		C12.7,21.7,1.2,21.6,1,21.6z M12.8,21.1c0-0.2,0-0.3,0-0.3c-0.3,0-1.8-0.3-2-0.4C10,20,9.6,19.1,9.4,17.1c-0.1-1.4-0.2-5.5-0.1-5.5
		c0.1-0.1,2.8,0,3.2,0.1c0.9,0.2,1.6,1,1.9,2.3l0.2,0.6H15h0.4v-3.5V7.6H15c-0.4,0-0.4,0-0.4,0.1c0,0.2-0.2,1-0.5,1.4
		c-0.4,0.7-0.9,1.1-1.5,1.3c-0.2,0-0.9,0.1-1.7,0.1c-1.1,0-1.4,0-1.5,0c-0.1-0.1,0.1-8.1,0.2-8.4V2H12h2.4L15,2.2
		c1.3,0.4,2.2,1.3,3,2.8c0.2,0.3,0.4,0.8,0.5,1.1c0.1,0.3,0.2,0.5,0.2,0.5s0.2,0,0.5-0.1l0.5-0.1v-2c0-1.1,0-2.4-0.1-2.9V0.6h-9.1
		H1.1V1v0.4l0.6,0.1c0.8,0.1,1.1,0.2,1.4,0.4c0.5,0.3,0.8,0.8,1,1.5c0.2,1,0.3,3.6,0.3,8.5c-0.1,5.1-0.1,6.2-0.5,7.3
		c-0.3,0.9-0.8,1.3-1.7,1.4c-0.2,0-0.6,0.1-0.8,0.1l-0.3,0.1v0.3v0.3H7h5.9L12.8,21.1L12.8,21.1z M33.3,21.6c-0.1,0-0.1-0.2-0.1-0.5
		v-0.4h0.2c0.1,0,0.4-0.1,0.6-0.1c0.6-0.1,1-0.4,1.2-1c0.2-0.5,0.2-2.1,0.2-5.4c0-4-0.1-4.9-0.5-5.5c-0.2-0.3-0.4-0.4-1-0.5
		c-0.3-0.1-0.6-0.1-0.7-0.1c-0.1,0-0.1-0.1-0.1-0.4c0-0.3,0-0.3,0.1-0.4C33.5,7.2,40,6,40.2,6h0.2v0.9c0,0.5,0,1.2-0.1,1.6v0.7
		l0.2-0.4c0.8-1.3,1.6-2,2.7-2.5C43.8,6.1,44.2,6,45,6c0.9,0,1.8,0.3,1.8,0.5s-1.6,4.1-1.7,4.1c0,0-0.4-0.1-0.7-0.2
		c-0.7-0.3-1.4-0.5-2-0.5c-0.8,0-1.7,0.3-2,0.6c-0.1,0.1-0.2,0.2-0.2,2.4s0,4.9,0.2,6c0.1,0.9,0.4,1.4,0.9,1.6
		c0.2,0.1,1.3,0.2,1.7,0.2c0,0,0,0.2,0,0.5v0.5h-4.8C35.5,21.6,33.3,21.6,33.3,21.6z M43,21.1v-0.3h-0.5c-1.2-0.1-1.5-0.2-1.8-0.6
		c-0.4-0.6-0.5-1.7-0.5-6.1v-3.5l0.2-0.2c0.2-0.2,0.8-0.5,1.3-0.6c0.9-0.2,2.1,0,3,0.4c0.3,0.1,0.5,0.2,0.5,0.2s1.5-3.7,1.6-3.9
		c0-0.1-0.1-0.1-0.3-0.2c-0.5-0.2-1-0.3-1.6-0.2c-1.6,0.1-3.1,1.1-4.1,2.8c-0.2,0.3-0.4,0.5-0.4,0.5c-0.1,0-0.1-0.3,0-1.7V6h-0.2
		c-0.1,0-1.4,0.3-2.9,0.5c-3.2,0.6-3.7,0.7-3.8,0.7c0,0-0.1,0.1-0.1,0.2c0,0.2,0,0.2,0.7,0.3c1,0.2,1.4,0.6,1.5,1.9
		c0.2,1.7,0.1,8.5-0.1,9.4c-0.1,0.5-0.4,0.9-0.7,1.1c-0.1,0.1-0.5,0.2-0.8,0.2l-0.6,0.1v0.3V21h4.8H43V21.1z"/>
	<path class="st0" d="M12.8,21.1c0-0.2,0-0.3,0-0.3c-0.3,0-1.8-0.3-2-0.4C10,20,9.6,19.1,9.4,17.1c-0.1-1.4-0.2-5.5-0.1-5.5
		c0.1-0.1,2.8,0,3.2,0.1c0.9,0.2,1.6,1,1.9,2.3l0.2,0.6H15h0.4v-3.5V7.6H15c-0.4,0-0.4,0-0.4,0.1c0,0.2-0.2,1-0.5,1.4
		c-0.4,0.7-0.9,1.1-1.5,1.3c-0.2,0-0.9,0.1-1.7,0.1c-1.1,0-1.4,0-1.5,0c-0.1-0.1,0.1-8.1,0.2-8.4V2H12h2.4L15,2.2
		c1.3,0.4,2.2,1.3,3,2.8c0.2,0.3,0.4,0.8,0.5,1.1c0.1,0.3,0.2,0.5,0.2,0.5s0.2,0,0.5-0.1l0.5-0.1v-2c0-1.1,0-2.4-0.1-2.9V0.6h-9.1
		H1.1V1v0.4l0.6,0.1c0.8,0.1,1.1,0.2,1.4,0.4c0.5,0.3,0.8,0.8,1,1.5c0.2,1,0.3,3.6,0.3,8.5c-0.1,5.1-0.1,6.2-0.5,7.3
		c-0.3,0.9-0.8,1.3-1.7,1.4c-0.2,0-0.6,0.1-0.8,0.1l-0.3,0.1v0.3v0.3H7h5.9L12.8,21.1L12.8,21.1z"/>
	<path class="st1" d="M27,21.7c1.2-0.3,2.1-0.6,2.9-1.2c2-1.4,3.1-3.5,3.2-6.2s-0.8-4.9-2.4-6.4c-1.4-1.2-3.1-1.8-5.3-1.8
		c-2.3,0-4.2,0.7-5.7,2c-1.6,1.4-2.4,3.5-2.4,5.8c0,2.5,0.7,4.5,2.2,5.8c0.8,0.8,1.6,1.2,2.7,1.6c0.4,0.1,0.7,0.2,1.7,0.4
		c0.1,0,0.7,0,1.3,0C26.1,21.8,26.6,21.8,27,21.7z M22.3,16.9c0.4,2.2,1.1,3.5,2.2,4c0.4,0.2,1.2,0.2,1.7,0c1.2-0.5,1.9-2.1,2.1-4.9
		c0.3-3.9-0.4-7.2-1.8-8.4c-0.6-0.5-1.6-0.7-2.3-0.4c-1,0.4-1.7,1.7-2,3.8C22,12.4,22,15.5,22.3,16.9z"/>
	<path class="st0" d="M43,21.1v-0.3h-0.5c-1.2-0.1-1.5-0.2-1.8-0.6c-0.4-0.6-0.5-1.7-0.5-6.1v-3.5l0.2-0.2c0.2-0.2,0.8-0.5,1.3-0.6
		c0.9-0.2,2.1,0,3,0.4c0.3,0.1,0.5,0.2,0.5,0.2s1.5-3.7,1.6-3.9c0-0.1-0.1-0.1-0.3-0.2c-0.5-0.2-1-0.3-1.6-0.2
		c-1.6,0.1-3.1,1.1-4.1,2.8c-0.2,0.3-0.4,0.5-0.4,0.5c-0.1,0-0.1-0.3,0-1.7V6h-0.2c-0.1,0-1.4,0.3-2.9,0.5c-3.2,0.6-3.7,0.7-3.8,0.7
		c0,0-0.1,0.1-0.1,0.2c0,0.2,0,0.2,0.7,0.3c1,0.2,1.4,0.6,1.5,1.9c0.2,1.7,0.1,8.5-0.1,9.4c-0.1,0.5-0.4,0.9-0.7,1.1
		c-0.1,0.1-0.5,0.2-0.8,0.2l-0.6,0.1v0.3V21h4.8H43V21.1z"/>
	<path class="st1" d="M55.3,21.8c2-0.3,3.4-0.9,4.7-2c1.8-1.6,2.6-3.9,2.5-6.7c-0.1-1.4-0.3-2.4-1-3.6c-0.9-1.6-2.4-2.7-4.1-3
		c-1.3-0.2-2.9-0.1-4.2,0.5c-0.3,0.1-0.6,0.2-0.7,0.2c-0.1,0-0.1-0.4-0.1-3.5V0.2h-0.3c-0.1,0-1.6,0.3-3.3,0.6
		C47.4,1,46,1.3,45.9,1.3s-0.1,0.1-0.1,0.3s0,0.2,0.3,0.3c0.8,0.2,1,0.2,1.3,0.5c0.4,0.4,0.5,0.8,0.7,1.8c0.1,0.8,0.1,14,0,15.9
		L48,21.2l0.7,0.1C51.2,21.8,53.8,22,55.3,21.8z M52.7,20.8c0,0,0.2,0.1,0.3,0.1c0.6,0.1,1.3,0,1.6,0c0.5-0.1,1.1-0.5,1.5-1
		c0.8-0.9,1.3-2.2,1.6-4c0.1-0.8,0.2-3.2,0-3.9c-0.4-2.1-1.2-3.4-2.4-3.9c-0.6-0.3-1.4-0.3-2.2-0.1l-0.5,0.1L52.5,10
		C52.5,12.4,52.6,20.6,52.7,20.8z"/>
	<path class="st1" d="M73.4,21.8c1.5-0.2,3-0.9,4.1-1.8c0.6-0.5,0.8-0.8,0.7-0.9c-0.2-0.3-0.2-0.3-0.8,0c-0.9,0.5-1.3,0.6-2.4,0.7
		c-1.2,0.1-2.3-0.1-3.4-0.6c-0.7-0.3-1.5-1.1-1.9-1.8c-0.6-0.9-0.9-2-1-3.4c0-0.6,0-0.7,0-0.8c0.1,0,2.2-0.1,4.9-0.1h4.8v-0.2
		c0-0.4-0.1-1.5-0.3-2c-0.5-2.3-1.9-3.9-3.8-4.5C73.7,6.3,73,6.2,72,6.2c-2.3,0-4.1,0.7-5.5,2c-1.1,1.1-1.8,2.3-2.2,4
		c-0.1,0.5-0.1,0.8-0.1,1.9s0,1.4,0.1,1.9c0.8,3.2,3,5.3,6.3,5.8C71.3,21.9,72.6,21.9,73.4,21.8z M69,10.5c-0.1,0.6-0.2,1.6-0.2,1.7
		c0,0.1,3,0,4.3-0.1h0.7v-0.9c-0.1-1.9-0.5-3.2-1.2-3.8c-0.3-0.2-0.7-0.4-1-0.4c-0.1,0-0.3,0-0.5,0.1c-0.3,0.1-0.4,0.2-0.8,0.5
		C69.7,8.2,69.3,9.2,69,10.5z"/>
	<path class="st0" d="M86.7,21.8c2.8-0.4,4.6-1.8,5-3.9c0.2-1,0.1-2.1-0.3-2.9c-0.6-1.1-1.5-1.7-3.8-2.6c-1.7-0.7-2.7-1.2-3.2-1.7
		C84.1,10.3,84,9.9,84,9.4c0-0.8,0.4-1.5,1-1.9c0.6-0.3,1.3-0.4,2.1-0.2c1,0.2,1.7,0.8,2.4,1.8c0.2,0.3,0.6,1.2,0.9,1.8
		c0,0.1,0.1,0.1,0.3,0c0.1,0,0.3-0.1,0.3-0.1s0-0.9,0-1.9V7l-0.2-0.1c-0.4-0.2-1.4-0.4-2.1-0.5c-0.5-0.1-1-0.1-2.2-0.1
		c-1.5,0-1.6,0-2.2,0.2c-1.7,0.4-3,1.3-3.7,2.6c-0.4,0.7-0.5,1.2-0.5,2c0,1.2,0.3,2,1.1,2.7c0.6,0.6,1.5,1.1,2.9,1.6
		c1.1,0.4,2.3,0.9,2.7,1.3c0.3,0.2,0.5,0.4,0.6,0.7c0.2,0.4,0.2,0.4,0.2,1s0,0.6-0.2,1c-0.5,1-1.5,1.5-2.8,1.4c-1.8-0.1-3-1.2-4-3.5
		c-0.3-0.6-0.3-0.6-0.7-0.5l-0.2,0.1V19c0,1.9,0.1,2.1,0.2,2.2c0.3,0.2,2.2,0.6,3.5,0.8C84.3,21.9,85.9,21.9,86.7,21.8z"/>
</g>
</svg>
