<svg xmlns="http://www.w3.org/2000/svg" viewBox="0 0 1111.88 249.9"><defs><style>.cls-1{fill:none;}.cls-2,.cls-6{fill:#fff;}.cls-2{opacity:0.3;}.cls-3{fill:#6cb2ee;}.cls-4{fill:#262626;}.cls-5{fill:#267dff;}.cls-7{fill:#00d085;}.cls-8{fill:#9867ff;}.cls-9{fill:#fbee81;}</style></defs><g id="Layer_2" data-name="Layer 2"><g id="Layer_1-2" data-name="Layer 1"><path class="cls-1" d="M964.43,248.77V233.89h-6.3a93.58,93.58,0,0,1,1.39,14.88Z"/><path class="cls-1" d="M499.31,199.21h0v-1h0a10.92,10.92,0,0,1,21.82,0h0v1h0a10.93,10.93,0,0,1-10.41,10.41v19a29.94,29.94,0,1,0-1,0v-19A10.92,10.92,0,0,1,499.31,199.21Z"/><path class="cls-1" d="M949.55,233.89v14.88h9a92.44,92.44,0,0,0-1.4-14.88Z"/><path class="cls-1" d="M899.49,201.42H887.13a52.21,52.21,0,0,1,12.36,7.26Z"/><path class="cls-1" d="M940.42,248.77h7.78V233.89H937.74a72.88,72.88,0,0,1,1.77,14.88Z"/><path class="cls-1" d="M940.42,232.53h7.78V217.65H933.31v2.91a71,71,0,0,1,4.11,12Z"/><path class="cls-1" d="M932,216.3V201.42H920.89a72.71,72.71,0,0,1,10.36,14.88Z"/><path class="cls-1" d="M933.31,241v7.78h5.2a71.44,71.44,0,0,0-1.8-14.88h-3.4Z"/><path class="cls-1" d="M932,217.65h0v0Z"/><path class="cls-1" d="M917.08,216.3h13a72.2,72.2,0,0,0-10.6-14.88h-2.45Z"/><path class="cls-1" d="M915.73,217.65h-7.31a52.87,52.87,0,0,1,7.31,12.68Z"/><path class="cls-1" d="M925.44,248.77H932V233.89H917.08v.17a51.69,51.69,0,0,1,2,9.35A6.51,6.51,0,0,1,925.44,248.77Z"/><path class="cls-1" d="M936.4,232.53a70,70,0,0,0-3.09-9.41v9.41Z"/><polygon class="cls-1" points="948.2 201.42 941.09 201.42 940.42 201.42 933.32 201.42 933.32 216.3 940.42 216.3 941.09 216.3 948.2 216.3 948.2 201.42"/><path class="cls-1" d="M907.32,216.3h8.41V201.42H900.84v8.37A52.43,52.43,0,0,1,907.32,216.3Z"/><path class="cls-1" d="M917.08,232.53H932V220c-.36-.79-.74-1.57-1.14-2.35H917.08Z"/><rect class="cls-1" x="982.02" y="201.42" width="14.88" height="14.88"/><rect class="cls-1" x="982.02" y="217.65" width="14.88" height="14.88"/><polygon class="cls-1" points="1013.14 241.67 1013.14 240.99 1013.14 233.89 998.26 233.89 998.26 240.99 998.26 241.67 998.26 248.77 1013.14 248.77 1013.14 241.67"/><rect class="cls-1" x="998.26" y="201.42" width="14.88" height="14.88"/><rect class="cls-1" x="1014.49" y="217.65" width="14.88" height="14.88"/><rect class="cls-1" x="1014.49" y="201.42" width="14.88" height="14.88"/><rect class="cls-1" x="998.26" y="217.65" width="14.88" height="14.88"/><polygon class="cls-1" points="996.9 241.67 996.9 240.99 996.9 233.89 982.02 233.89 982.02 240.99 982.02 241.67 982.02 248.77 996.9 248.77 996.9 241.67"/><rect class="cls-1" x="965.79" y="201.42" width="14.88" height="14.88"/><polygon class="cls-1" points="1110.55 241.67 1110.55 240.99 1110.55 233.89 1095.67 233.89 1095.67 240.99 1095.67 241.67 1095.67 248.77 1110.55 248.77 1110.55 241.67"/><rect class="cls-1" x="949.55" y="201.42" width="14.88" height="14.88"/><rect class="cls-1" x="949.55" y="217.65" width="14.88" height="14.88"/><rect class="cls-1" x="965.79" y="217.65" width="14.88" height="14.88"/><polygon class="cls-1" points="980.67 241.67 980.67 240.99 980.67 233.89 965.78 233.89 965.78 240.99 965.78 241.67 965.78 248.77 980.67 248.77 980.67 241.67"/><polygon class="cls-1" points="1029.37 241.67 1029.37 240.99 1029.37 233.89 1014.49 233.89 1014.49 240.99 1014.49 241.67 1014.49 248.77 1029.37 248.77 1029.37 241.67"/><rect class="cls-1" x="1095.67" y="217.65" width="14.88" height="14.88"/><rect class="cls-1" x="1079.43" y="201.42" width="14.88" height="14.88"/><polygon class="cls-1" points="1078.08 241.67 1078.08 240.99 1078.08 233.89 1063.2 233.89 1063.2 240.99 1063.2 241.67 1063.2 248.77 1078.08 248.77 1078.08 241.67"/><rect class="cls-1" x="1046.96" y="201.42" width="14.88" height="14.88"/><rect class="cls-1" x="1063.2" y="217.65" width="14.88" height="14.88"/><rect class="cls-1" x="1063.2" y="201.42" width="14.88" height="14.88"/><polygon class="cls-1" points="1094.32 241.67 1094.32 240.99 1094.32 233.89 1079.43 233.89 1079.43 240.99 1079.43 241.67 1079.43 248.77 1094.32 248.77 1094.32 241.67"/><rect class="cls-1" x="1079.43" y="217.65" width="14.88" height="14.88"/><polygon class="cls-1" points="1038.51 248.77 1045.61 248.77 1045.61 241.67 1045.61 240.99 1045.61 233.89 1038.51 233.89 1037.83 233.89 1030.73 233.89 1030.73 240.99 1030.73 241.67 1030.73 248.77 1037.83 248.77 1038.51 248.77"/><polygon class="cls-1" points="1038.51 232.53 1045.61 232.53 1045.61 217.65 1038.51 217.65 1037.83 217.65 1030.73 217.65 1030.73 232.53 1037.83 232.53 1038.51 232.53"/><rect class="cls-1" x="1046.96" y="217.65" width="14.88" height="14.88"/><rect class="cls-1" x="1095.67" y="201.42" width="14.88" height="14.88"/><polygon class="cls-1" points="1061.85 241.67 1061.85 240.99 1061.85 233.89 1046.96 233.89 1046.96 240.99 1046.96 241.67 1046.96 248.77 1061.85 248.77 1061.85 241.67"/><polygon class="cls-1" points="1038.51 216.3 1045.61 216.3 1045.61 201.42 1038.51 201.42 1037.83 201.42 1030.73 201.42 1030.73 216.3 1037.83 216.3 1038.51 216.3"/><path class="cls-2" d="M938.51,248.77h-5.2V233.89h3.4c-.1-.45-.2-.91-.31-1.36h-3.09v-9.41q-.63-1.59-1.35-3.12v12.53H917.08V217.65h13.74c-.23-.45-.45-.9-.69-1.35h-13V201.42h2.45c-.42-.46-.85-.9-1.28-1.34H883.58c1.2.4,2.39.85,3.55,1.34h12.36v7.26q.69.54,1.35,1.11v-8.37h14.89V216.3h-8.41c.37.44.74.89,1.1,1.35h7.31v12.68c.49,1.22.95,2.46,1.35,3.73v-.17H932v14.88h-6.52a7.08,7.08,0,0,1,.1,1.13h13C938.54,249.52,938.52,249.15,938.51,248.77Z"/><path class="cls-2" d="M1111.88,200.08H919.63c.42.44.85.88,1.26,1.34H932V216.3h-.71c.24.45.47.9.7,1.35h0v0q.7,1.42,1.35,2.88v-2.91H948.2v14.88H937.42c.11.45.21.91.32,1.36H948.2v14.88h-8.69c0,.38,0,.75,0,1.13h19c0-.37,0-.75,0-1.13h-9V233.89h7.57c0-.3-.09-.6-.14-.89l1-.18c.07.35.11.71.17,1.07h6.3v14.88h-4.91c0,.38,0,.76,0,1.13h152.34ZM941.09,216.3h-7.78V201.42H948.2V216.3Zm154.58-14.88h14.88V216.3h-14.88Zm0,16.23h14.88v14.88h-14.88Zm-16.24-16.23h14.89V216.3h-14.89Zm0,16.23h14.89v14.88h-14.89Zm0,24v-7.78h14.89v14.88h-14.89Zm-16.23-40.25h14.88V216.3H1063.2Zm0,16.23h14.88v14.88H1063.2Zm0,24v-7.78h14.88v14.88H1063.2ZM1047,201.42h14.88V216.3H1047Zm0,16.23h14.88v14.88H1047Zm0,24v-7.78h14.88v14.88H1047Zm-16.23-40.25h14.88V216.3h-14.88Zm0,16.23h14.88v14.88h-14.88Zm0,24v-7.78h14.88v14.88h-14.88Zm-16.24-40.25h14.88V216.3h-14.88Zm0,16.23h14.88v14.88h-14.88Zm0,24v-7.78h14.88v14.88h-14.88Zm-16.23-40.25h14.88V216.3H998.26Zm0,16.23h14.88v14.88H998.26Zm0,24v-7.78h14.88v14.88H998.26ZM982,201.42H996.9V216.3H982Zm0,16.23H996.9v14.88H982Zm0,24v-7.78H996.9v14.88H982Zm-16.23-40.25h14.88V216.3H965.79Zm0,16.23h14.88v14.88H965.79Zm0,24v-7.78h14.88v14.88H965.79Zm-16.24-40.25h14.88V216.3H949.55Zm0,31.11V217.65h14.88v14.88Zm146.12,16.24V233.89h14.88v14.88Z"/><path class="cls-3" d="M867,218.4a31.53,31.53,0,0,0-31.5,31.5h19a12.5,12.5,0,0,1,25,0h19A31.53,31.53,0,0,0,867,218.4Z"/><path class="cls-3" d="M912.54,249.9a6.49,6.49,0,0,1,5.59-6.42,51.45,51.45,0,0,0-81.6-35,6.49,6.49,0,0,1-9.34,8.88,51.22,51.22,0,0,0-11.65,32.57h19a32.5,32.5,0,0,1,65,0Z"/><path class="cls-4" d="M959.52,248.77a93.58,93.58,0,0,0-1.39-14.88c-.06-.36-.1-.72-.17-1.07l-1,.18c0,.29.09.59.14.89a92.44,92.44,0,0,1,1.4,14.88c0,.38,0,.76,0,1.13h1C959.54,249.53,959.52,249.15,959.52,248.77Z"/><path class="cls-4" d="M802.8,218.53l-.9-.44a71.69,71.69,0,0,0-7.36,31.81h1A70.61,70.61,0,0,1,802.8,218.53Z"/><path class="cls-4" d="M939.51,248.77a72.88,72.88,0,0,0-1.77-14.88c-.11-.45-.21-.91-.32-1.36a71,71,0,0,0-4.11-12q-.64-1.45-1.35-2.88v0c-.23-.45-.46-.9-.7-1.35a72.71,72.71,0,0,0-10.36-14.88c-.41-.46-.84-.9-1.26-1.34a72.33,72.33,0,0,0-91.45-11.36l.54.84a71.34,71.34,0,0,1,89.53,10.52c.43.44.86.88,1.28,1.34a72.2,72.2,0,0,1,10.6,14.88c.24.45.46.9.69,1.35.4.78.78,1.56,1.14,2.35q.72,1.53,1.35,3.12a70,70,0,0,1,3.09,9.41c.11.45.21.91.31,1.36a71.44,71.44,0,0,1,1.8,14.88c0,.38,0,.75,0,1.13h1C939.54,249.52,939.52,249.15,939.51,248.77Z"/><path class="cls-4" d="M925.54,249.9a7.08,7.08,0,0,0-.1-1.13,6.51,6.51,0,0,0-6.32-5.36,51.69,51.69,0,0,0-2-9.35c-.4-1.27-.86-2.51-1.35-3.73a52.87,52.87,0,0,0-7.31-12.68c-.36-.46-.73-.91-1.1-1.35a52.43,52.43,0,0,0-6.48-6.51q-.66-.57-1.35-1.11a52.21,52.21,0,0,0-12.36-7.26c-1.16-.49-2.35-.94-3.55-1.34a52.36,52.36,0,0,0-47.71,7.61,6.49,6.49,0,0,0-9.41,8.94,52.29,52.29,0,0,0-11.92,33.27h1a51.22,51.22,0,0,1,11.65-32.57,6.49,6.49,0,0,0,9.34-8.88,51.45,51.45,0,0,1,81.6,35,6.49,6.49,0,0,0-5.59,6.42h1a5.5,5.5,0,0,1,11,0h1Zm-88.73-37.59a5.5,5.5,0,1,1-5.5-5.5A5.51,5.51,0,0,1,836.81,212.31Z"/><path class="cls-4" d="M867,217.4a32.54,32.54,0,0,0-32.5,32.5h1a31.5,31.5,0,0,1,63,0h1A32.54,32.54,0,0,0,867,217.4Z"/><path class="cls-5" d="M878.54,249.9a11.5,11.5,0,0,0-23,0h23Z"/><path class="cls-4" d="M879.54,249.9a12.5,12.5,0,0,0-25,0h1a11.5,11.5,0,0,1,23,0h1Z"/><circle class="cls-6" cx="907.69" cy="167.14" r="5.5"/><path class="cls-4" d="M867,158.4a90.33,90.33,0,0,1,34.47,6.75,6.28,6.28,0,0,0-.32,2,6.52,6.52,0,1,0,.7-2.92A91.47,91.47,0,0,0,867,157.4a92.61,92.61,0,0,0-92.5,92.5h1A91.61,91.61,0,0,1,867,158.4Zm40.65,3.24a5.5,5.5,0,1,1-5.5,5.5A5.51,5.51,0,0,1,907.69,161.64Z"/><path class="cls-7" d="M924.54,249.9a5.5,5.5,0,0,0-11,0h11Z"/><circle class="cls-6" cx="831.31" cy="212.31" r="5.5"/><circle class="cls-8" cx="716.19" cy="212.31" r="5.5"/><path class="cls-4" d="M709.69,212.31a6.5,6.5,0,1,0,6.5-6.5A6.51,6.51,0,0,0,709.69,212.31Zm6.5-5.5a5.5,5.5,0,1,1-5.5,5.5A5.51,5.51,0,0,1,716.19,206.81Z"/><path class="cls-4" d="M768.32,18a70.6,70.6,0,0,1-50.26,20.78A70.6,70.6,0,0,1,667.8,18l-5.12-5.13a32.12,32.12,0,0,0-45.37,0L566.39,63.8a71.17,71.17,0,0,1-100.52,0L456,54a6.49,6.49,0,0,0-9.15-9.16L402.08,0h-1.42l45.52,45.52a6.43,6.43,0,0,0-1.57,4.22,6.49,6.49,0,0,0,10.72,4.93l9.83,9.83a72.16,72.16,0,0,0,101.94,0L618,13.58a31.11,31.11,0,0,1,44,0l5.12,5.12a71.59,71.59,0,0,0,51,21.08A71.59,71.59,0,0,0,769,18.7L787.73,0h-1.41ZM455,53.63a5.5,5.5,0,1,1,0-7.78A5.51,5.51,0,0,1,455,53.63Z"/><path class="cls-4" d="M493.45,36.22a32.11,32.11,0,0,0,45.36,0L575,0h-1.41L538.1,35.51a31.11,31.11,0,0,1-44,0L458.64,0h-1.41Z"/><path class="cls-4" d="M764.18.06A5.46,5.46,0,0,1,762.57,4a5.52,5.52,0,0,1-7.78,0A5.46,5.46,0,0,1,753.18.06s0,0,0-.06h-1a6.46,6.46,0,0,0,1.54,4.27,50.73,50.73,0,0,1-35.68,14.55,50.79,50.79,0,0,1-36.12-15L678.09,0h-1.42l4.57,4.56A52.12,52.12,0,0,0,754.45,5a6.45,6.45,0,0,0,4.23,1.58,6.48,6.48,0,0,0,4.6-1.91,6.43,6.43,0,0,0,1.9-4.59V0h-1Z"/><path class="cls-4" d="M479.31,50.36a52.07,52.07,0,0,0,73.64,0L603.31,0H601.9L552.25,49.65a51.08,51.08,0,0,1-72.24,0L430.36,0H429Z"/><path class="cls-6" d="M754.79,4a5.52,5.52,0,0,0,7.78,0A5.46,5.46,0,0,0,764.18.06V0h-11s0,0,0,.06A5.46,5.46,0,0,0,754.79,4Z"/><path class="cls-9" d="M455,45.85a5.5,5.5,0,1,0,0,7.78A5.49,5.49,0,0,0,455,45.85Z"/><path class="cls-4" d="M105.31,232.28a6.49,6.49,0,0,0-10.38-7.55A71.58,71.58,0,0,0,58,214.53H0v1H58a70.71,70.71,0,0,1,36.25,10,6.49,6.49,0,0,0,10.5,7.64,71.54,71.54,0,0,1,14.09,16.76H120A72.46,72.46,0,0,0,105.31,232.28Zm-5.78,2.53a5.5,5.5,0,1,1,5.5-5.5A5.51,5.51,0,0,1,99.53,234.81Z"/><path class="cls-4" d="M58,234.53H0v1H58A50.91,50.91,0,0,1,93.49,249.9h1.44A52,52,0,0,0,58,234.53Z"/><circle class="cls-3" cx="99.53" cy="229.31" r="5.5"/><path class="cls-5" d="M509.72,208.63v-9.42h-9.43A10,10,0,0,0,509.72,208.63Z"/><path class="cls-5" d="M520.14,199.21h-9.42v9.42A10,10,0,0,0,520.14,199.21Z"/><path class="cls-6" d="M510.22,188.78a10,10,0,0,0-9.93,9.43h19.85A10,10,0,0,0,510.22,188.78Z"/><path d="M510.72,249.9V229.64a30.94,30.94,0,1,0-1,0V249.9Zm9.42-50.69a10,10,0,0,1-9.42,9.42v-9.42Zm-19.85-1a9.94,9.94,0,0,1,19.85,0Zm9.43,1v9.42a10,10,0,0,1-9.43-9.42Zm-29.44-.5a29.94,29.94,0,1,1,30.44,29.93v-19a10.93,10.93,0,0,0,10.41-10.41h0v-1h0a10.92,10.92,0,0,0-21.82,0h0v1h0a10.92,10.92,0,0,0,10.41,10.41v19A30,30,0,0,1,480.28,198.71Z"/><rect class="cls-3" x="759.22" y="158.28" width="11" height="11" transform="translate(108.17 588.71) rotate(-45)"/><path class="cls-4" d="M755.53,163.78l9.19,9.19,9.19-9.19-9.19-9.19Zm1.41,0,7.78-7.78,7.78,7.78-7.78,7.78Z"/></g></g></svg>