<svg width="350" height="236" viewBox="0 0 350 236" fill="none" xmlns="http://www.w3.org/2000/svg">
<g clip-path="url(#clip0_69_5409)">
<path opacity="0.3" d="M160 146.718V146H20V216H160V215.29V207.315V206.589V198.654V197.928V189.952V189.33V181.355V180.637V172.662V171.944V163.969V163.251V155.275V154.558V146.582V146.718ZM28.7024 211.143V215.29H20.7292V207.315H28.7024V211.143ZM28.7024 206.629H20.7292V198.693H28.7024V206.629ZM28.7024 197.968H20.7292V189.992H28.7024V197.968ZM28.7024 189.306H20.7292V181.355H28.7024V189.306ZM28.7024 180.645H20.7292V172.67H28.7024V180.645ZM28.7024 171.984H20.7292V164.008H28.7024V171.984ZM28.7024 159.167V163.323H20.7292V155.347H28.7024V159.167ZM28.7024 154.661H20.7292V146.686H28.7024V154.661ZM37.3968 211.143V215.29H29.4316V207.315H37.3968V211.143ZM37.3968 206.629H29.4316V198.693H37.3968V206.629ZM37.3968 197.968H29.4316V189.992H37.3968V197.968ZM37.3968 189.33H29.4316V181.355H37.3968V189.33ZM37.3968 180.669H29.4316V172.694H37.3968V180.669ZM37.3968 172.008H29.4316V164.032H37.3968V172.008ZM37.3968 159.191V163.346H29.4316V155.371H37.3968V159.191ZM37.3968 154.685H29.4316V146.71H37.3968V154.685ZM46.0993 211.167V215.314H38.086V207.339H46.0993V211.167ZM46.0993 206.653H38.086V198.717H46.0993V206.653ZM46.0993 197.992H38.086V190.016H46.0993V197.992ZM46.0993 189.33H38.086V181.355H46.0993V189.33ZM46.0993 180.669H38.086V172.694H46.0993V180.669ZM46.0993 172.008H38.086V164.032H46.0993V172.008ZM46.0993 159.191V163.346H38.086V155.371H46.0993V159.191ZM46.0993 154.685H38.086V146.71H46.0993V154.685ZM54.8017 211.167V215.314H46.7884V207.339H54.8017V211.167ZM54.8017 206.653H46.7884V198.717H54.8017V206.653ZM54.8017 197.992H46.7884V190.016H54.8017V197.992ZM54.8017 189.33H46.7884V181.355H54.8017V189.33ZM54.8017 180.669H46.7884V172.694H54.8017V180.669ZM54.8017 172.008H46.7884V164.032H54.8017V172.008ZM54.8017 159.191V163.346H46.7884V155.371H54.8017V159.191ZM54.8017 154.685H46.7884V146.71H54.8017V154.685ZM63.5041 211.167V215.314H55.4908V207.339H63.5041V211.167ZM63.5041 206.653H55.4908V198.717H63.5041V206.653ZM63.5041 197.992H55.4908V190.016H63.5041V197.992ZM63.5041 189.33H55.4908V181.355H63.5041V189.33ZM63.5041 180.669H55.4908V172.694H63.5041V180.669ZM63.5041 172.008H55.4908V164.032H63.5041V172.008ZM63.5041 159.191V163.346H55.4908V155.371H63.5041V159.191ZM63.5041 154.685H55.4908V146.71H63.5041V154.685ZM72.2145 211.167V215.314H64.2012V207.339H72.2145V211.167ZM72.2145 206.653H64.2012V198.717H72.2145V206.653ZM72.2145 197.992H64.2012V190.016H72.2145V197.992ZM72.2145 189.33H64.2012V181.355H72.2145V189.33ZM72.2145 180.669H64.2012V172.694H72.2145V180.669ZM72.2145 172.008H64.2012V164.032H72.2145V172.008ZM72.2145 159.191V163.346H64.2012V155.371H72.2145V159.191ZM72.2145 154.685H64.2012V146.71H72.2145V154.685ZM80.9169 211.167V215.314H72.9037V207.339H80.9169V211.167ZM80.9169 206.653H72.9037V198.717H80.9169V206.653ZM80.9169 197.992H72.9037V190.016H80.9169V197.992ZM80.9169 189.33H72.9037V181.355H80.9169V189.33ZM80.9169 180.669H72.9037V172.694H80.9169V180.669ZM80.9169 172.008H72.9037V164.032H80.9169V172.008ZM80.9169 159.191V163.346H72.9037V155.371H80.9169V159.191ZM80.9169 154.685H72.9037V146.71H80.9169V154.685ZM89.6194 211.167V215.314H81.6061V207.339H89.6194V211.167ZM89.6194 206.653H81.6061V198.717H89.6194V206.653ZM89.6194 197.992H81.6061V190.016H89.6194V197.992ZM89.6194 189.33H81.6061V181.355H89.6194V189.33ZM89.6194 180.669H81.6061V172.694H89.6194V180.669ZM89.6194 172.008H81.6061V164.032H89.6194V172.008ZM89.6194 159.191V163.346H81.6061V155.371H89.6194V159.191ZM89.6194 154.685H81.6061V146.71H89.6194V154.685ZM98.2978 211.143V215.29H90.2845V207.315H98.2978V211.143ZM98.2978 206.629H90.2845V198.693H98.2978V206.629ZM98.2978 197.968H90.2845V189.992H98.2978V197.968ZM98.2978 189.33H90.2845V181.355H98.2978V189.33ZM98.2978 180.669H90.2845V172.694H98.2978V180.669ZM98.2978 172.008H90.2845V164.032H98.2978V172.008ZM98.2978 159.191V163.346H90.2845V155.371H98.2978V159.191ZM98.2978 154.685H90.2845V146.71H98.2978V154.685ZM107 211.167V215.314H98.9869V207.339H107V211.167ZM107 206.653H98.9869V198.717H107V206.653ZM107 197.992H98.9869V190.016H107V197.992ZM107 189.33H98.9869V181.355H107V189.33ZM107 180.669H98.9869V172.694H107V180.669ZM107 172.008H98.9869V164.032H107V172.008ZM107 159.191V163.346H98.9869V155.371H107V159.191ZM107 154.685H98.9869V146.71H107V154.685ZM115.703 211.167V215.314H107.689V207.339H115.703V211.167ZM115.703 206.653H107.689V198.717H115.703V206.653ZM115.703 197.992H107.689V190.016H115.703V197.992ZM115.703 189.33H107.689V181.355H115.703V189.33ZM115.703 180.669H107.689V172.694H115.703V180.669ZM115.703 172.008H107.689V164.032H115.703V172.008ZM115.703 159.191V163.346H107.689V155.371H115.703V159.191ZM115.703 154.685H107.689V146.71H115.703V154.685ZM124.405 211.167V215.314H116.392V207.339H124.405V211.167ZM124.405 206.653H116.392V198.717H124.405V206.653ZM124.405 197.992H116.392V190.016H124.405V197.992ZM124.405 189.33H116.392V181.355H124.405V189.33ZM124.405 180.669H116.392V172.694H124.405V180.669ZM124.405 172.008H116.392V164.032H124.405V172.008ZM124.405 159.191V163.346H116.392V155.371H124.405V159.191ZM124.405 154.685H116.392V146.71H124.405V154.685ZM133.107 211.167V215.314H125.094V207.339H133.107V211.167ZM133.107 206.653H125.094V198.717H133.107V206.653ZM133.107 197.992H125.094V190.016H133.107V197.992ZM133.107 189.33H125.094V181.355H133.107V189.33ZM133.107 180.669H125.094V172.694H133.107V180.669ZM133.107 172.008H125.094V164.032H133.107V172.008ZM133.107 159.191V163.346H125.094V155.371H133.107V159.191ZM133.107 154.685H125.094V146.71H133.107V154.685ZM141.81 211.167V215.314H133.797V207.339H141.81V211.167ZM141.81 206.653H133.797V198.717H141.81V206.653ZM141.81 197.992H133.797V190.016H141.81V197.992ZM141.81 189.33H133.797V181.355H141.81V189.33ZM141.81 180.669H133.797V172.694H141.81V180.669ZM141.81 172.008H133.797V164.032H141.81V172.008ZM141.81 159.191V163.346H133.797V155.371H141.81V159.191ZM141.81 154.685H133.797V146.71H141.81V154.685ZM150.512 211.167V215.314H142.499V207.339H150.512V211.167ZM150.512 206.653H142.499V198.717H150.512V206.653ZM150.512 197.992H142.499V190.016H150.512V197.992ZM150.512 189.33H142.499V181.355H150.512V189.33ZM150.512 180.669H142.499V172.694H150.512V180.669ZM150.512 172.008H142.499V164.032H150.512V172.008ZM150.512 159.191V163.346H142.499V155.371H150.512V159.191ZM150.512 154.685H142.499V146.71H150.512V154.685ZM159.215 211.167V215.314H151.201V207.339H159.215V211.167ZM159.215 206.653H151.201V198.717H159.215V206.653ZM159.215 197.992H151.201V190.016H159.215V197.992ZM159.215 189.33H151.201V181.355H159.215V189.33ZM159.215 180.669H151.201V172.694H159.215V180.669ZM159.215 172.008H151.201V164.032H159.215V172.008ZM159.215 159.191V163.346H151.201V155.371H159.215V159.191ZM159.215 154.685H151.201V146.71H159.215V154.685Z" fill="white"/>
<path d="M268.575 146.397C284.826 146.397 298 133.223 298 116.972C298 100.72 284.826 87.5463 268.575 87.5463C252.323 87.5463 239.149 100.72 239.149 116.972C239.149 133.223 252.323 146.397 268.575 146.397Z" fill="#231F20" stroke="#231F20" stroke-width="1.7627" stroke-miterlimit="10"/>
<path d="M267.034 144.851C283.285 144.851 296.459 131.677 296.459 115.425C296.459 99.1742 283.285 86 267.034 86C250.783 86 237.609 99.1742 237.609 115.425C237.609 131.677 250.783 144.851 267.034 144.851Z" fill="white" stroke="#231F20" stroke-width="1.7627" stroke-miterlimit="10"/>
<path d="M267.034 75.4605C283.285 75.4605 296.459 62.2863 296.459 46.035C296.459 29.7838 283.285 16.6096 267.034 16.6096C250.783 16.6096 237.609 29.7838 237.609 46.035C237.609 62.2863 250.783 75.4605 267.034 75.4605Z" fill="white" stroke="#231F20" stroke-width="1.7627" stroke-miterlimit="10"/>
<path d="M267.034 216C283.285 216 296.459 202.826 296.459 186.575C296.459 170.323 283.285 157.149 267.034 157.149C250.783 157.149 237.609 170.323 237.609 186.575C237.609 202.826 250.783 216 267.034 216Z" fill="white" stroke="#231F20" stroke-width="1.7627" stroke-miterlimit="10"/>
<mask id="mask0_69_5409" style="mask-type:alpha" maskUnits="userSpaceOnUse" x="73" y="65" width="105" height="106">
<path d="M125.429 169.667C153.832 169.667 176.858 146.641 176.858 118.238C176.858 89.8343 153.832 66.8088 125.429 66.8088C97.0255 66.8088 74 89.8343 74 118.238C74 146.641 97.0255 169.667 125.429 169.667Z" fill="white" stroke="#262626" stroke-width="1.7627" stroke-linecap="round" stroke-linejoin="round"/>
</mask>
<g mask="url(#mask0_69_5409)">
<path d="M125.429 169.667C153.832 169.667 176.858 146.641 176.858 118.238C176.858 89.8343 153.832 66.8088 125.429 66.8088C97.0255 66.8088 74 89.8343 74 118.238C74 146.641 97.0255 169.667 125.429 169.667Z" fill="white"/>
<path d="M136.247 83.1057H114.442C109.22 83.1057 104.563 88.7772 104.563 95.7675L98.0808 174.247H152.608L146.125 95.7675C146.125 88.7772 141.469 83.1057 136.247 83.1057Z" fill="black" stroke="black" stroke-width="0.8814" stroke-miterlimit="10"/>
<path d="M138.05 142.919L134.66 124.715L117.721 124.289L115.183 142.493L126.368 148.842L138.05 142.919Z" fill="#F0A0A4" stroke="black" stroke-width="0.8814" stroke-miterlimit="10"/>
<path d="M116.28 131.53L115.819 137.627C115.819 137.627 119.985 140.953 126.368 140.953C132.752 140.953 136.988 137.201 136.988 137.201L135.716 129.581L116.28 131.53Z" fill="black" stroke="black" stroke-width="0.8814" stroke-miterlimit="10"/>
<path d="M104.254 109.363L105.345 124.405L109.196 125.216L105.736 109.514L104.254 109.363Z" fill="black" stroke="black" stroke-width="0.8814" stroke-miterlimit="10"/>
<path d="M146.435 109.363L145.822 124.58L141.918 125.216L145.379 109.514L146.435 109.363Z" fill="black" stroke="black" stroke-width="0.8814" stroke-miterlimit="10"/>
<path d="M145.484 113.161C145.489 113.115 145.764 109.579 146.032 106.06C146.359 101.853 144.077 97.868 140.279 96.0242L130.745 91.3796C128.481 90.2768 126.678 88.4213 125.645 86.1282L125.528 86.2624C124.058 88.0012 122.074 89.2265 119.863 89.7633L118.019 90.2126C111.927 91.6947 107.247 96.561 105.975 102.699C105.404 105.465 105.054 108.423 105.293 111.096C105.351 111.749 105.409 112.403 105.468 113.05C107.125 129.697 114.36 137.691 125.412 137.72C136.457 137.75 143.774 133.023 145.484 113.161Z" fill="#F0A0A4" stroke="black" stroke-width="0.8814" stroke-miterlimit="10"/>
<path d="M109.529 105.868C111.18 104.782 114.984 102.577 119.156 105.045" stroke="black" stroke-width="0.8814" stroke-linejoin="round"/>
<path d="M132.268 105.903C134.082 105.115 138.196 103.575 141.895 106.708" stroke="black" stroke-width="0.8814" stroke-linejoin="round"/>
<path d="M127.174 108.528C127.174 108.528 127.868 123.098 126.771 124.522C125.668 125.946 123.194 125.205 123.194 125.205" stroke="black" stroke-width="0.8814" stroke-linejoin="round"/>
<path d="M117.925 129.149C121.881 131.751 130.079 131.174 134.817 126.973" stroke="black" stroke-width="0.8814" stroke-linejoin="round"/>
<path d="M115.183 142.493L138.05 142.919L139.322 148.422H141.86C148.844 148.422 154.563 154.14 154.563 161.124V193.724H98.2441V162.029C98.2441 155.447 101.208 148.422 111.851 148.422H114.331L115.183 142.493Z" fill="#F3E557" stroke="black" stroke-width="0.8814" stroke-miterlimit="10"/>
<path d="M107.65 111.463C107.65 111.463 110.06 115.548 115.247 115.81C120.434 116.073 122.681 112.233 122.681 112.233C120.312 108.814 117.669 107.589 115.201 107.589C112.12 107.589 109.307 109.503 107.65 111.463Z" fill="white" stroke="black" stroke-width="0.8814" stroke-miterlimit="10"/>
<path d="M118.69 110.407C118.725 112.461 117.143 114.153 115.16 114.188C113.176 114.217 111.542 112.578 111.513 110.524C111.478 108.464 113.059 106.772 115.043 106.743C117.027 106.708 118.661 108.353 118.69 110.407Z" fill="black" stroke="black" stroke-width="0.8814" stroke-miterlimit="10"/>
<path d="M128.731 112.233C128.731 112.233 130.978 116.079 136.165 115.81C141.352 115.542 143.762 111.463 143.762 111.463C142.105 109.503 139.293 107.589 136.206 107.589C133.738 107.589 131.095 108.814 128.731 112.233Z" fill="white" stroke="black" stroke-width="0.8814" stroke-miterlimit="10"/>
<path d="M132.547 110.407C132.512 112.461 134.094 114.153 136.078 114.188C138.061 114.217 139.695 112.578 139.724 110.524C139.759 108.464 138.178 106.772 136.194 106.743C134.21 106.708 132.577 108.353 132.547 110.407Z" fill="black" stroke="black" stroke-width="0.8814" stroke-miterlimit="10"/>
<path d="M103.922 106.836C109.027 107.91 127.961 102.063 132.664 92.8325H104.429L103.922 106.836Z" fill="black" stroke="black" stroke-width="0.8814" stroke-miterlimit="10"/>
<path d="M125.347 80.5676C127.745 80.5676 129.688 78.624 129.688 76.2264C129.688 73.8289 127.745 71.8853 125.347 71.8853C122.95 71.8853 121.006 73.8289 121.006 76.2264C121.006 78.624 122.95 80.5676 125.347 80.5676Z" fill="#00A66A" stroke="#262626" stroke-width="0.8814" stroke-miterlimit="10"/>
<path d="M147.094 103.026L138.703 101.223C129.904 99.3326 120.872 99.3268 112.067 101.2L103.531 103.02C103.531 103.02 102.819 99.0175 103.49 94.0987L105.287 93.7194C118.59 90.8836 132.238 90.8953 145.542 93.7486L147.24 94.1162C147.847 99.0233 147.094 103.026 147.094 103.026Z" fill="#00A66A" stroke="#262626" stroke-width="0.8814" stroke-miterlimit="10"/>
<path d="M147.211 94.1163L145.513 93.7487C132.209 90.8955 118.561 90.8838 105.258 93.7196L103.46 94.0988C104.517 86.3034 112.825 76.2148 125.435 76.2148C138.044 76.2148 146.242 86.3209 147.211 94.1163Z" fill="#00D085" stroke="#262626" stroke-width="0.8814" stroke-miterlimit="10"/>
<mask id="mask1_69_5409" style="mask-type:alpha" maskUnits="userSpaceOnUse" x="102" y="91" width="46" height="13">
<path d="M147.094 103.026L138.703 101.223C129.904 99.3326 120.872 99.3268 112.067 101.2L103.531 103.02C103.531 103.02 102.819 99.0175 103.49 94.0987L105.287 93.7194C118.59 90.8836 132.238 90.8953 145.542 93.7486L147.24 94.1162C147.847 99.0233 147.094 103.026 147.094 103.026Z" fill="#B54040" stroke="#262626" stroke-width="0.8814" stroke-miterlimit="10"/>
</mask>
<g mask="url(#mask1_69_5409)">
<path d="M103.017 86.9625V107.665" stroke="#262626" stroke-width="0.8814" stroke-miterlimit="10"/>
<path d="M106.728 86.9625V107.665" stroke="#262626" stroke-width="0.8814" stroke-miterlimit="10"/>
<path d="M110.433 86.9625V107.665" stroke="#262626" stroke-width="0.8814" stroke-miterlimit="10"/>
<path d="M114.144 86.9625V107.665" stroke="#262626" stroke-width="0.8814" stroke-miterlimit="10"/>
<path d="M117.855 86.9625V107.665" stroke="#262626" stroke-width="0.8814" stroke-miterlimit="10"/>
<path d="M121.566 86.9625V107.665" stroke="#262626" stroke-width="0.8814" stroke-miterlimit="10"/>
<path d="M125.277 86.9625V107.665" stroke="#262626" stroke-width="0.8814" stroke-miterlimit="10"/>
<path d="M128.988 86.9625V107.665" stroke="#262626" stroke-width="0.8814" stroke-miterlimit="10"/>
<path d="M132.699 86.9625V107.665" stroke="#262626" stroke-width="0.8814" stroke-miterlimit="10"/>
<path d="M136.41 86.9625V107.665" stroke="#262626" stroke-width="0.8814" stroke-miterlimit="10"/>
<path d="M140.121 86.9625V107.665" stroke="#262626" stroke-width="0.8814" stroke-miterlimit="10"/>
<path d="M143.826 86.9625V107.665" stroke="#262626" stroke-width="0.8814" stroke-miterlimit="10"/>
<path d="M147.537 86.9625V107.665" stroke="#262626" stroke-width="0.8814" stroke-miterlimit="10"/>
</g>
<path d="M125.429 169.667C153.832 169.667 176.858 146.641 176.858 118.238C176.858 89.8343 153.832 66.8088 125.429 66.8088C97.0255 66.8088 74 89.8343 74 118.238C74 146.641 97.0255 169.667 125.429 169.667Z" stroke="#262626" stroke-width="1.7627" stroke-linecap="round" stroke-linejoin="round"/>
</g>
<g opacity="0.2">
<path d="M145.365 49.9496C164.636 32.7681 194.468 28.6788 217.71 39.8392" stroke="black" stroke-width="2.6441" stroke-linecap="round" stroke-linejoin="round"/>
<path d="M205 42.1238C204.943 41.7029 205.244 41.3119 205.663 41.2602L217.369 39.7355L211.038 29.7769C210.81 29.4181 210.916 28.9395 211.275 28.7118C211.633 28.4841 212.111 28.5956 212.34 28.9487L219.319 39.9277C219.459 40.152 219.477 40.432 219.367 40.67C219.258 40.9081 219.027 41.0758 218.767 41.1109L205.862 42.7928C205.714 42.812 205.564 42.7889 205.434 42.7286C205.21 42.6103 205.04 42.3907 205 42.1238Z" fill="black"/>
</g>
<path d="M86.404 165.716C82.232 181.657 87.4543 197.983 102.362 206.17C134.77 223.96 171.605 202.214 193.014 177.369C201.066 168.027 209.515 159.321 218.547 150.954" stroke="black" stroke-width="2" stroke-linecap="round" stroke-linejoin="round"/>
<path d="M215.612 165.285C215.145 165.168 214.859 164.689 214.982 164.223L218.273 151.24L205.115 153.743C204.642 153.831 204.181 153.521 204.094 153.049C204.006 152.576 204.322 152.115 204.788 152.028L219.294 149.268C219.586 149.209 219.889 149.309 220.093 149.53C220.297 149.746 220.379 150.055 220.303 150.347L216.674 164.66C216.633 164.829 216.546 164.97 216.429 165.08C216.219 165.273 215.915 165.36 215.612 165.285Z" fill="black"/>
<g opacity="0.2">
<path d="M160.532 178.383C171.224 189.963 195.338 201.653 221.579 194.99" stroke="black" stroke-width="2.6441" stroke-linecap="round" stroke-linejoin="round"/>
<path d="M213.062 204.615C212.754 204.32 212.747 203.831 213.042 203.522L221.23 195.023L210.062 191.199C209.658 191.06 209.443 190.624 209.582 190.22C209.722 189.816 210.165 189.605 210.562 189.74L222.873 193.954C223.122 194.041 223.309 194.248 223.375 194.502C223.436 194.758 223.361 195.028 223.179 195.22L214.154 204.594C214.052 204.703 213.921 204.776 213.779 204.811C213.529 204.87 213.262 204.806 213.062 204.615Z" fill="black"/>
</g>
<path d="M33.3124 72.9412C34.7074 73.7466 36.4912 73.2686 37.2966 71.8736C38.102 70.4786 37.6241 68.6948 36.229 67.8894C34.834 67.0839 33.0502 67.5619 32.2448 68.9569C31.4394 70.352 31.9173 72.1358 33.3124 72.9412Z" fill="#2E80F6"/>
<path d="M4.38219 10.3004C5.77721 11.1058 7.56102 10.6279 8.36643 9.23286C9.17185 7.83784 8.69388 6.05403 7.29886 5.24862C5.90384 4.4432 4.12003 4.92117 3.31462 6.31619C2.5092 7.71121 2.98717 9.49501 4.38219 10.3004Z" fill="#2E80F6"/>
<g clip-path="url(#clip1_69_5409)">
<path d="M61.8902 102.527C62.0003 102.557 62.1179 102.543 62.2172 102.486C62.3165 102.43 62.3893 102.337 62.4197 102.227C62.4501 102.117 62.4355 101.999 62.3791 101.9C62.3228 101.8 62.2293 101.727 62.1192 101.697L-37.045 75.1211C-36.8462 74.249 -36.9665 73.3345 -37.3841 72.5434C-37.8016 71.7523 -38.4888 71.137 -39.321 70.8089C-40.1531 70.4809 -41.0753 70.4618 -41.9204 70.7552C-42.7654 71.0486 -43.4774 71.635 -43.9272 72.4082C-44.0676 72.6514 -44.1784 72.9104 -44.2573 73.1799L-62.2646 68.4029C-62.3675 68.3601 -62.4832 68.3599 -62.5862 68.4024C-62.6892 68.4448 -62.7712 68.5265 -62.814 68.6294C-62.8568 68.7323 -62.857 68.848 -62.8145 68.951C-62.772 69.054 -62.6904 69.1359 -62.5875 69.1787L-62.4937 69.2329L-44.4194 74.0774C-44.4849 74.9241 -44.2604 75.7679 -43.7828 76.4702C-43.3052 77.1724 -42.603 77.6913 -41.7914 77.9415C-40.9799 78.1918 -40.1074 78.1585 -39.3173 77.8472C-38.5271 77.5358 -37.8664 76.965 -37.4437 76.2284C-37.3979 76.1491 -37.352 76.0697 -37.3062 75.9903L61.8902 102.527ZM-38.1415 75.7871C-38.4299 76.2867 -38.86 76.6895 -39.3774 76.9446C-39.8948 77.1998 -40.4762 77.2958 -41.0481 77.2205C-41.62 77.1452 -42.1568 76.902 -42.5905 76.5216C-43.0242 76.1413 -43.3354 75.6408 -43.4847 75.0836C-43.634 74.5264 -43.6147 73.9375 -43.4293 73.3912C-43.2439 72.845 -42.9006 72.366 -42.443 72.0148C-41.9853 71.6636 -41.4338 71.4561 -40.8582 71.4183C-40.2825 71.3806 -39.7087 71.5144 -39.2091 71.8028C-38.5415 72.1908 -38.055 72.8276 -37.8563 73.5737C-37.6575 74.3198 -37.7627 75.1143 -38.1487 75.7829L-38.1415 75.7871Z" fill="#262626"/>
<path d="M60.174 115.566L29.1712 115.564C29.0167 114.704 28.5648 113.926 27.8946 113.366C27.2243 112.805 26.3784 112.498 25.5048 112.498C24.6311 112.498 23.7852 112.805 23.115 113.366C22.4449 113.927 21.9931 114.705 21.8386 115.565L-46.2325 115.601C-46.3234 115.602 -46.4115 115.633 -46.4833 115.688C-46.5551 115.744 -46.6066 115.822 -46.6301 115.91C-46.6536 115.998 -46.6476 116.091 -46.6132 116.175C-46.5788 116.259 -46.5178 116.33 -46.4395 116.376C-46.3765 116.414 -46.3036 116.433 -46.2299 116.43L21.8184 116.4C21.8396 117.215 22.1273 118.001 22.6374 118.638C23.1476 119.274 23.8521 119.726 24.6432 119.924C25.4344 120.122 26.2687 120.056 27.0186 119.735C27.7685 119.414 28.3928 118.857 28.7959 118.148C29.0988 117.614 29.2668 117.014 29.2853 116.4L60.1682 116.409C60.2792 116.407 60.3851 116.362 60.4631 116.283C60.5411 116.204 60.5851 116.097 60.5856 115.986C60.5866 115.876 60.5439 115.77 60.4667 115.691C60.3896 115.612 60.2843 115.567 60.174 115.566ZM28.0256 117.732C27.7372 118.232 27.3071 118.634 26.7897 118.889C26.2723 119.145 25.6909 119.241 25.119 119.165C24.5471 119.09 24.0103 118.847 23.5766 118.466C23.1429 118.086 22.8317 117.586 22.6824 117.028C22.5331 116.471 22.5524 115.882 22.7378 115.336C22.9233 114.79 23.2665 114.311 23.7242 113.96C24.1818 113.608 24.7333 113.401 25.3089 113.363C25.8846 113.325 26.4585 113.459 26.958 113.748C27.6263 114.136 28.1136 114.773 28.3137 115.52C28.5137 116.266 28.4101 117.062 28.0256 117.732Z" fill="#262626"/>
<path d="M93.9763 43.9855C93.3087 44.2307 92.725 44.6614 92.2938 45.227C91.8627 45.7926 91.6021 46.4696 91.5427 47.1783C91.4833 47.887 91.6276 48.5979 91.9585 49.2274C92.2895 49.8569 92.7933 50.3788 93.4108 50.7316C94.1551 51.1725 95.0307 51.3374 95.8843 51.1974L99.4214 64.4209C99.4535 64.526 99.5242 64.615 99.6193 64.6699C99.7144 64.7248 99.8268 64.7416 99.9338 64.7168C100.04 64.6865 100.13 64.6161 100.186 64.5205C100.241 64.4249 100.257 64.3115 100.23 64.2044L96.7228 50.9117C97.3648 50.6443 97.9193 50.2028 98.3239 49.6371C98.7284 49.0714 98.9669 48.4039 99.0124 47.7099C99.058 47.016 98.9088 46.3231 98.5816 45.7093C98.2545 45.0956 97.7624 44.5855 97.1608 44.2364C96.4324 43.8321 95.5893 43.6841 94.7667 43.8164L82.3868 -2.59092C82.3576 -2.69598 82.2882 -2.78538 82.1938 -2.83991C82.0993 -2.89444 81.9873 -2.90976 81.8817 -2.88259C81.8285 -2.86857 81.7786 -2.84416 81.7349 -2.81076C81.6912 -2.77737 81.6545 -2.73565 81.627 -2.68801C81.5995 -2.64038 81.5817 -2.58777 81.5746 -2.53322C81.5676 -2.47867 81.5714 -2.42326 81.5858 -2.37019L93.9763 43.9855ZM93.8275 50.0099C93.3279 49.7215 92.9251 49.2914 92.67 48.774C92.4148 48.2567 92.3188 47.6752 92.3941 47.1033C92.4694 46.5314 92.7126 45.9946 93.093 45.5609C93.4733 45.1272 93.9737 44.816 94.531 44.6667C95.0882 44.5174 95.6771 44.5367 96.2234 44.7221C96.7696 44.9076 97.2486 45.2508 97.5998 45.7085C97.951 46.1661 98.1585 46.7176 98.1963 47.2933C98.234 47.8689 98.1002 48.4428 97.8117 48.9423C97.425 49.6123 96.7879 50.1011 96.0407 50.3013C95.2935 50.5015 94.4974 50.3967 93.8275 50.0099Z" fill="#262626"/>
<path d="M87.3014 69.4131L56.7215 16.4624C57.3985 15.9013 57.8552 15.1187 58.0108 14.2532C58.1663 13.3877 58.0107 12.4951 57.5714 11.7333C57.132 10.9716 56.4374 10.3898 55.6104 10.091C54.7833 9.79216 53.8772 9.79555 53.0525 10.1006L30.6709 -28.6001C30.6472 -28.6534 30.6126 -28.7011 30.5694 -28.7402C30.5261 -28.7792 30.4751 -28.8088 30.4197 -28.8269C30.3642 -28.845 30.3056 -28.8513 30.2476 -28.8453C30.1896 -28.8394 30.1335 -28.8213 30.083 -28.7923C30.0324 -28.7633 29.9885 -28.724 29.954 -28.677C29.9196 -28.6299 29.8954 -28.5762 29.883 -28.5192C29.8707 -28.4622 29.8704 -28.4033 29.8822 -28.3462C29.8941 -28.2891 29.9177 -28.2352 29.9518 -28.1878L52.2858 10.4951C51.7723 10.8104 51.3447 11.2477 51.0408 11.7682C50.6353 12.4697 50.4684 13.2839 50.5654 14.0884C50.6623 14.8928 51.0178 15.6441 51.5783 16.2292C52.1389 16.8144 52.8742 17.2017 53.6738 17.333C54.4734 17.4643 55.294 17.3325 56.0123 16.9574L86.5614 69.8615C86.5955 69.9268 86.6481 69.9806 86.7126 70.0161C86.7758 70.0521 86.8473 70.0709 86.9201 70.0707C86.9928 70.0705 87.0642 70.0512 87.1271 70.0149C87.1799 69.9887 87.2267 69.9519 87.2645 69.9067C87.3023 69.8615 87.3302 69.8089 87.3466 69.7523C87.363 69.6957 87.3675 69.6363 87.3597 69.5779C87.3519 69.5195 87.332 69.4634 87.3014 69.4131ZM51.7792 12.156C52.0676 11.6564 52.4977 11.2536 53.0151 10.9984C53.5325 10.7433 54.1139 10.6473 54.6858 10.7226C55.2577 10.7979 55.7945 11.0411 56.2282 11.4214C56.6619 11.8018 56.9731 12.3022 57.1224 12.8594C57.2717 13.4166 57.2524 14.0056 57.067 14.5518C56.8816 15.0981 56.5383 15.5771 56.0807 15.9282C55.623 16.2794 55.0715 16.487 54.4959 16.5247C53.9202 16.5624 53.3463 16.4286 52.8468 16.1402C52.1769 15.7534 51.688 15.1164 51.4878 14.3692C51.2876 13.622 51.3924 12.8259 51.7792 12.156Z" fill="#262626"/>
<path d="M-15.4898 -12.6137L2.78422 5.63476C2.73422 5.72136 2.68422 5.80796 2.63005 5.90178C2.20138 6.63897 2.03739 7.50047 2.16523 8.34359C2.29306 9.18672 2.70507 9.96088 3.333 10.5379C3.96094 11.1148 4.76712 11.46 5.61803 11.5162C6.46893 11.5724 7.31351 11.3363 8.01187 10.8469L75.5566 78.4227L75.6504 78.4768C75.7297 78.522 75.8216 78.5399 75.912 78.5278C76.0024 78.5157 76.0864 78.4742 76.151 78.4098C76.1903 78.3719 76.2216 78.3264 76.243 78.2761C76.2645 78.2258 76.2756 78.1718 76.2757 78.1171C76.2759 78.0625 76.2651 78.0083 76.2439 77.9579C76.2227 77.9075 76.1917 77.8619 76.1526 77.8237L8.60866 10.2965C8.79959 10.0912 8.96606 9.86439 9.10472 9.62068C9.50989 8.85069 9.63405 7.96356 9.45583 7.11191C9.27762 6.26027 8.80817 5.49736 8.12825 4.95443C7.44832 4.4115 6.60045 4.12251 5.73048 4.13716C4.86051 4.15182 4.02284 4.4692 3.36159 5.03472L-14.8619 -13.1846C-14.9397 -13.262 -15.0449 -13.3056 -15.1546 -13.3059C-15.2643 -13.3062 -15.3697 -13.2632 -15.448 -13.1862C-15.5235 -13.1123 -15.5695 -13.0133 -15.5772 -12.9079C-15.5849 -12.8025 -15.5538 -12.6978 -15.4898 -12.6137ZM8.36636 9.23288C8.07793 9.73246 7.64783 10.1353 7.13046 10.3904C6.61309 10.6456 6.03168 10.7416 5.45975 10.6663C4.88782 10.591 4.35107 10.3478 3.91736 9.96742C3.48365 9.58707 3.17247 9.08664 3.02317 8.52944C2.87386 7.97223 2.89314 7.38327 3.07857 6.83702C3.264 6.29077 3.60724 5.81177 4.0649 5.4606C4.52255 5.10943 5.07407 4.90186 5.64969 4.86413C6.22532 4.8264 6.79921 4.96021 7.29879 5.24864C7.9687 5.63542 8.45753 6.27247 8.65774 7.01966C8.85795 7.76685 8.75313 8.56297 8.36636 9.23288Z" fill="#262626"/>
<path d="M32.8958 73.663C33.6937 74.1205 34.6322 74.2681 35.532 74.0777C36.4318 73.8872 37.23 73.372 37.774 72.6304L67.1323 89.5804C67.228 89.6356 67.3417 89.6506 67.4485 89.622C67.5552 89.5934 67.6462 89.5236 67.7015 89.4279C67.7567 89.3322 67.7717 89.2184 67.7431 89.1117C67.7145 89.0049 67.6446 88.9139 67.549 88.8587L38.1907 71.9087C38.5538 71.0683 38.5954 70.1238 38.3077 69.2548C38.02 68.3857 37.423 67.6526 36.6302 67.1949C35.8374 66.7372 34.904 66.5867 34.0075 66.7721C33.1111 66.9574 32.3139 67.4657 31.7677 68.2004L-41.0651 26.1504C-41.1608 26.0951 -41.2745 26.0801 -41.3812 26.1087C-41.488 26.1373 -41.579 26.2072 -41.6342 26.3029C-41.6895 26.3986 -41.7045 26.5123 -41.6759 26.619C-41.6473 26.7258 -41.5774 26.8168 -41.4817 26.872L31.351 68.922C30.9808 69.764 30.9337 70.7128 31.2186 71.5873C31.5036 72.4618 32.1007 73.2007 32.8958 73.663ZM32.2449 68.957C32.5334 68.4575 32.9635 68.0546 33.4808 67.7995C33.9982 67.5443 34.5796 67.4484 35.1516 67.5236C35.7235 67.5989 36.2602 67.8421 36.6939 68.2225C37.1277 68.6028 37.4388 69.1033 37.5881 69.6605C37.7374 70.2177 37.7182 70.8066 37.5327 71.3529C37.3473 71.8991 37.0041 72.3781 36.5464 72.7293C36.0887 73.0805 35.5372 73.2881 34.9616 73.3258C34.386 73.3635 33.8121 73.2297 33.3125 72.9413C32.6426 72.5545 32.1538 71.9174 31.9536 71.1702C31.7534 70.4231 31.8582 69.6269 32.2449 68.957Z" fill="#262626"/>
<path d="M24.0416 118.8C25.4366 119.605 27.2204 119.127 28.0259 117.732C28.8313 116.337 28.3533 114.553 26.9583 113.748C25.5633 112.942 23.7795 113.42 22.974 114.815C22.1686 116.21 22.6466 117.994 24.0416 118.8Z" fill="#F3E557"/>
<path d="M93.8275 50.0098C95.2225 50.8152 97.0063 50.3372 97.8117 48.9422C98.6172 47.5472 98.1392 45.7634 96.7442 44.958C95.3491 44.1526 93.5653 44.6305 92.7599 46.0255C91.9545 47.4206 92.4325 49.2044 93.8275 50.0098Z" fill="#4FCA8A"/>
<path d="M54.2801 45.508C55.6752 46.3134 57.459 45.8354 58.2644 44.4404C59.0698 43.0454 58.5918 41.2616 57.1968 40.4561C55.8018 39.6507 54.018 40.1287 53.2126 41.5237C52.4071 42.9187 52.8851 44.7025 54.2801 45.508Z" fill="white"/>
<path d="M58.9859 44.857C59.3568 44.2147 59.5288 43.4768 59.4803 42.7367C59.4318 41.9966 59.1649 41.2875 58.7134 40.6991C58.2619 40.1107 57.646 39.6694 56.9437 39.431C56.2414 39.1926 55.4842 39.1678 54.7677 39.3598C54.0513 39.5517 53.4079 39.9518 52.9189 40.5094C52.4299 41.067 52.1172 41.7572 52.0204 42.4925C51.9236 43.2278 52.047 43.9754 52.375 44.6406C52.7031 45.3057 53.221 45.8587 53.8633 46.2296C54.7246 46.7268 55.7482 46.8616 56.7089 46.6042C57.6696 46.3468 58.4886 45.7183 58.9859 44.857ZM57.1966 40.4561C57.6962 40.7445 58.0991 41.1746 58.3542 41.692C58.6093 42.2093 58.7053 42.7907 58.63 43.3627C58.5547 43.9346 58.3115 44.4714 57.9312 44.9051C57.5508 45.3388 57.0504 45.65 56.4932 45.7993C55.936 45.9486 55.347 45.9293 54.8008 45.7438C54.2545 45.5584 53.7755 45.2152 53.4244 44.7575C53.0732 44.2999 52.8656 43.7484 52.8279 43.1727C52.7902 42.5971 52.924 42.0232 53.2124 41.5236C53.5992 40.8537 54.2362 40.3649 54.9834 40.1647C55.7306 39.9645 56.5267 40.0693 57.1966 40.4561Z" fill="#262626"/>
</g>
<path d="M322.392 64.3037L305.302 70.6154L311.614 87.7053L328.704 81.3937L322.392 64.3037Z" fill="#F3E557"/>
<path d="M304 70.0117L311.012 89L330 81.9782L322.988 63L304 70.0117ZM311.62 87.703L305.307 70.6196L322.401 64.3071L328.703 81.3905L311.62 87.703Z" fill="#231F20"/>
<path d="M197.75 68.6667C199.361 68.6667 200.667 67.3609 200.667 65.75C200.667 64.1392 199.361 62.8334 197.75 62.8334C196.139 62.8334 194.833 64.1392 194.833 65.75C194.833 67.3609 196.139 68.6667 197.75 68.6667Z" fill="#00D085"/>
<path d="M197.75 62C197.008 62 196.283 62.2199 195.667 62.632C195.05 63.044 194.569 63.6297 194.285 64.3149C194.002 65.0002 193.927 65.7542 194.072 66.4816C194.217 67.209 194.574 67.8772 195.098 68.4016C195.623 68.9261 196.291 69.2832 197.018 69.4279C197.746 69.5726 198.5 69.4984 199.185 69.2145C199.87 68.9307 200.456 68.4501 200.868 67.8334C201.28 67.2167 201.5 66.4917 201.5 65.75C201.5 64.7554 201.105 63.8016 200.402 63.0984C199.698 62.3951 198.745 62 197.75 62ZM197.75 68.6667C197.173 68.6667 196.609 68.4956 196.13 68.1751C195.65 67.8546 195.276 67.3991 195.055 66.8662C194.835 66.3332 194.777 65.7468 194.889 65.181C195.002 64.6152 195.28 64.0955 195.688 63.6876C196.096 63.2797 196.615 63.0019 197.181 62.8894C197.747 62.7768 198.333 62.8346 198.866 63.0553C199.399 63.2761 199.855 63.6499 200.175 64.1296C200.496 64.6092 200.667 65.1731 200.667 65.75C200.667 66.5235 200.359 67.2654 199.812 67.8124C199.265 68.3594 198.524 68.6667 197.75 68.6667Z" fill="#262626"/>
<path d="M309.84 215.681C315.275 215.681 319.681 211.275 319.681 205.84C319.681 200.406 315.275 196 309.84 196C304.406 196 300 200.406 300 205.84C300 211.275 304.406 215.681 309.84 215.681Z" stroke="white" stroke-miterlimit="10"/>
<path d="M260 53.997L264.531 37H268.453L272.938 53.997H270.373L266.475 38.5755H266.498L262.576 53.997H260ZM262.622 49.6845V47.6145H270.35V49.6845H262.622Z" fill="black"/>
<path d="M267.992 107.124C269.088 107.124 270.004 107.277 270.74 107.584C271.484 107.883 272.047 108.335 272.431 108.941C272.814 109.539 273.005 110.286 273.005 111.183C273.005 112.042 272.829 112.766 272.476 113.357C272.132 113.939 271.687 114.384 271.143 114.691C270.606 114.997 270.054 115.17 269.487 115.208C270.1 115.223 270.706 115.369 271.304 115.645C271.909 115.913 272.408 116.35 272.799 116.956C273.189 117.554 273.385 118.355 273.385 119.36C273.385 120.326 273.189 121.165 272.799 121.878C272.415 122.583 271.821 123.128 271.016 123.511C270.211 123.894 269.176 124.086 267.911 124.086H262V107.124H267.992ZM264.404 115.036L263.564 114.254H267.014C268.133 114.254 268.996 114.024 269.602 113.564C270.207 113.104 270.51 112.444 270.51 111.586C270.51 111.003 270.384 110.539 270.131 110.194C269.878 109.841 269.513 109.588 269.038 109.435C268.57 109.274 268.015 109.194 267.371 109.194H263.276L264.404 107.883V115.036ZM267.428 122.016C268.501 122.016 269.337 121.778 269.935 121.303C270.541 120.82 270.844 120.126 270.844 119.222C270.844 118.677 270.744 118.221 270.545 117.853C270.353 117.477 270.088 117.178 269.751 116.956C269.414 116.734 269.023 116.573 268.578 116.473C268.133 116.366 267.658 116.312 267.152 116.312H263.564L264.404 115.53V123.327L263.276 122.016H267.428Z" fill="black"/>
<path d="M274.386 189.178C274.386 189.883 274.256 190.6 273.995 191.329C273.734 192.057 273.34 192.732 272.811 193.353C272.282 193.974 271.615 194.476 270.81 194.859C270.005 195.235 269.058 195.423 267.969 195.423C266.489 195.423 265.228 195.051 264.186 194.307C263.151 193.556 262.361 192.525 261.817 191.214C261.272 189.903 261 188.4 261 186.706C261 185.004 261.272 183.501 261.817 182.198C262.361 180.887 263.151 179.859 264.186 179.115C265.228 178.372 266.489 178 267.969 178C269.203 178 270.254 178.241 271.12 178.724C271.994 179.208 272.688 179.829 273.201 180.588C273.723 181.347 274.068 182.136 274.237 182.957C274.336 183.401 274.386 183.823 274.386 184.221H271.879C271.879 184.007 271.86 183.773 271.821 183.52C271.737 182.907 271.53 182.343 271.201 181.83C270.879 181.316 270.445 180.906 269.901 180.599C269.364 180.292 268.72 180.139 267.969 180.139C267.095 180.139 266.325 180.384 265.657 180.875C264.99 181.358 264.469 182.086 264.094 183.06C263.726 184.034 263.542 185.249 263.542 186.706C263.542 188.155 263.726 189.37 264.094 190.351C264.469 191.325 264.99 192.061 265.657 192.559C266.325 193.05 267.095 193.295 267.969 193.295C268.605 193.295 269.165 193.18 269.648 192.95C270.131 192.72 270.537 192.41 270.867 192.019C271.197 191.628 271.446 191.187 271.615 190.696C271.791 190.205 271.879 189.699 271.879 189.178H274.386Z" fill="black"/>
<circle cx="129" cy="16" r="3.5" fill="white" stroke="#3E343F"/>
<circle cx="317" cy="151" r="3.5" fill="#9867FF" stroke="#3E343F"/>
</g>
<defs>
<clipPath id="clip0_69_5409">
<rect width="350" height="236" fill="white"/>
</clipPath>
<clipPath id="clip1_69_5409">
<rect width="105" height="192" fill="white" transform="translate(20 -29)"/>
</clipPath>
</defs>
</svg>
