<svg width="350" height="236" viewBox="0 0 350 236" fill="none" xmlns="http://www.w3.org/2000/svg">
<g clip-path="url(#clip0_69_8531)">
<path opacity="0.3" d="M331 0.717792V0H191V70H331V69.2902V61.3148V60.589V52.6535V51.9278V43.9524V43.3303V35.3549V34.6371V26.6617V25.9439V17.9686V17.2508V9.27538V8.55759V0.5822V0.717792ZM199.702 65.143V69.2902H191.729V61.3148H199.702V65.143ZM199.702 60.6289H191.729V52.6934H199.702V60.6289ZM199.702 51.9676H191.729V43.9923H199.702V51.9676ZM199.702 43.3064H191.729V35.3549H199.702V43.3064ZM199.702 34.6451H191.729V26.6697H199.702V34.6451ZM199.702 25.9838H191.729V18.0084H199.702V25.9838ZM199.702 13.1674V17.3225H191.729V9.34716H199.702V13.1674ZM199.702 8.66127H191.729V0.685884H199.702V8.66127ZM208.397 65.143V69.2902H200.432V61.3148H208.397V65.143ZM208.397 60.6289H200.432V52.6934H208.397V60.6289ZM208.397 51.9676H200.432V43.9923H208.397V51.9676ZM208.397 43.3303H200.432V35.3549H208.397V43.3303ZM208.397 34.669H200.432V26.6936H208.397V34.669ZM208.397 26.0077H200.432V18.0324H208.397V26.0077ZM208.397 13.1913V17.3465H200.432V9.37108H208.397V13.1913ZM208.397 8.6852H200.432V0.709809H208.397V8.6852ZM217.099 65.1669V69.3141H209.086V61.3387H217.099V65.1669ZM217.099 60.6528H209.086V52.7173H217.099V60.6528ZM217.099 51.9916H209.086V44.0162H217.099V51.9916ZM217.099 43.3303H209.086V35.3549H217.099V43.3303ZM217.099 34.669H209.086V26.6936H217.099V34.669ZM217.099 26.0077H209.086V18.0324H217.099V26.0077ZM217.099 13.1913V17.3465H209.086V9.37108H217.099V13.1913ZM217.099 8.6852H209.086V0.709809H217.099V8.6852ZM225.802 65.1669V69.3141H217.788V61.3387H225.802V65.1669ZM225.802 60.6528H217.788V52.7173H225.802V60.6528ZM225.802 51.9916H217.788V44.0162H225.802V51.9916ZM225.802 43.3303H217.788V35.3549H225.802V43.3303ZM225.802 34.669H217.788V26.6936H225.802V34.669ZM225.802 26.0077H217.788V18.0324H225.802V26.0077ZM225.802 13.1913V17.3465H217.788V9.37108H225.802V13.1913ZM225.802 8.6852H217.788V0.709809H225.802V8.6852ZM234.504 65.1669V69.3141H226.491V61.3387H234.504V65.1669ZM234.504 60.6528H226.491V52.7173H234.504V60.6528ZM234.504 51.9916H226.491V44.0162H234.504V51.9916ZM234.504 43.3303H226.491V35.3549H234.504V43.3303ZM234.504 34.669H226.491V26.6936H234.504V34.669ZM234.504 26.0077H226.491V18.0324H234.504V26.0077ZM234.504 13.1913V17.3465H226.491V9.37108H234.504V13.1913ZM234.504 8.6852H226.491V0.709809H234.504V8.6852ZM243.215 65.1669V69.3141H235.201V61.3387H243.215V65.1669ZM243.215 60.6528H235.201V52.7173H243.215V60.6528ZM243.215 51.9916H235.201V44.0162H243.215V51.9916ZM243.215 43.3303H235.201V35.3549H243.215V43.3303ZM243.215 34.669H235.201V26.6936H243.215V34.669ZM243.215 26.0077H235.201V18.0324H243.215V26.0077ZM243.215 13.1913V17.3465H235.201V9.37108H243.215V13.1913ZM243.215 8.6852H235.201V0.709809H243.215V8.6852ZM251.917 65.1669V69.3141H243.904V61.3387H251.917V65.1669ZM251.917 60.6528H243.904V52.7173H251.917V60.6528ZM251.917 51.9916H243.904V44.0162H251.917V51.9916ZM251.917 43.3303H243.904V35.3549H251.917V43.3303ZM251.917 34.669H243.904V26.6936H251.917V34.669ZM251.917 26.0077H243.904V18.0324H251.917V26.0077ZM251.917 13.1913V17.3465H243.904V9.37108H251.917V13.1913ZM251.917 8.6852H243.904V0.709809H251.917V8.6852ZM260.619 65.1669V69.3141H252.606V61.3387H260.619V65.1669ZM260.619 60.6528H252.606V52.7173H260.619V60.6528ZM260.619 51.9916H252.606V44.0162H260.619V51.9916ZM260.619 43.3303H252.606V35.3549H260.619V43.3303ZM260.619 34.669H252.606V26.6936H260.619V34.669ZM260.619 26.0077H252.606V18.0324H260.619V26.0077ZM260.619 13.1913V17.3465H252.606V9.37108H260.619V13.1913ZM260.619 8.6852H252.606V0.709809H260.619V8.6852ZM269.298 65.143V69.2902H261.284V61.3148H269.298V65.143ZM269.298 60.6289H261.284V52.6934H269.298V60.6289ZM269.298 51.9676H261.284V43.9923H269.298V51.9676ZM269.298 43.3303H261.284V35.3549H269.298V43.3303ZM269.298 34.669H261.284V26.6936H269.298V34.669ZM269.298 26.0077H261.284V18.0324H269.298V26.0077ZM269.298 13.1913V17.3465H261.284V9.37108H269.298V13.1913ZM269.298 8.6852H261.284V0.709809H269.298V8.6852ZM278 65.1669V69.3141H269.987V61.3387H278V65.1669ZM278 60.6528H269.987V52.7173H278V60.6528ZM278 51.9916H269.987V44.0162H278V51.9916ZM278 43.3303H269.987V35.3549H278V43.3303ZM278 34.669H269.987V26.6936H278V34.669ZM278 26.0077H269.987V18.0324H278V26.0077ZM278 13.1913V17.3465H269.987V9.37108H278V13.1913ZM278 8.6852H269.987V0.709809H278V8.6852ZM286.703 65.1669V69.3141H278.689V61.3387H286.703V65.1669ZM286.703 60.6528H278.689V52.7173H286.703V60.6528ZM286.703 51.9916H278.689V44.0162H286.703V51.9916ZM286.703 43.3303H278.689V35.3549H286.703V43.3303ZM286.703 34.669H278.689V26.6936H286.703V34.669ZM286.703 26.0077H278.689V18.0324H286.703V26.0077ZM286.703 13.1913V17.3465H278.689V9.37108H286.703V13.1913ZM286.703 8.6852H278.689V0.709809H286.703V8.6852ZM295.405 65.1669V69.3141H287.392V61.3387H295.405V65.1669ZM295.405 60.6528H287.392V52.7173H295.405V60.6528ZM295.405 51.9916H287.392V44.0162H295.405V51.9916ZM295.405 43.3303H287.392V35.3549H295.405V43.3303ZM295.405 34.669H287.392V26.6936H295.405V34.669ZM295.405 26.0077H287.392V18.0324H295.405V26.0077ZM295.405 13.1913V17.3465H287.392V9.37108H295.405V13.1913ZM295.405 8.6852H287.392V0.709809H295.405V8.6852ZM304.107 65.1669V69.3141H296.094V61.3387H304.107V65.1669ZM304.107 60.6528H296.094V52.7173H304.107V60.6528ZM304.107 51.9916H296.094V44.0162H304.107V51.9916ZM304.107 43.3303H296.094V35.3549H304.107V43.3303ZM304.107 34.669H296.094V26.6936H304.107V34.669ZM304.107 26.0077H296.094V18.0324H304.107V26.0077ZM304.107 13.1913V17.3465H296.094V9.37108H304.107V13.1913ZM304.107 8.6852H296.094V0.709809H304.107V8.6852ZM312.81 65.1669V69.3141H304.797V61.3387H312.81V65.1669ZM312.81 60.6528H304.797V52.7173H312.81V60.6528ZM312.81 51.9916H304.797V44.0162H312.81V51.9916ZM312.81 43.3303H304.797V35.3549H312.81V43.3303ZM312.81 34.669H304.797V26.6936H312.81V34.669ZM312.81 26.0077H304.797V18.0324H312.81V26.0077ZM312.81 13.1913V17.3465H304.797V9.37108H312.81V13.1913ZM312.81 8.6852H304.797V0.709809H312.81V8.6852ZM321.512 65.1669V69.3141H313.499V61.3387H321.512V65.1669ZM321.512 60.6528H313.499V52.7173H321.512V60.6528ZM321.512 51.9916H313.499V44.0162H321.512V51.9916ZM321.512 43.3303H313.499V35.3549H321.512V43.3303ZM321.512 34.669H313.499V26.6936H321.512V34.669ZM321.512 26.0077H313.499V18.0324H321.512V26.0077ZM321.512 13.1913V17.3465H313.499V9.37108H321.512V13.1913ZM321.512 8.6852H313.499V0.709809H321.512V8.6852ZM330.215 65.1669V69.3141H322.201V61.3387H330.215V65.1669ZM330.215 60.6528H322.201V52.7173H330.215V60.6528ZM330.215 51.9916H322.201V44.0162H330.215V51.9916ZM330.215 43.3303H322.201V35.3549H330.215V43.3303ZM330.215 34.669H322.201V26.6936H330.215V34.669ZM330.215 26.0077H322.201V18.0324H330.215V26.0077ZM330.215 13.1913V17.3465H322.201V9.37108H330.215V13.1913ZM330.215 8.6852H322.201V0.709809H330.215V8.6852Z" fill="white"/>
<path d="M304.84 80.6807C310.275 80.6807 314.681 76.275 314.681 70.8403C314.681 65.4057 310.275 61 304.84 61C299.406 61 295 65.4057 295 70.8403C295 76.275 299.406 80.6807 304.84 80.6807Z" stroke="white" stroke-miterlimit="10"/>
<path d="M317.751 138.667C319.361 138.667 320.667 137.361 320.667 135.75C320.667 134.139 319.361 132.833 317.751 132.833C316.14 132.833 314.834 134.139 314.834 135.75C314.834 137.361 316.14 138.667 317.751 138.667Z" fill="#F3E557"/>
<path d="M317.75 132C317.008 132 316.283 132.22 315.667 132.632C315.05 133.044 314.569 133.63 314.285 134.315C314.002 135 313.927 135.754 314.072 136.482C314.217 137.209 314.574 137.877 315.098 138.402C315.623 138.926 316.291 139.283 317.018 139.428C317.746 139.573 318.5 139.498 319.185 139.215C319.87 138.931 320.456 138.45 320.868 137.833C321.28 137.217 321.5 136.492 321.5 135.75C321.5 134.755 321.105 133.802 320.402 133.098C319.698 132.395 318.745 132 317.75 132ZM317.75 138.667C317.173 138.667 316.609 138.496 316.13 138.175C315.65 137.855 315.276 137.399 315.055 136.866C314.835 136.333 314.777 135.747 314.889 135.181C315.002 134.615 315.28 134.095 315.688 133.688C316.096 133.28 316.615 133.002 317.181 132.889C317.747 132.777 318.333 132.835 318.866 133.055C319.399 133.276 319.855 133.65 320.175 134.13C320.496 134.609 320.667 135.173 320.667 135.75C320.667 136.524 320.359 137.265 319.812 137.812C319.265 138.359 318.524 138.667 317.75 138.667Z" fill="#262626"/>
<path d="M171.553 175.953V66.5332C171.553 63.49 174.043 61 177.086 61H284.5C287.543 61 290.033 63.49 290.033 66.5332V175.953C290.033 178.996 287.543 181.486 284.5 181.486H177.086C174.043 181.486 171.553 178.996 171.553 175.953Z" fill="#3782FB" stroke="#262626" stroke-miterlimit="10" stroke-linecap="round" stroke-linejoin="round"/>
<path d="M237.814 183.7V173.117C237.814 170.074 240.304 167.584 243.348 167.584H253.93C256.973 167.584 259.463 170.074 259.463 173.117V183.7C259.463 186.743 256.973 189.233 253.93 189.233H243.348C240.304 189.233 237.814 186.743 237.814 183.7Z" fill="#3782FB" stroke="#262626" stroke-miterlimit="10" stroke-linecap="round" stroke-linejoin="round"/>
<path d="M275.302 61H151.91C148.867 61 146.377 63.49 146.377 66.5332V175.953C146.377 178.996 148.867 181.486 151.91 181.486H176.118C176.118 185.775 179.576 189.233 183.865 189.233H243.278C247.497 189.233 250.955 185.775 251.024 181.556V181.486H275.232C278.276 181.486 280.766 178.996 280.766 175.953V66.5332C280.835 63.49 278.345 61 275.302 61Z" fill="white" stroke="#2B2B2B" stroke-miterlimit="10" stroke-linecap="round" stroke-linejoin="round"/>
<path d="M290.241 186.466L232.833 204.934L226.678 216H232.833H290.241H325.93C328.974 216 331.464 213.51 331.464 210.467V192.069C331.464 189.025 328.974 186.535 325.93 186.535H290.241V186.466Z" fill="#387FFF" stroke="#262626" stroke-miterlimit="10" stroke-linecap="round" stroke-linejoin="round"/>
<path d="M227.302 215.931H79.2188C76.1755 215.931 73.6855 213.441 73.6855 210.398V204.864H232.836V210.398C232.836 213.441 230.346 215.931 227.302 215.931Z" fill="white" stroke="#262626" stroke-miterlimit="10" stroke-linecap="round" stroke-linejoin="round"/>
<path d="M290.243 186.466H131.093L73.6855 204.864H232.835L290.243 186.466Z" fill="white" stroke="#262626" stroke-miterlimit="10" stroke-linecap="round" stroke-linejoin="round"/>
<path d="M122.377 196.634H137.663" stroke="#262626" stroke-miterlimit="10" stroke-linecap="round" stroke-linejoin="round"/>
<path d="M142.99 196.634H158.276" stroke="#262626" stroke-miterlimit="10" stroke-linecap="round" stroke-linejoin="round"/>
<path d="M163.6 196.634H178.885" stroke="#262626" stroke-miterlimit="10" stroke-linecap="round" stroke-linejoin="round"/>
<path d="M184.213 196.634H199.498" stroke="#262626" stroke-miterlimit="10" stroke-linecap="round" stroke-linejoin="round"/>
<path d="M204.752 196.634H220.038" stroke="#262626" stroke-miterlimit="10" stroke-linecap="round" stroke-linejoin="round"/>
<path d="M225.365 196.634H240.651" stroke="#262626" stroke-miterlimit="10" stroke-linecap="round" stroke-linejoin="round"/>
<path d="M132.686 192.276H147.971" stroke="#262626" stroke-miterlimit="10" stroke-linecap="round" stroke-linejoin="round"/>
<path d="M153.299 192.276H168.585" stroke="#262626" stroke-miterlimit="10" stroke-linecap="round" stroke-linejoin="round"/>
<path d="M173.909 192.276H189.194" stroke="#262626" stroke-miterlimit="10" stroke-linecap="round" stroke-linejoin="round"/>
<path d="M194.451 192.276H209.806" stroke="#262626" stroke-miterlimit="10" stroke-linecap="round" stroke-linejoin="round"/>
<path d="M215.061 192.276H230.346" stroke="#262626" stroke-miterlimit="10" stroke-linecap="round" stroke-linejoin="round"/>
<path d="M235.674 192.276H250.96" stroke="#262626" stroke-miterlimit="10" stroke-linecap="round" stroke-linejoin="round"/>
<path d="M111.313 201.06H126.598" stroke="#262626" stroke-miterlimit="10" stroke-linecap="round" stroke-linejoin="round"/>
<path d="M131.926 201.06H147.212" stroke="#262626" stroke-miterlimit="10" stroke-linecap="round" stroke-linejoin="round"/>
<path d="M152.535 201.06H167.821" stroke="#262626" stroke-miterlimit="10" stroke-linecap="round" stroke-linejoin="round"/>
<path d="M173.147 201.06H188.432" stroke="#262626" stroke-miterlimit="10" stroke-linecap="round" stroke-linejoin="round"/>
<path d="M193.688 201.06H209.043" stroke="#262626" stroke-miterlimit="10" stroke-linecap="round" stroke-linejoin="round"/>
<path d="M214.301 201.06H229.587" stroke="#262626" stroke-miterlimit="10" stroke-linecap="round" stroke-linejoin="round"/>
<path d="M320.605 186.466C323.649 186.466 326.138 188.956 326.138 192V198.432" stroke="#262626" stroke-miterlimit="10" stroke-linecap="round" stroke-linejoin="round"/>
<path d="M316.109 186.466C319.152 186.466 321.642 188.956 321.642 192V198.432" stroke="#262626" stroke-miterlimit="10" stroke-linecap="round" stroke-linejoin="round"/>
<path d="M311.615 186.466C314.658 186.466 317.148 188.956 317.148 192V198.432" stroke="#262626" stroke-miterlimit="10" stroke-linecap="round" stroke-linejoin="round"/>
<path d="M307.051 186.466C310.094 186.466 312.584 188.956 312.584 192V198.432" stroke="#262626" stroke-miterlimit="10" stroke-linecap="round" stroke-linejoin="round"/>
<path d="M302.554 186.466C305.598 186.466 308.088 188.956 308.088 192V198.432" stroke="#262626" stroke-miterlimit="10" stroke-linecap="round" stroke-linejoin="round"/>
<path d="M320.605 215.931C323.649 215.931 326.138 213.441 326.138 210.398V208.807" stroke="#262626" stroke-miterlimit="10" stroke-linecap="round" stroke-linejoin="round"/>
<path d="M316.109 215.931C319.152 215.931 321.642 213.441 321.642 210.398V208.807" stroke="#262626" stroke-miterlimit="10" stroke-linecap="round" stroke-linejoin="round"/>
<path d="M311.615 215.931C314.658 215.931 317.148 213.441 317.148 210.398V208.807" stroke="#262626" stroke-miterlimit="10" stroke-linecap="round" stroke-linejoin="round"/>
<path d="M307.051 215.931C310.094 215.931 312.584 213.441 312.584 210.398V208.807" stroke="#262626" stroke-miterlimit="10" stroke-linecap="round" stroke-linejoin="round"/>
<path d="M302.554 215.931C305.598 215.931 308.088 213.441 308.088 210.398V208.807" stroke="#262626" stroke-miterlimit="10" stroke-linecap="round" stroke-linejoin="round"/>
<path d="M298.472 204.865H254.967V208.53H298.472V204.865Z" stroke="#262626" stroke-miterlimit="10" stroke-linecap="round" stroke-linejoin="round"/>
<path d="M267.209 83.1331V162.12C267.209 163.642 265.964 164.887 264.442 164.887H162.769C161.247 164.887 160.002 163.642 160.002 162.12V83.1331C160.002 81.6114 161.247 80.3665 162.769 80.3665H264.511C265.964 80.3665 267.209 81.6114 267.209 83.1331Z" fill="#80B7F1" stroke="#2B2B2B" stroke-miterlimit="10" stroke-linecap="round" stroke-linejoin="round"/>
<path d="M267.209 83.1331V162.12C267.209 163.642 265.964 164.887 264.442 164.887H162.769C161.247 164.887 160.002 163.642 160.002 162.12V83.1331C160.002 81.6114 161.247 80.3665 162.769 80.3665H264.511C265.964 80.3665 267.209 81.6114 267.209 83.1331Z" fill="#80B7F1" stroke="#2B2B2B" stroke-miterlimit="10" stroke-linecap="round" stroke-linejoin="round"/>
<path d="M166.849 162.12V83.1331C166.849 81.6114 168.094 80.3665 169.616 80.3665H162.769C161.247 80.3665 160.002 81.6114 160.002 83.1331V162.12C160.002 163.642 161.247 164.887 162.769 164.887H169.616C168.094 164.887 166.849 163.642 166.849 162.12Z" fill="#2B2B2B" stroke="#2B2B2B" stroke-miterlimit="10" stroke-linecap="round" stroke-linejoin="round"/>
<path d="M253.721 152.16H189.674V97.2429H253.721C254.482 97.2429 255.104 97.8654 255.104 98.6262V150.777C255.104 151.538 254.482 152.16 253.721 152.16Z" fill="white" stroke="#2B2B2B" stroke-miterlimit="10" stroke-linecap="round" stroke-linejoin="round"/>
<path d="M189.675 152.16H180.268C179.507 152.16 178.885 151.538 178.885 150.777V98.6262C178.885 97.8654 179.507 97.2429 180.268 97.2429H189.675V152.16Z" fill="#F0F3FA" stroke="#2B2B2B" stroke-miterlimit="10" stroke-linecap="round" stroke-linejoin="round"/>
<path d="M184.834 103.329L186.149 101.116C187.601 102.015 188.085 103.883 187.324 105.404L185.111 104.09C184.765 104.021 184.696 103.606 184.834 103.329Z" fill="#F9AD23"/>
<path d="M184.905 104.436L187.118 105.75C186.219 107.203 184.352 107.687 182.83 106.926L184.144 104.713C184.283 104.367 184.628 104.298 184.905 104.436Z" fill="#2D1D2F"/>
<path d="M182.483 106.719L184.212 103.675C184.281 103.537 184.143 103.468 184.005 103.537C183.175 104.229 182.206 104.782 181.1 105.128C181.445 105.75 181.93 106.304 182.483 106.719Z" fill="#5FB1DF"/>
<path d="M181.1 104.782C183.036 104.159 184.765 102.845 185.803 100.909C184.212 100.079 182.275 100.632 181.376 102.223C180.961 103.053 180.892 103.952 181.1 104.782Z" fill="#E72022"/>
<path d="M181.582 110.108H187.669" stroke="#262626" stroke-miterlimit="10" stroke-linecap="round" stroke-linejoin="round"/>
<path d="M181.582 112.39H185.455" stroke="#262626" stroke-miterlimit="10" stroke-linecap="round" stroke-linejoin="round"/>
<path d="M193.547 103.537H206.827" stroke="#262626" stroke-miterlimit="10" stroke-linecap="round" stroke-linejoin="round"/>
<path d="M231.797 135.63V117.093C231.797 116.678 232.143 116.332 232.558 116.332H234.356C234.771 116.332 235.117 116.678 235.117 117.093V135.699C235.117 136.114 234.771 136.46 234.356 136.46H232.558C232.143 136.39 231.797 136.045 231.797 135.63Z" fill="#3782FB" stroke="#262626" stroke-miterlimit="10" stroke-linecap="round" stroke-linejoin="round"/>
<path opacity="0.8" d="M224.396 135.63V117.093C224.396 116.678 224.742 116.332 225.157 116.332H226.956C227.371 116.332 227.716 116.678 227.716 117.093V135.699C227.716 136.114 227.371 136.46 226.956 136.46H225.157C224.742 136.39 224.396 136.045 224.396 135.63Z" fill="#3782FB" stroke="#262626" stroke-miterlimit="10" stroke-linecap="round" stroke-linejoin="round"/>
<path opacity="0.6" d="M216.996 135.63V117.093C216.996 116.678 217.342 116.332 217.757 116.332H219.555C219.97 116.332 220.316 116.678 220.316 117.093V135.699C220.316 136.114 219.97 136.46 219.555 136.46H217.757C217.342 136.39 216.996 136.045 216.996 135.63Z" fill="#3782FB" stroke="#262626" stroke-miterlimit="10" stroke-linecap="round" stroke-linejoin="round"/>
<path opacity="0.2" d="M202.125 135.63V117.093C202.125 116.678 202.471 116.332 202.886 116.332H204.684C205.099 116.332 205.445 116.678 205.445 117.093V135.699C205.445 136.114 205.099 136.46 204.684 136.46H202.886C202.471 136.39 202.125 136.045 202.125 135.63Z" fill="#3782FB" stroke="#262626" stroke-miterlimit="10" stroke-linecap="round" stroke-linejoin="round"/>
<g opacity="0.4">
<path d="M209.523 135.63V117.093C209.523 116.678 209.869 116.332 210.284 116.332H212.083C212.498 116.332 212.843 116.678 212.843 117.093V135.699C212.843 136.114 212.498 136.46 212.083 136.46H210.284C209.869 136.39 209.523 136.045 209.523 135.63Z" fill="#3782FB" stroke="#262626" stroke-miterlimit="10" stroke-linecap="round" stroke-linejoin="round"/>
</g>
<path d="M146.378 159.285H66.6993C54.042 159.285 43.7363 169.59 43.7363 182.248V215.931" stroke="#2B2B2B" stroke-miterlimit="10" stroke-linecap="round" stroke-linejoin="round"/>
<path d="M146.377 145.451H66.6984C46.3638 145.451 29.9023 161.982 29.9023 182.247V215.931" stroke="#2B2B2B" stroke-miterlimit="10" stroke-linecap="round" stroke-linejoin="round"/>
<path d="M146.376 131.618H142.227" stroke="#2B2B2B" stroke-linecap="round" stroke-linejoin="round"/>
<path d="M134.204 131.618H66.6984C38.6863 131.618 16 154.305 16 182.317V207.77" stroke="#2B2B2B" stroke-linecap="round" stroke-linejoin="round" stroke-dasharray="11.61 11.61"/>
<path d="M16 211.781V215.931" stroke="#2B2B2B" stroke-linecap="round" stroke-linejoin="round"/>
<path d="M146.376 90.1189H142.226" stroke="#2B2B2B" stroke-linecap="round" stroke-linejoin="round"/>
<path d="M134.896 90.119H108.129C98.1692 90.119 89.5927 83.6866 86.4802 74.7643" stroke="#2B2B2B" stroke-linecap="round" stroke-linejoin="round" stroke-dasharray="10.61 10.61"/>
<path d="M85.5116 71.2368C85.2349 69.9227 85.1658 68.5394 85.1658 67.0869" stroke="#2B2B2B" stroke-linecap="round" stroke-linejoin="round"/>
<path d="M146.377 103.952H108.128C87.7937 103.952 71.3323 87.4216 71.3323 67.0869" stroke="#2B2B2B" stroke-miterlimit="10" stroke-linecap="round" stroke-linejoin="round"/>
<path d="M146.377 117.785H108.128C80.116 117.785 57.4297 95.0988 57.4297 67.0868" stroke="#2B2B2B" stroke-miterlimit="10" stroke-linecap="round" stroke-linejoin="round"/>
<path d="M43.6666 201.821C46.3787 201.821 48.5774 199.623 48.5774 196.911C48.5774 194.198 46.3787 192 43.6666 192C40.9545 192 38.7559 194.198 38.7559 196.911C38.7559 199.623 40.9545 201.821 43.6666 201.821Z" fill="white" stroke="#2B2B2B" stroke-miterlimit="10" stroke-linecap="round" stroke-linejoin="round"/>
<path d="M118.987 164.195C121.699 164.195 123.898 161.996 123.898 159.284C123.898 156.572 121.699 154.374 118.987 154.374C116.275 154.374 114.076 156.572 114.076 159.284C114.076 161.996 116.275 164.195 118.987 164.195Z" fill="#9867FF" stroke="#2B2B2B" stroke-miterlimit="10" stroke-linecap="round" stroke-linejoin="round"/>
<path d="M87.0318 149.822C89.744 149.822 91.9426 147.623 91.9426 144.911C91.9426 142.199 89.744 140 87.0318 140C84.3197 140 82.1211 142.199 82.1211 144.911C82.1211 147.623 84.3197 149.822 87.0318 149.822Z" fill="#F3E557" stroke="#2B2B2B" stroke-miterlimit="10" stroke-linecap="round" stroke-linejoin="round"/>
<path d="M76.243 90.4646C78.9552 90.4646 81.1538 88.266 81.1538 85.5538C81.1538 82.8417 78.9552 80.6431 76.243 80.6431C73.5309 80.6431 71.3323 82.8417 71.3323 85.5538C71.3323 88.266 73.5309 90.4646 76.243 90.4646Z" fill="white" stroke="#2B2B2B" stroke-miterlimit="10" stroke-linecap="round" stroke-linejoin="round"/>
<path d="M102 125.7H38C33.6 125.7 30 122.1 30 117.7V28C30 23.6 33.6 20 38 20H102C106.4 20 110 23.6 110 28V117.7C110 122.1 106.4 125.7 102 125.7Z" fill="white" stroke="#2B2B2B" stroke-miterlimit="10"/>
<path d="M93.7001 59.3999H46.4001C45.8001 59.3999 45.3 58.8999 45.3 58.2999V54.2999C45.3 53.6999 45.8001 53.2 46.4001 53.2H93.7001C94.3001 53.2 94.8 53.6999 94.8 54.2999V58.2999C94.8 58.8999 94.3001 59.3999 93.7001 59.3999Z" fill="#9867FF" stroke="#262626" stroke-miterlimit="10"/>
<path opacity="0.8" d="M93.7001 73.3999H46.4001C45.8001 73.3999 45.3 72.8999 45.3 72.2999V68.2999C45.3 67.6999 45.8001 67.2 46.4001 67.2H93.7001C94.3001 67.2 94.8 67.6999 94.8 68.2999V72.2999C94.8 72.8999 94.3001 73.3999 93.7001 73.3999Z" fill="#9867FF" stroke="#262626" stroke-miterlimit="10"/>
<path opacity="0.6" d="M93.7001 87.3999H46.4001C45.8001 87.3999 45.3 86.8999 45.3 86.2999V82.2999C45.3 81.6999 45.8001 81.2 46.4001 81.2H93.7001C94.3001 81.2 94.8 81.6999 94.8 82.2999V86.2999C94.8 86.8999 94.3001 87.3999 93.7001 87.3999Z" fill="#9867FF" stroke="#262626" stroke-miterlimit="10"/>
<path opacity="0.2" d="M93.7001 115.3H46.4001C45.8001 115.3 45.3 114.8 45.3 114.2V110.2C45.3 109.6 45.8001 109.1 46.4001 109.1H93.7001C94.3001 109.1 94.8 109.6 94.8 110.2V114.2C94.8 114.8 94.3001 115.3 93.7001 115.3Z" fill="#9867FF" stroke="#262626" stroke-miterlimit="10"/>
<g opacity="0.4">
<path d="M93.7001 101.4H46.4001C45.8001 101.4 45.3 100.9 45.3 100.3V96.2999C45.3 95.6999 45.8001 95.2 46.4001 95.2H93.7001C94.3001 95.2 94.8 95.6999 94.8 96.2999V100.3C94.8 100.9 94.3001 101.4 93.7001 101.4Z" fill="#9867FF" stroke="#262626" stroke-miterlimit="10"/>
</g>
<path d="M46.3 36.6H70.0001" stroke="#262626" stroke-miterlimit="10"/>
<path d="M171.985 32.832C171.308 31.826 170.446 30.9725 169.338 30.3323C168.231 29.6922 167 29.174 165.585 28.7777C164.292 28.4119 162.938 28.1071 161.585 27.8632V20.09C162.108 20.1814 162.6 20.2729 163.092 20.4253C164.077 20.7301 164.877 21.1874 165.492 21.797C166.108 22.4067 166.415 23.1993 166.415 24.1442C166.415 24.2052 166.415 24.2967 166.415 24.3271C166.415 24.3576 166.415 24.4491 166.415 24.51H172.446C172.446 24.4491 172.446 24.3576 172.446 24.2662C172.446 24.1747 172.446 24.0833 172.446 24.0223C172.446 22.0714 171.862 20.4253 170.723 19.084C169.554 17.7428 168.046 16.7063 166.138 16.0052C164.723 15.487 163.215 15.1517 161.615 14.9993V10H158.138V14.9993C156.538 15.1212 155.031 15.426 153.646 15.9138C151.738 16.5844 150.231 17.5599 149.092 18.8706C147.985 20.1814 147.4 21.7361 147.4 23.5955C147.4 25.0283 147.708 26.2476 148.354 27.2535C149 28.2595 149.862 29.113 150.969 29.7836C152.077 30.4543 153.308 31.003 154.662 31.3993C155.769 31.7346 156.908 32.0089 158.108 32.2223V40.3309C156.846 40.1784 155.769 39.8736 154.938 39.4164C153.677 38.7152 153.031 37.7093 153.031 36.3376C153.031 36.2156 153.031 36.0937 153.031 36.0327C153.031 35.9718 153.031 35.8803 153.031 35.7889H147C147 35.8803 147 36.0022 147 36.1242C147 36.2766 147 36.3985 147 36.5204C147 37.9836 147.338 39.2639 148.015 40.3918C148.692 41.4892 149.615 42.4342 150.815 43.1963C152.015 43.9584 153.369 44.5071 154.938 44.9033C155.954 45.1472 157.031 45.3301 158.138 45.4216V51H161.615V45.4216C162.723 45.3301 163.831 45.1777 164.877 44.9338C166.446 44.568 167.831 44.0193 169.062 43.2877C170.292 42.5561 171.246 41.6416 171.954 40.5138C172.662 39.4164 173 38.0751 173 36.5509C173 35.0877 172.662 33.8684 171.985 32.832ZM157.154 26.8573C155.954 26.5219 155.031 26.0647 154.385 25.5465C153.708 25.0283 153.4 24.2967 153.4 23.4126C153.4 22.5286 153.738 21.858 154.415 21.3398C155.092 20.8216 155.923 20.4558 156.938 20.2424C157.338 20.1509 157.738 20.1204 158.138 20.0595V27.1011C157.8 27.0097 157.462 26.9487 157.154 26.8573ZM166.108 38.8981C165.492 39.4468 164.631 39.8431 163.585 40.087C162.969 40.2394 162.292 40.3309 161.615 40.3918V32.9234C163.062 33.2283 164.2 33.5941 165.062 33.9599C166.385 34.539 167.062 35.484 167.062 36.8558C167.062 37.6788 166.723 38.3494 166.108 38.8981Z" fill="white" stroke="#262626" stroke-linecap="round" stroke-linejoin="round"/>
</g>
<defs>
<clipPath id="clip0_69_8531">
<rect width="350" height="236" fill="white"/>
</clipPath>
</defs>
</svg>
