<svg width="350" height="234" viewBox="0 0 350 234" fill="none" xmlns="http://www.w3.org/2000/svg">
<path opacity="0.3" d="M179 164.502V164H81V213H179V212.503V206.92V206.412V200.857V200.349V194.767V194.331V188.748V188.246V182.663V182.161V176.578V176.076V170.493V169.99V164.408V164.502ZM87.0917 209.6V212.503H81.5104V206.92H87.0917V209.6ZM87.0917 206.44H81.5104V200.885H87.0917V206.44ZM87.0917 200.377H81.5104V194.795H87.0917V200.377ZM87.0917 194.314H81.5104V188.748H87.0917V194.314ZM87.0917 188.252H81.5104V182.669H87.0917V188.252ZM87.0917 182.189H81.5104V176.606H87.0917V182.189ZM87.0917 173.217V176.126H81.5104V170.543H87.0917V173.217ZM87.0917 170.063H81.5104V164.48H87.0917V170.063ZM93.1778 209.6V212.503H87.6021V206.92H93.1778V209.6ZM93.1778 206.44H87.6021V200.885H93.1778V206.44ZM93.1778 200.377H87.6021V194.795H93.1778V200.377ZM93.1778 194.331H87.6021V188.748H93.1778V194.331ZM93.1778 188.268H87.6021V182.686H93.1778V188.268ZM93.1778 182.205H87.6021V176.623H93.1778V182.205ZM93.1778 173.234V176.143H87.6021V170.56H93.1778V173.234ZM93.1778 170.08H87.6021V164.497H93.1778V170.08ZM99.2695 209.617V212.52H93.6602V206.937H99.2695V209.617ZM99.2695 206.457H93.6602V200.902H99.2695V206.457ZM99.2695 200.394H93.6602V194.811H99.2695V200.394ZM99.2695 194.331H93.6602V188.748H99.2695V194.331ZM99.2695 188.268H93.6602V182.686H99.2695V188.268ZM99.2695 182.205H93.6602V176.623H99.2695V182.205ZM99.2695 173.234V176.143H93.6602V170.56H99.2695V173.234ZM99.2695 170.08H93.6602V164.497H99.2695V170.08ZM105.361 209.617V212.52H99.7519V206.937H105.361V209.617ZM105.361 206.457H99.7519V200.902H105.361V206.457ZM105.361 200.394H99.7519V194.811H105.361V200.394ZM105.361 194.331H99.7519V188.748H105.361V194.331ZM105.361 188.268H99.7519V182.686H105.361V188.268ZM105.361 182.205H99.7519V176.623H105.361V182.205ZM105.361 173.234V176.143H99.7519V170.56H105.361V173.234ZM105.361 170.08H99.7519V164.497H105.361V170.08ZM111.453 209.617V212.52H105.844V206.937H111.453V209.617ZM111.453 206.457H105.844V200.902H111.453V206.457ZM111.453 200.394H105.844V194.811H111.453V200.394ZM111.453 194.331H105.844V188.748H111.453V194.331ZM111.453 188.268H105.844V182.686H111.453V188.268ZM111.453 182.205H105.844V176.623H111.453V182.205ZM111.453 173.234V176.143H105.844V170.56H111.453V173.234ZM111.453 170.08H105.844V164.497H111.453V170.08ZM117.55 209.617V212.52H111.941V206.937H117.55V209.617ZM117.55 206.457H111.941V200.902H117.55V206.457ZM117.55 200.394H111.941V194.811H117.55V200.394ZM117.55 194.331H111.941V188.748H117.55V194.331ZM117.55 188.268H111.941V182.686H117.55V188.268ZM117.55 182.205H111.941V176.623H117.55V182.205ZM117.55 173.234V176.143H111.941V170.56H117.55V173.234ZM117.55 170.08H111.941V164.497H117.55V170.08ZM123.642 209.617V212.52H118.033V206.937H123.642V209.617ZM123.642 206.457H118.033V200.902H123.642V206.457ZM123.642 200.394H118.033V194.811H123.642V200.394ZM123.642 194.331H118.033V188.748H123.642V194.331ZM123.642 188.268H118.033V182.686H123.642V188.268ZM123.642 182.205H118.033V176.623H123.642V182.205ZM123.642 173.234V176.143H118.033V170.56H123.642V173.234ZM123.642 170.08H118.033V164.497H123.642V170.08ZM129.734 209.617V212.52H124.124V206.937H129.734V209.617ZM129.734 206.457H124.124V200.902H129.734V206.457ZM129.734 200.394H124.124V194.811H129.734V200.394ZM129.734 194.331H124.124V188.748H129.734V194.331ZM129.734 188.268H124.124V182.686H129.734V188.268ZM129.734 182.205H124.124V176.623H129.734V182.205ZM129.734 173.234V176.143H124.124V170.56H129.734V173.234ZM129.734 170.08H124.124V164.497H129.734V170.08ZM135.808 209.6V212.503H130.199V206.92H135.808V209.6ZM135.808 206.44H130.199V200.885H135.808V206.44ZM135.808 200.377H130.199V194.795H135.808V200.377ZM135.808 194.331H130.199V188.748H135.808V194.331ZM135.808 188.268H130.199V182.686H135.808V188.268ZM135.808 182.205H130.199V176.623H135.808V182.205ZM135.808 173.234V176.143H130.199V170.56H135.808V173.234ZM135.808 170.08H130.199V164.497H135.808V170.08ZM141.9 209.617V212.52H136.291V206.937H141.9V209.617ZM141.9 206.457H136.291V200.902H141.9V206.457ZM141.9 200.394H136.291V194.811H141.9V200.394ZM141.9 194.331H136.291V188.748H141.9V194.331ZM141.9 188.268H136.291V182.686H141.9V188.268ZM141.9 182.205H136.291V176.623H141.9V182.205ZM141.9 173.234V176.143H136.291V170.56H141.9V173.234ZM141.9 170.08H136.291V164.497H141.9V170.08ZM147.992 209.617V212.52H142.383V206.937H147.992V209.617ZM147.992 206.457H142.383V200.902H147.992V206.457ZM147.992 200.394H142.383V194.811H147.992V200.394ZM147.992 194.331H142.383V188.748H147.992V194.331ZM147.992 188.268H142.383V182.686H147.992V188.268ZM147.992 182.205H142.383V176.623H147.992V182.205ZM147.992 173.234V176.143H142.383V170.56H147.992V173.234ZM147.992 170.08H142.383V164.497H147.992V170.08ZM154.084 209.617V212.52H148.474V206.937H154.084V209.617ZM154.084 206.457H148.474V200.902H154.084V206.457ZM154.084 200.394H148.474V194.811H154.084V200.394ZM154.084 194.331H148.474V188.748H154.084V194.331ZM154.084 188.268H148.474V182.686H154.084V188.268ZM154.084 182.205H148.474V176.623H154.084V182.205ZM154.084 173.234V176.143H148.474V170.56H154.084V173.234ZM154.084 170.08H148.474V164.497H154.084V170.08ZM160.175 209.617V212.52H154.566V206.937H160.175V209.617ZM160.175 206.457H154.566V200.902H160.175V206.457ZM160.175 200.394H154.566V194.811H160.175V200.394ZM160.175 194.331H154.566V188.748H160.175V194.331ZM160.175 188.268H154.566V182.686H160.175V188.268ZM160.175 182.205H154.566V176.623H160.175V182.205ZM160.175 173.234V176.143H154.566V170.56H160.175V173.234ZM160.175 170.08H154.566V164.497H160.175V170.08ZM166.267 209.617V212.52H160.658V206.937H166.267V209.617ZM166.267 206.457H160.658V200.902H166.267V206.457ZM166.267 200.394H160.658V194.811H166.267V200.394ZM166.267 194.331H160.658V188.748H166.267V194.331ZM166.267 188.268H160.658V182.686H166.267V188.268ZM166.267 182.205H160.658V176.623H166.267V182.205ZM166.267 173.234V176.143H160.658V170.56H166.267V173.234ZM166.267 170.08H160.658V164.497H166.267V170.08ZM172.359 209.617V212.52H166.749V206.937H172.359V209.617ZM172.359 206.457H166.749V200.902H172.359V206.457ZM172.359 200.394H166.749V194.811H172.359V200.394ZM172.359 194.331H166.749V188.748H172.359V194.331ZM172.359 188.268H166.749V182.686H172.359V188.268ZM172.359 182.205H166.749V176.623H172.359V182.205ZM172.359 173.234V176.143H166.749V170.56H172.359V173.234ZM172.359 170.08H166.749V164.497H172.359V170.08ZM178.45 209.617V212.52H172.841V206.937H178.45V209.617ZM178.45 206.457H172.841V200.902H178.45V206.457ZM178.45 200.394H172.841V194.811H178.45V200.394ZM178.45 194.331H172.841V188.748H178.45V194.331ZM178.45 188.268H172.841V182.686H178.45V188.268ZM178.45 182.205H172.841V176.623H178.45V182.205ZM178.45 173.234V176.143H172.841V170.56H178.45V173.234ZM178.45 170.08H172.841V164.497H178.45V170.08Z" fill="white"/>
<path d="M161.39 182.094V68.1152C161.39 65.289 163.679 63 166.505 63H313.048C315.874 63 318.164 65.289 318.164 68.1152V182.094C318.164 184.92 315.874 187.209 313.048 187.209H166.505C163.679 187.209 161.39 184.92 161.39 182.094Z" fill="#A46FFF" stroke="#262626" stroke-miterlimit="10" stroke-linecap="round" stroke-linejoin="round"/>
<path d="M274.051 187.209H304.084C307.665 187.209 310.574 184.306 310.574 180.719V69.4899C310.574 65.9093 307.671 63 304.084 63H141.632C138.052 63 135.142 65.9029 135.142 69.4899V180.726C135.142 184.306 138.045 187.216 141.632 187.216H170.047H274.051V187.209Z" fill="white" stroke="#2B2B2B" stroke-miterlimit="10" stroke-linecap="round" stroke-linejoin="round"/>
<path d="M302.236 73.6268V176.589C302.236 178.597 300.612 180.227 298.598 180.227H147.118C145.117 180.227 143.48 178.603 143.48 176.589V73.6268C143.48 71.6191 145.117 69.9886 147.118 69.9886H298.604C300.612 69.9886 302.236 71.6191 302.236 73.6268Z" fill="#BD9FF2" stroke="#2B2B2B" stroke-miterlimit="10" stroke-linecap="round" stroke-linejoin="round"/>
<path d="M150.047 176.583V73.6268C150.047 71.6191 151.684 69.9886 153.685 69.9886H147.118C145.117 69.9886 143.48 71.6127 143.48 73.6268V176.589C143.48 178.597 145.117 180.227 147.118 180.227H153.685C151.684 180.221 150.047 178.597 150.047 176.583Z" fill="#2B2B2B" stroke="#2B2B2B" stroke-miterlimit="10" stroke-linecap="round" stroke-linejoin="round"/>
<path d="M252.855 209.614V212.83H236.672V208.252H217.874V187.209H247.977V208.252H251.487C252.242 208.252 252.855 208.859 252.855 209.614Z" fill="#A46FFF" stroke="#262626" stroke-miterlimit="10" stroke-linecap="round" stroke-linejoin="round"/>
<path d="M240.163 208.252H213.52H210.067C211.972 208.252 213.52 206.705 213.52 204.799V187.209H243.616V204.799C243.616 206.705 242.069 208.252 240.163 208.252Z" fill="white" stroke="#2B2B2B" stroke-miterlimit="10" stroke-linecap="round" stroke-linejoin="round"/>
<path d="M238.539 208.252C237.51 208.252 236.672 209.09 236.672 210.119V212.83H201.243V210.739C201.243 209.371 202.349 208.252 203.73 208.252H238.539Z" fill="white" stroke="#2B2B2B" stroke-miterlimit="10" stroke-linecap="round" stroke-linejoin="round"/>
<path d="M289.256 87.6104V100.494H181.057V82.4952H284.876C287.293 82.4952 289.256 84.7843 289.256 87.6104Z" fill="white" stroke="#2B2B2B" stroke-miterlimit="10"/>
<path opacity="0.8" d="M289.256 100.494H163.02V116.901H289.256V100.494Z" fill="white" stroke="#2B2B2B" stroke-miterlimit="10"/>
<path opacity="0.6" d="M289.256 116.901H163.02V133.308H289.256V116.901Z" fill="white" stroke="#2B2B2B" stroke-miterlimit="10"/>
<path opacity="0.4" d="M289.256 133.308H163.02V149.715H289.256V133.308Z" fill="white" stroke="#2B2B2B" stroke-miterlimit="10"/>
<path opacity="0.2" d="M253.194 149.715V167.721H166.677C164.663 167.721 163.026 165.425 163.026 162.605V149.715H253.194Z" fill="white" stroke="#2B2B2B" stroke-miterlimit="10"/>
<path d="M181.057 82.4952V167.721" stroke="#2B2B2B" stroke-miterlimit="10"/>
<path d="M199.088 82.4952V167.721" stroke="#2B2B2B" stroke-miterlimit="10"/>
<path d="M217.126 82.4952V167.721" stroke="#2B2B2B" stroke-miterlimit="10"/>
<path d="M235.157 82.4952V167.721" stroke="#2B2B2B" stroke-miterlimit="10"/>
<path d="M253.194 82.4952V167.721" stroke="#2B2B2B" stroke-miterlimit="10"/>
<path d="M271.225 82.4952V149.715" stroke="#2B2B2B" stroke-miterlimit="10"/>
<path d="M284.141 167.721H168.135C165.309 167.721 163.02 165.431 163.02 162.605V87.6104C163.02 84.7843 165.309 82.4952 168.135 82.4952H284.141C286.967 82.4952 289.256 84.7843 289.256 87.6104V162.605C289.256 165.431 286.967 167.721 284.141 167.721Z" stroke="#2B2B2B" stroke-miterlimit="10"/>
<path d="M190.322 129.517C192.759 129.517 194.734 127.541 194.734 125.105C194.734 122.668 192.759 120.693 190.322 120.693C187.886 120.693 185.91 122.668 185.91 125.105C185.91 127.541 187.886 129.517 190.322 129.517Z" fill="#F0EB00" stroke="#262626" stroke-miterlimit="10" stroke-linecap="round" stroke-linejoin="round"/>
<path d="M262.165 129.517C264.602 129.517 266.577 127.541 266.577 125.105C266.577 122.668 264.602 120.693 262.165 120.693C259.728 120.693 257.753 122.668 257.753 125.105C257.753 127.541 259.728 129.517 262.165 129.517Z" fill="#F0EB00" stroke="#262626" stroke-miterlimit="10" stroke-linecap="round" stroke-linejoin="round"/>
<path d="M244.255 146.505C246.692 146.505 248.667 144.53 248.667 142.093C248.667 139.657 246.692 137.682 244.255 137.682C241.819 137.682 239.844 139.657 239.844 142.093C239.844 144.53 241.819 146.505 244.255 146.505Z" fill="#F0EB00" stroke="#262626" stroke-miterlimit="10" stroke-linecap="round" stroke-linejoin="round"/>
<path d="M146.075 146.209H37.1152C34.289 146.209 32 143.92 32 141.094V27.1152C32 24.289 34.289 22 37.1152 22H146.075C148.901 22 151.19 24.289 151.19 27.1152V141.094C151.19 143.92 148.901 146.209 146.075 146.209Z" fill="white" stroke="#2B2B2B" stroke-miterlimit="10"/>
<path d="M86.3679 68.3372H45.9068C45.5104 68.3372 45.1907 68.0175 45.1907 67.621V61.7066C45.1907 61.3102 45.5104 60.9905 45.9068 60.9905H86.3615C86.7579 60.9905 87.0776 61.3102 87.0776 61.7066V67.621C87.0776 68.0175 86.7579 68.3372 86.3679 68.3372Z" fill="#A46FFF" stroke="#262626" stroke-miterlimit="10"/>
<path opacity="0.8" d="M86.3679 84.7633H45.9068C45.5104 84.7633 45.1907 84.4436 45.1907 84.0471V78.1391C45.1907 77.7427 45.5104 77.423 45.9068 77.423H86.3615C86.7579 77.423 87.0776 77.7427 87.0776 78.1391V84.0535C87.0776 84.4436 86.7579 84.7633 86.3679 84.7633Z" fill="#A46FFF" stroke="#262626" stroke-miterlimit="10"/>
<path opacity="0.6" d="M86.3679 101.196H45.9068C45.5104 101.196 45.1907 100.876 45.1907 100.48V94.5652C45.1907 94.1688 45.5104 93.8491 45.9068 93.8491H86.3615C86.7579 93.8491 87.0776 94.1688 87.0776 94.5652V100.48C87.0776 100.876 86.7579 101.196 86.3679 101.196Z" fill="#A46FFF" stroke="#262626" stroke-miterlimit="10"/>
<path opacity="0.2" d="M86.3679 134.061H45.9068C45.5104 134.061 45.1907 133.741 45.1907 133.345V127.43C45.1907 127.034 45.5104 126.714 45.9068 126.714H86.3615C86.7579 126.714 87.0776 127.034 87.0776 127.43V133.345C87.0776 133.741 86.7579 134.061 86.3679 134.061Z" fill="#A46FFF" stroke="#262626" stroke-miterlimit="10"/>
<g opacity="0.4">
<path d="M86.3679 117.628H45.9068C45.5104 117.628 45.1907 117.309 45.1907 116.912V110.998C45.1907 110.601 45.5104 110.282 45.9068 110.282H86.3615C86.7579 110.282 87.0776 110.601 87.0776 110.998V116.912C87.0776 117.309 86.7579 117.628 86.3679 117.628Z" fill="#A46FFF" stroke="#262626" stroke-miterlimit="10"/>
</g>
<path d="M137.277 68.3372H96.8221C96.4257 68.3372 96.106 68.0175 96.106 67.621V61.7066C96.106 61.3102 96.4257 60.9905 96.8221 60.9905H137.277C137.673 60.9905 137.993 61.3102 137.993 61.7066V67.621C137.993 68.0175 137.673 68.3372 137.277 68.3372Z" fill="#F0EB00" stroke="#262626" stroke-miterlimit="10"/>
<path opacity="0.8" d="M137.277 84.7633H96.8221C96.4257 84.7633 96.106 84.4436 96.106 84.0471V78.1391C96.106 77.7427 96.4257 77.423 96.8221 77.423H137.277C137.673 77.423 137.993 77.7427 137.993 78.1391V84.0535C137.993 84.4436 137.673 84.7633 137.277 84.7633Z" fill="#F0EB00" stroke="#262626" stroke-miterlimit="10"/>
<path opacity="0.6" d="M137.277 101.196H96.8221C96.4257 101.196 96.106 100.876 96.106 100.48V94.5652C96.106 94.1688 96.4257 93.8491 96.8221 93.8491H137.277C137.673 93.8491 137.993 94.1688 137.993 94.5652V100.48C137.993 100.876 137.673 101.196 137.277 101.196Z" fill="#F0EB00" stroke="#262626" stroke-miterlimit="10"/>
<path opacity="0.2" d="M137.277 134.061H96.8221C96.4257 134.061 96.106 133.741 96.106 133.345V127.43C96.106 127.034 96.4257 126.714 96.8221 126.714H137.277C137.673 126.714 137.993 127.034 137.993 127.43V133.345C137.993 133.741 137.673 134.061 137.277 134.061Z" fill="#F0EB00" stroke="#262626" stroke-miterlimit="10"/>
<g opacity="0.4">
<path d="M137.277 117.628H96.8221C96.4257 117.628 96.106 117.309 96.106 116.912V110.998C96.106 110.601 96.4257 110.282 96.8221 110.282H137.277C137.673 110.282 137.993 110.601 137.993 110.998V116.912C137.993 117.309 137.673 117.628 137.277 117.628Z" fill="#F0EB00" stroke="#262626" stroke-miterlimit="10"/>
</g>
<path d="M45.197 41.4952H109.309" stroke="#262626" stroke-miterlimit="10"/>
<path d="M92.3215 149.508L81.5085 144L76.0001 154.813L86.8131 160.321L92.3215 149.508Z" fill="#F3E557" stroke="#292223" stroke-miterlimit="10"/>
<path d="M55.8403 206.681C61.275 206.681 65.6807 202.275 65.6807 196.84C65.6807 191.406 61.275 187 55.8403 187C50.4057 187 46 191.406 46 196.84C46 202.275 50.4057 206.681 55.8403 206.681Z" stroke="white" stroke-miterlimit="10"/>
<path d="M323.027 28.2556L308.971 33.4465L314.162 47.502L328.218 42.3111L323.027 28.2556Z" fill="#F3E557"/>
<path d="M307.9 32.95L313.667 48.5667L329.283 42.7917L323.517 27.1833L307.9 32.95ZM314.167 47.5L308.975 33.45L323.033 28.2583L328.217 42.3083L314.167 47.5Z" fill="#231F20"/>
<path d="M178.75 33.6667C180.361 33.6667 181.667 32.3609 181.667 30.75C181.667 29.1392 180.361 27.8334 178.75 27.8334C177.139 27.8334 175.833 29.1392 175.833 30.75C175.833 32.3609 177.139 33.6667 178.75 33.6667Z" fill="#00D085"/>
<path d="M178.75 27C178.008 27 177.283 27.2199 176.667 27.632C176.05 28.044 175.569 28.6297 175.285 29.3149C175.002 30.0002 174.927 30.7542 175.072 31.4816C175.217 32.209 175.574 32.8772 176.098 33.4016C176.623 33.9261 177.291 34.2832 178.018 34.4279C178.746 34.5726 179.5 34.4984 180.185 34.2145C180.87 33.9307 181.456 33.4501 181.868 32.8334C182.28 32.2167 182.5 31.4917 182.5 30.75C182.5 29.7554 182.105 28.8016 181.402 28.0984C180.698 27.3951 179.745 27 178.75 27ZM178.75 33.6667C178.173 33.6667 177.609 33.4956 177.13 33.1751C176.65 32.8546 176.276 32.3991 176.055 31.8662C175.835 31.3332 175.777 30.7468 175.889 30.181C176.002 29.6152 176.28 29.0955 176.688 28.6876C177.096 28.2797 177.615 28.0019 178.181 27.8894C178.747 27.7768 179.333 27.8346 179.866 28.0553C180.399 28.2761 180.855 28.6499 181.175 29.1296C181.496 29.6092 181.667 30.1731 181.667 30.75C181.667 31.5235 181.359 32.2654 180.812 32.8124C180.265 33.3594 179.524 33.6667 178.75 33.6667Z" fill="#262626"/>
<path d="M241.25 39.5H232.25C230.858 39.5 229.522 38.9469 228.538 37.9623C227.553 36.9777 227 35.6424 227 34.25C227 32.8576 227.553 31.5223 228.538 30.5377C229.522 29.5531 230.858 29 232.25 29H241.25C242.642 29 243.978 29.5531 244.962 30.5377C245.947 31.5223 246.5 32.8576 246.5 34.25C246.5 35.6424 245.947 36.9777 244.962 37.9623C243.978 38.9469 242.642 39.5 241.25 39.5ZM232.25 29.8333C231.079 29.8333 229.955 30.2987 229.127 31.1269C228.299 31.9552 227.833 33.0786 227.833 34.25C227.833 35.4214 228.299 36.5448 229.127 37.3731C229.955 38.2013 231.079 38.6667 232.25 38.6667H241.25C242.421 38.6667 243.545 38.2013 244.373 37.3731C245.201 36.5448 245.667 35.4214 245.667 34.25C245.667 33.0786 245.201 31.9552 244.373 31.1269C243.545 30.2987 242.421 29.8333 241.25 29.8333H232.25Z" fill="#262626"/>
<path d="M232.251 36.4919C233.489 36.4919 234.493 35.4883 234.493 34.2502C234.493 33.0122 233.489 32.0085 232.251 32.0085C231.013 32.0085 230.01 33.0122 230.01 34.2502C230.01 35.4883 231.013 36.4919 232.251 36.4919Z" fill="#262626"/>
<path d="M232.25 36.9085C231.724 36.9085 231.21 36.7526 230.773 36.4605C230.336 36.1684 229.995 35.7532 229.794 35.2674C229.593 34.7817 229.54 34.2472 229.643 33.7315C229.745 33.2159 229.999 32.7422 230.37 32.3704C230.742 31.9986 231.216 31.7454 231.732 31.6429C232.247 31.5403 232.782 31.593 233.267 31.7942C233.753 31.9954 234.168 32.3361 234.46 32.7732C234.753 33.2104 234.908 33.7244 234.908 34.2501C234.908 34.9552 234.628 35.6313 234.13 36.1299C233.631 36.6284 232.955 36.9085 232.25 36.9085ZM232.25 32.4251C231.889 32.4251 231.536 32.5322 231.236 32.7327C230.936 32.9332 230.702 33.2183 230.564 33.5517C230.426 33.8852 230.39 34.2522 230.46 34.6062C230.531 34.9602 230.704 35.2854 230.96 35.5406C231.215 35.7958 231.54 35.9696 231.894 36.0401C232.248 36.1105 232.615 36.0743 232.949 35.9362C233.282 35.7981 233.567 35.5642 233.768 35.2641C233.968 34.9639 234.075 34.6111 234.075 34.2501C234.073 33.7668 233.88 33.3039 233.538 32.9621C233.196 32.6203 232.733 32.4273 232.25 32.4251Z" fill="#262626"/>
<path d="M241.25 52.7917H232.25C230.858 52.7917 229.522 52.2386 228.538 51.254C227.553 50.2695 227 48.9341 227 47.5417C227 46.1494 227.553 44.814 228.538 43.8294C229.522 42.8449 230.858 42.2917 232.25 42.2917H241.25C242.642 42.2917 243.978 42.8449 244.962 43.8294C245.947 44.814 246.5 46.1494 246.5 47.5417C246.5 48.9341 245.947 50.2695 244.962 51.254C243.978 52.2386 242.642 52.7917 241.25 52.7917ZM232.25 43.1251C231.079 43.1251 229.955 43.5904 229.127 44.4187C228.299 45.247 227.833 46.3704 227.833 47.5417C227.833 48.7131 228.299 49.8365 229.127 50.6648C229.955 51.4931 231.079 51.9584 232.25 51.9584H241.25C242.421 51.9584 243.545 51.4931 244.373 50.6648C245.201 49.8365 245.667 48.7131 245.667 47.5417C245.667 46.3704 245.201 45.247 244.373 44.4187C243.545 43.5904 242.421 43.1251 241.25 43.1251H232.25Z" fill="#262626"/>
<path d="M241.251 49.7834C242.489 49.7834 243.493 48.7798 243.493 47.5417C243.493 46.3037 242.489 45.3 241.251 45.3C240.013 45.3 239.01 46.3037 239.01 47.5417C239.01 48.7798 240.013 49.7834 241.251 49.7834Z" fill="#262626"/>
<path d="M241.25 50.2002C240.724 50.2002 240.21 50.0443 239.773 49.7522C239.336 49.4601 238.995 49.0449 238.794 48.5592C238.593 48.0734 238.54 47.5389 238.643 47.0233C238.745 46.5076 238.999 46.0339 239.37 45.6622C239.742 45.2904 240.216 45.0372 240.732 44.9346C241.247 44.8321 241.782 44.8847 242.267 45.0859C242.753 45.2871 243.168 45.6278 243.46 46.065C243.753 46.5021 243.908 47.0161 243.908 47.5419C243.908 48.2469 243.628 48.9231 243.13 49.4216C242.631 49.9201 241.955 50.2002 241.25 50.2002ZM241.25 45.7252C240.889 45.7252 240.536 45.8325 240.235 46.0334C239.935 46.2343 239.701 46.5198 239.563 46.8538C239.425 47.1877 239.39 47.5551 239.461 47.9093C239.532 48.2636 239.707 48.5887 239.963 48.8436C240.219 49.0985 240.545 49.2717 240.899 49.3411C241.254 49.4106 241.621 49.3733 241.954 49.2339C242.288 49.0945 242.572 48.8593 242.772 48.5581C242.971 48.2568 243.077 47.9032 243.075 47.5419C243.073 47.0593 242.88 46.5972 242.538 46.2568C242.196 45.9163 241.733 45.7252 241.25 45.7252Z" fill="#262626"/>
</svg>
