<svg width="16" height="16" viewBox="0 0 16 16" fill="none" xmlns="http://www.w3.org/2000/svg">
<path d="M15.1489 0H0.851064C0.381106 0 0 0.381106 0 0.851064V15.1489C0 15.6189 0.381106 16 0.851064 16H15.1489C15.6191 16 16 15.6189 16 15.1489V0.851064C16 0.381106 15.6191 0 15.1489 0ZM4.496 14.3321H1.86655V5.87285H4.49583L4.496 14.3321ZM3.18179 4.7166C2.33906 4.7166 1.65685 4.03353 1.65685 3.19183C1.65702 2.35132 2.3394 1.66809 3.18179 1.66809C4.02247 1.66809 4.70536 2.35098 4.70536 3.19183C4.70536 4.03353 4.02247 4.7166 3.18179 4.7166ZM14.3431 14.3319H11.7161V10.2184C11.7161 9.23728 11.6982 7.97532 10.3494 7.97532C8.98213 7.97532 8.77191 9.04391 8.77191 10.1471V14.3319H6.14451V5.87285H8.66638V7.0286H8.70162C9.05277 6.36357 9.91064 5.6623 11.1891 5.6623C13.8514 5.6623 14.343 7.41447 14.343 9.69174V14.3319H14.3431Z" fill="#3E343F"/>
</svg>
