<svg width="147" height="147" viewBox="0 0 147 147" fill="none" xmlns="http://www.w3.org/2000/svg">
<path d="M73.5 144.005C112.439 144.005 144.005 112.439 144.005 73.5C144.005 34.5609 112.439 2.99451 73.5 2.99451C34.5609 2.99451 2.99451 34.5609 2.99451 73.5C2.99451 112.439 34.5609 144.005 73.5 144.005Z" fill="#F7F8FA"/>
<path d="M73.5 2.9945C87.4447 2.9945 101.076 7.12957 112.671 14.8768C124.265 22.6241 133.302 33.6355 138.639 46.5187C143.975 59.4019 145.371 73.5782 142.651 87.2549C139.93 100.932 133.215 113.495 123.355 123.355C113.495 133.215 100.932 139.93 87.2549 142.651C73.5782 145.371 59.4019 143.975 46.5187 138.639C33.6355 133.302 22.6241 124.265 14.8768 112.671C7.12957 101.076 2.9945 87.4447 2.9945 73.5C2.9945 54.8008 10.4227 36.8674 23.6451 23.6451C36.8674 10.4227 54.8008 2.9945 73.5 2.9945V2.9945ZM73.5 1C59.1608 1 45.1437 5.25205 33.2212 13.2185C21.2986 21.1849 12.0061 32.5078 6.51874 45.7554C1.03138 59.0031 -0.404359 73.5804 2.39307 87.644C5.1905 101.708 12.0955 114.626 22.2348 124.765C32.3741 134.905 45.2923 141.809 59.3559 144.607C73.4196 147.404 87.9969 145.969 101.245 140.481C114.492 134.994 125.815 125.701 133.782 113.779C141.748 101.856 146 87.8391 146 73.5C145.979 54.2783 138.334 35.8499 124.742 22.2581C111.15 8.66627 92.7217 1.02112 73.5 1V1Z" fill="#1C171E"/>
<path d="M25.7418 118.067L28.1651 116.202C28.7834 115.733 29.4017 115.275 30.0299 114.846C29.4615 115.105 28.7435 115.404 27.8559 115.763L24.8642 116.94L23.7772 115.514L25.6819 112.931C26.2504 112.163 26.729 111.545 27.1279 111.066C26.5495 111.555 25.9512 112.064 25.3329 112.512L22.9096 114.377L22.042 113.24L27.0282 109.431L28.5041 111.356L26.729 113.689C26.2404 114.337 25.7318 114.956 25.2431 115.524C25.8913 115.195 26.6094 114.876 27.3872 114.527L30.0798 113.47L31.5557 115.394L26.5695 119.204L25.7418 118.067Z" fill="#1C171E"/>
<path d="M35.455 119.593C35.609 120.097 35.609 120.635 35.455 121.139C35.2491 121.711 34.9068 122.224 34.4577 122.634C34.0507 123.078 33.5451 123.42 32.9818 123.632C32.4849 123.808 31.9468 123.832 31.436 123.702C30.8948 123.554 30.4026 123.265 30.01 122.864C29.5997 122.482 29.3 121.996 29.1424 121.458C28.9883 120.954 28.9883 120.416 29.1424 119.912C29.3534 119.342 29.6949 118.83 30.1396 118.416C30.5466 117.973 31.0522 117.631 31.6155 117.419C32.1124 117.243 32.6505 117.218 33.1613 117.349C33.705 117.496 34.1981 117.79 34.5873 118.197C34.9953 118.577 35.2948 119.059 35.455 119.593V119.593ZM32.543 118.755C32.0622 118.898 31.6262 119.162 31.2769 119.521C30.9275 119.881 30.6767 120.325 30.5485 120.81C30.5169 121.013 30.5368 121.221 30.6065 121.414C30.6762 121.607 30.7935 121.78 30.9474 121.916C31.0856 122.067 31.2597 122.179 31.4533 122.244C31.6469 122.308 31.8537 122.323 32.0543 122.285C32.5339 122.144 32.9692 121.882 33.3184 121.524C33.6676 121.166 33.9191 120.724 34.0488 120.241C34.0816 120.039 34.0632 119.831 33.9953 119.638C33.9274 119.445 33.8121 119.271 33.6599 119.134C33.5195 118.984 33.344 118.87 33.1491 118.804C32.9542 118.738 32.746 118.721 32.543 118.755V118.755Z" fill="#1C171E"/>
<path d="M36.532 128.249L37.1603 125.626C37.3796 124.699 37.619 123.831 37.8683 123.023C37.3398 123.791 36.8711 124.509 36.3325 125.157L34.9065 127.012L33.7497 126.125L37.5292 121.139L39.2744 122.465L38.6561 125.098C38.4168 126.095 38.1874 126.913 37.9481 127.7C38.3869 127.052 38.9453 126.344 39.4938 125.566L40.89 123.721L42.0468 124.609L38.2572 129.595L36.532 128.249Z" fill="#1C171E"/>
<path d="M40.1021 130.722L43.413 125.427L44.6994 126.225L41.3886 131.53L40.1021 130.722Z" fill="#1C171E"/>
<path d="M47.9206 129.486L45.6269 133.883L44.2806 133.185L46.5743 128.777L44.879 127.9L45.4773 126.753L50.2142 129.216L49.6159 130.363L47.9206 129.486Z" fill="#1C171E"/>
<path d="M54.7517 131.301C55.0743 131.714 55.2685 132.214 55.3102 132.737C55.3535 133.335 55.2579 133.936 55.031 134.492C54.8154 135.056 54.4744 135.564 54.0337 135.978C53.6488 136.334 53.166 136.567 52.6475 136.646C52.0925 136.709 51.5305 136.636 51.0095 136.435C50.4885 136.233 50.0241 135.909 49.6558 135.489C49.3275 135.078 49.1296 134.578 49.0873 134.053C49.0551 133.454 49.1505 132.856 49.3672 132.297C49.5838 131.739 49.9167 131.232 50.3439 130.812C50.7278 130.452 51.2106 130.216 51.7301 130.134C52.2856 130.076 52.8468 130.152 53.3672 130.355C53.8875 130.558 54.3519 130.882 54.7218 131.301H54.7517ZM51.76 131.669C51.348 131.967 51.0436 132.391 50.8924 132.876C50.6822 133.335 50.6228 133.848 50.7228 134.342C50.7812 134.54 50.8844 134.722 51.0245 134.874C51.1646 135.026 51.3377 135.144 51.5306 135.218C51.7234 135.292 51.9308 135.321 52.1366 135.303C52.3424 135.284 52.5411 135.218 52.7173 135.11C53.1291 134.816 53.4337 134.396 53.5849 133.913C53.7946 133.451 53.8539 132.935 53.7545 132.437C53.6944 132.24 53.5902 132.06 53.4499 131.909C53.3095 131.758 53.1367 131.641 52.9444 131.567C52.7522 131.493 52.5456 131.464 52.3404 131.482C52.1352 131.499 51.9367 131.564 51.76 131.669V131.669Z" fill="#1C171E"/>
<path d="M61.5031 134.831C61.4276 135.17 61.2378 135.473 60.9655 135.689C60.6932 135.905 60.3548 136.021 60.0072 136.018V136.018C60.1958 136.138 60.3448 136.312 60.436 136.516C60.5435 136.839 60.6072 137.174 60.6255 137.513L60.795 139.279L59.2094 138.87L59.1097 137.384C59.1038 137.118 59.0318 136.857 58.9003 136.626C58.7489 136.442 58.5367 136.318 58.3019 136.277L57.7534 136.137L57.185 138.341L55.7091 137.962L57.2748 131.909L59.738 132.547C61.2039 132.906 61.8322 133.634 61.5031 134.831ZM58.0327 135L58.8404 135.21C59.4687 135.369 59.8377 135.21 59.9972 134.641C60.1568 134.073 59.8676 133.774 59.1895 133.644L58.4415 133.455L58.0327 135Z" fill="#1C171E"/>
<path d="M64.6345 134.841L64.4649 136.008L67.1376 136.396L66.958 137.623L64.2755 137.234L64.0959 138.481L67.0378 138.91L66.8184 140.196L62.3807 139.538L63.2882 133.355L67.6561 133.993L67.4666 135.26L64.6345 134.841Z" fill="#1C171E"/>
<path d="M73.6994 135.1C73.987 135.414 74.2056 135.785 74.3413 136.188C74.477 136.592 74.5267 137.02 74.4873 137.444C74.4949 137.874 74.4098 138.3 74.2377 138.694C74.0656 139.088 73.8106 139.441 73.49 139.727C72.7865 140.287 71.8912 140.549 70.9969 140.455L68.8129 140.385L69.0223 134.133L71.2362 134.212C72.1419 134.174 73.0263 134.493 73.6994 135.1V135.1ZM70.3886 139.139H71.0567C71.2979 139.165 71.5419 139.142 71.7735 139.07C72.0051 138.998 72.2194 138.879 72.403 138.72C72.7086 138.333 72.8831 137.858 72.901 137.365C72.9189 136.872 72.7794 136.386 72.5027 135.978C72.3272 135.808 72.1193 135.676 71.8914 135.588C71.6635 135.501 71.4203 135.46 71.1764 135.469H70.5082L70.3886 139.139Z" fill="#1C171E"/>
<path d="M82.2758 134.053C82.4748 134.164 82.6436 134.322 82.7671 134.513C82.8906 134.704 82.965 134.923 82.9838 135.15C83.032 135.464 82.9796 135.785 82.8343 136.067C82.6555 136.345 82.3988 136.564 82.0963 136.696V136.696C82.4496 136.692 82.7906 136.825 83.0486 137.067C83.3067 137.308 83.462 137.639 83.4825 137.992C83.5232 138.235 83.5036 138.483 83.4254 138.716C83.3471 138.949 83.2126 139.16 83.0337 139.328C82.5876 139.723 82.0227 139.958 81.4281 139.997L78.8552 140.306L78.1073 134.103L80.5306 133.804C81.1241 133.699 81.7354 133.786 82.2758 134.053V134.053ZM79.8924 136.446L80.6802 136.357C80.9366 136.342 81.1828 136.251 81.3882 136.097C81.4579 136.028 81.5097 135.943 81.5393 135.849C81.5688 135.755 81.5751 135.656 81.5578 135.559C81.5517 135.463 81.5233 135.37 81.4748 135.286C81.4263 135.203 81.3591 135.133 81.2785 135.08C81.0554 134.984 80.8081 134.96 80.5705 135.01L79.7328 135.11L79.8924 136.446ZM80.1916 138.969L81.0193 138.87C81.2919 138.869 81.5573 138.782 81.7772 138.62C81.8491 138.55 81.9024 138.464 81.932 138.368C81.9616 138.272 81.9667 138.17 81.9467 138.072C81.9422 137.968 81.9126 137.866 81.8606 137.776C81.8085 137.686 81.7354 137.609 81.6475 137.553C81.3971 137.442 81.1173 137.414 80.8497 137.474L80.0519 137.563L80.1916 138.969Z" fill="#1C171E"/>
<path d="M87.9102 138.85L86.4243 139.179L85.9058 136.875L82.9738 133.544L84.6193 133.175L85.3972 134.173C85.754 134.617 86.0869 135.079 86.3944 135.559V135.559C86.4605 134.995 86.5604 134.435 86.6936 133.883L86.9828 132.657L88.6283 132.288L87.3817 136.556L87.9102 138.85Z" fill="#1C171E"/>
<path d="M95.1802 136.626L91.1912 131.49L92.6671 130.912L94.1829 132.906C94.6915 133.574 95.1802 134.262 95.629 134.98C95.4993 134.252 95.3896 133.415 95.2999 132.477L95.0605 129.974L96.5265 129.406L97.045 135.908L95.1802 136.626Z" fill="#1C171E"/>
<path d="M100.446 132.936L100.695 134.302L99.2789 135.04L98.2816 128.508L100.047 127.591L104.814 132.158L103.398 132.896L102.4 131.899L100.446 132.936ZM101.243 130.642C100.645 130.024 100.107 129.446 99.6379 128.917C99.8174 129.645 99.977 130.403 100.137 131.221L100.216 131.65L101.573 130.951L101.243 130.642Z" fill="#1C171E"/>
<path d="M108.942 129.456L106.649 128.03C105.841 127.521 105.093 127.032 104.405 126.524C104.963 127.272 105.482 127.99 105.941 128.668L107.247 130.602L106.04 131.42L102.53 126.244L104.345 125.018L106.639 126.444C107.456 126.962 108.204 127.461 108.882 127.94C108.414 127.322 107.885 126.613 107.347 125.796L106.04 123.871L107.247 123.053L110.757 128.219L108.942 129.456Z" fill="#1C171E"/>
<path d="M111.376 121.248L114.607 125.008L113.46 126.005L110.219 122.246L108.773 123.492L107.925 122.495L111.984 119.004L112.822 120.002L111.376 121.248Z" fill="#1C171E"/>
<path d="M116.681 121.288L117.359 122.505L116.202 123.662L113.21 117.798L114.597 116.362L120.58 119.144L119.473 120.301L118.247 119.663L116.681 121.288ZM116.681 118.865C115.913 118.466 115.215 118.097 114.607 117.748C115.005 118.376 115.414 119.054 115.813 119.742L116.033 120.131L117.09 119.034L116.681 118.865Z" fill="#1C171E"/>
<mask id="mask0_2_755" style="mask-type:alpha" maskUnits="userSpaceOnUse" x="18" y="18" width="111" height="111">
<circle cx="73.7991" cy="73.7991" r="54.8487" fill="#C4C4C4"/>
</mask>
<g mask="url(#mask0_2_755)">
<path d="M94.7414 149.51C94.5752 149.387 94.4514 149.216 94.3871 149.019C94.3227 148.822 94.3211 148.611 94.3824 148.413C94.5312 147.936 94.5312 147.425 94.3824 146.947C94.236 146.424 94.0458 145.913 93.814 145.422C93.7226 145.274 93.6622 145.11 93.6365 144.938C93.6108 144.767 93.6203 144.592 93.6644 144.424C93.7072 143.931 93.5957 143.436 93.3453 143.008C93.076 142.42 92.5574 141.453 92.2084 140.864C91.8594 140.276 91.7297 139.867 91.9192 140.046L93.1358 140.934C93.6045 141.293 93.9237 141.064 93.8439 140.435C93.7584 139.788 93.5521 139.162 93.2356 138.59C92.9268 138.128 92.5579 137.709 92.1386 137.344C91.7796 137.045 91.6998 136.795 91.9591 136.775C92.2184 136.755 92.2782 136.396 92.0987 135.988C91.9192 135.579 92.0389 135.339 92.348 135.449C92.4134 135.481 92.4862 135.494 92.5586 135.487C92.631 135.481 92.7002 135.454 92.7587 135.411C92.8172 135.368 92.8628 135.31 92.8906 135.243C92.9184 135.176 92.9274 135.102 92.9164 135.03C92.908 134.626 92.8234 134.227 92.6671 133.853C92.5205 133.532 92.4037 133.199 92.3181 132.856C92.2583 132.587 92.0588 131.959 91.8893 131.47C91.7197 130.981 91.7297 130.702 91.8893 130.862C92.1658 131.131 92.3951 131.444 92.5674 131.789C92.7469 132.138 92.8267 131.999 92.7469 131.47C92.6575 130.917 92.4646 130.386 92.1785 129.904C91.9057 129.487 91.7004 129.029 91.5702 128.548C91.4609 128.01 91.414 127.461 91.4305 126.913C91.4511 126.413 91.4277 125.912 91.3607 125.417C91.2149 124.936 90.9588 124.495 90.6128 124.13C90.2538 123.761 90.164 123.532 90.3934 123.632C90.7546 123.828 91.0897 124.069 91.3906 124.35C91.7197 124.639 92.0089 124.689 92.0289 124.449C92.0244 124.051 91.964 123.655 91.8494 123.273C91.7256 122.85 91.5074 122.461 91.2111 122.136C90.9718 121.926 90.4133 121.348 89.9646 120.859C89.5158 120.371 89.2864 120.032 89.466 120.111C89.7903 120.215 90.1245 120.285 90.4632 120.321C90.5491 120.332 90.6364 120.325 90.7192 120.3C90.802 120.274 90.8782 120.231 90.9427 120.173C91.0072 120.115 91.0584 120.044 91.0927 119.965C91.1269 119.885 91.1436 119.799 91.1413 119.713C91.0952 119.221 90.9082 118.754 90.6028 118.366C90.22 117.864 89.886 117.326 89.6056 116.761C89.3662 116.252 89.5457 116.152 89.9945 116.551C90.4433 116.95 90.6726 117 90.4931 116.691C90.3241 116.439 90.2598 116.132 90.3136 115.833C90.4133 115.511 90.4505 115.172 90.4233 114.836C90.3775 114.373 90.205 113.931 89.9247 113.559C89.6654 113.24 89.6355 113.031 89.8549 113.091C90.0743 113.151 90.0045 112.831 89.7153 112.383C89.4261 111.934 89.466 111.675 89.815 111.814C90.164 111.954 90.3635 111.814 90.2438 111.635C90.1153 111.319 90.0773 110.974 90.1341 110.638C90.1411 110.135 90.0063 109.641 89.7452 109.211C89.4759 108.723 89.456 108.374 89.7452 108.434C90.0344 108.493 89.9945 108.154 89.7452 107.686C89.4959 107.217 89.5158 106.858 89.815 106.898C90.1142 106.938 90.0743 106.649 89.7452 106.26C89.4161 105.871 89.3563 105.641 89.6355 105.761C89.9147 105.881 89.9247 105.671 89.6355 105.302C89.3463 104.933 89.4859 104.684 89.8549 104.764C90.2239 104.844 90.2139 104.664 89.8549 104.375C89.6664 104.236 89.5088 104.06 89.392 103.858C89.2753 103.655 89.202 103.431 89.1768 103.198C89.2075 102.806 89.2075 102.413 89.1768 102.021C89.1368 101.277 89.1368 100.532 89.1768 99.7875C89.2055 99.435 89.3147 99.0939 89.4959 98.7902C89.6966 98.6048 89.9397 98.4712 90.2039 98.4013C90.4931 98.3217 90.7464 98.1458 90.9219 97.9027C91.0616 97.6833 90.9917 97.5636 90.7823 97.6135C90.4639 97.6463 90.1445 97.5612 89.8848 97.3741C89.6986 97.1874 89.5764 96.9465 89.5358 96.686C89.5358 96.686 89.825 96.1375 90.1042 96.2572C90.3834 96.3769 90.4233 96.1176 90.2039 95.6888C89.9845 95.26 90.0444 95.0306 90.3136 95.1902C90.5829 95.3497 90.6726 95.25 90.4931 94.9708C90.3136 94.6915 90.3635 94.522 90.6028 94.5818C90.8422 94.6417 90.912 94.5818 90.7823 94.3325C90.5457 94.0605 90.2532 93.8428 89.9247 93.6943C89.7612 93.62 89.6159 93.5111 89.4988 93.3751C89.3817 93.239 89.2956 93.0791 89.2466 92.9065C89.2466 92.6372 89.1468 92.1386 89.1069 91.7995C89.0671 91.4604 89.1069 91.1712 89.2864 91.1313C89.3759 91.0769 89.4531 91.0044 89.5132 90.9186C89.5733 90.8328 89.6149 90.7354 89.6355 90.6327C89.6953 90.3934 89.8449 90.2039 89.9546 90.2039C90.0643 90.2039 90.184 90.0144 90.2039 89.7751C90.2103 89.6615 90.247 89.5516 90.3101 89.457C90.3732 89.3623 90.4605 89.2862 90.5629 89.2366C90.7424 89.1767 90.7923 89.0371 90.6726 88.9175C90.6448 88.8864 90.6244 88.8496 90.6127 88.8096C90.601 88.7696 90.5984 88.7275 90.6051 88.6864C90.6118 88.6453 90.6276 88.6062 90.6514 88.5719C90.6751 88.5377 90.7062 88.5093 90.7424 88.4886C90.8196 88.4341 90.8736 88.3528 90.8939 88.2606C90.9141 88.1683 90.8993 88.0719 90.8521 87.99C90.7524 87.843 90.7002 87.669 90.7025 87.4914C90.7776 87.2839 90.889 87.0914 91.0316 86.923C91.1812 86.7335 91.2012 86.5241 91.0316 86.4642C90.8621 86.4044 90.912 86.1451 91.0316 85.8958C91.1513 85.6465 91.1812 85.447 91.0316 85.467C90.9436 85.4654 90.8589 85.4324 90.7931 85.3738C90.7273 85.3153 90.6845 85.2351 90.6726 85.1479C90.6484 84.9075 90.7121 84.6666 90.8521 84.4697C90.9917 84.2902 91.0217 84.0808 90.9219 84.001C90.7901 83.7754 90.7407 83.511 90.7823 83.2531C90.7823 82.924 90.6826 82.7445 90.533 82.8642C90.3834 82.9838 90.2737 82.8642 90.3136 82.545C90.3449 82.1434 90.3449 81.74 90.3136 81.3384C90.3136 80.9594 90.1939 80.75 90.0942 80.8697C89.9945 80.9893 89.8549 80.9395 89.7751 80.76C89.7189 80.4371 89.7122 80.1076 89.7552 79.7827C89.7552 79.4436 89.6455 79.3339 89.5457 79.5333C89.446 79.7328 89.2565 79.673 89.1169 79.4236C88.9353 79.1011 88.7321 78.7913 88.5086 78.4962C88.2404 78.1638 87.9323 77.8657 87.5911 77.6087C87.272 77.3693 87.0127 77.3394 87.0127 77.5388C87.0127 77.7383 86.7933 77.7981 86.5141 77.6785C86.209 77.5405 85.9126 77.384 85.6265 77.2098C85.341 77.0601 85.0212 76.9879 84.6991 77.0003C84.4099 77.0003 84.3002 77.3294 84.4498 77.6785C84.5994 78.0275 84.6393 78.3366 84.5196 78.3566C84.2412 78.3465 83.9658 78.2961 83.7019 78.207C83.3728 78.1173 83.2232 78.207 83.3827 78.3566C83.4523 78.4484 83.49 78.5605 83.49 78.6757C83.49 78.7909 83.4523 78.903 83.3827 78.9948C83.2431 79.1743 83.3827 79.4236 83.7019 79.5633C84.021 79.7029 84.1905 79.9422 84.0908 80.1018C83.9825 80.374 83.9825 80.6773 84.0908 80.9494C84.2191 81.3281 84.2799 81.7265 84.2703 82.1262C84.2703 82.4653 84.1207 82.7644 83.9811 82.8043C83.8415 82.8442 83.7816 83.1932 83.8415 83.5921C83.9013 83.991 83.8415 84.3002 83.662 84.3002C83.4825 84.3002 83.293 84.6193 83.1933 85.0182C83.0935 85.4171 82.924 85.5767 82.8043 85.4071C82.7378 85.3129 82.6534 85.2326 82.5559 85.171C82.4583 85.1094 82.3496 85.0677 82.2359 85.0481C82.1381 85.0399 82.0443 85.0061 81.9637 84.9501C81.8832 84.8941 81.8189 84.8178 81.7772 84.729C81.7457 84.6505 81.6901 84.5841 81.6184 84.5393C81.5467 84.4945 81.4626 84.4736 81.3783 84.4797C81.2287 84.4797 81.0292 84.2902 80.9495 84.021C80.8697 83.7517 80.6702 83.5323 80.4907 83.5523C80.3112 83.5722 80.0719 83.273 79.9522 82.8741C79.8325 82.4752 79.5633 82.3256 79.3539 82.5251C79.1444 82.7245 78.8951 82.6647 78.8153 82.4154C78.7356 82.1661 78.566 82.0963 78.4264 82.2758C78.2868 82.4553 77.9477 82.3655 77.6785 82.0963C77.6265 82.0309 77.5617 81.9769 77.4879 81.9377C77.4142 81.8984 77.3332 81.8748 77.2499 81.8683C77.1666 81.8617 77.0829 81.8724 77.0039 81.8996C76.925 81.9268 76.8525 81.97 76.7909 82.0265C76.5715 82.2558 76.3322 82.2858 76.2524 82.0963C76.1726 81.9068 75.9832 81.9467 75.8236 82.196C75.7878 82.2537 75.7379 82.3014 75.6786 82.3344C75.6192 82.3674 75.5524 82.3848 75.4845 82.3848C75.4166 82.3848 75.3498 82.3674 75.2905 82.3344C75.2312 82.3014 75.1812 82.2537 75.1455 82.196C74.936 81.9567 74.7166 81.7772 74.6668 81.7971C74.6074 81.8071 74.5467 81.8071 74.4873 81.7971C74.4873 81.7971 74.228 81.9567 74.0086 82.196C73.9728 82.2537 73.9229 82.3014 73.8636 82.3344C73.8042 82.3674 73.7375 82.3848 73.6695 82.3848C73.6016 82.3848 73.5348 82.3674 73.4755 82.3344C73.4162 82.3014 73.3662 82.2537 73.3305 82.196C73.1809 81.9467 72.9814 81.8968 72.9116 82.0963C72.8418 82.2957 72.5925 82.2558 72.3731 82.0265C72.3116 81.97 72.2391 81.9268 72.1601 81.8996C72.0811 81.8724 71.9974 81.8617 71.9142 81.8683C71.8309 81.8748 71.7499 81.8984 71.6761 81.9377C71.6024 81.9769 71.5375 82.0309 71.4856 82.0963C71.2063 82.3655 70.8772 82.4453 70.7376 82.2758C70.598 82.1062 70.4185 82.1561 70.3487 82.4154C70.2789 82.6747 70.0296 82.7146 69.8102 82.5251C69.5908 82.3356 69.3215 82.5251 69.2019 82.8741C69.0822 83.2232 68.8429 83.5722 68.6733 83.5523C68.5038 83.5323 68.2844 83.7417 68.2046 84.021C68.1248 84.3002 67.9354 84.4996 67.7758 84.4797C67.6928 84.4742 67.6103 84.4955 67.5403 84.5404C67.4703 84.5852 67.4165 84.6513 67.3869 84.729C67.3428 84.8161 67.2779 84.8908 67.1978 84.9465C67.1177 85.0022 67.0251 85.0371 66.9281 85.0481C66.8141 85.0666 66.705 85.1079 66.6073 85.1696C66.5096 85.2313 66.4254 85.3121 66.3597 85.4071C66.24 85.5767 66.0605 85.4071 65.9608 85.0182C65.8611 84.6293 65.6616 84.3002 65.5021 84.3002C65.3425 84.3002 65.2627 83.9811 65.3226 83.5921C65.3824 83.2032 65.3226 82.8442 65.1829 82.8043C65.0433 82.7644 64.9137 82.4653 64.8937 82.1262C64.8841 81.7265 64.9449 81.3281 65.0733 80.9494C65.1758 80.6762 65.1758 80.375 65.0733 80.1018C64.9735 79.9422 65.1431 79.7029 65.4622 79.5633C65.7813 79.4236 65.9209 79.1743 65.7813 78.9948C65.7084 78.9044 65.6687 78.7918 65.6687 78.6757C65.6687 78.5596 65.7084 78.447 65.7813 78.3566C65.9309 78.1771 65.7813 78.1173 65.4522 78.207C65.1887 78.2977 64.913 78.3481 64.6345 78.3566C64.5148 78.3566 64.5547 78.0275 64.7043 77.6785C64.8539 77.3294 64.7043 77.0203 64.455 77.0003C64.1361 76.9892 63.8199 77.0614 63.5375 77.2098C63.2492 77.386 62.9493 77.5425 62.64 77.6785C62.3707 77.7981 62.1413 77.6785 62.1413 77.5388C62.1413 77.3992 61.892 77.3693 61.5729 77.6087C61.231 77.8683 60.9199 78.166 60.6455 78.4962C60.4251 78.7913 60.2252 79.1012 60.0471 79.4236C59.9075 79.673 59.718 79.7228 59.6183 79.5333C59.5186 79.3439 59.4189 79.4436 59.3989 79.7827C59.3839 80.0956 59.3234 80.4046 59.2194 80.7001C59.1496 80.8796 59 80.9295 58.9003 80.8098C58.8006 80.6902 58.7108 80.8996 58.6909 81.2785C58.6599 81.6802 58.6599 82.0836 58.6909 82.4852C58.6909 82.7744 58.641 82.924 58.4814 82.8043C58.3219 82.6847 58.2122 82.8642 58.2321 83.1932C58.2737 83.4512 58.2244 83.7156 58.0925 83.9412C57.9928 84.021 58.0227 84.2304 58.1623 84.4099C58.3023 84.6067 58.3661 84.8477 58.3418 85.088C58.3299 85.1753 58.2872 85.2555 58.2214 85.314C58.1555 85.3725 58.0709 85.4056 57.9828 85.4071C57.8233 85.4071 57.8233 85.5767 57.9828 85.836C58.1424 86.0952 58.1523 86.3446 57.9828 86.4044C57.8133 86.4642 57.8532 86.6736 57.9828 86.8631C58.1232 87.0314 58.2313 87.2241 58.3019 87.4316C58.3085 87.6083 58.2597 87.7826 58.1623 87.9302C58.1152 88.012 58.1003 88.1085 58.1206 88.2007C58.1409 88.293 58.1949 88.3743 58.272 88.4288C58.3069 88.4506 58.3366 88.4796 58.3594 88.5139C58.3821 88.5481 58.3973 88.5868 58.4039 88.6274C58.4105 88.668 58.4084 88.7095 58.3977 88.7492C58.387 88.7889 58.3679 88.8259 58.3418 88.8576C58.2222 88.9773 58.272 89.1169 58.4515 89.1767C58.5508 89.2293 58.635 89.3063 58.6961 89.4006C58.7572 89.4948 58.7932 89.6032 58.8006 89.7153C58.8006 89.9546 58.9302 90.1441 59.0499 90.1441C59.1695 90.1441 59.3191 90.3336 59.369 90.5729C59.3895 90.6769 59.4322 90.7753 59.4941 90.8613C59.5561 90.9474 59.6358 91.0191 59.728 91.0715C59.8676 91.0715 59.9474 91.4106 59.9075 91.7397C59.8676 92.0688 59.8078 92.5774 59.7679 92.8466C59.717 93.0184 59.6303 93.1775 59.5134 93.3133C59.3965 93.4491 59.2521 93.5586 59.0898 93.6344C58.7596 93.7801 58.4665 93.9982 58.2321 94.2727C58.0925 94.4721 58.1723 94.5818 58.4116 94.522C58.651 94.4622 58.6909 94.6417 58.5213 94.9109C58.3518 95.1802 58.4216 95.2799 58.7008 95.1303C58.9801 94.9807 59.0199 95.2001 58.8006 95.6289C58.5812 96.0578 58.631 96.317 58.9103 96.1974C59.1895 96.0777 59.4388 96.2672 59.4787 96.6262C59.5186 96.9852 59.3989 97.1148 59.1197 97.3143C58.8642 97.5024 58.5475 97.5878 58.2321 97.5536C58.0227 97.5536 57.9529 97.6234 58.0925 97.8428C58.2661 98.0836 58.5154 98.2592 58.8006 98.3415C59.0686 98.4091 59.3155 98.5428 59.5186 98.7304C59.6958 99.0358 59.8046 99.3761 59.8377 99.7276C59.8776 100.472 59.8776 101.217 59.8377 101.961C59.8068 102.353 59.8068 102.747 59.8377 103.138C59.8149 103.371 59.7427 103.597 59.6257 103.8C59.5088 104.003 59.3498 104.178 59.1596 104.315C58.7706 104.604 58.7607 104.784 59.1596 104.704C59.5585 104.624 59.6283 104.863 59.369 105.242C59.1097 105.621 59.1296 105.821 59.369 105.701C59.6083 105.581 59.5984 105.811 59.2593 106.2C58.9202 106.589 58.9003 106.878 59.1895 106.838C59.4787 106.798 59.5186 107.157 59.2593 107.626C59 108.095 59.01 108.434 59.2593 108.374C59.5086 108.314 59.4986 108.663 59.2593 109.152C58.9961 109.581 58.858 110.074 58.8604 110.578C58.9203 110.913 58.8858 111.258 58.7607 111.575C58.641 111.804 58.8305 111.884 59.1795 111.754C59.5285 111.625 59.5884 111.874 59.2892 112.323C58.99 112.772 58.9302 113.091 59.1496 113.031C59.369 112.971 59.3291 113.181 59.0798 113.5C58.7994 113.871 58.6269 114.313 58.5812 114.776C58.5569 115.112 58.5907 115.449 58.6809 115.773C58.7346 116.07 58.674 116.377 58.5114 116.631C58.3318 116.94 58.5114 116.88 59.01 116.491C59.5086 116.102 59.6283 116.192 59.3989 116.701C59.1181 117.266 58.7842 117.804 58.4017 118.306C58.1032 118.697 57.9202 119.163 57.8731 119.653C57.8709 119.739 57.8875 119.825 57.9218 119.905C57.9561 119.984 58.0072 120.056 58.0717 120.113C58.1362 120.171 58.2125 120.214 58.2953 120.24C58.3781 120.265 58.4654 120.273 58.5512 120.261C58.8899 120.225 59.2241 120.155 59.5485 120.052C59.718 119.972 59.4986 120.311 59.0499 120.8C58.6011 121.288 58.0526 121.867 57.8033 122.076C57.5038 122.401 57.2821 122.79 57.1551 123.213C57.0478 123.596 56.9908 123.992 56.9856 124.39C56.9856 124.629 57.2847 124.579 57.6238 124.29C57.9246 124.009 58.2597 123.768 58.621 123.572C58.8604 123.472 58.7607 123.702 58.4116 124.07C58.0656 124.435 57.8095 124.876 57.6637 125.357C57.5967 125.853 57.5733 126.353 57.5939 126.853C57.6054 127.401 57.5586 127.95 57.4543 128.488C57.3196 128.968 57.1146 129.425 56.8459 129.845C56.5555 130.324 56.3623 130.856 56.2775 131.41C56.1977 131.939 56.2775 132.078 56.457 131.729C56.6261 131.385 56.852 131.071 57.1252 130.802C57.3246 130.642 57.3446 130.922 57.1252 131.41C56.9583 131.865 56.8152 132.327 56.6964 132.796C56.6072 133.139 56.487 133.473 56.3374 133.794C56.1858 134.168 56.1014 134.567 56.088 134.97C56.0795 135.043 56.0904 135.116 56.1196 135.183C56.1488 135.249 56.1953 135.307 56.2543 135.35C56.3132 135.392 56.3825 135.419 56.455 135.426C56.5274 135.432 56.6004 135.42 56.6664 135.389C56.9756 135.28 57.0853 135.519 56.9158 135.928C56.7462 136.337 56.7961 136.696 57.0554 136.716C57.3147 136.736 57.2249 136.985 56.8759 137.284C56.548 137.695 56.2702 138.144 56.0481 138.62C55.7351 139.192 55.5321 139.818 55.4498 140.465C55.37 141.094 55.6891 141.323 56.1578 140.964L57.3645 140.076C57.564 139.937 57.4343 140.306 57.0853 140.894C56.7363 141.482 56.2177 142.45 55.9484 143.038C55.701 143.467 55.5865 143.96 55.6193 144.454C55.6655 144.621 55.6769 144.796 55.6529 144.967C55.6289 145.139 55.5699 145.304 55.4797 145.452C55.2435 145.941 55.0532 146.452 54.9113 146.977C54.7573 147.454 54.7573 147.967 54.9113 148.443C54.9726 148.641 54.9709 148.852 54.9066 149.049C54.8423 149.245 54.7185 149.417 54.5523 149.54C54.2032 149.859 56.0581 150.119 58.6709 150.119H90.5629C93.1857 150.089 95.0406 149.829 94.7414 149.51Z" fill="#C6C2DF"/>
<path d="M80.5605 94.7912C80.5605 94.7912 79.6231 91.0316 82.9739 89.3263C79.1344 90.184 78.6358 95.8184 78.6358 95.8184C77.7872 92.5615 77.9578 89.1226 79.1245 85.9656C75.7538 88.8576 76.1327 95.0406 76.1327 95.0406L74.6468 83.8614L73.131 95.0406C73.131 95.0406 73.5299 88.8576 70.1393 85.9656C71.306 89.1226 71.4765 92.5615 70.6279 95.8184C70.6279 95.8184 70.1293 90.184 66.2899 89.3263C69.6406 91.0316 68.7032 94.7912 68.7032 94.7912C66.8334 93.1552 64.4039 92.3049 61.9219 92.4178C66.6489 93.5447 66.4694 94.8012 68.4639 97.045C70.3986 96.7658 72.4529 95.8184 74.6169 95.8184C76.7809 95.8184 78.8353 96.8157 80.7699 97.045C82.7644 94.8012 82.575 93.5447 87.3119 92.4178C84.8402 92.3127 82.4227 93.1625 80.5605 94.7912V94.7912Z" fill="white"/>
<path d="M86.1651 79.3538C86.1651 79.0547 86.3546 78.9051 86.5341 79.0247C86.8542 79.2174 87.1874 79.3874 87.5313 79.5333C87.9211 79.7057 88.2311 80.0192 88.3989 80.4109C88.4986 80.73 88.6781 80.8896 88.7978 80.7699C88.9175 80.6503 89.1668 81.0492 89.3463 81.6475C89.5657 82.4674 89.7126 83.305 89.7851 84.1506C89.8436 84.9694 89.7831 85.7924 89.6056 86.5939C89.446 87.1523 89.2167 87.99 89.097 88.4487C89.0069 88.8407 88.8937 89.227 88.7579 89.6056C88.6475 89.823 88.4868 90.011 88.2892 90.154C88.188 90.2082 88.0749 90.2365 87.9601 90.2365C87.8453 90.2365 87.7323 90.2082 87.631 90.154C87.4515 90.0543 87.4814 89.8549 87.7008 89.7153C87.959 89.5225 88.1309 89.2359 88.1795 88.9175C88.1795 88.6183 88.0499 88.5186 87.8105 88.6981C87.5166 88.8932 87.1645 88.9813 86.8133 88.9474C86.5141 88.9474 86.5141 88.7679 86.8133 88.6283C87.1786 88.4343 87.5144 88.1891 87.8105 87.9003C88.0698 87.641 87.9701 87.5712 87.5911 87.7507C87.1036 87.9622 86.5908 88.1097 86.0654 88.1895C85.6066 88.2493 85.3074 88.1296 85.4072 87.9302C85.6178 87.6532 85.9112 87.4505 86.2449 87.3518C86.644 87.1967 86.9902 86.9301 87.2421 86.5839C87.4416 86.2847 87.3019 86.175 86.923 86.3346C86.5676 86.4835 86.2007 86.6036 85.826 86.6936C85.6066 86.6936 85.5767 86.5241 85.7562 86.2249C85.9357 85.9257 85.7562 85.6963 85.467 85.7163C85.1778 85.7362 85.1878 85.5767 85.6066 85.3473C86.0574 85.157 86.4546 84.8591 86.7634 84.4797C86.923 84.2005 86.7634 83.991 86.3246 84.011C85.8858 84.0309 85.5867 83.8614 85.5667 83.642C85.5468 83.4226 85.836 83.0636 86.2149 82.8442C86.5939 82.6248 86.8731 82.2957 86.8332 82.1162C86.7933 81.9367 86.5341 81.837 86.2548 81.8968C85.9756 81.9567 85.9058 81.7472 86.1052 81.4281C86.3048 81.1143 86.3828 80.7383 86.3246 80.371C86.22 80.0421 86.1662 79.699 86.1651 79.3538V79.3538Z" fill="#5230D7"/>
<path d="M63.1286 79.3538C63.1286 79.0547 62.9391 78.9051 62.7596 79.0247C62.4395 79.2174 62.1063 79.3874 61.7624 79.5333C61.37 79.7053 61.0567 80.0185 60.8848 80.4109C60.7851 80.73 60.6056 80.8896 60.4859 80.7699C60.3662 80.6503 60.1269 81.0492 59.9474 81.6475C59.728 82.4674 59.5811 83.305 59.5086 84.1506C59.4501 84.9694 59.5106 85.7924 59.6881 86.5939C59.8477 87.1523 60.077 87.99 60.1967 88.4487C60.2966 88.8413 60.4198 89.2276 60.5657 89.6056C60.6762 89.823 60.8368 90.011 61.0344 90.154C61.1356 90.2082 61.2487 90.2365 61.3635 90.2365C61.4783 90.2365 61.5913 90.2082 61.6926 90.154C61.8721 90.0543 61.8322 89.8549 61.6128 89.7153C61.3608 89.5186 61.1932 89.2333 61.1441 88.9175C61.1441 88.6183 61.2638 88.5186 61.5031 88.6981C61.7983 88.8903 62.1494 88.9781 62.5004 88.9474C62.7995 88.9474 62.7995 88.7679 62.5004 88.6283C62.135 88.4343 61.7992 88.1891 61.5031 87.9003C61.2438 87.641 61.3435 87.5712 61.7225 87.7507C62.21 87.9622 62.7229 88.1097 63.2483 88.1895C63.707 88.2493 64.0062 88.1296 63.8965 87.9302C63.69 87.6534 63.3997 87.4505 63.0688 87.3518C62.6696 87.1967 62.3235 86.9301 62.0715 86.5839C61.8621 86.2847 62.0117 86.175 62.3907 86.3346C62.7455 86.485 63.1125 86.6051 63.4876 86.6936C63.707 86.6936 63.7369 86.5241 63.5574 86.2249C63.3779 85.9257 63.5574 85.6963 63.8466 85.7163C64.1358 85.7362 64.1259 85.5767 63.707 85.3473C63.2882 85.1322 62.926 84.8213 62.6499 84.4398C62.4904 84.1606 62.6499 83.9511 63.0887 83.9711C63.5275 83.991 63.8267 83.8215 63.8466 83.6021C63.8666 83.3827 63.5774 83.0237 63.1984 82.8043C62.8195 82.5849 62.5402 82.2558 62.5801 82.0763C62.62 81.8968 62.8793 81.7971 63.1585 81.8569C63.4378 81.9168 63.5076 81.7073 63.2982 81.3882C63.1012 81.0734 63.0267 80.6973 63.0887 80.3311C63.1492 80.009 63.1626 79.6798 63.1286 79.3538V79.3538Z" fill="#5230D7"/>
<path d="M80.7799 106.13C80.5886 104.865 80.3087 103.616 79.9422 102.39C79.561 101.178 79.0494 100.011 78.4164 98.9099C77.9178 98.1021 77.2497 97.0749 76.9206 96.6262C76.6117 96.192 76.2306 95.8142 75.7937 95.5092C75.5617 95.3638 75.3097 95.253 75.0457 95.1802C74.9631 95.1931 74.879 95.1931 74.7964 95.1802C74.7668 95.1742 74.7363 95.1742 74.7067 95.1802H74.5371C74.5109 95.1745 74.4837 95.1745 74.4574 95.1802C74.3748 95.1931 74.2907 95.1931 74.2081 95.1802C73.9441 95.253 73.6921 95.3638 73.4601 95.5092C73.0342 95.8171 72.6633 96.1947 72.3631 96.6262C72.044 97.0749 71.3659 98.1021 70.8772 98.9099C70.2443 100.011 69.7327 101.178 69.3515 102.39C68.985 103.616 68.7051 104.865 68.5138 106.13C68.4046 107.139 68.5169 108.16 68.8429 109.122C69.2588 109.986 69.8379 110.761 70.5482 111.405C71.2494 111.984 72.0199 112.473 72.8418 112.861C73.3051 113.077 73.7946 113.231 74.2978 113.32H74.956C75.4592 113.231 75.9487 113.077 76.412 112.861C77.2339 112.473 78.0044 111.984 78.7056 111.405C79.4159 110.761 79.995 109.986 80.4109 109.122C80.7503 108.163 80.8763 107.142 80.7799 106.13V106.13Z" fill="white"/>
<path d="M70.9171 102.849C70.9171 102.59 70.7276 102.59 70.588 102.849C70.5278 102.998 70.5166 103.163 70.556 103.319C70.5954 103.475 70.6835 103.614 70.8074 103.717C71.044 103.933 71.3176 104.106 71.6152 104.225C71.839 104.307 72.0288 104.461 72.1537 104.664C72.2315 104.771 72.3298 104.861 72.4428 104.929C72.5558 104.998 72.6812 105.043 72.8119 105.063C73.1264 105.145 73.3997 105.341 73.5798 105.611C73.7851 105.913 74.0584 106.162 74.3776 106.339C74.7521 106.47 75.1599 106.47 75.5344 106.339C75.9034 106.22 76.1228 105.96 76.043 105.761C75.99 105.659 75.9035 105.579 75.7981 105.533C75.6928 105.488 75.575 105.48 75.4646 105.512C75.1447 105.562 74.8171 105.524 74.5172 105.402C74.2414 105.282 73.9858 105.121 73.7593 104.923C73.5873 104.714 73.4737 104.463 73.4302 104.195C73.3886 104.06 73.3056 103.941 73.1929 103.855C73.0803 103.769 72.9435 103.721 72.8019 103.717C72.5237 103.683 72.2424 103.683 71.9642 103.717C71.7426 103.739 71.5209 103.675 71.3459 103.537C71.1336 103.359 70.9835 103.118 70.9171 102.849V102.849Z" fill="#5230D7"/>
<path d="M76.4818 104.923C76.2624 105.003 76.1128 104.863 76.1527 104.624C76.1961 104.38 76.3106 104.155 76.4818 103.976C76.7857 103.804 77.1296 103.714 77.479 103.717C77.6706 103.704 77.8562 103.645 78.0196 103.544C78.183 103.443 78.3192 103.304 78.4164 103.138C78.566 102.839 78.7256 102.839 78.7854 103.138C78.8649 103.466 78.8649 103.808 78.7854 104.135C78.7198 104.262 78.6281 104.372 78.5163 104.46C78.4045 104.548 78.2753 104.61 78.1372 104.644C77.858 104.704 77.479 104.764 77.2995 104.784C77.0228 104.802 76.7488 104.848 76.4818 104.923V104.923Z" fill="#5230D7"/>
<path d="M77.5488 100.994C77.412 100.858 77.2481 100.752 77.0677 100.683C76.8873 100.615 76.6945 100.585 76.5017 100.595C76.0456 100.6 75.5948 100.695 75.1754 100.874C75.0103 100.953 74.8297 100.994 74.6468 100.994C74.4639 100.994 74.2834 100.953 74.1183 100.874C73.7019 100.696 73.2547 100.602 72.8019 100.595C72.6077 100.585 72.4135 100.615 72.2316 100.684C72.0496 100.753 71.8839 100.858 71.7448 100.994C71.6052 101.214 71.8047 101.393 72.1836 101.393C72.6494 101.415 73.1066 101.527 73.5299 101.722C73.8431 101.871 74.1405 102.052 74.4175 102.261L74.6568 102.46L74.8962 102.261C75.1748 102.049 75.4758 101.868 75.7937 101.722C76.217 101.527 76.6742 101.415 77.14 101.393C77.499 101.393 77.6885 101.214 77.5488 100.994Z" fill="#C6C2DF"/>
<path d="M78.9849 109.112C78.5386 109.758 77.9344 110.28 77.2297 110.628C76.726 110.741 76.2067 110.768 75.694 110.707C75.3549 110.648 74.8762 110.338 74.8363 110.019C74.8525 109.173 74.9561 108.331 75.1455 107.506C75.2651 107.327 75.2053 107.207 75.0059 107.227C74.7674 107.257 74.5262 107.257 74.2878 107.227C74.0884 107.227 74.0285 107.327 74.1482 107.506C74.3514 108.33 74.4684 109.172 74.4973 110.019C74.4973 110.338 73.9388 110.648 73.5997 110.707C73.1249 110.756 72.6453 110.719 72.1836 110.598C71.7448 110.478 70.977 109.481 70.6578 109.092C70.3387 108.703 70.1592 108.823 70.2191 109.092C70.55 110.045 71.2069 110.85 72.0739 111.366C72.5219 111.5 72.9835 111.583 73.4501 111.615C73.7809 111.657 74.114 111.677 74.4474 111.675C74.5902 111.665 74.7334 111.665 74.8762 111.675C75.2096 111.678 75.5428 111.658 75.8735 111.615C76.3413 111.568 76.8048 111.485 77.2596 111.366C77.6564 111.246 78.0257 111.049 78.3466 110.787C78.8223 110.305 79.2014 109.736 79.4636 109.112C79.5234 108.773 79.2342 108.703 78.9849 109.112Z" fill="#5230D7"/>
<path d="M67.0777 103.647C65.5159 105.304 64.656 107.502 64.6783 109.779C64.7006 112.056 65.6034 114.237 67.1974 115.863V115.863C67.3033 115.801 67.3938 115.715 67.4622 115.613C67.5306 115.511 67.575 115.395 67.5923 115.273C67.6095 115.151 67.5991 115.027 67.5618 114.91C67.5245 114.793 67.4613 114.686 67.3769 114.597C66.0107 113.141 63.6472 109.451 67.0777 103.647Z" fill="#5230D7"/>
<path d="M82.216 103.647C83.7778 105.304 84.6376 107.502 84.6153 109.779C84.593 112.056 83.6903 114.237 82.0963 115.863V115.863C81.9904 115.801 81.8998 115.715 81.8315 115.613C81.7631 115.511 81.7186 115.395 81.7014 115.273C81.6841 115.151 81.6945 115.027 81.7318 114.91C81.7691 114.793 81.8323 114.686 81.9168 114.597C83.273 113.141 85.6465 109.451 82.216 103.647Z" fill="#5230D7"/>
<path d="M59.7579 94.4223C61.3061 94.3996 62.8527 94.5299 64.3752 94.8112C65.3687 94.9936 66.3277 95.3301 67.2174 95.8084C67.6971 96.1138 68.1303 96.4866 68.5038 96.9154C68.7338 97.2924 68.8418 97.7312 68.813 98.1719C68.6542 98.8085 68.3065 99.3821 67.8157 99.8174C67.2328 100.363 66.6202 100.875 65.9808 101.353C65.4821 101.712 64.7841 102.171 64.4151 102.35C63.967 102.585 63.4642 102.695 62.9591 102.669C62.39 102.566 61.8555 102.322 61.4034 101.961C60.9646 101.602 60.7153 101.523 60.8449 101.782C60.9746 102.041 61.194 102.47 61.3436 102.779C61.6209 103.206 61.9566 103.592 62.3408 103.926C62.7397 104.285 62.6599 104.445 62.1713 104.285C61.6487 104.105 61.1862 103.784 60.835 103.358C60.5393 102.912 60.2761 102.445 60.0471 101.961C59.8368 101.431 59.6863 100.879 59.5984 100.316C59.5377 99.8526 59.5377 99.3833 59.5984 98.9199C59.671 98.7361 59.7016 98.5385 59.6881 98.3414C59.6881 98.142 59.5784 97.6833 58.6909 98.8301C58.6104 98.9692 58.4832 99.0752 58.3319 99.1293C58.1025 99.229 57.5341 99.1293 58.1125 98.8301C58.6909 98.5309 58.5413 98.152 58.0127 98.3714C57.4842 98.5908 56.8858 98.5209 57.1052 98.2617C57.3246 98.0024 57.6238 98.122 58.2122 97.9027C58.8006 97.6833 58.8803 97.2943 58.3518 97.2943C57.9366 97.3385 57.5181 97.2513 57.1551 97.045C56.826 96.8057 56.9357 96.6262 57.3944 96.6461C58.1112 96.604 58.8127 96.421 59.4588 96.1076C60.1369 95.7985 58.1823 95.7287 58.7008 95.4494C59.4744 95.2949 60.2708 95.2949 61.0444 95.4494C61.8123 95.4494 61.9718 95.2998 61.3834 95.0206C61.0738 94.8549 60.7353 94.7499 60.3862 94.7115C59.9175 94.6317 59.1097 94.5419 59.7579 94.4223Z" fill="white"/>
<path d="M89.5358 94.4223C87.9876 94.3992 86.441 94.5295 84.9185 94.8112C83.9223 94.9956 82.9604 95.332 82.0664 95.8085C81.5852 96.1276 81.152 96.5138 80.7799 96.9553C80.5682 97.3242 80.4711 97.7477 80.5007 98.1719C80.6623 98.8073 81.0095 99.3801 81.4979 99.8174C82.0863 100.36 82.7021 100.873 83.3429 101.353C83.8315 101.712 84.5396 102.171 84.9085 102.35C85.3563 102.586 85.8593 102.696 86.3645 102.67C86.9336 102.566 87.4681 102.322 87.9202 101.961C88.349 101.602 88.6083 101.523 88.4787 101.782C88.349 102.041 88.1296 102.47 87.9801 102.779C87.6996 103.204 87.3643 103.589 86.9828 103.926C86.5839 104.285 86.6637 104.445 87.1523 104.285C87.6749 104.105 88.1374 103.784 88.4887 103.358C88.7843 102.912 89.0476 102.445 89.2765 101.961C89.5017 101.434 89.6624 100.882 89.7552 100.316C89.8259 99.8533 89.8259 99.3826 89.7552 98.9199C89.6913 98.7341 89.6642 98.5376 89.6754 98.3415C89.6754 98.142 89.7751 97.6833 90.7225 98.8301C90.8017 98.9664 90.9247 99.0718 91.0715 99.1293C91.3109 99.229 91.8693 99.1293 91.3009 98.8301C90.7325 98.5309 90.8721 98.152 91.3906 98.3714C91.9092 98.5908 92.5275 98.521 92.3081 98.2617C92.0887 98.0024 91.7895 98.1221 91.2012 97.9027C90.6128 97.6833 90.523 97.2944 91.0616 97.2944C91.4767 97.3386 91.8953 97.2513 92.2583 97.045C92.5873 96.8057 92.4776 96.6262 92.0189 96.6461C91.2991 96.603 90.5946 96.4201 89.9446 96.1076C89.2765 95.7985 91.2311 95.7287 90.7125 95.4494C89.9358 95.2936 89.1358 95.2936 88.359 95.4494C87.5911 95.4494 87.4415 95.2999 88.0299 95.0206C88.3396 94.8549 88.6781 94.75 89.0272 94.7115C89.3762 94.6317 90.184 94.542 89.5358 94.4223Z" fill="white"/>
<path d="M78.0674 115.414C78.0674 115.414 77.5289 117.987 79.4635 119.154C77.2397 118.556 76.9505 114.716 76.9505 114.716C76.4617 116.944 76.5613 119.26 77.2397 121.438C75.2452 119.443 75.5244 115.255 75.5244 115.255L74.6468 122.874L73.7992 115.255C73.7992 115.255 74.0285 119.463 72.0839 121.438C72.7617 119.26 72.8579 116.943 72.3631 114.716C72.3631 114.716 72.0739 118.556 69.8501 119.154C71.7947 117.987 71.2562 115.414 71.2562 115.414C70.7541 115.949 70.1441 116.37 69.4666 116.65C68.7891 116.93 68.0598 117.063 67.327 117.04C70.0695 116.272 69.9598 115.414 71.1166 113.889C72.2778 114.267 73.4687 114.547 74.6767 114.726C75.8848 114.547 77.0757 114.267 78.2369 113.889C79.3937 115.414 79.2342 116.272 82.0265 117.04C81.2887 117.068 80.5536 116.937 79.8707 116.656C79.1877 116.376 78.5728 115.952 78.0674 115.414Z" fill="#5230D7"/>
<path d="M61.6627 98.7304C61.6627 98.9198 61.3535 98.0024 61.4732 97.4838C61.5202 97.2558 61.6124 97.0396 61.7443 96.8477C61.8761 96.6559 62.0451 96.4924 62.2411 96.3669C64.435 94.6915 67.4667 97.3641 67.6162 97.6434C67.7658 97.9226 67.9054 98.9697 67.7858 98.9398C67.6661 98.9099 67.0977 97.7531 66.7885 98.142C66.6858 98.5743 66.549 98.9977 66.3796 99.4085C66.2799 99.6379 65.3824 100.994 64.4749 101.114C61.8322 101.453 61.8322 98.5309 61.8322 98.5309C61.7921 98.5513 61.7565 98.5794 61.7274 98.6136C61.6983 98.6479 61.6763 98.6875 61.6627 98.7304V98.7304Z" fill="#5230D7"/>
<path d="M63.2563 97.5403C63.6859 97.3543 63.9472 97.0027 63.8399 96.755C63.7326 96.5074 63.2974 96.4575 62.8679 96.6436C62.4383 96.8296 62.177 97.1812 62.2842 97.4289C62.3915 97.6765 62.8267 97.7264 63.2563 97.5403Z" fill="white"/>
<path d="M62.2411 99.0594C62.3567 99.3495 62.5306 99.6127 62.752 99.8328C62.9734 100.053 63.2376 100.225 63.5283 100.339C63.819 100.453 64.1299 100.507 64.442 100.496C64.754 100.485 65.0605 100.41 65.3425 100.276C64.7461 100.318 64.1482 100.219 63.5973 99.9869C63.0842 99.7781 62.6217 99.4619 62.2411 99.0594V99.0594Z" fill="white"/>
<path d="M87.6809 98.7304C87.6809 98.9198 87.99 98.0024 87.8704 97.4838C87.8233 97.2558 87.7312 97.0396 87.5993 96.8477C87.4674 96.6559 87.2985 96.4924 87.1025 96.3669C84.9085 94.6915 81.8769 97.3641 81.7173 97.6434C81.5578 97.9226 81.4381 98.9697 81.5578 98.9398C81.6774 98.9099 82.2459 97.7531 82.555 98.142C82.6578 98.5743 82.7945 98.9977 82.9639 99.4085C83.0636 99.6379 83.9611 100.994 84.8686 101.114C87.4415 101.433 87.4615 98.511 87.4615 98.511C87.5129 98.5274 87.5596 98.5559 87.5978 98.5941C87.6359 98.6323 87.6644 98.679 87.6809 98.7304V98.7304Z" fill="#5230D7"/>
<path d="M87.1331 97.4331C87.2404 97.1854 86.9791 96.8338 86.5495 96.6478C86.12 96.4617 85.6848 96.5116 85.5775 96.7592C85.4702 97.0069 85.7315 97.3585 86.1611 97.5446C86.5907 97.7306 87.0259 97.6807 87.1331 97.4331Z" fill="white"/>
<path d="M87.1823 99.0594C87.0772 99.349 86.9104 99.6123 86.6934 99.831C86.4764 100.05 86.2145 100.219 85.9257 100.326C85.6373 100.468 85.32 100.543 84.9983 100.543C84.6766 100.543 84.3592 100.468 84.0708 100.326C84.6466 100.36 85.2229 100.269 85.76 100.059C86.2972 99.849 86.7824 99.525 87.1823 99.1093V99.0594Z" fill="white"/>
</g>
<path d="M52.3384 18.382C52.026 17.1832 51.4388 16.0735 50.6231 15.141H56.1479C55.4199 15.9687 55.1506 17.0657 55.8088 18.6912L58.2221 25.3628L60.466 19.2297C61.1541 17.3748 60.8748 15.8391 59.8277 15.141H63.1386C62.2658 16.073 61.6236 17.1968 61.2638 18.4219L57.7136 28.1551H55.9285L52.3384 18.382Z" fill="#1C171E"/>
<path d="M66.1303 26.9883C65.8585 27.4044 65.4895 27.748 65.0551 27.9895C64.6207 28.231 64.1341 28.3632 63.6372 28.3745C63.3861 28.4074 63.1308 28.3859 62.8887 28.3115C62.6466 28.237 62.4234 28.1113 62.2342 27.9429C62.045 27.7745 61.8942 27.5674 61.7922 27.3355C61.6901 27.1037 61.6391 26.8527 61.6427 26.5994C61.6427 24.6747 64.066 23.847 66.0805 23.4182V22.3312C66.0805 21.2841 65.6517 20.8054 64.3752 20.8054C63.5837 20.8153 62.8015 20.9778 62.0715 21.2841L61.9918 21.1444C62.4892 20.5169 63.1232 20.0111 63.8455 19.6655C64.5679 19.3199 65.3595 19.1435 66.1603 19.1499C68.0849 19.1499 68.9326 20.0674 68.9326 21.4735V26.021C68.9187 26.1265 68.9287 26.2337 68.9619 26.3348C68.9951 26.4359 69.0506 26.5282 69.1244 26.6048C69.1982 26.6815 69.2883 26.7405 69.388 26.7776C69.4878 26.8146 69.5946 26.8287 69.7005 26.8188C69.9399 26.8116 70.1734 26.7429 70.3786 26.6193V26.6891C70.2001 27.1746 69.8745 27.5921 69.4472 27.8835C69.0199 28.175 68.5123 28.3257 67.9952 28.3147C67.5756 28.3619 67.1533 28.2527 66.8093 28.0079C66.4652 27.7632 66.2234 27.4002 66.1303 26.9883V26.9883ZM66.0705 26.6493V23.7971C64.814 24.1362 64.076 24.8442 64.076 25.672C64.065 25.8289 64.0884 25.9863 64.1447 26.1332C64.201 26.28 64.2888 26.4128 64.4019 26.5221C64.515 26.6314 64.6507 26.7146 64.7994 26.7659C64.9482 26.8171 65.1063 26.8352 65.2627 26.8188C65.5422 26.8336 65.8206 26.7752 66.0705 26.6493Z" fill="#1C171E"/>
<path d="M70.9171 28.0952C71.2472 27.0993 71.3958 26.0522 71.3559 25.0038V22.9395C71.4461 21.9152 71.127 20.8969 70.4684 20.1073V20.1073L74.1283 19.11V20.8851H74.2081C74.5119 20.3629 74.949 19.9307 75.4746 19.6328C76.0003 19.3349 76.5957 19.1821 77.1998 19.1898C77.5409 19.1559 77.8854 19.1947 78.2104 19.3037C78.5355 19.4128 78.8337 19.5895 79.0853 19.8223C79.337 20.0551 79.5364 20.3387 79.6703 20.6543C79.8043 20.9698 79.8698 21.3102 79.8625 21.653V24.9339C79.8203 25.985 79.9655 27.0352 80.2913 28.0354V28.0853H76.5616C76.8816 27.0941 77.0267 26.0547 76.9904 25.0137V21.8126C77.014 21.6444 77.0002 21.4731 76.9502 21.3109C76.9001 21.1486 76.815 20.9994 76.7008 20.8737C76.5865 20.7481 76.4461 20.6491 76.2893 20.5839C76.1325 20.5186 75.9633 20.4887 75.7937 20.4962C75.4832 20.5088 75.1799 20.5939 74.908 20.7445C74.6362 20.8951 74.4033 21.1072 74.228 21.3638V24.9339C74.1893 25.9816 74.3344 27.0279 74.6568 28.0254V28.0254L70.9171 28.0952Z" fill="#1C171E"/>
<path d="M81.8869 25.9312V19.848H80.8896V19.6785L84.5395 17.3948H84.7689V19.4491H86.8831V19.8281H84.7689V25.8116C84.7689 26.8786 85.3274 27.2177 86.0354 27.2177C86.3912 27.2264 86.7405 27.1216 87.0327 26.9185L87.0925 26.9783C86.7948 27.4303 86.3843 27.7969 85.9016 28.0417C85.4189 28.2866 84.8807 28.4013 84.3401 28.3745C84.0088 28.4164 83.6723 28.3822 83.3563 28.2744C83.0402 28.1666 82.753 27.9881 82.5164 27.7524C82.2798 27.5168 82.1001 27.2302 81.991 26.9146C81.8819 26.599 81.8463 26.2627 81.8869 25.9312V25.9312Z" fill="#1C171E"/>
<path d="M92.1087 26.9883C91.839 27.4042 91.4718 27.7479 91.0391 27.9895C90.6063 28.2311 90.121 28.3632 89.6255 28.3745C89.3744 28.4074 89.1191 28.3859 88.877 28.3114C88.6349 28.237 88.4117 28.1113 88.2225 27.9429C88.0333 27.7745 87.8825 27.5673 87.7805 27.3355C87.6784 27.1037 87.6274 26.8526 87.631 26.5994C87.631 24.6747 90.0543 23.847 92.0588 23.4181V22.3311C92.0588 21.284 91.63 20.8053 90.3635 20.8053C89.572 20.8152 88.7898 20.9778 88.0598 21.284L87.9801 21.1644C88.476 20.5351 89.1097 20.0281 89.8323 19.6823C90.555 19.3365 91.3474 19.1612 92.1486 19.1699C94.0732 19.1699 94.9109 20.0774 94.9109 21.4835V26.0409C94.897 26.1464 94.907 26.2536 94.9402 26.3547C94.9734 26.4558 95.029 26.5481 95.1027 26.6247C95.1765 26.7014 95.2666 26.7604 95.3663 26.7975C95.4661 26.8345 95.5729 26.8486 95.6788 26.8387C95.9231 26.8336 96.1612 26.7611 96.3669 26.6293V26.6991C96.1901 27.1864 95.8651 27.6061 95.4377 27.8994C95.0103 28.1927 94.5018 28.3449 93.9835 28.3346C93.5614 28.3726 93.1398 28.2575 92.7955 28.0103C92.4513 27.7632 92.2075 27.4004 92.1087 26.9883ZM92.0488 26.6492V23.7971C90.7923 24.1362 90.1142 24.8442 90.1142 25.6719C90.1031 25.8288 90.1266 25.9863 90.1829 26.1331C90.2392 26.28 90.327 26.4128 90.4401 26.5221C90.5532 26.6314 90.6889 26.7146 90.8376 26.7659C90.9863 26.8171 91.1445 26.8352 91.3009 26.8188C91.5604 26.8251 91.8174 26.7669 92.0488 26.6492V26.6492Z" fill="#1C171E"/>
<path d="M100.354 24.6846L100.015 25.632C110.587 31.5651 118.877 40.8567 123.57 52.0345C128.264 63.2123 129.093 75.6368 125.926 87.3392C122.76 99.0415 115.778 109.352 106.088 116.638C96.3975 123.923 84.5532 127.766 72.4317 127.557C60.3102 127.349 48.6049 123.101 39.1707 115.488C29.7366 107.874 23.1133 97.3291 20.3503 85.5249C17.5874 73.7206 18.843 61.3319 23.918 50.322C28.993 39.3121 37.5972 30.3108 48.3671 24.7445L48.0181 23.8071C36.9659 29.4947 28.1463 38.7321 22.9759 50.0356C17.8056 61.339 16.5848 74.0522 19.5095 86.133C22.4342 98.2138 29.3347 108.961 39.1025 116.648C48.8703 124.335 60.9383 128.515 73.3681 128.518V128.518C85.643 128.524 97.5722 124.453 107.284 116.947C116.996 109.44 123.94 98.9207 127.028 87.0405C130.115 75.1603 129.171 62.5912 124.344 51.3056C119.516 40.02 111.078 30.6565 100.354 24.6846V24.6846Z" fill="#63676D"/>
<path d="M50.6642 63V55.632H43.6562V63H40.1282V45.912H43.6562V52.608H50.6642V45.912H54.1922V63H50.6642ZM58.1282 63V45.912H61.6562V63H58.1282ZM72.0373 45.912C74.0693 45.912 75.6213 46.408 76.6933 47.4C77.7653 48.392 78.3013 49.736 78.3013 51.432C78.3013 53.128 77.7653 54.472 76.6933 55.464C75.6213 56.456 74.0693 56.952 72.0373 56.952H69.1093V63H65.5813V45.912H72.0373ZM69.1093 54.024H71.5573C73.6533 54.024 74.7013 53.16 74.7013 51.432C74.7013 49.704 73.6533 48.84 71.5573 48.84H69.1093V54.024ZM82.4362 58.824L81.0922 63H77.3962L83.3242 45.912H88.0762L94.0042 63H90.3082L88.9882 58.824H82.4362ZM87.6682 54.672C86.8842 52.176 86.2362 49.952 85.7242 48H85.6762C85.0842 50.24 84.4442 52.464 83.7562 54.672L83.3962 55.8H88.0282L87.6682 54.672ZM99.194 58.824L97.85 63H94.154L100.082 45.912H104.834L110.762 63H107.066L105.746 58.824H99.194ZM104.426 54.672C103.642 52.176 102.994 49.952 102.482 48H102.434C101.842 50.24 101.202 52.464 100.514 54.672L100.154 55.8H104.786L104.426 54.672Z" fill="#1C171E"/>
</svg>
