<svg width="19" height="15" viewBox="0 0 19 15" fill="none" xmlns="http://www.w3.org/2000/svg">
<path d="M17.484 1.76289L19 0.316579V0H13.7481L10.0051 9.29053L5.74671 0H0.239875V0.316579L2.01083 2.44263C2.18342 2.59974 2.27367 2.82947 2.25071 3.06079V11.4158C2.30533 11.7166 2.20717 12.0261 1.995 12.2447L0 14.6558V14.9684H5.65646V14.6518L3.66146 12.2447C3.44533 12.0253 3.34321 11.7213 3.38675 11.4158V4.18895L8.35208 14.9724H8.92921L13.1987 4.18895V12.7792C13.1987 13.0058 13.1987 13.0524 13.0498 13.2008L11.514 14.6826V15H18.9652V14.6834L17.4848 13.2379C17.3549 13.14 17.2876 12.9758 17.3153 12.8163V2.18447C17.2876 2.02421 17.3541 1.86 17.484 1.76289Z" fill="#3E343F"/>
</svg>
