<svg width="40" height="40" viewBox="0 0 40 40" fill="none" xmlns="http://www.w3.org/2000/svg">
<rect width="40" height="40" rx="20" fill="#9867FF"/>
<path d="M18 21C18.4295 21.5741 18.9774 22.0491 19.6066 22.3929C20.2357 22.7367 20.9315 22.9411 21.6467 22.9923C22.3618 23.0435 23.0796 22.9403 23.7513 22.6897C24.4231 22.4392 25.0331 22.047 25.54 21.54L28.54 18.54C29.4508 17.597 29.9548 16.3339 29.9434 15.023C29.932 13.712 29.4061 12.4579 28.4791 11.5309C27.5521 10.6038 26.298 10.078 24.987 10.0666C23.676 10.0552 22.413 10.5592 21.47 11.47L19.75 13.18" stroke="white" stroke-width="2" stroke-linecap="round" stroke-linejoin="round"/>
<path d="M22.0002 19C21.5707 18.4259 21.0228 17.9508 20.3936 17.607C19.7645 17.2633 19.0687 17.0589 18.3535 17.0076C17.6384 16.9564 16.9206 17.0596 16.2489 17.3102C15.5771 17.5608 14.9671 17.9529 14.4602 18.46L11.4602 21.46C10.5494 22.403 10.0454 23.666 10.0568 24.977C10.0682 26.288 10.5941 27.542 11.5211 28.4691C12.4481 29.3961 13.7022 29.922 15.0132 29.9334C16.3242 29.9447 17.5872 29.4408 18.5302 28.53L20.2402 26.82" stroke="white" stroke-width="2" stroke-linecap="round" stroke-linejoin="round"/>
</svg>
